<svg width="170" height="101" viewBox="0 0 170 101" fill="none" xmlns="http://www.w3.org/2000/svg">
<rect x="2" width="168" height="100" fill="white"/>
<path d="M1 0.383301V100.485H169.567V0.383301H1ZM19.9443 98.8939H2.59132V83.1322H19.9443V98.8939ZM19.9443 82.6775H2.59132V66.9158H19.9443V82.6775ZM19.9443 66.4233H2.59132V51.192H19.9443V66.4233ZM19.9443 49.6765H2.59132V34.4452H19.9443V49.6765ZM19.9443 33.9906H2.59132V18.191H19.9443V33.9906ZM19.9443 17.7363H2.59132V1.97463H19.9443V17.7363ZM38.434 98.8939H20.399V83.1322H38.434V98.8939ZM38.434 82.6775H20.399V66.9158H38.434V82.6775ZM38.434 66.4233H20.399V51.192H38.434V66.4233ZM38.434 49.6765H20.399V34.4452H38.434V49.6765ZM38.434 33.9906H20.399V18.191H38.434V33.9906ZM38.434 17.7363H20.399V1.97463H38.434V17.7363ZM56.9616 98.8939H38.8887V83.1322H56.9237V98.8939H56.9616ZM56.9616 82.6775H38.8887V66.9158H56.9237V82.6775H56.9616ZM56.9616 66.4233H38.8887V51.192H56.9237V66.4233H56.9616ZM56.9616 49.6765H38.8887V34.4452H56.9237V49.6765H56.9616ZM56.9616 33.9906H38.8887V18.191H56.9237V33.9906H56.9616ZM56.9616 17.7363H38.8887V1.97463H56.9237V17.7363H56.9616ZM75.4513 98.8939H57.4162V83.1322H75.4513V98.8939ZM75.4513 82.6775H57.4162V66.9158H75.4513V82.6775ZM75.4513 66.4233H57.4162V51.192H75.4513V66.4233ZM75.4513 49.6765H57.4162V34.4452H75.4513V49.6765ZM75.4513 33.9906H57.4162V18.191H75.4513V33.9906ZM75.4513 17.7363H57.4162V1.97463H75.4513V17.7363ZM93.9409 98.8939H75.9059V83.1322H93.9409V98.8939ZM93.9409 82.6775H75.9059V66.9158H93.9409V82.6775ZM93.9409 66.4233H75.9059V51.192H93.9409V66.4233ZM93.9409 49.6765H75.9059V34.4452H93.9409V49.6765ZM93.9409 33.9906H75.9059V18.191H93.9409V33.9906ZM93.9409 17.7363H75.9059V1.97463H93.9409V17.7363ZM112.468 98.8939H94.4335V83.1322H112.468V98.8939ZM112.468 82.6775H94.4335V66.9158H112.468V82.6775ZM112.468 66.4233H94.4335V51.192H112.468V66.4233ZM112.468 49.6765H94.4335V34.4452H112.468V49.6765ZM112.468 33.9906H94.4335V18.191H112.468V33.9906ZM112.468 17.7363H94.4335V1.97463H112.468V17.7363ZM130.958 98.8939H112.923V83.1322H130.958V98.8939ZM130.958 82.6775H112.923V66.9158H130.958V82.6775ZM130.958 66.4233H112.923V51.192H130.958V66.4233ZM130.958 49.6765H112.923V34.4452H130.958V49.6765ZM130.958 33.9906H112.923V18.191H130.958V33.9906ZM130.958 17.7363H112.923V1.97463H130.958V17.7363ZM149.448 98.8939H131.413V83.1322H149.448V98.8939ZM149.448 82.6775H131.413V66.9158H149.448V82.6775ZM149.448 66.4233H131.413V51.192H149.448V66.4233ZM149.448 49.6765H131.413V34.4452H149.448V49.6765ZM149.448 33.9906H131.413V18.191H149.448V33.9906ZM149.448 17.7363H131.413V1.97463H149.448V17.7363ZM167.975 98.8939H149.903V83.1322H167.938V98.8939H167.975ZM167.975 82.6775H149.903V66.9158H167.938V82.6775H167.975ZM167.975 66.4233H149.903V51.192H167.938V66.4233H167.975ZM167.975 49.6765H149.903V34.4452H167.938V49.6765H167.975ZM167.975 33.9906H149.903V18.191H167.938V33.9906H167.975ZM167.975 17.7363H149.903V1.97463H167.938V17.7363H167.975Z" fill="#EDEAD7" stroke="#EDEAD7" stroke-width="0.757774" stroke-miterlimit="10"/>
<path d="M10.7752 9.59101C10.7752 10.5003 10.6237 11.2202 10.2827 11.7128C9.94168 12.2053 9.44913 12.4327 8.76713 12.4327C8.12303 12.4327 7.63047 12.2053 7.28947 11.7128C6.94848 11.2581 6.75903 10.5382 6.75903 9.66679V8.49224C6.75903 7.58291 6.94848 6.86303 7.28947 6.40836C7.63047 5.91581 8.12303 5.68848 8.80502 5.68848C9.44913 5.68848 9.94168 5.91581 10.2827 6.37047C10.6237 6.82514 10.8131 7.50713 10.8131 8.41646V9.59101H10.7752ZM10.2448 8.41646C10.2448 7.65869 10.1311 7.09036 9.8659 6.71147C9.63857 6.33258 9.25969 6.14314 8.76713 6.14314C8.27458 6.14314 7.89569 6.33258 7.66836 6.71147C7.40314 7.09036 7.28947 7.65869 7.28947 8.37857V9.66679C7.28947 10.4246 7.40314 10.9929 7.66836 11.3718C7.93358 11.7507 8.27458 11.978 8.76713 11.978C9.25969 11.978 9.60068 11.7886 9.8659 11.4097C10.1311 11.0308 10.2448 10.4625 10.2448 9.70468V8.41646Z" fill="black"/>
<path d="M15.1324 5.68799V6.14265H15.0567C14.261 6.14265 13.6548 6.36998 13.2001 6.82465C12.7455 7.27931 12.4802 7.92342 12.4424 8.75697C12.6318 8.49175 12.8591 8.30231 13.1243 8.18864C13.3896 8.03709 13.7306 7.9992 14.0716 7.9992C14.6399 7.9992 15.0946 8.18864 15.4356 8.60542C15.7766 9.02219 15.966 9.51474 15.966 10.1589C15.966 10.5756 15.8902 10.9545 15.7387 11.3334C15.5871 11.7123 15.3598 11.9396 15.0567 12.1291C14.7536 12.3185 14.4126 12.4322 14.0337 12.4322C13.3896 12.4322 12.897 12.2048 12.4802 11.7502C12.1014 11.2955 11.874 10.6893 11.874 9.96941V9.43897C11.874 8.26442 12.1392 7.35509 12.6697 6.71098C13.2001 6.06688 13.9579 5.72588 14.943 5.72588H15.1324V5.68799ZM14.0337 8.45386C13.6927 8.45386 13.3517 8.56753 13.0865 8.75697C12.7834 8.94641 12.5939 9.21164 12.4802 9.51474V9.96941C12.4802 10.5377 12.6318 10.9924 12.9349 11.3713C13.238 11.7502 13.6169 11.9017 14.0716 11.9017C14.4883 11.9017 14.8293 11.7502 15.0946 11.4092C15.3598 11.0682 15.4734 10.6514 15.4734 10.1589C15.4734 9.62841 15.3598 9.21164 15.0946 8.90853C14.8293 8.64331 14.4505 8.45386 14.0337 8.45386Z" fill="black"/>
<path d="M27.3325 28.687H26.7642V22.7385L24.9834 23.4205V22.9279L27.2188 22.0944H27.2946V28.687H27.3325Z" fill="black"/>
<path d="M33.3189 25.6175C33.1294 25.8828 32.9021 26.1101 32.599 26.2616C32.2959 26.4132 31.9928 26.489 31.6518 26.489C31.2729 26.489 30.9319 26.3753 30.6667 26.1859C30.3636 25.9964 30.1741 25.7312 29.9847 25.3902C29.8331 25.0492 29.7574 24.6703 29.7574 24.2914C29.7574 23.8747 29.8331 23.4579 30.0226 23.1169C30.1741 22.7759 30.4394 22.4728 30.7046 22.2833C31.0077 22.0939 31.3487 21.9802 31.7276 21.9802C32.3717 21.9802 32.9021 22.2076 33.281 22.6622C33.6599 23.1169 33.8493 23.7989 33.8493 24.6324V25.125C33.8493 26.2995 33.5841 27.2089 33.0916 27.8151C32.599 28.4213 31.8033 28.7244 30.7803 28.7244H30.6667V28.2697H30.8561C31.6518 28.2697 32.258 28.0424 32.6369 27.5878C33.0916 27.171 33.281 26.489 33.3189 25.6175ZM31.7276 26.0343C32.1065 26.0343 32.4096 25.9206 32.7127 25.6933C33.0158 25.466 33.2052 25.2008 33.3189 24.8598V24.5567C33.3189 23.8747 33.1673 23.3821 32.9021 23.0032C32.6369 22.6243 32.258 22.4349 31.7655 22.4349C31.3487 22.4349 30.9698 22.6243 30.7046 22.9653C30.4394 23.3063 30.2878 23.761 30.2878 24.2535C30.2878 24.7461 30.4015 25.1629 30.6667 25.5039C30.9698 25.8828 31.3108 26.0343 31.7276 26.0343Z" fill="black"/>
<path d="M10.7373 42.2125C10.7373 43.1218 10.5857 43.8417 10.2447 44.3342C9.90375 44.8268 9.4112 45.0541 8.7292 45.0541C8.08509 45.0541 7.59254 44.8268 7.25154 44.3342C6.91054 43.8796 6.7211 43.1597 6.7211 42.2882V41.1137C6.7211 40.2044 6.91054 39.4845 7.25154 39.0298C7.59254 38.5373 8.08509 38.3099 8.76709 38.3099C9.4112 38.3099 9.90375 38.5373 10.2447 38.9919C10.5857 39.4466 10.7752 40.1286 10.7752 41.0379V42.2125H10.7373ZM10.2069 41C10.2069 40.2423 10.0932 39.6739 9.82797 39.295C9.60064 38.9162 9.22175 38.7267 8.7292 38.7267C8.23665 38.7267 7.85776 38.9162 7.63043 39.295C7.36521 39.6739 7.25154 40.2423 7.25154 40.9621V42.2504C7.25154 43.0081 7.36521 43.5765 7.63043 43.9554C7.89565 44.3342 8.23665 44.5616 8.7292 44.5616C9.22175 44.5616 9.56275 44.3721 9.82797 43.9932C10.0932 43.6144 10.2069 43.046 10.2069 42.2882V41Z" fill="black"/>
<path d="M16.0418 44.9407H11.9119V44.5239L14.1474 41.9854C14.5262 41.5686 14.7915 41.1897 14.943 40.9245C15.0946 40.6592 15.1704 40.3561 15.1704 40.0909C15.1704 39.6741 15.0567 39.3331 14.7915 39.1058C14.5641 38.8785 14.2231 38.7269 13.7685 38.7269C13.3138 38.7269 12.9728 38.8785 12.7076 39.1437C12.4424 39.4089 12.2908 39.7878 12.2908 40.2425H11.7604C11.7604 39.8636 11.8362 39.5226 12.0256 39.2195C12.1772 38.9164 12.4424 38.689 12.7455 38.4996C13.0486 38.3102 13.3896 38.2344 13.8064 38.2344C14.4126 38.2344 14.8672 38.3859 15.2082 38.7269C15.5492 39.0679 15.7008 39.4847 15.7008 40.0151C15.7008 40.3183 15.5871 40.6593 15.3977 41.0381C15.2082 41.417 14.8672 41.8717 14.3747 42.4021L12.556 44.486H16.0039V44.9407H16.0418Z" fill="black"/>
<path d="M27.2188 44.9407H26.6884V39.0301L24.9076 39.7121V39.2195L27.143 38.386H27.2188V44.9407Z" fill="black"/>
<path d="M30.2121 41.5687L30.5152 38.3481H33.8115V38.8407H30.9698L30.7425 41.0761C31.0835 40.8488 31.5003 40.6972 31.9928 40.6972C32.599 40.6972 33.0537 40.8867 33.3947 41.2656C33.7357 41.6445 33.9251 42.1749 33.9251 42.819C33.9251 43.501 33.7357 44.0314 33.3947 44.4482C33.0537 44.8271 32.5612 45.0166 31.9549 45.0166C31.3866 45.0166 30.9319 44.865 30.5531 44.524C30.2121 44.2209 29.9847 43.7662 29.9468 43.1979H30.4773C30.5152 43.6526 30.6667 43.9936 30.9319 44.2209C31.1972 44.4482 31.5382 44.5619 31.9549 44.5619C32.4096 44.5619 32.7885 44.4103 33.0158 44.1072C33.2432 43.8041 33.3568 43.3873 33.3568 42.819C33.3568 42.3265 33.2053 41.9476 32.94 41.6445C32.6748 41.3414 32.2959 41.1898 31.8413 41.1898C31.5761 41.1898 31.3487 41.2277 31.1593 41.3035C30.9698 41.3792 30.7804 41.4929 30.5531 41.6823L30.2121 41.5687Z" fill="black"/>
<path d="M47.603 44.9404H43.4731V44.5237L45.7086 41.9851C46.0874 41.5683 46.3527 41.1894 46.5042 40.9242C46.6558 40.659 46.7315 40.3559 46.7315 40.0907C46.7315 39.6739 46.6179 39.3329 46.3527 39.1056C46.1253 38.8782 45.7843 38.7267 45.3297 38.7267C44.875 38.7267 44.534 38.8782 44.2688 39.1435C44.0036 39.4087 43.852 39.7876 43.852 40.2422H43.3216C43.3216 39.8633 43.3973 39.5223 43.5868 39.2192C43.7383 38.9161 44.0036 38.6888 44.3067 38.4994C44.6098 38.3099 44.9508 38.2341 45.3676 38.2341C45.9738 38.2341 46.4284 38.3857 46.7694 38.7267C47.1104 39.0677 47.262 39.4845 47.262 40.0149C47.262 40.318 47.1483 40.659 46.9589 41.0379C46.7694 41.4168 46.4284 41.8714 45.9359 42.4019L44.1172 44.4858H47.5651V44.9404H47.603Z" fill="black"/>
<path d="M51.9604 41.9094C51.771 42.1746 51.5436 42.402 51.2405 42.5535C50.9374 42.7051 50.6343 42.7808 50.2933 42.7808C49.9144 42.7808 49.5734 42.6672 49.3082 42.4777C49.0051 42.2883 48.8156 42.0231 48.6262 41.6821C48.4746 41.3411 48.3989 40.9622 48.3989 40.5833C48.3989 40.1665 48.4746 39.7498 48.6641 39.4088C48.8156 39.0678 49.0809 38.7646 49.3461 38.5752C49.6492 38.3858 49.9902 38.2721 50.3691 38.2721C51.0132 38.2721 51.5436 38.4994 51.9225 38.9541C52.3014 39.4088 52.4908 40.0908 52.4908 40.9243V41.4169C52.4908 42.5914 52.2256 43.5007 51.7331 44.107C51.2405 44.7132 50.4449 45.0163 49.4219 45.0163H49.3082V44.5616H49.4976C50.2933 44.5616 50.8995 44.3343 51.2784 43.8796C51.7331 43.425 51.9604 42.743 51.9604 41.9094ZM50.407 42.3262C50.7858 42.3262 51.089 42.2125 51.3921 41.9852C51.6952 41.7579 51.8846 41.4926 51.9983 41.1516V40.8485C51.9983 40.1665 51.8467 39.674 51.5815 39.2951C51.3163 38.9162 50.9374 38.7268 50.4449 38.7268C50.0281 38.7268 49.6492 38.9162 49.384 39.2572C49.1187 39.5982 48.9672 40.0529 48.9672 40.5454C48.9672 41.038 49.0809 41.4547 49.3461 41.7957C49.6492 42.1367 49.9902 42.3262 50.407 42.3262Z" fill="black"/>
<path d="M99.2451 42.0991L99.5482 38.8785H102.845V39.3711H100.003L99.7756 41.6065C100.117 41.3792 100.533 41.2276 101.026 41.2276C101.632 41.2276 102.087 41.4171 102.428 41.796C102.769 42.1749 102.958 42.7053 102.958 43.3494C102.958 44.0314 102.769 44.5618 102.428 44.9786C102.087 45.3575 101.594 45.5469 100.988 45.5469C100.42 45.5469 99.965 45.3954 99.5861 45.0544C99.2451 44.7513 99.0178 44.2966 98.9799 43.7283H99.5104C99.5482 44.183 99.6998 44.524 99.965 44.7513C100.23 44.9786 100.571 45.0923 100.988 45.0923C101.443 45.0923 101.822 44.9407 102.049 44.6376C102.276 44.3345 102.39 43.9177 102.39 43.3494C102.39 42.8569 102.238 42.478 101.973 42.1749C101.708 41.8717 101.329 41.7202 100.874 41.7202C100.609 41.7202 100.382 41.7581 100.192 41.8339C100.003 41.9096 99.8135 42.0233 99.5861 42.2127L99.2451 42.0991Z" fill="black"/>
<path d="M104.36 42.0987L104.663 38.8782H107.96V39.3707H105.118L104.891 41.6062C105.232 41.3788 105.648 41.2273 106.141 41.2273C106.747 41.2273 107.202 41.4167 107.543 41.7956C107.884 42.1745 108.073 42.7049 108.073 43.349C108.073 44.031 107.884 44.5615 107.543 44.9783C107.202 45.3571 106.709 45.5466 106.103 45.5466C105.535 45.5466 105.08 45.395 104.701 45.054C104.36 44.7509 104.133 44.2963 104.095 43.7279H104.625C104.663 44.1826 104.815 44.5236 105.08 44.7509C105.345 44.9783 105.686 45.0919 106.103 45.0919C106.558 45.0919 106.937 44.9404 107.164 44.6373C107.391 44.3341 107.505 43.9174 107.505 43.349C107.505 42.8565 107.353 42.4776 107.088 42.1745C106.823 41.8714 106.444 41.7198 105.989 41.7198C105.724 41.7198 105.497 41.7577 105.307 41.8335C105.118 41.9093 104.929 42.0229 104.701 42.2124L104.36 42.0987Z" fill="black"/>
<path d="M158.314 40.0529C158.314 40.3939 158.2 40.697 158.011 40.9622C157.821 41.2274 157.556 41.4169 157.215 41.5684C157.594 41.6821 157.897 41.9094 158.124 42.2125C158.352 42.5156 158.465 42.8187 158.465 43.1976C158.465 43.766 158.276 44.2206 157.897 44.5237C157.518 44.8647 157.025 45.0163 156.381 45.0163C155.737 45.0163 155.245 44.8647 154.866 44.5237C154.487 44.1827 154.297 43.766 154.297 43.1976C154.297 42.8187 154.411 42.4777 154.638 42.2125C154.866 41.9094 155.169 41.72 155.548 41.5684C155.207 41.4547 154.979 41.2274 154.752 40.9622C154.563 40.697 154.449 40.3939 154.449 40.0529C154.449 39.5224 154.638 39.0678 154.979 38.7646C155.32 38.4237 155.813 38.2721 156.381 38.2721C156.95 38.2721 157.442 38.4237 157.783 38.7646C158.124 39.0678 158.314 39.5224 158.314 40.0529ZM157.935 43.1976C157.935 42.7808 157.783 42.4399 157.48 42.1746C157.177 41.9094 156.798 41.7957 156.343 41.7957C155.889 41.7957 155.51 41.9094 155.245 42.1746C154.942 42.4399 154.828 42.7808 154.828 43.1976C154.828 43.6144 154.979 43.9554 155.245 44.1827C155.51 44.4479 155.889 44.5616 156.381 44.5616C156.836 44.5616 157.215 44.4479 157.518 44.1827C157.783 43.9554 157.935 43.6144 157.935 43.1976ZM157.745 40.0529C157.745 39.674 157.632 39.3709 157.366 39.1056C157.101 38.8404 156.76 38.7268 156.381 38.7268C155.965 38.7268 155.624 38.8404 155.396 39.1056C155.131 39.333 155.017 39.674 155.017 40.0529C155.017 40.4317 155.131 40.7349 155.396 41.0001C155.661 41.2274 156.002 41.3411 156.381 41.3411C156.798 41.3411 157.101 41.2274 157.366 41.0001C157.632 40.7349 157.745 40.4317 157.745 40.0529Z" fill="black"/>
<path d="M162.747 38.3097V38.7644H162.671C161.875 38.7644 161.269 38.9917 160.814 39.4464C160.36 39.901 160.095 40.5451 160.057 41.3787C160.246 41.1135 160.473 40.924 160.739 40.8103C161.004 40.6588 161.345 40.6209 161.686 40.6209C162.254 40.6209 162.709 40.8103 163.05 41.2271C163.391 41.6439 163.58 42.1365 163.58 42.7806C163.58 43.1973 163.504 43.5762 163.353 43.9551C163.201 44.334 162.974 44.5613 162.671 44.7508C162.368 44.9402 162.027 45.0539 161.648 45.0539C161.004 45.0539 160.511 44.8265 160.095 44.3719C159.716 43.9172 159.488 43.311 159.488 42.5911V42.0607C159.488 40.8861 159.754 39.9768 160.284 39.3327C160.814 38.6886 161.572 38.3476 162.557 38.3476H162.747V38.3097ZM161.61 41.0756C161.269 41.0756 160.928 41.1892 160.663 41.3787C160.36 41.5681 160.17 41.8333 160.057 42.1364V42.5911C160.057 43.1594 160.208 43.6141 160.511 43.993C160.814 44.3719 161.193 44.5234 161.648 44.5234C162.065 44.5234 162.406 44.3719 162.671 44.0309C162.936 43.6899 163.05 43.2731 163.05 42.7806C163.05 42.2501 162.936 41.8333 162.671 41.5302C162.406 41.2271 162.065 41.0756 161.61 41.0756Z" fill="black"/>
<path d="M158.276 57.4437C158.276 57.7847 158.162 58.0878 157.973 58.3531C157.783 58.6183 157.518 58.8077 157.177 58.9593C157.556 59.0729 157.859 59.3003 158.086 59.6034C158.314 59.9065 158.427 60.2096 158.427 60.5885C158.427 61.1568 158.238 61.6115 157.859 61.9146C157.48 62.2556 156.988 62.4071 156.344 62.4071C155.699 62.4071 155.207 62.2556 154.828 61.9146C154.449 61.5736 154.26 61.1568 154.26 60.5885C154.26 60.2096 154.373 59.8686 154.601 59.6034C154.828 59.3003 155.131 59.1108 155.51 58.9593C155.169 58.8456 154.942 58.6183 154.714 58.3531C154.487 58.0878 154.411 57.7847 154.411 57.4437C154.411 56.9133 154.601 56.4586 154.942 56.1555C155.283 55.8145 155.775 55.663 156.344 55.663C156.912 55.663 157.404 55.8145 157.745 56.1555C158.086 56.4965 158.276 56.9133 158.276 57.4437ZM157.897 60.5885C157.897 60.1717 157.745 59.8307 157.442 59.5655C157.139 59.3003 156.76 59.1866 156.306 59.1866C155.851 59.1866 155.472 59.3003 155.207 59.5655C154.904 59.8307 154.79 60.1717 154.79 60.5885C154.79 61.0053 154.942 61.3463 155.207 61.5736C155.472 61.8388 155.851 61.9525 156.344 61.9525C156.798 61.9525 157.177 61.8388 157.48 61.5736C157.745 61.3463 157.897 61.0432 157.897 60.5885ZM157.708 57.4437C157.708 57.0648 157.594 56.7617 157.329 56.4965C157.063 56.2313 156.722 56.1176 156.344 56.1176C155.927 56.1176 155.586 56.2313 155.358 56.4965C155.093 56.7239 154.98 57.0648 154.98 57.4437C154.98 57.8226 155.093 58.1257 155.358 58.391C155.624 58.6183 155.965 58.7319 156.344 58.7319C156.76 58.7319 157.063 58.6183 157.329 58.391C157.594 58.1636 157.708 57.8226 157.708 57.4437Z" fill="black"/>
<path d="M159.867 58.9591L160.17 55.7385H163.466V56.2311H160.625L160.397 58.4665C160.738 58.2392 161.155 58.0876 161.648 58.0876C162.254 58.0876 162.709 58.2771 163.05 58.656C163.391 59.0348 163.58 59.5653 163.58 60.2094C163.58 60.8914 163.391 61.4218 163.05 61.8386C162.709 62.2175 162.216 62.4069 161.61 62.4069C161.042 62.4069 160.587 62.2554 160.208 61.9144C159.867 61.6113 159.64 61.1566 159.602 60.5883H160.132C160.17 61.0429 160.322 61.3839 160.587 61.6113C160.852 61.8386 161.193 61.9523 161.61 61.9523C162.065 61.9523 162.443 61.8007 162.671 61.4976C162.898 61.1945 163.012 60.7777 163.012 60.2094C163.012 59.7168 162.86 59.3379 162.595 59.0348C162.33 58.7317 161.951 58.5802 161.496 58.5802C161.231 58.5802 161.004 58.6181 160.814 58.6938C160.625 58.7696 160.435 58.8833 160.208 59.0727L159.867 58.9591Z" fill="black"/>
<path d="M139.256 56.0802L136.452 62.3318H135.884L138.688 56.2318H134.937V55.7771H139.256V56.0802Z" fill="black"/>
<path d="M144.371 56.0795L141.567 62.3311H140.999L143.802 56.231H140.051V55.7764H144.371V56.0795Z" fill="black"/>
<path d="M120.577 55.7013V56.156H120.501C119.705 56.156 119.099 56.3833 118.644 56.838C118.19 57.2926 117.925 57.9367 117.887 58.7703C118.076 58.5051 118.303 58.3156 118.569 58.2019C118.834 58.0504 119.175 58.0125 119.516 58.0125C120.084 58.0125 120.539 58.2019 120.88 58.6187C121.221 59.0355 121.41 59.5281 121.41 60.1722C121.41 60.5889 121.335 60.9678 121.183 61.3467C121.031 61.6877 120.804 61.9529 120.501 62.1424C120.198 62.3318 119.857 62.4455 119.478 62.4455C118.834 62.4455 118.341 62.2181 117.925 61.7635C117.546 61.3088 117.318 60.7026 117.318 59.9827V59.4523C117.318 58.2777 117.584 57.3684 118.114 56.7243C118.644 56.0802 119.402 55.7392 120.387 55.7392H120.577V55.7013ZM119.478 58.5051C119.137 58.5051 118.796 58.6187 118.531 58.8082C118.228 58.9976 118.038 59.2628 117.925 59.5659V60.0206C117.925 60.5889 118.076 61.0436 118.379 61.4225C118.682 61.8014 119.061 61.9529 119.516 61.9529C119.933 61.9529 120.274 61.8014 120.539 61.4604C120.804 61.1194 120.918 60.7026 120.918 60.21C120.918 59.6796 120.804 59.2628 120.539 58.9597C120.274 58.6566 119.895 58.5051 119.478 58.5051Z" fill="black"/>
<path d="M126.487 59.6035C126.487 60.5128 126.336 61.2327 125.995 61.7252C125.654 62.2178 125.161 62.4451 124.479 62.4451C123.835 62.4451 123.343 62.2178 123.002 61.7252C122.661 61.2706 122.471 60.5507 122.471 59.6792V58.5047C122.471 57.5954 122.661 56.8755 123.002 56.4208C123.343 55.9283 123.835 55.7009 124.517 55.7009C125.161 55.7009 125.654 55.9283 125.995 56.3829C126.336 56.8376 126.525 57.5196 126.525 58.4289V59.6035H126.487ZM125.957 58.4289C125.957 57.6711 125.843 57.1028 125.578 56.7239C125.351 56.345 124.972 56.1556 124.479 56.1556C123.987 56.1556 123.608 56.345 123.38 56.7239C123.115 57.1028 123.002 57.6711 123.002 58.391V59.6792C123.002 60.437 123.115 61.0053 123.38 61.3842C123.646 61.7631 123.987 61.9905 124.479 61.9905C124.972 61.9905 125.313 61.801 125.578 61.4221C125.843 61.0432 125.957 60.4749 125.957 59.7171V58.4289Z" fill="black"/>
<path d="M47.5274 62.3317H43.3975V61.9149L45.6329 59.3763C46.0118 58.9596 46.277 58.5807 46.4286 58.3155C46.5801 58.0502 46.6559 57.7471 46.6559 57.4819C46.6559 57.0651 46.5423 56.7241 46.277 56.4968C46.0497 56.2695 45.7087 56.1179 45.254 56.1179C44.7994 56.1179 44.4584 56.2695 44.1932 56.5347C43.9279 56.7999 43.7764 57.1788 43.7764 57.6335H43.2459C43.2459 57.2546 43.3217 56.9136 43.5112 56.6105C43.6627 56.3074 43.9279 56.08 44.231 55.8906C44.5342 55.7011 44.8752 55.6254 45.2919 55.6254C45.8981 55.6254 46.3528 55.7769 46.6938 56.1179C47.0348 56.421 47.1864 56.8757 47.1864 57.4061C47.1864 57.7092 47.0727 58.0502 46.8833 58.4291C46.6938 58.808 46.3528 59.2627 45.8603 59.7931L44.0416 61.877H47.4895V62.3317H47.5274Z" fill="black"/>
<path d="M52.415 57.4439C52.415 57.7849 52.3013 58.088 52.1119 58.3532C51.9224 58.6184 51.6572 58.8079 51.3162 58.9594C51.6951 59.0731 51.9982 59.3004 52.2256 59.6035C52.4529 59.9066 52.5666 60.2097 52.5666 60.5886C52.5666 61.1569 52.3771 61.6116 51.9982 61.9147C51.6193 62.2557 51.1268 62.4073 50.4827 62.4073C49.8386 62.4073 49.346 62.2557 48.9671 61.9147C48.5882 61.5737 48.3988 61.1569 48.3988 60.5886C48.3988 60.2097 48.5125 59.8687 48.7398 59.6035C48.9671 59.3004 49.2702 59.111 49.6491 58.9594C49.3081 58.8457 49.0808 58.6184 48.8535 58.3532C48.664 58.088 48.5504 57.7849 48.5504 57.4439C48.5504 56.9134 48.7398 56.4587 49.0808 56.1556C49.4218 55.8146 49.9144 55.6631 50.4827 55.6631C51.051 55.6631 51.5436 55.8146 51.8846 56.1556C52.2256 56.4966 52.415 56.9134 52.415 57.4439ZM52.0361 60.5886C52.0361 60.1718 51.8846 59.8308 51.5815 59.5656C51.2783 59.3004 50.8995 59.1867 50.4448 59.1867C49.9901 59.1867 49.6112 59.3004 49.346 59.5656C49.0429 59.8308 48.9292 60.1718 48.9292 60.5886C48.9292 61.0054 49.0808 61.3464 49.346 61.5737C49.6112 61.8389 49.9901 61.9526 50.4827 61.9526C50.9373 61.9526 51.3162 61.8389 51.6193 61.5737C51.8846 61.3464 52.0361 61.0433 52.0361 60.5886ZM51.8846 57.4439C51.8846 57.065 51.7709 56.7619 51.5057 56.4966C51.2405 56.2314 50.8995 56.1178 50.5206 56.1178C50.1038 56.1178 49.7628 56.2314 49.5355 56.4966C49.2702 56.724 49.1566 57.065 49.1566 57.4439C49.1566 57.8227 49.2702 58.1259 49.5355 58.3911C49.8007 58.6184 50.1417 58.7321 50.5206 58.7321C50.9373 58.7321 51.2405 58.6184 51.5057 58.3911C51.733 58.1637 51.8846 57.8227 51.8846 57.4439Z" fill="black"/>
<path d="M27.2568 62.3312H26.7264V56.4206L24.9456 57.1026V56.61L27.181 55.7765H27.2568V62.3312Z" fill="black"/>
<path d="M33.7358 57.4436C33.7358 57.7846 33.6221 58.0877 33.4327 58.3529C33.2432 58.6182 32.978 58.8076 32.637 58.9592C33.0159 59.0728 33.319 59.3002 33.5463 59.6033C33.7737 59.9064 33.8873 60.2095 33.8873 60.5884C33.8873 61.1567 33.6979 61.6114 33.319 61.9145C32.9401 62.2555 32.4476 62.407 31.8035 62.407C31.1593 62.407 30.6668 62.2555 30.2879 61.9145C29.909 61.5735 29.7196 61.1567 29.7196 60.5884C29.7196 60.2095 29.8332 59.8685 30.0606 59.6033C30.2879 59.3002 30.591 59.1107 30.9699 58.9592C30.6289 58.8455 30.4016 58.6182 30.1742 58.3529C29.9848 58.0877 29.8711 57.7846 29.8711 57.4436C29.8711 56.9132 30.0606 56.4585 30.4016 56.1554C30.7426 55.8144 31.2351 55.6628 31.8035 55.6628C32.3718 55.6628 32.8643 55.8144 33.2053 56.1554C33.5842 56.4964 33.7358 56.9132 33.7358 57.4436ZM33.3569 60.5884C33.3569 60.1716 33.2053 59.8306 32.9022 59.5654C32.5991 59.3002 32.2202 59.1865 31.7656 59.1865C31.3109 59.1865 30.932 59.3002 30.6668 59.5654C30.3637 59.8306 30.25 60.1716 30.25 60.5884C30.25 61.0051 30.4016 61.3461 30.6668 61.5735C30.932 61.8387 31.3109 61.9524 31.8035 61.9524C32.2581 61.9524 32.637 61.8387 32.9401 61.5735C33.2432 61.3461 33.3569 61.043 33.3569 60.5884ZM33.2053 57.4436C33.2053 57.0647 33.0917 56.7616 32.8264 56.4964C32.5612 56.2312 32.2202 56.1175 31.8413 56.1175C31.4246 56.1175 31.0836 56.2312 30.8562 56.4964C30.591 56.7237 30.4773 57.0647 30.4773 57.4436C30.4773 57.8225 30.591 58.1256 30.8562 58.3908C31.1215 58.6182 31.4625 58.7318 31.8413 58.7318C32.2581 58.7318 32.5612 58.6182 32.8264 58.3908C33.0917 58.1635 33.2053 57.8225 33.2053 57.4436Z" fill="black"/>
<path d="M63.1373 74.2669H63.7057C64.0088 74.2669 64.274 74.229 64.5013 74.1154C64.7286 74.0017 64.9181 73.8502 65.0318 73.6607C65.1454 73.4713 65.2212 73.2439 65.2212 73.0166C65.2212 72.5998 65.1075 72.2588 64.8802 72.0315C64.6529 71.8042 64.3119 71.6905 63.8572 71.6905C63.4404 71.6905 63.0994 71.8042 62.8342 72.0694C62.569 72.3346 62.4174 72.6377 62.4174 73.0545H61.887C61.887 72.7135 61.9628 72.4104 62.1522 72.1073C62.3417 71.8421 62.569 71.6147 62.8721 71.4632C63.1752 71.3116 63.5162 71.2358 63.8951 71.2358C64.5013 71.2358 64.956 71.3874 65.297 71.7284C65.638 72.0694 65.8274 72.4862 65.8274 73.0545C65.8274 73.3576 65.7138 73.6607 65.5243 73.9259C65.3349 74.1912 65.0318 74.3806 64.6908 74.5322C65.1075 74.6458 65.4106 74.8353 65.638 75.1384C65.8653 75.4036 65.9411 75.7446 65.9411 76.1235C65.9411 76.6918 65.7516 77.1465 65.3728 77.4875C64.9939 77.8285 64.5013 78.0179 63.8951 78.0179C63.5162 78.0179 63.1373 77.9421 62.8342 77.7906C62.4932 77.639 62.2659 77.4117 62.0764 77.1465C61.887 76.8813 61.8112 76.5403 61.8112 76.1614H62.3417C62.3417 76.5781 62.4932 76.9191 62.7963 77.1844C63.0994 77.4496 63.4783 77.5632 63.933 77.5632C64.3877 77.5632 64.7665 77.4496 65.0318 77.2223C65.297 76.9949 65.4106 76.6539 65.4106 76.1993C65.4106 75.7446 65.2591 75.4415 64.9939 75.1763C64.7286 74.9489 64.3119 74.8353 63.7435 74.8353H63.1373V74.2669Z" fill="black"/>
<path d="M68.2903 74.2663H68.8586C69.1617 74.2663 69.4269 74.2284 69.6543 74.1148C69.8816 74.0011 70.071 73.8495 70.1847 73.6601C70.2984 73.4707 70.3742 73.2433 70.3742 73.016C70.3742 72.5992 70.2605 72.2582 70.0332 72.0309C69.8058 71.8036 69.4648 71.6899 69.0102 71.6899C68.5934 71.6899 68.2524 71.8036 67.9872 72.0688C67.7219 72.334 67.5704 72.6371 67.5704 73.0539H67.0399C67.0399 72.7129 67.1157 72.4098 67.3052 72.1067C67.4946 71.8414 67.7219 71.6141 68.0251 71.4626C68.3282 71.311 68.6692 71.2352 69.048 71.2352C69.6543 71.2352 70.1089 71.3868 70.4499 71.7278C70.7909 72.0688 70.9804 72.4856 70.9804 73.0539C70.9804 73.357 70.8667 73.6601 70.6773 73.9253C70.4878 74.1905 70.1847 74.38 69.8437 74.5315C70.2605 74.6452 70.5636 74.8347 70.7909 75.1378C71.0183 75.403 71.094 75.744 71.094 76.1229C71.094 76.6912 70.9046 77.1459 70.5257 77.4869C70.1468 77.8279 69.6543 78.0173 69.048 78.0173C68.6692 78.0173 68.2903 77.9415 67.9872 77.79C67.6462 77.6384 67.4188 77.4111 67.2294 77.1459C67.0399 76.8806 66.9642 76.5396 66.9642 76.1608H67.4946C67.4946 76.5775 67.6462 76.9185 67.9493 77.1838C68.2524 77.449 68.6313 77.5626 69.0859 77.5626C69.5406 77.5626 69.9195 77.449 70.1847 77.2216C70.4499 76.9943 70.5636 76.6533 70.5636 76.1986C70.5636 75.744 70.412 75.4409 70.1468 75.1756C69.8816 74.9483 69.4648 74.8347 68.8965 74.8347H68.3661V74.2663H68.2903Z" fill="black"/>
<path d="M99.3211 74.987L99.6242 71.7665H102.921V72.259H100.079L99.8516 74.4945C100.193 74.2671 100.609 74.1156 101.102 74.1156C101.708 74.1156 102.163 74.305 102.504 74.6839C102.845 75.0628 103.034 75.5932 103.034 76.2373C103.034 76.9193 102.845 77.4498 102.504 77.8666C102.163 78.2454 101.67 78.4349 101.064 78.4349C100.496 78.4349 100.041 78.2833 99.6621 77.9423C99.3211 77.6392 99.0938 77.1846 99.0559 76.6162H99.5864C99.6242 77.0709 99.7758 77.4119 100.041 77.6392C100.306 77.8666 100.647 77.9802 101.064 77.9802C101.519 77.9802 101.898 77.8287 102.125 77.5256C102.352 77.2225 102.466 76.8057 102.466 76.2373C102.466 75.7448 102.314 75.3659 102.049 75.0628C101.784 74.7597 101.405 74.6081 100.95 74.6081C100.685 74.6081 100.458 74.646 100.268 74.7218C100.079 74.7976 99.8895 74.9112 99.6621 75.1007L99.3211 74.987Z" fill="black"/>
<path d="M105.307 74.7589H105.876C106.179 74.7589 106.444 74.721 106.671 74.6073C106.899 74.4937 107.088 74.3421 107.202 74.1527C107.316 73.9632 107.391 73.7359 107.391 73.5085C107.391 73.0918 107.278 72.7508 107.05 72.5234C106.823 72.2961 106.482 72.1824 106.027 72.1824C105.611 72.1824 105.27 72.2961 105.004 72.5613C104.739 72.8266 104.588 73.1297 104.588 73.5464H104.057C104.057 73.2054 104.133 72.9023 104.322 72.5992C104.512 72.334 104.739 72.1067 105.042 71.9551C105.345 71.8036 105.686 71.7278 106.065 71.7278C106.671 71.7278 107.126 71.8793 107.467 72.2203C107.808 72.5613 107.998 72.9781 107.998 73.5464C107.998 73.8496 107.884 74.1527 107.694 74.4179C107.505 74.6831 107.202 74.8725 106.861 75.0241C107.278 75.1378 107.581 75.3272 107.808 75.6303C108.035 75.8955 108.111 76.2365 108.111 76.6154C108.111 77.1838 107.922 77.6384 107.543 77.9794C107.164 78.3204 106.671 78.5099 106.065 78.5099C105.686 78.5099 105.307 78.4341 105.004 78.2825C104.663 78.131 104.436 77.9036 104.247 77.6384C104.057 77.3732 103.981 77.0322 103.981 76.6533H104.512C104.512 77.0701 104.663 77.4111 104.966 77.6763C105.27 77.9415 105.648 78.0552 106.103 78.0552C106.558 78.0552 106.937 77.9415 107.202 77.7142C107.467 77.4869 107.581 77.1459 107.581 76.6912C107.581 76.2365 107.429 75.9334 107.164 75.6682C106.899 75.4409 106.482 75.3272 105.914 75.3272H105.383V74.7589H105.307Z" fill="black"/>
<path d="M121.296 71.1974V71.6521H121.221C120.425 71.6521 119.819 71.8794 119.364 72.334C118.909 72.7887 118.644 73.4328 118.606 74.2664C118.796 74.0012 119.023 73.8117 119.288 73.698C119.554 73.5465 119.895 73.5086 120.236 73.5086C120.804 73.5086 121.258 73.698 121.599 74.1148C121.94 74.5316 122.13 75.0241 122.13 75.6683C122.13 76.085 122.054 76.4639 121.903 76.8428C121.751 77.2217 121.524 77.449 121.221 77.6385C120.918 77.8279 120.577 77.9416 120.198 77.9416C119.554 77.9416 119.061 77.7142 118.644 77.2596C118.265 76.8049 118.038 76.1987 118.038 75.4788V74.9484C118.038 73.7738 118.303 72.8645 118.834 72.2204C119.364 71.5763 120.122 71.2353 121.107 71.2353H121.296V71.1974ZM120.198 74.0012C119.857 74.0012 119.516 74.1148 119.25 74.3043C118.947 74.4937 118.758 74.7589 118.644 75.062V75.5167C118.644 76.085 118.796 76.5397 119.099 76.9186C119.402 77.2975 119.781 77.449 120.236 77.449C120.652 77.449 120.993 77.2975 121.259 76.9565C121.524 76.6155 121.637 76.1987 121.637 75.7061C121.637 75.1757 121.524 74.7589 121.259 74.4558C120.993 74.1527 120.614 74.0012 120.198 74.0012Z" fill="black"/>
<path d="M125.767 77.8276H125.237V71.9169L123.456 72.5989V72.1064L125.692 71.2728H125.767V77.8276Z" fill="black"/>
<path d="M139.332 71.5764L136.528 77.8281H135.959L138.763 71.728H135.012V71.2733H139.332V71.5764Z" fill="black"/>
<path d="M143.764 74.7967C143.575 75.062 143.348 75.2893 143.045 75.4408C142.741 75.5924 142.438 75.6682 142.097 75.6682C141.718 75.6682 141.377 75.5545 141.112 75.3651C140.809 75.1756 140.62 74.9104 140.43 74.5694C140.279 74.2284 140.203 73.8495 140.203 73.4706C140.203 73.0539 140.279 72.6371 140.468 72.2961C140.62 71.9551 140.885 71.652 141.15 71.4625C141.453 71.2731 141.794 71.1594 142.173 71.1594C142.817 71.1594 143.348 71.3868 143.727 71.8414C144.105 72.2961 144.295 72.9781 144.295 73.8116V74.3042C144.295 75.4787 144.03 76.3881 143.537 76.9943C143.045 77.6005 142.249 77.9036 141.226 77.9036H141.112V77.4489H141.302C142.097 77.4489 142.704 77.2216 143.082 76.7669C143.537 76.3123 143.764 75.6682 143.764 74.7967ZM142.211 75.2135C142.59 75.2135 142.893 75.0998 143.196 74.8725C143.499 74.6452 143.689 74.38 143.802 74.039V73.7359C143.802 73.0539 143.651 72.5613 143.386 72.1824C143.12 71.8035 142.741 71.6141 142.249 71.6141C141.832 71.6141 141.453 71.8035 141.188 72.1445C140.923 72.4855 140.771 72.9402 140.771 73.4327C140.771 73.9253 140.885 74.3421 141.15 74.6831C141.415 75.062 141.756 75.2135 142.211 75.2135Z" fill="black"/>
<path d="M157.859 74.7967C157.67 75.062 157.442 75.2893 157.139 75.4408C156.836 75.5924 156.533 75.6682 156.192 75.6682C155.813 75.6682 155.472 75.5545 155.207 75.3651C154.904 75.1756 154.714 74.9104 154.525 74.5694C154.373 74.2284 154.297 73.8495 154.297 73.4706C154.297 73.0539 154.373 72.6371 154.563 72.2961C154.714 71.9551 154.979 71.652 155.245 71.4625C155.548 71.2731 155.889 71.1594 156.268 71.1594C156.912 71.1594 157.442 71.3868 157.821 71.8414C158.2 72.2961 158.389 72.9781 158.389 73.8116V74.3042C158.389 75.4787 158.124 76.3881 157.632 76.9943C157.139 77.6005 156.343 77.9036 155.32 77.9036H155.207V77.4489H155.396C156.192 77.4489 156.798 77.2216 157.177 76.7669C157.594 76.3123 157.821 75.6682 157.859 74.7967ZM156.268 75.2135C156.647 75.2135 156.95 75.0998 157.253 74.8725C157.556 74.6452 157.745 74.38 157.859 74.039V73.7359C157.859 73.0539 157.707 72.5613 157.442 72.1824C157.177 71.8035 156.798 71.6141 156.306 71.6141C155.889 71.6141 155.51 71.8035 155.245 72.1445C154.979 72.4855 154.828 72.9402 154.828 73.4327C154.828 73.9253 154.942 74.3421 155.207 74.6831C155.51 75.062 155.851 75.2135 156.268 75.2135Z" fill="black"/>
<path d="M163.58 75.1002C163.58 76.0095 163.429 76.7294 163.088 77.2219C162.747 77.7145 162.254 77.9418 161.572 77.9418C160.928 77.9418 160.435 77.7145 160.094 77.2219C159.753 76.7673 159.564 76.0474 159.564 75.1759V74.0014C159.564 73.0921 159.753 72.3722 160.094 71.9175C160.435 71.425 160.928 71.1976 161.61 71.1976C162.254 71.1976 162.747 71.425 163.088 71.8796C163.429 72.3343 163.618 73.0163 163.618 73.9256V75.1002H163.58ZM163.012 73.9256C163.012 73.1678 162.898 72.5995 162.633 72.2206C162.406 71.8417 162.027 71.6523 161.534 71.6523C161.042 71.6523 160.663 71.8417 160.435 72.2206C160.17 72.5995 160.057 73.1678 160.057 73.8877V75.1759C160.057 75.9337 160.17 76.502 160.435 76.8809C160.701 77.2598 161.042 77.4872 161.534 77.4872C162.027 77.4872 162.368 77.2977 162.633 76.9188C162.898 76.5399 163.012 75.9716 163.012 75.2138V73.9256Z" fill="black"/>
<path d="M99.2452 90.9746L99.5483 87.754H102.845V88.2466H100.003L99.7756 90.482C100.117 90.2547 100.533 90.1031 101.026 90.1031C101.632 90.1031 102.087 90.2926 102.428 90.6715C102.769 91.0503 102.958 91.5808 102.958 92.2249C102.958 92.9069 102.769 93.4373 102.428 93.8541C102.087 94.233 101.594 94.4224 100.988 94.4224C100.42 94.4224 99.9651 94.2709 99.5862 93.9299C99.2452 93.6268 99.0179 93.1721 98.98 92.6038H99.5104C99.5483 93.0584 99.6999 93.3994 99.9651 93.6268C100.23 93.8541 100.571 93.9678 100.988 93.9678C101.443 93.9678 101.822 93.8162 102.049 93.5131C102.276 93.21 102.39 92.7932 102.39 92.2249C102.39 91.7323 102.238 91.3535 101.973 91.0503C101.708 90.7472 101.329 90.5957 100.874 90.5957C100.609 90.5957 100.382 90.6336 100.192 90.7093C100.003 90.7851 99.8135 90.8988 99.5862 91.0882L99.2452 90.9746Z" fill="black"/>
<path d="M108.111 94.3472H103.981V93.9304L106.217 91.3918C106.596 90.9751 106.861 90.5962 107.012 90.331C107.164 90.0657 107.24 89.7626 107.24 89.4974C107.24 89.0806 107.126 88.7396 106.861 88.5123C106.634 88.285 106.293 88.1334 105.838 88.1334C105.383 88.1334 105.042 88.285 104.777 88.5502C104.512 88.8154 104.36 89.1943 104.36 89.649H103.83C103.83 89.2701 103.906 88.9291 104.095 88.626C104.247 88.3229 104.512 88.0955 104.815 87.9061C105.118 87.7166 105.459 87.6409 105.876 87.6409C106.482 87.6409 106.937 87.7924 107.278 88.1334C107.619 88.4365 107.77 88.8912 107.77 89.4216C107.77 89.7247 107.657 90.0657 107.467 90.4446C107.278 90.8235 106.937 91.2782 106.444 91.8086L104.625 93.8925H108.073V94.3472H108.111Z" fill="black"/>
<path d="M83.4836 91.695H84.5066V92.1496H83.4836V93.8168H82.9531V92.1496H79.8463V91.8465L82.8773 87.2241H83.4836V91.695ZM80.4904 91.695H82.9152V87.944L82.6879 88.3608L80.4904 91.695Z" fill="black"/>
<path d="M89.3564 87.5654L86.5526 93.8171H85.9843L88.788 87.717H85.037V87.2623H89.3564V87.5654Z" fill="black"/>
<path d="M63.1373 90.2179H63.7057C64.0088 90.2179 64.274 90.18 64.5013 90.0663C64.7286 89.9526 64.9181 89.8011 65.0318 89.6116C65.1454 89.4222 65.2212 89.1949 65.2212 88.9675C65.2212 88.5508 65.1075 88.2098 64.8802 87.9824C64.6529 87.7551 64.3119 87.6414 63.8572 87.6414C63.4404 87.6414 63.0994 87.7551 62.8342 88.0203C62.569 88.2855 62.4174 88.5886 62.4174 89.0054H61.887C61.887 88.6644 61.9628 88.3613 62.1522 88.0582C62.3417 87.793 62.569 87.5657 62.8721 87.4141C63.1752 87.2625 63.5162 87.1868 63.8951 87.1868C64.5013 87.1868 64.956 87.3383 65.297 87.6793C65.638 88.0203 65.8274 88.4371 65.8274 89.0054C65.8274 89.3085 65.7138 89.6116 65.5243 89.8769C65.3349 90.1421 65.0318 90.3315 64.6908 90.4831C65.1075 90.5967 65.4106 90.7862 65.638 91.0893C65.8653 91.3545 65.9411 91.6955 65.9411 92.0744C65.9411 92.6427 65.7516 93.0974 65.3728 93.4384C64.9939 93.7794 64.5013 93.9688 63.8951 93.9688C63.5162 93.9688 63.1373 93.8931 62.8342 93.7415C62.4932 93.5899 62.2659 93.3626 62.0764 93.0974C61.887 92.8322 61.8112 92.4912 61.8112 92.1123H62.3417C62.3417 92.5291 62.4932 92.8701 62.7963 93.1353C63.0994 93.4005 63.4783 93.5142 63.933 93.5142C64.3877 93.5142 64.7665 93.4005 65.0318 93.1732C65.297 92.9458 65.4106 92.6048 65.4106 92.1502C65.4106 91.6955 65.2591 91.3924 64.9939 91.1272C64.7286 90.8999 64.3119 90.7862 63.7435 90.7862H63.1373V90.2179Z" fill="black"/>
<path d="M71.0564 91.0888C71.0564 91.9981 70.9048 92.718 70.5638 93.2106C70.2228 93.7031 69.7303 93.9305 69.0483 93.9305C68.4042 93.9305 67.9116 93.7031 67.5706 93.2106C67.2296 92.7559 67.0402 92.036 67.0402 91.1646V89.99C67.0402 89.0807 67.2296 88.3608 67.5706 87.9062C67.9116 87.4136 68.4042 87.1863 69.0861 87.1863C69.7303 87.1863 70.2228 87.4136 70.5638 87.8683C70.9048 88.3229 71.0942 89.0049 71.0942 89.9143V91.0888H71.0564ZM70.488 89.8764C70.488 89.1186 70.3744 88.5503 70.1091 88.1714C69.8818 87.7925 69.5029 87.6031 69.0104 87.6031C68.5178 87.6031 68.1389 87.7925 67.9116 88.1714C67.6464 88.5503 67.5327 89.1186 67.5327 89.8385V91.1267C67.5327 91.8845 67.6464 92.4528 67.9116 92.8317C68.1768 93.2106 68.5178 93.4379 69.0104 93.4379C69.5029 93.4379 69.8439 93.2485 70.1091 92.8696C70.3744 92.4907 70.488 91.9224 70.488 91.1646V89.8764Z" fill="black"/>
<path d="M47.5274 93.8169H43.3975V93.4001L45.6329 90.8616C46.0118 90.4448 46.277 90.0659 46.4286 89.8007C46.5801 89.5355 46.6559 89.2324 46.6559 88.9671C46.6559 88.5504 46.5423 88.2094 46.277 87.982C46.0497 87.7547 45.7087 87.6031 45.254 87.6031C44.7994 87.6031 44.4584 87.7547 44.1932 88.0199C43.9279 88.2851 43.7764 88.664 43.7764 89.1187H43.2459C43.2459 88.7398 43.3217 88.3988 43.5112 88.0957C43.6627 87.7926 43.9279 87.5653 44.231 87.3758C44.5342 87.1864 44.8752 87.1106 45.2919 87.1106C45.8981 87.1106 46.3528 87.2622 46.6938 87.6031C47.0348 87.9063 47.1864 88.3609 47.1864 88.8914C47.1864 89.1945 47.0727 89.5355 46.8833 89.9144C46.6938 90.2932 46.3528 90.7479 45.8603 91.2783L44.0416 93.3622H47.4895V93.8169H47.5274Z" fill="black"/>
<path d="M52.6043 87.5654L49.8006 93.8171H49.2323L52.036 87.717H48.285V87.2623H52.6043V87.5654Z" fill="black"/>
<path d="M10.7752 91.0887C10.7752 91.998 10.6237 92.7179 10.2827 93.2105C9.94168 93.703 9.44913 93.9303 8.76713 93.9303C8.12303 93.9303 7.63047 93.703 7.28947 93.2105C6.94848 92.7558 6.75903 92.0359 6.75903 91.1645V89.9899C6.75903 89.0806 6.94848 88.3607 7.28947 87.906C7.63047 87.4135 8.12303 87.1862 8.80502 87.1862C9.44913 87.1862 9.94168 87.4135 10.2827 87.8681C10.6237 88.3228 10.8131 89.0048 10.8131 89.9141V91.0887H10.7752ZM10.2069 89.8762C10.2069 89.1185 10.0932 88.5501 9.82802 88.1713C9.60068 87.7924 9.2218 87.6029 8.72924 87.6029C8.23669 87.6029 7.8578 87.7924 7.63047 88.1713C7.36525 88.5501 7.25159 89.1185 7.25159 89.8384V91.1266C7.25159 91.8844 7.36525 92.4527 7.63047 92.8316C7.89569 93.2105 8.23669 93.4378 8.72924 93.4378C9.2218 93.4378 9.56279 93.2483 9.82802 92.8695C10.0932 92.4906 10.2069 91.9222 10.2069 91.1645V89.8762Z" fill="black"/>
<path d="M12.2909 90.4445L12.594 87.224H15.8903V87.7166H13.0486L12.8213 89.952C13.1623 89.7247 13.5791 89.5731 14.0716 89.5731C14.6778 89.5731 15.1325 89.7625 15.4735 90.1414C15.8145 90.5203 16.0039 91.0508 16.0039 91.6949C16.0039 92.3769 15.8145 92.9073 15.4735 93.3241C15.1325 93.703 14.64 93.8924 14.0337 93.8924C13.4654 93.8924 13.0107 93.7409 12.6319 93.3999C12.2909 93.0967 12.0635 92.6421 12.0256 92.0738H12.5561C12.594 92.5284 12.7455 92.8694 13.0107 93.0967C13.276 93.3241 13.617 93.4377 14.0337 93.4377C14.4884 93.4377 14.8673 93.2862 15.0946 92.9831C15.3219 92.68 15.4356 92.2632 15.4356 91.6949C15.4356 91.2023 15.2841 90.8234 15.0188 90.5203C14.7536 90.2172 14.3747 90.0656 13.9201 90.0656C13.6548 90.0656 13.4275 90.1035 13.2381 90.1793C13.0486 90.2551 12.8592 90.3688 12.6319 90.5582L12.2909 90.4445Z" fill="black"/>
<path d="M47.5652 28.6862H43.4353V28.2694L45.6707 25.7308C46.0496 25.3141 46.3148 24.9352 46.4664 24.67C46.618 24.4047 46.6937 24.1016 46.6937 23.8364C46.6937 23.4196 46.5801 23.0786 46.3148 22.8513C46.0875 22.624 45.7465 22.4724 45.2919 22.4724C44.8372 22.4724 44.4962 22.624 44.231 22.8892C43.9657 23.1544 43.8142 23.5333 43.8142 23.988H43.2838C43.2838 23.6091 43.3595 23.2681 43.549 22.965C43.7005 22.6619 43.9657 22.4345 44.2689 22.2451C44.572 22.0556 44.913 21.9799 45.3297 21.9799C45.936 21.9799 46.3906 22.1314 46.7316 22.4724C47.0726 22.7755 47.2242 23.2302 47.2242 23.7606C47.2242 24.0637 47.1105 24.4047 46.9211 24.7836C46.7316 25.1625 46.3906 25.6172 45.8981 26.1476L44.0794 28.2315H47.5273V28.6862H47.5652Z" fill="black"/>
<path d="M49.8005 25.0869H50.3689C50.672 25.0869 50.9372 25.049 51.1645 24.9353C51.3919 24.8217 51.5813 24.6701 51.695 24.4807C51.8086 24.2912 51.8844 24.0639 51.8844 23.8366C51.8844 23.4198 51.7707 23.0788 51.5434 22.8514C51.3161 22.6241 50.9751 22.5105 50.5204 22.5105C50.1036 22.5105 49.7626 22.6241 49.4974 22.8893C49.2322 23.1546 49.0806 23.4577 49.0806 23.8744H48.5502C48.5502 23.5334 48.626 23.2303 48.8154 22.9272C49.0049 22.662 49.2322 22.4347 49.5353 22.2831C49.8384 22.1316 50.1794 22.0558 50.5583 22.0558C51.1645 22.0558 51.6192 22.2073 51.9602 22.5483C52.3012 22.8893 52.4906 23.3061 52.4906 23.8744C52.4906 24.1776 52.377 24.4807 52.1875 24.7459C51.9981 25.0111 51.695 25.2005 51.354 25.3521C51.7707 25.4658 52.0738 25.6552 52.3012 25.9583C52.5285 26.2235 52.6043 26.5645 52.6043 26.9434C52.6043 27.5118 52.4148 27.9664 52.036 28.3074C51.6571 28.6484 51.1645 28.8379 50.5583 28.8379C50.1794 28.8379 49.8005 28.7621 49.4974 28.6105C49.1564 28.459 48.9291 28.2316 48.7396 27.9664C48.5502 27.7012 48.4744 27.3602 48.4744 26.9813H49.0049C49.0049 27.3981 49.1564 27.7391 49.4595 28.0043C49.7626 28.2695 50.1415 28.3832 50.5962 28.3832C51.0509 28.3832 51.4297 28.2695 51.695 28.0422C51.9602 27.8149 52.0739 27.4739 52.0739 27.0192C52.0739 26.5645 51.9223 26.2614 51.6571 25.9962C51.3919 25.7689 50.9751 25.6552 50.4067 25.6552H49.8763V25.0869H49.8005Z" fill="black"/>
<path d="M120.615 22.0557V22.5103H120.539C119.743 22.5103 119.137 22.7377 118.682 23.1923C118.228 23.647 117.962 24.2911 117.924 25.1246C118.114 24.8594 118.341 24.67 118.606 24.5563C118.872 24.4048 119.213 24.3669 119.554 24.3669C120.122 24.3669 120.577 24.5563 120.918 24.9731C121.259 25.3899 121.448 25.8824 121.448 26.5265C121.448 26.9433 121.372 27.3222 121.221 27.7011C121.069 28.0421 120.842 28.3073 120.539 28.4967C120.236 28.6862 119.895 28.7998 119.516 28.7998C118.872 28.7998 118.379 28.5725 117.962 28.1179C117.583 27.6632 117.356 27.057 117.356 26.3371V25.7688C117.356 24.5942 117.621 23.6849 118.152 23.0408C118.682 22.3967 119.44 22.0557 120.425 22.0557H120.615ZM119.478 24.8215C119.137 24.8215 118.796 24.9352 118.531 25.1246C118.228 25.3141 118.038 25.5793 117.924 25.8824V26.3371C117.924 26.9054 118.076 27.3601 118.379 27.739C118.682 28.1179 119.061 28.2694 119.516 28.2694C119.933 28.2694 120.274 28.1179 120.539 27.7769C120.804 27.4359 120.918 27.0191 120.918 26.5265C120.918 25.9961 120.804 25.5793 120.539 25.2762C120.274 24.9731 119.933 24.8215 119.478 24.8215Z" fill="black"/>
<path d="M123.721 25.0868H124.29C124.593 25.0868 124.858 25.0489 125.085 24.9352C125.313 24.8215 125.502 24.67 125.616 24.4805C125.729 24.2911 125.805 24.0638 125.805 23.8364C125.805 23.4197 125.692 23.0787 125.464 22.8513C125.237 22.624 124.896 22.5103 124.441 22.5103C124.024 22.5103 123.684 22.624 123.418 22.8892C123.153 23.1544 123.002 23.4575 123.002 23.8743H122.471C122.471 23.5333 122.547 23.2302 122.736 22.9271C122.926 22.624 123.153 22.4346 123.456 22.283C123.759 22.1314 124.1 22.0557 124.479 22.0557C125.085 22.0557 125.54 22.2072 125.881 22.5482C126.222 22.8892 126.411 23.306 126.411 23.8743C126.411 24.1774 126.298 24.4805 126.108 24.7458C125.919 25.011 125.616 25.2004 125.275 25.352C125.692 25.4656 125.995 25.6551 126.222 25.9582C126.449 26.2234 126.525 26.5644 126.525 26.9433C126.525 27.5116 126.336 27.9663 125.957 28.3073C125.578 28.6483 125.085 28.8377 124.479 28.8377C124.1 28.8377 123.721 28.762 123.418 28.6104C123.077 28.4589 122.85 28.2315 122.661 27.9663C122.471 27.7011 122.395 27.3601 122.395 26.9812H122.926C122.926 27.398 123.077 27.739 123.38 28.0042C123.684 28.2694 124.062 28.3831 124.517 28.3831C124.972 28.3831 125.351 28.2694 125.616 28.0421C125.881 27.8147 125.995 27.4737 125.995 27.0191C125.995 26.5644 125.843 26.2613 125.578 25.9961C125.313 25.7688 124.896 25.6551 124.328 25.6551H123.797V25.0868H123.721Z" fill="black"/>
<path d="M139.104 22.397L136.3 28.6486H135.732L138.536 22.5485H134.785V22.0939H139.104V22.397Z" fill="black"/>
<path d="M143.499 26.5649H144.522V27.0195H143.499V28.6866H142.969V27.0195H139.862V26.7164L142.893 22.094H143.499V26.5649ZM140.544 26.5649H142.969V22.8139L142.742 23.2307L140.544 26.5649Z" fill="black"/>
<path d="M159.072 23.7987C159.072 24.1397 158.958 24.4428 158.768 24.708C158.579 24.9733 158.314 25.1627 157.973 25.3143C158.352 25.4279 158.655 25.6553 158.882 25.9584C159.109 26.2615 159.223 26.5646 159.223 26.9435C159.223 27.5118 159.034 27.9665 158.655 28.2696C158.276 28.6106 157.783 28.7621 157.139 28.7621C156.495 28.7621 156.003 28.6106 155.624 28.2696C155.245 27.9286 155.055 27.5118 155.055 26.9435C155.055 26.5646 155.169 26.2236 155.396 25.9584C155.624 25.6553 155.927 25.4658 156.306 25.3143C155.965 25.2006 155.737 24.9733 155.51 24.708C155.321 24.4428 155.207 24.1397 155.207 23.7987C155.207 23.2683 155.396 22.8136 155.737 22.5105C156.078 22.1695 156.571 22.0179 157.139 22.0179C157.708 22.0179 158.2 22.1695 158.541 22.5105C158.882 22.8136 159.072 23.2683 159.072 23.7987ZM158.693 26.9435C158.693 26.5267 158.541 26.1857 158.238 25.9205C157.935 25.6553 157.556 25.5416 157.101 25.5416C156.647 25.5416 156.268 25.6553 156.003 25.9205C155.699 26.1857 155.586 26.5267 155.586 26.9435C155.586 27.3602 155.737 27.7012 156.003 27.9286C156.268 28.1938 156.647 28.3075 157.139 28.3075C157.594 28.3075 157.973 28.1938 158.276 27.9286C158.541 27.7012 158.693 27.3602 158.693 26.9435ZM158.503 23.7987C158.503 23.4198 158.39 23.1167 158.124 22.8515C157.859 22.5863 157.518 22.4726 157.139 22.4726C156.722 22.4726 156.381 22.5863 156.154 22.8515C155.889 23.0788 155.775 23.4198 155.775 23.7987C155.775 24.1776 155.889 24.4807 156.154 24.7459C156.419 24.9733 156.76 25.0869 157.139 25.0869C157.556 25.0869 157.859 24.9733 158.124 24.7459C158.39 24.4807 158.503 24.1776 158.503 23.7987Z" fill="black"/>
<path d="M162.823 28.6861H162.292V22.7376L160.511 23.4196V22.9271L162.747 22.0935H162.823V28.6861Z" fill="black"/>
<path d="M62.9479 8.71884H63.5162C63.8193 8.71884 64.0845 8.68095 64.3119 8.56728C64.5392 8.45362 64.7286 8.30206 64.8423 8.11262C64.956 7.92318 65.0317 7.69584 65.0317 7.46851C65.0317 7.05174 64.9181 6.71074 64.6908 6.48341C64.4634 6.25607 64.1224 6.14241 63.6678 6.14241C63.251 6.14241 62.91 6.25607 62.6448 6.5213C62.3795 6.78652 62.228 7.08963 62.228 7.5064H61.6975C61.6975 7.1654 61.7733 6.86229 61.9628 6.55918C62.1522 6.29396 62.3795 6.06663 62.6826 5.91508C62.9858 5.76352 63.3268 5.68774 63.7056 5.68774C64.3119 5.68774 64.7665 5.8393 65.1075 6.1803C65.4485 6.52129 65.638 6.93807 65.638 7.5064C65.638 7.80951 65.5243 8.11262 65.3349 8.37784C65.1454 8.64306 64.8423 8.8325 64.5013 8.98406C64.9181 9.09773 65.2212 9.28717 65.4485 9.59028C65.6759 9.8555 65.7516 10.1965 65.7516 10.5754C65.7516 11.1437 65.5622 11.5984 65.1833 11.9394C64.8044 12.2804 64.3119 12.4698 63.7056 12.4698C63.3268 12.4698 62.9479 12.394 62.6448 12.2425C62.3038 12.0909 62.0764 11.8636 61.887 11.5984C61.6975 11.3332 61.6218 10.9922 61.6218 10.6133H62.1522C62.1522 11.03 62.3038 11.371 62.6069 11.6363C62.91 11.9015 63.2889 12.0152 63.7435 12.0152C64.1982 12.0152 64.5771 11.9015 64.8423 11.6742C65.1075 11.4468 65.2212 11.1058 65.2212 10.6512C65.2212 10.1965 65.0696 9.89339 64.8044 9.62817C64.5392 9.40083 64.1224 9.28717 63.5541 9.28717H63.0236V8.71884H62.9479Z" fill="black"/>
<path d="M70.1846 10.1966H71.2076V10.6512H70.1846V12.3183H69.6542V10.6512H66.5473V10.3481L69.5784 5.72571H70.1846V10.1966ZM67.2293 10.1966H69.6542V6.44559L69.4268 6.86237L67.2293 10.1966Z" fill="black"/>
<path d="M83.4836 10.1971H84.5066V10.6517H83.4836V12.3188H82.9532V10.6517H79.8463V10.3486L82.8774 5.7262H83.4836V10.1971ZM80.5283 10.1971H82.9532V6.44608L82.7258 6.86286L80.5283 10.1971Z" fill="black"/>
<path d="M88.485 5.68799V6.14265H88.4092C87.6135 6.14265 87.0073 6.36998 86.5527 6.82465C86.098 7.27931 85.8328 7.92342 85.7949 8.75697C85.9843 8.49175 86.2117 8.30231 86.4769 8.18864C86.7421 8.03709 87.0831 7.9992 87.4241 7.9992C87.9924 7.9992 88.4471 8.18864 88.7881 8.60542C89.1291 9.02219 89.3185 9.51474 89.3185 10.1589C89.3185 10.5756 89.2428 10.9545 89.0912 11.3334C88.9397 11.6744 88.7123 11.9396 88.4092 12.1291C88.1061 12.3185 87.7651 12.4322 87.3862 12.4322C86.7421 12.4322 86.2496 12.2048 85.8328 11.7502C85.4539 11.2955 85.2266 10.6893 85.2266 9.96941V9.43897C85.2266 8.26442 85.4918 7.35509 86.0222 6.71098C86.5527 6.06688 87.3104 5.72588 88.2955 5.72588H88.485V5.68799ZM87.3483 8.45386C87.0073 8.45386 86.6663 8.56753 86.4011 8.75697C86.098 8.94641 85.9086 9.21164 85.7949 9.51474V9.96941C85.7949 10.5377 85.9464 10.9924 86.2496 11.3713C86.5527 11.7502 86.9316 11.9017 87.3862 11.9017C87.803 11.9017 88.144 11.7502 88.4092 11.4092C88.6744 11.0682 88.7881 10.6514 88.7881 10.1589C88.7881 9.62841 88.6744 9.21164 88.4092 8.90853C88.144 8.64331 87.803 8.45386 87.3483 8.45386Z" fill="black"/>
<path d="M120.539 5.68848V6.14314H120.463C119.667 6.14314 119.061 6.37047 118.606 6.82514C118.152 7.2798 117.887 7.92391 117.849 8.75746C118.038 8.49224 118.266 8.3028 118.531 8.18913C118.796 8.03757 119.137 7.99969 119.478 7.99969C120.046 7.99969 120.501 8.18913 120.842 8.60591C121.183 9.02268 121.372 9.51523 121.372 10.1593C121.372 10.5761 121.297 10.955 121.145 11.3339C120.993 11.7128 120.766 11.9401 120.463 12.1296C120.16 12.319 119.819 12.4327 119.44 12.4327C118.796 12.4327 118.303 12.2053 117.887 11.7507C117.508 11.296 117.28 10.6898 117.28 9.9699V9.43946C117.28 8.26491 117.546 7.35558 118.076 6.71147C118.607 6.06736 119.364 5.72637 120.349 5.72637H120.539V5.68848ZM119.44 8.45435C119.099 8.45435 118.758 8.56802 118.493 8.75746C118.19 8.9469 118 9.21212 117.887 9.51523V9.9699C117.887 10.5382 118.038 10.9929 118.341 11.3718C118.644 11.7507 119.023 11.9022 119.478 11.9022C119.895 11.9022 120.236 11.7507 120.501 11.4097C120.766 11.0687 120.88 10.6519 120.88 10.1593C120.88 9.6289 120.766 9.21212 120.501 8.90901C120.236 8.64379 119.857 8.45435 119.44 8.45435Z" fill="black"/>
<path d="M125.692 5.68799V6.14265H125.616C124.82 6.14265 124.214 6.36998 123.759 6.82465C123.305 7.27931 123.039 7.92342 123.001 8.75697C123.191 8.49175 123.418 8.30231 123.683 8.18864C123.949 8.03709 124.29 7.9992 124.631 7.9992C125.199 7.9992 125.654 8.18864 125.995 8.60542C126.336 9.02219 126.525 9.51474 126.525 10.1589C126.525 10.5756 126.449 10.9545 126.298 11.3334C126.146 11.7123 125.919 11.9396 125.616 12.1291C125.313 12.3185 124.972 12.4322 124.593 12.4322C123.949 12.4322 123.456 12.2048 123.039 11.7502C122.661 11.2955 122.433 10.6893 122.433 9.96941V9.43897C122.433 8.26442 122.698 7.35509 123.229 6.71098C123.759 6.06688 124.517 5.72588 125.502 5.72588H125.692V5.68799ZM124.555 8.45386C124.214 8.45386 123.873 8.56753 123.608 8.75697C123.305 8.94641 123.115 9.21164 123.001 9.51474V9.96941C123.001 10.5377 123.153 10.9924 123.456 11.3713C123.759 11.7502 124.138 11.9017 124.593 11.9017C125.01 11.9017 125.351 11.7502 125.616 11.4092C125.881 11.0682 125.995 10.6514 125.995 10.1589C125.995 9.62841 125.881 9.21164 125.616 8.90853C125.351 8.64331 125.01 8.45386 124.555 8.45386Z" fill="black"/>
<path d="M140.014 6.06764L137.21 12.3193H136.641L139.445 6.21919H135.694V5.76453H140.014V6.06764Z" fill="black"/>
<path d="M143.613 12.3179H143.082V6.40729L141.302 7.08929V6.59673L143.537 5.76318H143.613V12.3179Z" fill="black"/>
<path d="M5.35709 3.75562L17.1405 15.5769" stroke="#E30613" stroke-width="1.51555" stroke-miterlimit="10" stroke-linecap="round"/>
<path d="M17.1405 3.75562L5.35709 15.5769" stroke="#E30613" stroke-width="1.51555" stroke-miterlimit="10" stroke-linecap="round"/>
<path d="M23.3513 19.9409L35.1347 31.7622" stroke="#E30613" stroke-width="1.51555" stroke-miterlimit="10" stroke-linecap="round"/>
<path d="M35.1347 19.9409L23.3513 31.7622" stroke="#E30613" stroke-width="1.51555" stroke-miterlimit="10" stroke-linecap="round"/>
<path d="M41.9776 19.9409L53.7609 31.7622" stroke="#E30613" stroke-width="1.51555" stroke-miterlimit="10" stroke-linecap="round"/>
<path d="M53.7609 19.9409L41.9776 31.7622" stroke="#E30613" stroke-width="1.51555" stroke-miterlimit="10" stroke-linecap="round"/>
<path d="M115.551 19.9409L127.334 31.7622" stroke="#E30613" stroke-width="1.51555" stroke-miterlimit="10" stroke-linecap="round"/>
<path d="M127.334 19.9409L115.551 31.7622" stroke="#E30613" stroke-width="1.51555" stroke-miterlimit="10" stroke-linecap="round"/>
<path d="M134.177 19.9409L145.96 31.7622" stroke="#E30613" stroke-width="1.51555" stroke-miterlimit="10" stroke-linecap="round"/>
<path d="M145.96 19.9409L134.177 31.7622" stroke="#E30613" stroke-width="1.51555" stroke-miterlimit="10" stroke-linecap="round"/>
<path d="M152.803 19.9409L164.586 31.7622" stroke="#E30613" stroke-width="1.51555" stroke-miterlimit="10" stroke-linecap="round"/>
<path d="M164.586 19.9409L152.803 31.7622" stroke="#E30613" stroke-width="1.51555" stroke-miterlimit="10" stroke-linecap="round"/>
<path d="M23.3513 35.7731L35.1347 47.5943" stroke="#E30613" stroke-width="1.51555" stroke-miterlimit="10" stroke-linecap="round"/>
<path d="M35.1347 35.7731L23.3513 47.5943" stroke="#E30613" stroke-width="1.51555" stroke-miterlimit="10" stroke-linecap="round"/>
<path d="M41.9776 35.7731L53.7609 47.5943" stroke="#E30613" stroke-width="1.51555" stroke-miterlimit="10" stroke-linecap="round"/>
<path d="M53.7609 35.7731L41.9776 47.5943" stroke="#E30613" stroke-width="1.51555" stroke-miterlimit="10" stroke-linecap="round"/>
<path d="M5.65652 35.7731L17.4399 47.5943" stroke="#E30613" stroke-width="1.51555" stroke-miterlimit="10" stroke-linecap="round"/>
<path d="M17.4399 35.7731L5.65652 47.5943" stroke="#E30613" stroke-width="1.51555" stroke-miterlimit="10" stroke-linecap="round"/>
<path d="M97.856 35.7731L109.639 47.5943" stroke="#E30613" stroke-width="1.51555" stroke-miterlimit="10" stroke-linecap="round"/>
<path d="M109.639 35.7731L97.856 47.5943" stroke="#E30613" stroke-width="1.51555" stroke-miterlimit="10" stroke-linecap="round"/>
<path d="M152.803 35.7731L164.586 47.5943" stroke="#E30613" stroke-width="1.51555" stroke-miterlimit="10" stroke-linecap="round"/>
<path d="M164.586 35.7731L152.803 47.5943" stroke="#E30613" stroke-width="1.51555" stroke-miterlimit="10" stroke-linecap="round"/>
<path d="M23.3513 52.5366L35.1347 64.3579" stroke="#E30613" stroke-width="1.51555" stroke-miterlimit="10" stroke-linecap="round"/>
<path d="M35.1347 52.5366L23.3513 64.3579" stroke="#E30613" stroke-width="1.51555" stroke-miterlimit="10" stroke-linecap="round"/>
<path d="M41.9776 52.5366L53.7609 64.3579" stroke="#E30613" stroke-width="1.51555" stroke-miterlimit="10" stroke-linecap="round"/>
<path d="M53.7609 52.5366L41.9776 64.3579" stroke="#E30613" stroke-width="1.51555" stroke-miterlimit="10" stroke-linecap="round"/>
<path d="M115.551 52.5366L127.334 64.3579" stroke="#E30613" stroke-width="1.51555" stroke-miterlimit="10" stroke-linecap="round"/>
<path d="M127.334 52.5366L115.551 64.3579" stroke="#E30613" stroke-width="1.51555" stroke-miterlimit="10" stroke-linecap="round"/>
<path d="M115.551 69.3003L127.334 81.1216" stroke="#E30613" stroke-width="1.51555" stroke-miterlimit="10" stroke-linecap="round"/>
<path d="M127.334 69.3003L115.551 81.1216" stroke="#E30613" stroke-width="1.51555" stroke-miterlimit="10" stroke-linecap="round"/>
<path d="M97.856 69.3003L109.639 81.1216" stroke="#E30613" stroke-width="1.51555" stroke-miterlimit="10" stroke-linecap="round"/>
<path d="M109.639 69.3003L97.856 81.1216" stroke="#E30613" stroke-width="1.51555" stroke-miterlimit="10" stroke-linecap="round"/>
<path d="M60.6036 69.3003L72.387 81.1216" stroke="#E30613" stroke-width="1.51555" stroke-miterlimit="10" stroke-linecap="round"/>
<path d="M72.387 69.3003L60.6036 81.1216" stroke="#E30613" stroke-width="1.51555" stroke-miterlimit="10" stroke-linecap="round"/>
<path d="M60.6036 85.1323L72.387 96.9536" stroke="#E30613" stroke-width="1.51555" stroke-miterlimit="10" stroke-linecap="round"/>
<path d="M72.387 85.1323L60.6036 96.9536" stroke="#E30613" stroke-width="1.51555" stroke-miterlimit="10" stroke-linecap="round"/>
<path d="M41.9776 85.1323L53.7609 96.9536" stroke="#E30613" stroke-width="1.51555" stroke-miterlimit="10" stroke-linecap="round"/>
<path d="M53.7609 85.1323L41.9776 96.9536" stroke="#E30613" stroke-width="1.51555" stroke-miterlimit="10" stroke-linecap="round"/>
<path d="M5.65652 85.1323L17.4399 96.9536" stroke="#E30613" stroke-width="1.51555" stroke-miterlimit="10" stroke-linecap="round"/>
<path d="M17.4399 85.1323L5.65652 96.9536" stroke="#E30613" stroke-width="1.51555" stroke-miterlimit="10" stroke-linecap="round"/>
<path d="M79.2299 85.1323L91.0132 96.9536" stroke="#E30613" stroke-width="1.51555" stroke-miterlimit="10" stroke-linecap="round"/>
<path d="M91.0132 85.1323L79.2299 96.9536" stroke="#E30613" stroke-width="1.51555" stroke-miterlimit="10" stroke-linecap="round"/>
<path d="M97.856 85.1323L109.639 96.9536" stroke="#E30613" stroke-width="1.51555" stroke-miterlimit="10" stroke-linecap="round"/>
<path d="M109.639 85.1323L97.856 96.9536" stroke="#E30613" stroke-width="1.51555" stroke-miterlimit="10" stroke-linecap="round"/>
<path d="M134.177 52.5366L145.96 64.3579" stroke="#E30613" stroke-width="1.51555" stroke-miterlimit="10" stroke-linecap="round"/>
<path d="M145.96 52.5366L134.177 64.3579" stroke="#E30613" stroke-width="1.51555" stroke-miterlimit="10" stroke-linecap="round"/>
<path d="M134.177 69.3003L145.96 81.1216" stroke="#E30613" stroke-width="1.51555" stroke-miterlimit="10" stroke-linecap="round"/>
<path d="M145.96 69.3003L134.177 81.1216" stroke="#E30613" stroke-width="1.51555" stroke-miterlimit="10" stroke-linecap="round"/>
<path d="M152.803 52.5366L164.586 64.3579" stroke="#E30613" stroke-width="1.51555" stroke-miterlimit="10" stroke-linecap="round"/>
<path d="M164.586 52.5366L152.803 64.3579" stroke="#E30613" stroke-width="1.51555" stroke-miterlimit="10" stroke-linecap="round"/>
<path d="M152.803 69.3003L164.586 81.1216" stroke="#E30613" stroke-width="1.51555" stroke-miterlimit="10" stroke-linecap="round"/>
<path d="M164.586 69.3003L152.803 81.1216" stroke="#E30613" stroke-width="1.51555" stroke-miterlimit="10" stroke-linecap="round"/>
<path d="M59.9548 3.75562L71.7381 15.5769" stroke="#E30613" stroke-width="1.51555" stroke-miterlimit="10" stroke-linecap="round"/>
<path d="M71.7381 3.75562L59.9548 15.5769" stroke="#E30613" stroke-width="1.51555" stroke-miterlimit="10" stroke-linecap="round"/>
<path d="M79.0507 3.75562L90.8719 15.5769" stroke="#E30613" stroke-width="1.51555" stroke-miterlimit="10" stroke-linecap="round"/>
<path d="M90.8719 3.75562L79.0507 15.5769" stroke="#E30613" stroke-width="1.51555" stroke-miterlimit="10" stroke-linecap="round"/>
<path d="M115.551 3.75562L127.372 15.5769" stroke="#E30613" stroke-width="1.51555" stroke-miterlimit="10" stroke-linecap="round"/>
<path d="M127.372 3.75562L115.551 15.5769" stroke="#E30613" stroke-width="1.51555" stroke-miterlimit="10" stroke-linecap="round"/>
<path d="M134.141 3.75562L145.962 15.5769" stroke="#E30613" stroke-width="1.51555" stroke-miterlimit="10" stroke-linecap="round"/>
<path d="M145.962 3.75562L134.141 15.5769" stroke="#E30613" stroke-width="1.51555" stroke-miterlimit="10" stroke-linecap="round"/>
</svg>
