<svg width="100" height="108" viewBox="0 0 100 108" fill="none" xmlns="http://www.w3.org/2000/svg">
<path d="M50.1981 57.9673C50.1981 57.9673 45.4771 49.7903 42.7728 41.4959C39.7845 33.3224 35.8884 16.6454 37.2447 16.2534C38.601 15.8614 42.341 32.2344 44.4772 40.7706C46.8335 49.3983 50.4182 58.0588 50.1981 57.9673Z" fill="#FFC24A"/>
<path d="M48.3924 49.0872C48.1643 48.9931 44.8219 37.1618 47.5613 36.5898C49.6164 35.7356 48.1643 48.9931 48.3924 49.0872Z" fill="#FFC24A"/>
<path d="M43.5127 51.3381C43.3004 51.2505 31.6263 41.6657 34.7246 40.9013C37.3371 40.1634 43.3004 51.2505 43.5127 51.3381Z" fill="#FFC24A"/>
<path d="M44.9103 58.0917C45.1716 58.0073 20.6385 50.7132 22.0017 49.3948C23.6262 47.9921 44.9633 57.9282 44.9103 58.0917Z" fill="#FFC24A"/>
<path d="M39.9085 59.29C39.9687 59.0917 18.4786 60.9809 16.5164 60.3988C14.6747 59.42 23.6383 57.2983 28.0152 57.7559C32.5126 57.8168 39.9085 59.29 39.9085 59.29Z" fill="#FFC24A"/>
<path d="M39.2884 62.1343C39.5014 62.2224 29.8762 62.3584 20.3085 63.8905C10.5892 65.1312 0.92736 67.768 0.984846 69.1641C0.616345 70.384 9.24194 68.0048 18.3837 66.2965C27.4353 64.0935 37.429 62.7376 39.2884 62.1343Z" fill="#FFC24A"/>
<path d="M46.075 61.9799C46.2919 62.0701 38.0566 64.3025 29.9399 67.763C21.8862 71.0139 13.6712 75.6124 13.4468 77.1694C12.5012 80.3126 20.2826 75.5337 28.7145 71.0255C37.2094 66.3077 46.2919 62.0701 46.075 61.9799Z" fill="#FFC24A"/>
<path d="M50.172 54.7831C50.172 54.7831 51.4968 46.9275 55.085 38.9899C58.3562 31.1723 63.8908 23.2728 66.6318 21.6554C69.4411 19.8188 63.2966 26.9813 58.5525 35.9366C53.6279 44.5731 50.172 54.7831 50.172 54.7831Z" fill="#FFC24A"/>
<path d="M51.4174 55.6569C51.1862 55.562 58.3467 41.4223 63.3976 39.3483C68.0523 36.8677 51.2522 55.3451 51.4174 55.6569Z" fill="#FFC24A"/>
<path d="M50.6254 69.833C50.5619 70.0441 56.7044 80.6769 55.0125 81.3983C53.0386 82.24 50.6254 69.833 50.6254 69.833Z" fill="#FFC24A"/>
<path d="M48.3648 72.5238C48.0712 72.6458 52.2896 87.5128 49.7129 88.395C46.7771 89.6153 48.0712 72.6458 48.3648 72.5238Z" fill="#FFC24A"/>
<path d="M55.319 67.511C55.4701 67.7934 68.2173 76.5354 65.9011 77.1335C63.5849 77.7317 55.2592 67.7072 55.319 67.511Z" fill="#FFC24A"/>
<path d="M53.6086 63.9527C54.2926 64.0192 87.3379 83.1019 85.8942 83.9653C84.2415 84.7457 53.3426 64.0524 53.6086 63.9527Z" fill="#FFC24A"/>
<path d="M50.8507 60.652C51.1117 60.5687 74.904 69.3882 73.6491 70.3698C73.0717 71.4256 51.0589 60.7308 50.8507 60.652Z" fill="#FFC24A"/>
<path d="M60.5627 52.2222C60.7111 51.9197 71.8368 42.001 73.2754 42.4445C75.0719 42.534 70.3331 47.6893 67.0179 49.5692C63.6418 51.1981 60.5627 52.2222 60.5627 52.2222Z" fill="#FFC24A"/>
<path d="M58.3265 58.5684C58.5991 58.4554 73.0707 59.4578 73.1325 57.6814C73.8002 55.4788 62.0211 57.3866 58.3265 58.5684Z" fill="#FFC24A"/>
<path d="M47.8418 61.6838C47.5972 61.5854 42.028 77.8117 37.6712 81.2296C33.0022 84.768 47.3527 61.4871 47.8418 61.6838Z" fill="#FFC24A"/>
</svg>
