<svg width="138" height="150" viewBox="0 0 138 150" fill="none" xmlns="http://www.w3.org/2000/svg">
<path d="M76.9587 73.4293C76.9587 73.4293 86.0849 68.7178 95.7192 66.4513C105.155 63.8279 124.804 61.1287 125.528 62.8106C126.252 64.4925 106.945 67.0399 96.9128 68.5926C86.8087 70.3997 76.8868 73.6837 76.9587 73.4293Z" fill="#FFC24A"/>
<path d="M87.1069 73.5461C87.1766 73.3018 100.585 71.0126 101.765 74.1568C103.153 76.5681 87.1766 73.3018 87.1069 73.5461Z" fill="#FFC24A"/>
<path d="M90.3435 77.2172C90.4713 76.7857 108.845 80.2381 110.343 84.1119C111.959 86.5964 90.5351 76.5699 90.3435 77.2172Z" fill="#FFC24A"/>
<path d="M84.3038 67.6271C84.3786 67.3618 94.8226 53.4154 96.4454 57.5561C97.9378 61.0599 84.3786 67.3618 84.3038 67.6271Z" fill="#FFC24A"/>
<path d="M82.7927 64.0333C82.9477 63.492 100.026 25.8254 102.843 29.8704C105.582 34.186 82.4934 63.9218 82.7927 64.0333Z" fill="#FFC24A"/>
<path d="M76.6694 70.6527C76.9221 71.045 82.5283 38.3587 85.539 40.6454C88.8025 43.3244 77.0028 70.7722 76.6694 70.6527Z" fill="#FFC24A"/>
<path d="M76.9522 64.71C77.2357 64.8174 70.2676 36.1721 70.6629 33.6624C71.6251 31.3675 76.3548 43.5027 76.6225 49.2188C77.457 55.1496 76.9522 64.71 76.9522 64.71Z" fill="#FFC24A"/>
<path d="M75.0657 64.3054C74.9912 64.5698 72.9562 52.0887 69.1004 39.5007C65.5977 26.7542 60.2743 13.9009 58.4536 13.794C56.7819 13.1584 61.5674 24.6365 65.5722 36.6958C70.2087 48.7026 73.9155 61.8193 75.0657 64.3054Z" fill="#FFC24A"/>
<path d="M74.6172 72.9522C74.5442 73.211 70.2503 62.6974 64.4447 52.1825C58.9123 41.7714 51.668 30.9964 49.6831 30.5287C45.586 28.9719 52.9761 39.2293 60.1474 50.2632C67.5918 61.4008 74.5442 73.211 74.6172 72.9522Z" fill="#FFC24A"/>
<path d="M79.3164 77.0319C79.3164 77.0319 88.6213 79.4044 98.4693 83.9354C108.116 88.1486 118.307 94.5204 120.712 97.3501C123.383 100.276 113.92 93.43 102.672 87.6581C91.7539 81.7602 79.3164 77.0319 79.3164 77.0319Z" fill="#FFC24A"/>
<path d="M78.0915 78.8518C78.1604 78.6111 96.1266 88.2176 99.5019 93.9991C103.283 99.3988 78.4279 78.7106 78.0915 78.8518Z" fill="#FFC24A"/>
<path d="M72.0254 72.2125C72.3592 72.0783 43.5275 48.4242 30.3285 45.1255C17.8641 41.3263 22.9922 45.0021 25.9247 46.077C27.2576 46.5656 35.7883 49.6926 45.5156 54.7977C54.9763 59.8051 66.1667 66.986 72.0254 72.2125Z" fill="#FFC24A"/>
<path d="M68.4031 80.7036C68.4772 80.4405 57.5713 86.4897 47.9765 93.329C38.1787 99.7998 29.895 107.429 29.3604 106.06C28.7517 104.955 37.0354 97.3254 46.9619 91.4863C57.0367 85.1209 68.7542 80.5458 68.4031 80.7036Z" fill="#FFC24A"/>
<path d="M61.7817 79.8418C61.5099 79.7387 49.516 85.9826 48.3194 83.8245C46.9234 81.3067 61.7817 79.8418 61.7817 79.8418Z" fill="#FFC24A"/>
<path d="M58.4572 77.4392C58.2589 77.0947 41.4135 79.9925 39.8963 76.9923C37.9128 73.5475 58.2589 77.0947 58.4572 77.4392Z" fill="#FFC24A"/>
<path d="M64.6814 85.4204C64.3201 85.5801 54.8266 101.254 53.5095 98.088C52.1923 94.9224 64.3958 85.3124 64.6814 85.4204Z" fill="#FFC24A"/>
<path d="M68.8769 83.4006C68.9453 84.3255 47.2941 126.05 45.5716 123.91C43.9269 121.5 68.6531 83.0176 68.8769 83.4006Z" fill="#FFC24A"/>
<path d="M72.8726 78.7711C73.128 79.1642 64.2451 110.391 61.8789 108.338C59.6063 107.224 72.7918 79.044 72.8726 78.7711Z" fill="#FFC24A"/>
<path d="M71.5649 91.8455C71.7777 92.2232 74.9304 111.56 73.6056 112.846C72.4174 114.778 70.1406 105.887 70.2808 100.882C70.7101 95.9859 71.5649 91.8455 71.5649 91.8455Z" fill="#FFC24A"/>
<path d="M74.0589 87.8313C74.2653 88.2042 75.8039 107.051 78.2065 107.374C81.3035 108.549 76.3862 92.8385 74.0589 87.8313Z" fill="#FFC24A"/>
<path d="M73.3761 78.3251C73.449 78.0666 77.8865 88.0522 82.3425 96.9C87.0715 105.851 91.8191 113.665 95.1674 114.651C98.4429 115.895 93.8225 108.702 87.8016 98.9739C81.362 89.6587 73.449 78.0666 73.3761 78.3251Z" fill="#FFC24A"/>
<path d="M68.5727 77.4675C68.3728 77.1421 26.4306 71.4564 20.3719 70.0063C-2.06563 64.1032 23.4984 66.3465 34.8832 68.7271C46.3345 70.8793 65.2432 75.749 68.5727 77.4675Z" fill="#FFC24A"/>
<path d="M72.342 74.7771C72.408 74.551 52.5742 66.8504 47.7754 62.1074C42.7764 57.0416 72.4739 74.3249 72.342 74.7771Z" fill="#FFC24A"/>
<path d="M75.8289 80.0252C75.8998 79.7754 83.9637 89.1698 92.4386 98.1661C101.183 107.264 109.729 116.01 114.221 119.084C121.321 124.522 105.109 107.083 100.701 102.659C98.4335 100.147 87.5918 91.0887 75.8289 80.0252Z" fill="#FFC24A"/>
<path d="M117.036 78.0069C117.308 78.11 117.38 77.8534 117.036 78.0069C116.71 77.0309 116.039 76.2084 115.568 75.7456C115.64 75.489 115.785 74.9759 115.586 74.6162C115.658 74.3596 115.658 74.3596 115.731 74.103C115.803 73.8464 115.259 73.6402 115.259 73.6402C114.915 73.7937 114.571 73.9472 114.227 74.1007C113.755 73.6379 113.284 73.1751 112.813 72.7123C112.813 72.7123 112.269 72.5061 112.541 72.6092C112.668 73.2255 113.067 73.9449 113.466 74.6642C113.049 75.0743 112.433 75.1247 112.016 75.5348C111.672 75.6883 112.216 75.8945 112.488 75.9976C113.031 76.2038 113.647 76.1534 114.463 76.4627C114.862 77.1821 114.989 77.7984 115.46 78.2612C115.46 78.2612 115.931 78.7239 116.003 78.4674C116.148 77.9542 116.293 77.441 116.166 76.8247C115.949 77.5945 116.492 77.8007 117.036 78.0069Z" fill="#FFC24A"/>
<path d="M84.9407 36.0976C84.9407 36.0976 85.2138 36.2014 84.9407 36.0976C84.8864 35.2174 84.8321 34.3371 84.4317 33.6119C84.7778 33.4569 84.8508 33.1981 85.2698 32.7843C85.3428 32.5255 85.3428 32.5255 85.6888 32.3704C85.7618 32.1116 85.5616 31.749 85.2885 31.6452C84.7422 31.4376 84.1229 31.4889 83.5037 31.5401C82.7572 30.9699 82.63 30.3485 82.2296 29.6233C82.2296 29.6233 81.7563 29.1569 81.6833 29.4158C81.5374 29.9334 81.5917 30.8136 81.4458 31.3312C80.8266 31.3825 79.9342 31.3299 79.3879 31.1223C79.1148 31.0186 79.242 31.64 79.5152 31.7438C80.2616 32.3139 80.8079 32.5215 81.5544 33.0917C81.6816 33.7131 81.4628 34.4895 81.59 35.111C81.5171 35.3698 81.7173 35.7324 82.0634 35.5773C82.4824 35.1635 82.8285 35.0085 83.2475 34.5946C83.7209 35.061 84.1942 35.5274 84.9407 36.0976Z" fill="#FFC24A"/>
<path d="M48.619 44.8361C48.8927 44.9401 48.6922 44.5764 48.6922 44.5764C48.2911 43.8491 47.8168 43.3814 47.0688 42.8096C47.142 42.55 47.0146 41.9267 47.0877 41.667C47.1609 41.4074 47.1609 41.4074 47.2341 41.1478C47.3072 40.8881 46.7598 40.68 46.6866 40.9397C46.2666 41.3549 45.9198 41.5104 45.4997 41.9256C44.9523 41.7175 44.478 41.2498 43.9306 41.0417C43.9306 41.0417 43.3832 40.8336 43.5838 41.1973C43.7112 41.8206 44.1123 42.5479 44.5865 43.0157C44.1665 43.4309 43.7465 43.8461 43.3265 44.2613C43.2533 44.5209 43.527 44.6249 43.8007 44.729C44.1476 44.5734 44.7682 44.5219 45.3887 44.4704C45.7899 45.1977 45.9904 45.5614 46.3915 46.2888C46.3915 46.2888 46.8658 46.7565 46.9389 46.4969C47.0852 45.9776 46.9578 45.3543 47.1042 44.8351C47.451 44.6795 47.9984 44.8876 48.619 44.8361Z" fill="#FFC24A"/>
<path d="M44.239 61.8535C44.3133 61.5896 44.3133 61.5896 44.239 61.8535C43.6833 61.6421 43.3312 61.8002 42.6269 62.1165C42.349 62.0108 42.1455 61.6414 41.8677 61.5357L41.5899 61.43L41.2377 61.5882C41.4412 61.9576 41.2926 62.4853 41.4961 62.8547C41.1439 63.0129 40.7918 63.171 40.7174 63.4348L40.6431 63.6986C40.9209 63.8043 41.4766 64.0157 41.8288 63.8575C41.958 64.4908 42.1615 64.8603 42.0128 65.3879C41.9385 65.6517 42.2907 65.4936 42.365 65.2298C42.5136 64.7022 42.5879 64.4383 42.7366 63.9107C43.0144 64.0164 43.6444 63.9639 43.9223 64.0696C43.9223 64.0696 44.2744 63.9115 43.9966 63.8058C43.7931 63.4363 43.2374 63.225 43.0339 62.8555C44.016 62.6449 44.1647 62.1173 44.239 61.8535Z" fill="#FFC24A"/>
<path d="M107.861 93.4916C107.861 93.4916 107.934 93.2346 107.861 93.4916C107.39 93.0281 106.773 93.0787 106.501 92.9754C106.302 92.6152 106.03 92.512 106.102 92.2551C106.102 92.2551 105.83 92.1518 105.902 91.8949C105.902 91.8949 105.63 91.7916 105.558 92.0486C105.485 92.3056 105.685 92.6657 105.612 92.9227C105.268 93.0764 104.996 92.9732 104.651 93.1269C104.651 93.1269 104.307 93.2807 104.579 93.3839C105.123 93.5903 105.322 93.9505 105.867 94.157C105.794 94.4139 105.921 95.0311 105.849 95.288C105.776 95.545 106.121 95.3913 106.121 95.3913C106.193 95.1343 106.538 94.9806 106.955 94.5699C107.227 94.6731 107.771 94.8796 108.243 95.343C108.243 95.343 108.515 95.4462 108.587 95.1893C108.388 94.8291 108.188 94.4689 107.989 94.1087C107.444 93.9022 107.517 93.6453 107.861 93.4916Z" fill="#FFC24A"/>
<path d="M65.83 110.267C66.1043 110.371 65.83 110.267 65.83 110.267C65.2814 110.058 64.9338 110.214 64.3118 110.266C64.0375 110.162 64.1109 109.901 63.8366 109.797L63.5623 109.693L63.2147 109.849C63.1413 110.109 63.3422 110.474 63.2689 110.734C62.9212 110.89 62.5736 111.046 62.2259 111.202L62.1526 111.463C62.4269 111.567 62.9755 111.776 63.3231 111.62C63.2497 111.88 63.3773 112.505 63.304 112.765C63.2306 113.026 63.5783 112.87 63.6516 112.609C63.7983 112.089 64.146 111.932 64.2927 111.412C64.567 111.516 65.1889 111.464 65.4632 111.569L65.8109 111.412C65.61 111.048 65.3357 110.944 65.1347 110.579C65.61 111.048 65.6833 110.787 65.83 110.267Z" fill="#FFC24A"/>
<path d="M40.9716 83.9928C40.9716 83.9928 40.6944 83.8874 40.9716 83.9928C40.4172 83.7819 40.0657 83.9398 39.7143 84.0977C39.4371 83.9922 39.234 83.6234 39.234 83.6234L38.9568 83.518L38.6054 83.6759C38.8084 84.0447 38.6601 84.5713 38.8631 84.9401C38.5117 85.098 38.1603 85.2559 38.0861 85.5192L38.0119 85.7826C38.2891 85.888 38.8436 86.099 39.1208 86.2044C39.2497 86.8366 39.1755 87.0999 39.3044 87.732C39.2302 87.9954 39.5816 87.8375 39.6558 87.5742C39.8042 87.0475 39.8784 86.7841 40.0267 86.2575C40.304 86.3629 40.6554 86.205 41.2099 86.4159C41.2099 86.4159 41.5613 86.2581 41.284 86.1526C41.081 85.7838 40.8038 85.6783 40.6007 85.3095C40.4718 84.6774 40.546 84.4141 40.9716 83.9928Z" fill="#FFC24A"/>
<path d="M87.1643 113.321C87.2376 113.061 87.2376 113.061 87.1643 113.321C86.6159 113.113 85.9942 113.164 85.6467 113.32C85.3726 113.216 85.4459 112.956 85.1717 112.852L84.8975 112.747C84.8975 112.747 84.6233 112.643 84.55 112.903C84.4767 113.164 84.6776 113.528 84.6043 113.788C84.2568 113.944 83.9093 114.1 83.5618 114.256C83.5618 114.256 83.2143 114.412 83.4885 114.517C83.7626 114.621 84.311 114.829 84.5852 114.934C84.5119 115.194 84.7127 115.558 84.5661 116.079L84.8403 116.183C84.9136 115.923 85.3344 115.507 85.6819 115.351C85.9561 115.455 86.5044 115.663 86.8519 115.507L87.1994 115.351C86.9986 114.987 86.7244 114.883 86.5235 114.518C86.7435 113.737 87.091 113.581 87.1643 113.321Z" fill="#FFC24A"/>
</svg>
