<svg width="95" height="89" viewBox="0 0 95 89" fill="none" xmlns="http://www.w3.org/2000/svg">
<g clip-path="url(#clip0_1_1952)">
<path d="M82.3402 0.0153809H12.6644C6.06707 0.0153809 0 6.00917 0 12.5511V76.4526C0 82.9923 6.06707 88.9139 12.6644 88.9139H81.7075C88.3071 88.9139 94.9954 82.9923 94.9954 76.4526V12.5511C94.9954 6.00917 88.9375 0.0153809 82.3402 0.0153809Z" fill="url(#paint0_linear_1_1952)"/>
<path d="M31.3137 50.513V68.2529L33.2503 68.6387L33.2708 78.1335L26.1546 78.1222L26.1501 69.9606L27.9502 68.8349V52.0086L24.2521 54.0185V73.8046C24.3727 75.4964 22.6819 78.6185 19.4754 78.3772C16.2712 78.138 15.2107 74.7024 15.2107 72.1646C15.2107 69.629 16.0345 67.6438 17.8551 67.4498C19.6779 67.2581 21.0889 69.1101 20.6246 72.054C20.6042 72.1713 20.9 71.9096 20.9296 71.7946C21.1412 70.9374 21.0434 68.4898 21.0434 68.4898L21.0229 55.7578L17.9552 58.0024L17.9393 51.871C17.9393 51.871 22.1881 47.8849 25.3627 45.4215C28.5396 42.9581 33.66 39.9917 33.66 39.9917L33.6577 49.5745L31.3137 50.513Z" fill="url(#paint1_linear_1_1952)" stroke="#EC1C24" stroke-width="0.471567" stroke-miterlimit="10"/>
<path d="M51.1465 53.9981L54.0344 54.5982V45.9425L56.7721 46.326V66.5023L54.6739 67.2287L54.683 78.1493H62.2179V67.9348L60.1265 66.7211V46.9193L62.4591 47.4359V56.6533L64.9874 57.6188V41.1849C60.3404 38.7305 56.1895 37.5891 51.1465 37.1108V53.9981Z" fill="url(#paint2_linear_1_1952)" stroke="#EC1C24" stroke-width="0.471567" stroke-miterlimit="10"/>
<path d="M48.8437 71.4562C48.8437 71.4562 49.0758 78.3997 41.9073 78.3997C35.2462 78.3997 35.9221 70.7682 35.9221 70.7682V42.8318C36.0632 39.4119 39.1218 36.6936 42.6879 36.6936C47.0345 36.6936 48.8642 39.7142 48.8756 43.3145L48.8437 71.4562ZM45.5462 50.0415C45.5371 46.7434 42.9792 46.5517 42.3192 46.6599C41.6615 46.7705 39.2993 47.3502 39.2993 49.579C39.2993 49.579 39.272 63.9555 39.272 65.7219C39.2606 66.7054 39.4563 68.7041 42.5946 68.7041C44.0487 68.7041 45.5462 67.8311 45.5462 64.6954V50.0415Z" fill="url(#paint3_linear_1_1952)" stroke="#EC1C24" stroke-width="0.471567" stroke-miterlimit="10"/>
<path d="M78.7373 54.7199V73.6442C78.7373 78.5529 73.4895 78.3544 73.4895 78.3544C70.4901 78.3544 67.0082 74.9255 66.9582 71.5936V48.2975C66.9582 48.2975 67.1106 45.1348 69.8734 44.6994C74.7252 43.576 78.7828 50.6007 78.7373 54.7199ZM75.5331 58.5278C75.5445 57.6976 75.747 54.2101 74.0288 53.0483C71.5051 51.3384 70.3831 53.3506 70.2966 55.1846L70.308 67.506C70.308 67.506 70.1123 70.2762 73.0662 70.768C75.5035 71.174 75.5445 68.9047 75.5445 68.9047C75.5445 68.9047 75.5194 59.8113 75.5331 58.5278Z" fill="url(#paint4_linear_1_1952)" stroke="#EC1C24" stroke-width="0.471567" stroke-miterlimit="10"/>
<path d="M33.8357 14.0156V23.9346C33.838 24.0429 33.888 26.6935 33.219 29.3396C31.6396 35.6154 26.2917 39.8316 26.096 39.9692L26.0686 35.8229C26.0686 35.8229 27.0882 35.5342 27.6503 35.0537C29.0248 33.8739 30.0375 32.2542 30.438 30.9187C28.2784 29.396 26.2052 25.4573 25.6954 22.748L20.3793 36.7433V42.2747L20.946 43.6146L17.6121 46.1592L18.0012 44.2079V14.0066L17.4778 12.7072H27.054C27.5683 12.723 28.0303 12.9622 28.3375 13.3637C28.556 13.6479 28.7904 14.1465 28.6766 14.9044L27.0677 19.1906C27.0677 19.1906 28.5719 27.0522 31.3984 28.4711C31.4735 27.9004 31.5327 27.5372 31.5327 26.4634V14.0179L31.2163 12.696H34.2499L33.8357 14.0156ZM25.04 15.6128C24.9422 15.4278 24.7715 15.3195 24.5234 15.2767L20.2974 15.2789V29.7976L24.9626 17.0204C25.1333 16.3572 25.1993 15.9038 25.04 15.6128ZM43.0888 29.4118C39.5477 28.5975 37.693 25.6197 37.2652 21.6291C36.9967 19.1387 37.4541 17.6949 37.8364 16.8828C38.6101 15.2518 39.5546 15.3082 40.0689 15.3082C40.6151 15.3082 41.4047 15.9647 41.4116 15.9647L41.7757 16.2331V12.7298L38.8901 12.714C37.206 12.7072 34.457 15.694 34.6845 21.3336C34.903 26.7274 37.9297 31.0202 42.9818 32.5858L43.2822 32.676L43.3323 29.493L43.0888 29.4118ZM59.5582 28.2681C59.5127 24.2662 58.5819 22.8473 57.9219 21.6404C57.3098 20.5215 55.2457 17.9904 55.2457 17.9904L60.844 12.7276H55.9967L56.272 13.1223C56.2834 13.1336 57.1687 13.8713 55.0409 15.9399C54.4059 16.558 53.2112 17.5167 52.6878 17.8799L52.7014 14.0089L52.9495 12.7298H49.8522L50.387 14.0089V28.056C49.3083 27.6883 45.5579 27.1582 44.3268 21.6923C43.7738 19.2424 44.2107 17.255 45.3804 15.9579C45.9835 15.2857 46.6093 15.2 47.5742 15.3308C48.3912 15.4413 49.1285 16.1564 49.1285 16.1564L49.0512 12.7433L45.9516 12.7276C45.2735 12.7276 44.3996 13.2351 43.6736 14.0427C42.9386 14.8661 41.7142 16.6572 41.8462 20.0252C42.0101 24.3677 44.1879 27.1266 45.7445 28.5659C48.018 30.6683 52.9745 32.1166 52.9745 32.1166L52.6855 30.4134V22.0983C52.6787 21.284 53.218 19.6192 53.7847 19.3259C54.1761 19.732 56.8614 21.9156 57.1482 27.9162C57.1482 27.9162 57.2051 29.9893 57.2051 30.5691C57.2051 32.0263 57.3894 32.764 57.3894 32.764L60.291 33.5378C60.291 33.5378 59.788 31.9519 59.6765 30.6255C59.59 29.5607 59.5582 28.2681 59.5582 28.2681ZM78.2509 40.4767L74.0864 36.8403V21.8886L77.4112 22.6262L77.302 20.711L74.0864 20.129V15.2857H77.0312L77.971 16.4136V12.714H71.2531L71.7811 14.0044V37.1223L71.2372 37.7517L78.7766 45.0494L78.7926 40.4745H78.2509V40.4767ZM70.6933 23.9594C70.6933 23.9617 70.6933 23.9639 70.6933 23.9684C70.6933 23.973 70.6933 23.9775 70.6933 23.9797C70.6933 24 70.6933 24.0226 70.6933 24.0429C70.6933 24.0655 70.6933 24.0858 70.6933 24.1061C70.6933 24.1083 70.6933 24.1128 70.6933 24.1173C70.6933 24.1196 70.6933 24.1264 70.6933 24.1264C70.6409 29.3238 69.9332 35.5838 65.6002 35.5996C61.0852 35.6154 60.498 28.4756 60.5754 24.1782C60.5754 24.1579 60.5777 24.1354 60.5777 24.1151C60.5777 24.097 60.5777 24.0812 60.5754 24.0632C60.5754 24.0542 60.5754 24.0474 60.5754 24.0406C60.5754 24.0316 60.5754 24.0248 60.5754 24.0181C60.5777 24 60.5777 23.9842 60.5777 23.9662C60.5777 23.9481 60.5754 23.9233 60.5754 23.903C60.5003 19.6056 61.0875 12.4659 65.6002 12.4839C69.9332 12.502 70.6409 18.7597 70.6933 23.9594ZM68.1399 24.1173C68.1399 24.0925 68.1399 24.0677 68.1399 24.0429C68.1399 24.0181 68.1399 23.991 68.1399 23.9684C68.1126 21.9743 67.9533 19.0033 67.835 18.119C67.5687 16.1587 66.754 15.315 65.6548 15.315C64.5557 15.315 63.7865 16.1925 63.5088 18.0062C63.2289 19.8222 63.1993 21.7013 63.1948 23.876C63.1925 23.9256 63.1948 23.973 63.1948 24.0226C63.1948 24.0294 63.1948 24.0361 63.1948 24.0451C63.1948 24.0519 63.1948 24.0609 63.1948 24.0677C63.1948 24.1151 63.1925 24.1625 63.1948 24.2121C63.197 26.3867 63.2266 28.2658 63.5088 30.0818C63.7865 31.8955 64.5557 32.7753 65.6548 32.7753C66.754 32.7753 67.5687 31.9316 67.835 29.969C67.9533 29.0847 68.1126 26.1115 68.1399 24.1173Z" fill="#231F20" stroke="#231F20" stroke-width="0.196474" stroke-miterlimit="10"/>
</g>
<defs>
<linearGradient id="paint0_linear_1_1952" x1="0" y1="44.4649" x2="94.9962" y2="44.4649" gradientUnits="userSpaceOnUse">
<stop stop-color="#FFF100"/>
<stop offset="1" stop-color="#FFF100"/>
</linearGradient>
<linearGradient id="paint1_linear_1_1952" x1="24.4358" y1="78.6874" x2="24.4358" y2="40.0645" gradientUnits="userSpaceOnUse">
<stop offset="0.5015" stop-color="#EC1C24"/>
<stop offset="1" stop-color="#F9A51A"/>
</linearGradient>
<linearGradient id="paint2_linear_1_1952" x1="58.0663" y1="78.4701" x2="58.0663" y2="37.1852" gradientUnits="userSpaceOnUse">
<stop offset="0.5015" stop-color="#EC1C24"/>
<stop offset="1" stop-color="#F9A51A"/>
</linearGradient>
<linearGradient id="paint3_linear_1_1952" x1="42.3904" y1="78.7254" x2="42.3904" y2="36.7746" gradientUnits="userSpaceOnUse">
<stop offset="0.5015" stop-color="#EC1C24"/>
<stop offset="1" stop-color="#F9A51A"/>
</linearGradient>
<linearGradient id="paint4_linear_1_1952" x1="72.8486" y1="78.62" x2="72.8486" y2="44.6434" gradientUnits="userSpaceOnUse">
<stop offset="0.5015" stop-color="#EC1C24"/>
<stop offset="1" stop-color="#F9A51A"/>
</linearGradient>
<clipPath id="clip0_1_1952">
<rect width="95" height="89" fill="white"/>
</clipPath>
</defs>
</svg>
