<?xml version="1.0" standalone="no"?>
<!DOCTYPE svg PUBLIC "-//W3C//DTD SVG 20010904//EN"
 "http://www.w3.org/TR/2001/REC-SVG-20010904/DTD/svg10.dtd">
<svg version="1.0" xmlns="http://www.w3.org/2000/svg"
 width="426.000000pt" height="600.000000pt" viewBox="0 0 426.000000 600.000000"
 preserveAspectRatio="xMidYMid meet">

<g transform="translate(0.000000,600.000000) scale(0.100000,-0.100000)"
fill="#000000" stroke="none">
<path d="M0 3000 l0 -3000 2130 0 2130 0 0 3000 0 3000 -2130 0 -2130 0 0
-3000z m1676 2629 c3 -5 20 -9 38 -9 40 0 82 -40 78 -74 -2 -17 4 -26 25 -35
26 -12 113 -120 113 -141 0 -5 -15 -10 -32 -12 -29 -3 -33 -7 -36 -37 -4 -42
9 -56 52 -53 19 1 37 -2 41 -8 12 -19 54 -11 71 15 18 28 45 32 64 10 16 -19
40 -19 40 -1 0 20 85 59 113 52 36 -9 107 -80 107 -106 0 -13 9 -33 19 -44 17
-18 18 -26 9 -62 -9 -34 -8 -52 4 -90 l15 -49 58 -3 c33 -2 63 2 71 9 20 16
44 -6 44 -42 0 -19 9 -34 30 -49 27 -19 30 -26 24 -55 -10 -52 14 -53 28 0 12
45 12 45 48 39 44 -8 56 -18 64 -50 10 -36 36 -74 52 -74 7 0 34 -15 58 -32
38 -28 45 -39 46 -68 0 -24 13 -52 40 -90 22 -30 45 -66 51 -80 6 -14 15 -33
20 -42 12 -24 11 -28 -5 -28 -24 0 -29 -20 -16 -61 17 -51 2 -89 -35 -89 -41
0 -123 51 -135 84 -13 37 -6 46 36 46 39 0 40 2 18 35 -33 51 -118 41 -154
-17 -37 -60 -84 -211 -74 -240 10 -32 107 -65 103 -35 -4 33 2 77 11 77 6 0
10 -6 10 -12 0 -15 62 -78 77 -78 11 0 51 -52 79 -105 16 -29 23 -62 25 -119
3 -74 2 -79 -19 -87 -25 -10 -29 -31 -8 -48 8 -7 18 -26 21 -42 4 -16 18 -37
31 -48 22 -17 24 -25 20 -69 -3 -34 -1 -49 7 -49 8 0 11 14 9 41 -3 36 0 43
26 59 40 23 59 22 77 -7 15 -23 12 -56 -6 -56 -5 0 -9 -9 -9 -20 0 -12 -7 -32
-16 -45 -15 -23 -15 -24 25 -35 35 -9 46 -8 70 6 28 16 31 16 55 0 18 -11 26
-25 26 -45 0 -33 -14 -41 -70 -41 -45 0 -62 -17 -62 -65 0 -39 -3 -42 -24 -20
-22 21 -33 19 -40 -9 -10 -40 -1 -60 28 -66 42 -8 20 -28 -39 -36 -50 -6 -54
-5 -80 25 -15 17 -31 31 -36 31 -5 0 -22 -14 -39 -32 -24 -26 -33 -30 -46 -21
-10 6 -16 22 -15 39 1 16 -3 46 -9 67 -8 27 -8 44 0 62 10 23 15 24 34 14 24
-13 38 0 83 80 26 44 31 62 18 59 -18 -4 -100 15 -120 28 -12 8 -30 14 -40 14
-30 0 -63 29 -63 55 0 41 -36 42 -79 3 -34 -33 -40 -35 -96 -32 -33 2 -86 0
-118 -3 -53 -5 -61 -9 -93 -49 l-36 -43 22 -23 c12 -13 33 -40 46 -60 28 -44
63 -51 86 -16 15 22 15 22 59 5 25 -9 65 -17 91 -17 37 0 47 -4 51 -19 3 -11
-1 -22 -8 -25 -7 -2 -18 -21 -25 -40 -8 -25 -19 -38 -36 -42 -17 -4 -27 -15
-31 -35 -6 -32 -95 -119 -121 -119 -9 0 -26 9 -38 21 -27 25 -40 19 -49 -21
-5 -23 -12 -30 -31 -30 -19 0 -24 5 -24 24 0 64 -37 96 -95 82 -35 -9 -87
-112 -79 -155 5 -25 1 -36 -24 -61 -38 -37 -91 -41 -121 -9 l-19 21 -17 -26
c-10 -14 -22 -26 -27 -26 -17 0 -79 -55 -94 -83 -8 -15 -12 -37 -9 -47 3 -10
-3 -37 -15 -59 -11 -22 -20 -47 -20 -55 0 -8 -12 -28 -26 -45 -22 -26 -24 -37
-19 -74 9 -57 -14 -86 -73 -94 -23 -3 -42 -10 -42 -14 0 -5 -4 -9 -10 -9 -5 0
-10 15 -10 34 0 37 -21 54 -40 31 -14 -17 -4 -55 15 -55 7 0 15 -6 18 -14 3
-7 19 -16 36 -19 39 -8 60 -41 63 -102 3 -48 2 -50 -27 -55 -29 -5 -30 -7 -30
-64 l1 -58 -31 5 c-16 2 -38 7 -47 12 -24 10 -23 -15 3 -90 25 -71 22 -136 -8
-162 -13 -11 -29 -53 -43 -108 -29 -113 -34 -123 -68 -131 -15 -4 -56 -20 -91
-37 -49 -23 -66 -38 -77 -63 -8 -18 -22 -39 -32 -46 -24 -18 -25 -137 -1 -164
25 -29 39 -60 39 -87 0 -13 16 -54 36 -91 l35 -68 -23 -34 c-20 -30 -27 -34
-52 -29 -16 3 -34 5 -41 5 -6 0 -17 11 -23 25 -8 18 -20 25 -39 25 -33 0 -47
9 -56 33 -4 10 -17 17 -31 17 -20 0 -27 6 -31 28 -11 52 -28 97 -46 121 -11
13 -19 38 -19 56 0 18 -7 50 -16 71 -9 20 -13 49 -10 63 24 116 26 138 16 186
-6 28 -13 61 -16 74 -4 20 -9 22 -34 17 -24 -4 -33 -1 -46 20 -14 20 -16 39
-10 105 7 82 -2 119 -29 119 -7 0 -17 -9 -20 -20 -8 -25 -17 -25 -33 0 -14 24
-40 26 -48 5 -4 -8 -12 -15 -20 -15 -32 0 -6 66 45 114 17 17 31 35 31 42 0
22 -85 66 -113 59 -25 -7 -29 -4 -68 48 -16 21 -29 27 -59 27 -26 0 -48 8 -66
23 -25 22 -26 26 -16 58 23 68 33 179 21 220 -7 21 -16 39 -21 39 -13 0 -48
63 -48 88 0 12 -12 45 -26 72 -14 28 -29 76 -33 108 -8 66 -35 129 -63 145
-11 7 -26 27 -33 45 -11 26 -20 32 -44 32 -32 0 -39 8 -20 27 18 18 -11 81
-47 104 -39 24 -84 81 -84 107 0 86 77 129 176 97 18 -6 25 0 43 37 11 25 21
56 21 70 0 29 20 41 56 32 33 -8 72 19 90 63 15 34 15 35 67 30 29 -2 85 -10
126 -16 79 -13 112 -4 72 21 -25 15 -30 53 -5 44 9 -3 21 -6 28 -6 7 0 25 -11
40 -25 21 -20 38 -25 77 -25 l49 0 0 35 c0 19 4 35 9 35 6 0 7 -15 4 -34 -4
-26 2 -46 23 -85 16 -28 32 -51 37 -51 4 0 7 14 7 31 0 37 13 63 55 110 29 33
32 41 28 82 -5 39 -2 47 16 59 29 18 26 39 -9 73 -17 16 -30 37 -30 47 0 9 -9
22 -20 28 -30 16 -34 52 -11 98 12 23 21 50 21 60 0 21 71 99 109 119 13 7 41
13 62 13 43 0 54 11 40 37 -5 10 -12 26 -15 36 -4 13 -17 17 -63 17 -64 0 -72
4 -91 39 -27 48 10 141 56 141 10 0 29 11 41 24 13 13 43 30 68 38 26 7 52 23
61 36 9 14 24 22 43 22 36 0 81 55 72 88 -4 15 1 27 17 40 l23 18 -44 32 c-23
18 -51 32 -60 32 -20 0 -117 74 -126 95 -5 14 22 56 65 99 44 45 18 73 -38 41
-14 -8 -42 -14 -63 -15 l-38 0 7 38 c4 20 11 39 16 40 22 9 38 37 38 68 0 43
-23 46 -40 4 -15 -35 -20 -37 -43 -10 -32 38 -67 -6 -67 -84 0 -30 -8 -55 -25
-80 -39 -58 -31 -76 36 -76 26 0 29 3 29 33 0 50 13 63 45 49 36 -17 32 -64
-6 -72 -25 -5 -25 -6 -13 -36 8 -20 24 -36 44 -42 18 -7 34 -22 40 -37 15 -39
13 -45 -19 -45 -44 0 -54 -21 -49 -94 6 -72 -1 -96 -22 -71 -16 19 -29 19 -52
-2 -18 -16 -21 -16 -49 1 -25 14 -42 17 -86 11 l-56 -7 -58 58 c-33 32 -59 62
-59 66 0 11 103 138 112 138 23 0 2 28 -35 46 -51 25 -70 64 -44 92 9 10 17
25 17 34 0 8 9 25 20 38 11 13 20 33 20 45 0 22 32 67 83 117 15 15 27 33 27
40 0 7 17 27 38 43 27 22 48 30 77 30 32 0 40 4 43 20 9 55 46 105 79 105 13
0 26 -7 30 -17 8 -25 44 -63 59 -63 22 0 119 33 135 47 8 7 29 18 46 24 18 6
38 21 47 33 11 18 24 23 60 23 25 1 48 -3 52 -8z m829 -429 c15 -24 -66 -123
-85 -104 -20 20 -23 79 -5 97 18 18 80 23 90 7z m-1565 -1284 c0 -2 3 -11 6
-20 5 -12 0 -16 -19 -16 -16 0 -26 7 -30 20 -4 16 0 20 19 20 13 0 24 -2 24
-4z m1746 -371 c12 -11 24 -31 26 -45 2 -18 12 -27 38 -35 59 -17 64 -24 39
-51 -20 -22 -24 -22 -50 -9 -15 8 -35 15 -44 15 -8 0 -15 5 -15 10 0 6 0 13
-1 18 -1 13 -43 77 -58 88 -8 6 -11 15 -8 20 10 17 50 11 73 -11z m-466 -545
c0 -11 -4 -20 -10 -20 -5 0 -10 9 -10 20 0 11 5 20 10 20 6 0 10 -9 10 -20z
m-1151 -1876 c-16 -19 -29 -17 -29 4 0 26 11 34 27 21 10 -9 10 -15 2 -25z
m21 -96 c0 -7 -7 -21 -15 -32 -12 -16 -12 -23 1 -49 14 -26 14 -31 1 -44 -17
-17 -37 -10 -37 14 0 9 -7 24 -16 34 -19 21 -13 46 13 56 10 4 22 12 26 20 10
17 27 17 27 1z"/>
<path d="M1640 5160 c0 -5 7 -10 15 -10 8 0 15 5 15 10 0 6 -7 10 -15 10 -8 0
-15 -4 -15 -10z"/>
<path d="M1625 4881 c-10 -18 6 -102 21 -108 8 -3 26 2 40 11 21 15 25 23 22
59 -3 40 -4 42 -40 45 -20 2 -39 -2 -43 -7z"/>
<path d="M2490 4559 c0 -38 24 -35 28 4 2 19 -1 27 -12 27 -11 0 -16 -10 -16
-31z"/>
<path d="M2492 4481 c-22 -44 -20 -51 14 -51 27 0 47 30 42 63 -5 38 -35 32
-56 -12z"/>
<path d="M2777 3983 c-14 -13 -6 -40 16 -61 13 -12 26 -22 30 -22 15 0 6 58
-11 73 -20 19 -26 20 -35 10z"/>
<path d="M1448 2613 c7 -3 16 -2 19 1 4 3 -2 6 -13 5 -11 0 -14 -3 -6 -6z"/>
</g>
</svg>
