<svg width="368" height="276" viewBox="0 0 368 276" fill="none" xmlns="http://www.w3.org/2000/svg">
<mask id="mask0_381_2574" style="mask-type:alpha" maskUnits="userSpaceOnUse" x="-7" y="0" width="375" height="276">
<rect x="-7" width="375" height="275.897" fill="#C4C4C4"/>
</mask>
<g mask="url(#mask0_381_2574)">
<g style="mix-blend-mode:screen" opacity="0.1">
<path d="M-389.707 -14.7321C-305.256 17.9358 -246.804 39.883 -140.523 56.3561C-111.861 59.6863 -52.9038 65.3554 16.6496 51.404C86.7425 38.8125 163.73 2.95286 232.727 -38.5151C301.725 -79.9832 368.706 -120.418 424.232 -135.054C454.365 -142.836 485.172 -148.056 516.337 -150.071C547.435 -152.687 578.699 -152.077 609.726 -148.4C663.515 -142.161 750.292 -119.888 789.802 -40.2923C808.275 -1.56962 813.582 42.4567 804.919 84.5754C796.616 126.452 765.96 159.03 733.289 173.581C665.537 205.381 603.001 179.828 577.642 169.645C526.731 152.748 483.66 145.328 444.892 153.859C425.828 158.393 408.393 168.831 395.176 184.077C389.024 191.446 382.892 202.464 388.245 212.216C393.709 222.969 410.432 218.287 411.723 205.573C411.5 219.183 391.005 226.512 384.516 215.263C378.028 204.014 386.153 191.763 392.091 184.214C405.748 167.703 423.814 155.979 443.937 150.517C483.551 140.879 527.387 148.214 578.681 165.07C604.85 175.569 664.741 199.994 731.266 169.343C763.002 155.098 792.452 123.869 800.506 83.2367C809.112 42.3409 803.917 -0.683826 785.748 -38.426C747.655 -115.745 662.623 -138.007 609.047 -144.066C578.212 -147.765 547.353 -148.217 516.424 -145.823C485.642 -143.85 455.004 -138.851 425.085 -130.89C370.302 -116.538 303.873 -76.3671 234.684 -34.878C165.495 6.61112 88.192 43.1139 17.5249 55.7686C-52.8165 69.6041 -112.134 64.1775 -141.01 60.6681C-248.057 44.2794 -306.305 20.6875 -389.707 -14.7321Z" fill="#A81C25" fill-opacity="0.3"/>
<path d="M-389.707 -14.7321C-305.256 17.9358 -246.804 39.883 -140.523 56.3561C-111.861 59.6863 -52.9038 65.3554 16.6496 51.404C86.7425 38.8125 163.73 2.95286 232.727 -38.5151C301.725 -79.9832 368.706 -120.418 424.232 -135.054C454.365 -142.836 485.172 -148.056 516.337 -150.071C547.435 -152.687 578.699 -152.077 609.726 -148.4C663.515 -142.161 750.292 -119.888 789.802 -40.2923C808.275 -1.56962 813.582 42.4567 804.919 84.5754C796.616 126.452 765.96 159.03 733.289 173.581C665.537 205.381 603.001 179.828 577.642 169.645C526.731 152.748 483.66 145.328 444.892 153.859C425.828 158.393 408.393 168.831 395.176 184.077C389.024 191.446 382.892 202.464 388.245 212.216C393.709 222.969 410.432 218.287 411.723 205.573C411.5 219.183 391.005 226.512 384.516 215.263C378.028 204.014 386.153 191.763 392.091 184.214C405.748 167.703 423.814 155.979 443.937 150.517C483.551 140.879 527.387 148.214 578.681 165.07C604.85 175.569 664.741 199.994 731.266 169.343C763.002 155.098 792.452 123.869 800.506 83.2367C809.112 42.3409 803.917 -0.683826 785.748 -38.426C747.655 -115.745 662.623 -138.007 609.047 -144.066C578.212 -147.765 547.353 -148.217 516.424 -145.823C485.642 -143.85 455.004 -138.851 425.085 -130.89C370.302 -116.538 303.873 -76.3671 234.684 -34.878C165.495 6.61112 88.192 43.1139 17.5249 55.7686C-52.8165 69.6041 -112.134 64.1775 -141.01 60.6681C-248.057 44.2794 -306.305 20.6875 -389.707 -14.7321Z" fill="#FFD43E"/>
<path d="M72.7867 198.418C82.4463 191.293 92.8365 185.503 103.766 181.068C120.425 174.184 137.409 168.478 154.977 164.526C168.573 161.415 182.494 159.48 196.549 158.744C210.626 158.208 224.714 159.489 238.429 162.63C260.786 166.842 281.943 181.09 288.968 193.657C298.701 211.383 287.688 223.71 273.859 223.006C286.453 219.601 285.729 207.959 280.066 195.444C276.751 188.33 259.129 171.067 237.56 166.97C224.059 164.007 210.354 162.684 196.658 163.179C182.986 163.873 169.256 165.786 155.852 168.876C138.689 172.985 121.682 178.492 105.406 185.334C91.8877 190.862 84.0764 193.741 72.7867 198.418Z" fill="#A81C25" fill-opacity="0.3"/>
<path d="M72.7867 198.418C82.4463 191.293 92.8365 185.503 103.766 181.068C120.425 174.184 137.409 168.478 154.977 164.526C168.573 161.415 182.494 159.48 196.549 158.744C210.626 158.208 224.714 159.489 238.429 162.63C260.786 166.842 281.943 181.09 288.968 193.657C298.701 211.383 287.688 223.71 273.859 223.006C286.453 219.601 285.729 207.959 280.066 195.444C276.751 188.33 259.129 171.067 237.56 166.97C224.059 164.007 210.354 162.684 196.658 163.179C182.986 163.873 169.256 165.786 155.852 168.876C138.689 172.985 121.682 178.492 105.406 185.334C91.8877 190.862 84.0764 193.741 72.7867 198.418Z" fill="#FFD43E"/>
<path d="M-77.6488 70.2527C-77.6488 70.2527 -44.2022 70.9953 -28.7546 94.9855C-18.6913 110.607 -1.60453 94.6216 7.53862 112.333C0.720323 86.2105 -23.3832 70.9215 -77.6488 70.2527Z" fill="#A81C25" fill-opacity="0.3"/>
<path d="M-77.6488 70.2527C-77.6488 70.2527 -44.2022 70.9953 -28.7546 94.9855C-18.6913 110.607 -1.60453 94.6216 7.53862 112.333C0.720323 86.2105 -23.3832 70.9215 -77.6488 70.2527Z" fill="#FFD43E"/>
<path d="M2.12775 127.902C-1.26617 135.18 -9.7411 138.27 -16.8627 134.699C-23.9844 131.127 -27.0891 122.381 -23.6952 115.103C-20.3012 107.825 -11.8263 104.734 -4.70468 108.306C2.41696 111.878 5.52166 120.624 2.12775 127.902ZM-11.6222 133.538C-10.0172 134.154 -8.35562 133.579 -7.58528 131.916C-7.00449 130.274 -7.58305 128.559 -9.21022 127.749C-10.6257 127.112 -12.4768 127.708 -13.0798 129.155C-13.8279 131.013 -13.2272 132.923 -11.6222 133.538C-11.8117 133.559 -11.6222 133.538 -11.6222 133.538ZM-12.744 110.165C-20.8721 111.243 -22.7619 119.938 -22.6632 122.494C-22.6632 122.494 -19.7592 114.282 -11.8207 113.224C-5.39851 112.33 0.305483 118.622 0.305483 118.622C-0.260952 115.327 -5.75321 109.21 -12.744 110.165Z" fill="#A81C25" fill-opacity="0.3"/>
<path d="M2.12775 127.902C-1.26617 135.18 -9.7411 138.27 -16.8627 134.699C-23.9844 131.127 -27.0891 122.381 -23.6952 115.103C-20.3012 107.825 -11.8263 104.734 -4.70468 108.306C2.41696 111.878 5.52166 120.624 2.12775 127.902ZM-11.6222 133.538C-10.0172 134.154 -8.35562 133.579 -7.58528 131.916C-7.00449 130.274 -7.58305 128.559 -9.21022 127.749C-10.6257 127.112 -12.4768 127.708 -13.0798 129.155C-13.8279 131.013 -13.2272 132.923 -11.6222 133.538C-11.8117 133.559 -11.6222 133.538 -11.6222 133.538ZM-12.744 110.165C-20.8721 111.243 -22.7619 119.938 -22.6632 122.494C-22.6632 122.494 -19.7592 114.282 -11.8207 113.224C-5.39851 112.33 0.305483 118.622 0.305483 118.622C-0.260952 115.327 -5.75321 109.21 -12.744 110.165Z" fill="#FFD43E"/>
<path d="M158.615 145.257C144.618 156.618 105.348 190.807 72.3152 204.851C26.4792 227.117 -21.093 223.687 -20.5199 223.625C-20.2842 224 -67.0152 222.887 -113.16 201.243C-159.721 181.048 -202.823 145.227 -216.399 132.865C-241.801 109.957 -256.306 91.0756 -273.404 68.063C-254.193 89.2394 -238.675 106.806 -213.701 129.36C-200.337 141.544 -157.471 176.99 -111.505 197.049C-65.9562 218.557 -20.2027 219.577 -20.4384 219.201C-20.8205 219.243 16.8629 224.154 69.385 201.158C103.665 186.176 147.86 147.636 148.934 138.289C148.934 138.289 152.266 145.549 158.615 145.257Z" fill="#A81C25" fill-opacity="0.3"/>
<path d="M158.615 145.257C144.618 156.618 105.348 190.807 72.3152 204.851C26.4792 227.117 -21.093 223.687 -20.5199 223.625C-20.2842 224 -67.0152 222.887 -113.16 201.243C-159.721 181.048 -202.823 145.227 -216.399 132.865C-241.801 109.957 -256.306 91.0756 -273.404 68.063C-254.193 89.2394 -238.675 106.806 -213.701 129.36C-200.337 141.544 -157.471 176.99 -111.505 197.049C-65.9562 218.557 -20.2027 219.577 -20.4384 219.201C-20.8205 219.243 16.8629 224.154 69.385 201.158C103.665 186.176 147.86 147.636 148.934 138.289C148.934 138.289 152.266 145.549 158.615 145.257Z" fill="#FFD43E"/>
<path d="M192.171 -11.0342C218.967 -28.2958 247.454 -42.5531 277.06 -53.7439C296.73 -60.6657 358.982 -85.1713 419.194 -76.5765C481.862 -68.448 513.836 -12.7442 512.514 -14.1945C518.506 -3.8867 522.871 7.39508 525.184 19.2986C529.857 40.1116 526.719 73.7302 503.272 95.0112C479.826 116.292 439.76 110.089 422.07 88.5002C404.079 65.9476 407.515 40.068 410.403 29.7906C425.24 -11.2776 479.813 -3.06569 480.564 32.521C476.281 -1.88441 420.283 7.99241 414.416 31.1475C411.775 40.2023 411.718 60.1351 433.684 73.4877C449.206 82.7589 469.3 79.577 485.709 69.4231C500.873 60.2017 508.494 47.4169 511.139 31.5865C514.662 9.88203 510.232 -5.37801 506.459 -13.1374C502.685 -20.8968 479.023 -64.5525 418.519 -72.3185C360.066 -80.7062 297.96 -56.615 278.481 -49.7139C249.279 -38.3677 220.445 -25.4676 192.171 -11.0342Z" fill="#A81C25" fill-opacity="0.3"/>
<path d="M192.171 -11.0342C218.967 -28.2958 247.454 -42.5531 277.06 -53.7439C296.73 -60.6657 358.982 -85.1713 419.194 -76.5765C481.862 -68.448 513.836 -12.7442 512.514 -14.1945C518.506 -3.8867 522.871 7.39508 525.184 19.2986C529.857 40.1116 526.719 73.7302 503.272 95.0112C479.826 116.292 439.76 110.089 422.07 88.5002C404.079 65.9476 407.515 40.068 410.403 29.7906C425.24 -11.2776 479.813 -3.06569 480.564 32.521C476.281 -1.88441 420.283 7.99241 414.416 31.1475C411.775 40.2023 411.718 60.1351 433.684 73.4877C449.206 82.7589 469.3 79.577 485.709 69.4231C500.873 60.2017 508.494 47.4169 511.139 31.5865C514.662 9.88203 510.232 -5.37801 506.459 -13.1374C502.685 -20.8968 479.023 -64.5525 418.519 -72.3185C360.066 -80.7062 297.96 -56.615 278.481 -49.7139C249.279 -38.3677 220.445 -25.4676 192.171 -11.0342Z" fill="#FFD43E"/>
<path d="M-214.369 140.48C-214.369 140.48 -131.671 223.602 -56.0893 223.545C-59.9701 230.134 -65.6521 232.74 -75.4233 234.996C-64.4 236.981 2.48113 211.212 11.1258 253.442C-2.93433 234.877 -52.5107 268.713 -105.635 244.048C-150.795 223.293 -182.834 182.212 -214.369 140.48Z" fill="#A81C25" fill-opacity="0.3"/>
<path d="M-214.369 140.48C-214.369 140.48 -131.671 223.602 -56.0893 223.545C-59.9701 230.134 -65.6521 232.74 -75.4233 234.996C-64.4 236.981 2.48113 211.212 11.1258 253.442C-2.93433 234.877 -52.5107 268.713 -105.635 244.048C-150.795 223.293 -182.834 182.212 -214.369 140.48Z" fill="#FFD43E"/>
<path d="M78.0267 40.0167C86.1064 36.9729 94.5967 35.8555 102.61 32.2277C159.438 6.55625 206.295 -34.3922 184.451 -81.6893C167.419 -118.668 127.576 -120.459 104.075 -99.7797C80.0727 -78.455 76.9174 -33.7692 113.525 -20.0001C150.133 -6.23095 175.009 -36.7162 155.946 -64.6064C165.738 -32.3608 132.288 -8.23815 114.53 -24.6419C96.3489 -41.394 98.9802 -67.1029 118.937 -78.5292C134.932 -87.7521 161.68 -88.2867 172.82 -74.5159C190.63 -52.5995 179.003 -18.4263 137.205 9.75462C111.937 26.6837 78.0267 40.0167 78.0267 40.0167Z" fill="#A81C25" fill-opacity="0.3"/>
<path d="M78.0267 40.0167C86.1064 36.9729 94.5967 35.8555 102.61 32.2277C159.438 6.55625 206.295 -34.3922 184.451 -81.6893C167.419 -118.668 127.576 -120.459 104.075 -99.7797C80.0727 -78.455 76.9174 -33.7692 113.525 -20.0001C150.133 -6.23095 175.009 -36.7162 155.946 -64.6064C165.738 -32.3608 132.288 -8.23815 114.53 -24.6419C96.3489 -41.394 98.9802 -67.1029 118.937 -78.5292C134.932 -87.7521 161.68 -88.2867 172.82 -74.5159C190.63 -52.5995 179.003 -18.4263 137.205 9.75462C111.937 26.6837 78.0267 40.0167 78.0267 40.0167Z" fill="#FFD43E"/>
<path d="M-64.0775 66.8689C-42.0119 64.4741 1.66212 57.3533 44.4165 70.9671C84.9894 84.0239 105.373 139.748 63.9852 158.525C37.9974 170.472 10.3717 154.423 9.63822 129.304C8.83794 103.598 36.3173 86.1316 54.8347 103.368C37.4665 91.1656 13.4477 103.494 21.7254 123.826C28.5848 140.145 47.2811 140.298 58.5084 132.334C70.8103 123.658 71.5806 91.4315 43.7525 76.9915C14.1011 61.7573 -23.1944 67.3922 -64.0775 66.8689Z" fill="#A81C25" fill-opacity="0.3"/>
<path d="M-64.0775 66.8689C-42.0119 64.4741 1.66212 57.3533 44.4165 70.9671C84.9894 84.0239 105.373 139.748 63.9852 158.525C37.9974 170.472 10.3717 154.423 9.63822 129.304C8.83794 103.598 36.3173 86.1316 54.8347 103.368C37.4665 91.1656 13.4477 103.494 21.7254 123.826C28.5848 140.145 47.2811 140.298 58.5084 132.334C70.8103 123.658 71.5806 91.4315 43.7525 76.9915C14.1011 61.7573 -23.1944 67.3922 -64.0775 66.8689Z" fill="#FFD43E"/>
<path d="M194.323 70.6383C200.456 60.5042 210.545 64.9345 207.196 75.9505C203.847 86.9665 190.813 90.3521 190.813 90.3521C196.031 82.2899 189.963 77.8184 194.323 70.6383ZM177.227 66.9675C186.321 77.8186 191.417 104.096 163.189 123.924C163.189 123.924 116.388 83.2285 161.012 28.8749C163.465 42.0239 168.134 56.1164 177.227 66.9675ZM163.974 98.7849C170.271 110.334 168.867 111.472 165.512 114.006C153.435 100.519 149.538 81.4108 155.843 64.3534C156.892 60.0968 156.383 55.6146 154.235 51.9018C138.139 87.381 164.986 117.811 164.986 117.811C180.497 109.225 173.959 92.1789 168.997 82.2609C165.526 75.3378 163.806 65.2658 162.374 57.7271C155.121 78.2411 157.677 87.2362 163.974 98.7849ZM198.061 95.0902C211.277 86.5557 221.235 86.4628 230.112 88.6572C238.988 90.8515 247.441 92.6972 256.297 91.3427C248.526 102.246 243.304 117.016 217.42 130.475C190.254 144.467 171.006 128.601 167.943 126.96C168.88 125.083 184.845 103.625 198.061 95.0902ZM238.411 104.329C235.883 104.011 234.857 105.109 231.904 107.796C228.95 110.484 207.069 135.542 182.471 123.215C184.288 120.651 192.244 116.435 197.468 116.855C202.692 117.275 211.779 119.644 229.601 102.719C216.613 103.141 211.67 100.125 202.009 104.526C192.349 108.927 182.342 115.338 177.257 124.57C177.424 124.354 210.136 145.666 238.411 104.329ZM263.016 54.3153C264.095 73.9262 258.254 79.8858 250.967 83.2402C243.513 86.8101 235.438 84.9233 228.21 83.734C221.739 82.4626 211.747 83.9402 209.474 84.1865C210.901 83.2428 212.138 82.3196 213.375 81.3964L213.898 80.9451C215.47 79.5911 217.019 78.0422 218.379 76.5139C221.601 72.811 225.056 69.4773 228.7 66.1231C226.75 67.5182 224.544 68.3491 222.104 68.8108C222.284 67.0159 222.463 65.2209 222.264 63.467C222.197 62.8824 222.131 62.2978 222.042 61.5182C226.344 58.882 230.389 55.6816 233.989 51.9376C230.345 55.2919 225.999 57.5384 221.353 58.831C221.053 57.8772 220.564 56.9438 220.074 56.0105C224.476 52.5742 228.433 48.5943 232.156 44.2452C227.966 47.8558 223.352 51.1178 218.694 53.99C218.038 53.2721 217.381 52.5541 216.746 52.0311C219.835 47.1589 225.52 39.8352 229.635 33.8655C226.659 36.3581 219.235 45.2512 215.054 50.6363C214.442 50.3081 213.829 49.9799 213.217 49.6517C214.847 43.754 217.382 34.0099 218.22 29.5789C215.621 35.3844 212.184 45.6209 211.19 48.6877C210.578 48.3596 209.988 48.2262 209.397 48.093C208.406 47.8058 207.226 47.5392 206.067 47.4675C206.537 44.852 208.403 35.9695 207.736 33.4772C207.343 38.4517 205.791 43.3546 203.204 47.5805C202.636 47.6421 202.09 47.8986 201.544 48.155C200.956 44.6678 199.633 41.4575 197.931 38.2882C199.343 42.278 199.073 46.6474 197.388 50.381C196.151 51.3042 195.103 52.2069 194.078 53.3044C193.055 51.048 191.508 49.2429 189.437 47.8891C192.728 56.6072 187.79 62.0744 185.902 70.762C184.446 66.3824 177.979 58.4031 174.019 50.5466C170.058 42.6902 166.858 31.3977 173.637 20.2071C180.417 9.01654 191.494 1.89763 199.927 0.194461C208.36 -1.50871 212.065 5.7836 213.005 15.7429C214.111 10.2964 220.121 0.767517 232.347 7.13618C244.574 13.5048 248.318 27.8948 235.569 37.1678C246.511 32.2336 262.08 37.6481 263.016 54.3153ZM192.793 8.267C176.625 16.135 171.536 32.0744 175.361 42.1155C175.361 42.1155 172.465 25.0689 190.929 13.7955C206.351 4.43009 208.081 16.2765 208.081 16.2765C208.081 16.2765 209.15 0.378479 192.793 8.267ZM236.253 31.3727C236.253 31.3727 245.194 18.9614 230.016 11.9262C219.081 6.79857 215.597 19.9993 215.597 19.9993C215.597 19.9993 218.12 11.8347 228.376 16.0496C240.258 21.0746 236.253 31.3727 236.253 31.3727ZM237.828 41.855C243.742 41.6085 253.076 42.7668 255.185 54.5723C258.115 70.2342 249.009 79.5069 239.585 80.9229C242.703 81.374 262.184 82.4189 258.839 52.9925C257.057 35.6279 237.828 41.855 237.828 41.855ZM160.465 133.689C165.898 137.637 167.073 129.422 167.073 129.422L176.827 134.283C176.827 134.283 168.321 145.463 157.366 136.787C146.411 128.11 153.693 116.273 153.693 116.273L161.45 125.494C161.261 125.514 153.996 129.064 160.465 133.689Z" fill="#A81C25" fill-opacity="0.3"/>
<path d="M194.323 70.6383C200.456 60.5042 210.545 64.9345 207.196 75.9505C203.847 86.9665 190.813 90.3521 190.813 90.3521C196.031 82.2899 189.963 77.8184 194.323 70.6383ZM177.227 66.9675C186.321 77.8186 191.417 104.096 163.189 123.924C163.189 123.924 116.388 83.2285 161.012 28.8749C163.465 42.0239 168.134 56.1164 177.227 66.9675ZM163.974 98.7849C170.271 110.334 168.867 111.472 165.512 114.006C153.435 100.519 149.538 81.4108 155.843 64.3534C156.892 60.0968 156.383 55.6146 154.235 51.9018C138.139 87.381 164.986 117.811 164.986 117.811C180.497 109.225 173.959 92.1789 168.997 82.2609C165.526 75.3378 163.806 65.2658 162.374 57.7271C155.121 78.2411 157.677 87.2362 163.974 98.7849ZM198.061 95.0902C211.277 86.5557 221.235 86.4628 230.112 88.6572C238.988 90.8515 247.441 92.6972 256.297 91.3427C248.526 102.246 243.304 117.016 217.42 130.475C190.254 144.467 171.006 128.601 167.943 126.96C168.88 125.083 184.845 103.625 198.061 95.0902ZM238.411 104.329C235.883 104.011 234.857 105.109 231.904 107.796C228.95 110.484 207.069 135.542 182.471 123.215C184.288 120.651 192.244 116.435 197.468 116.855C202.692 117.275 211.779 119.644 229.601 102.719C216.613 103.141 211.67 100.125 202.009 104.526C192.349 108.927 182.342 115.338 177.257 124.57C177.424 124.354 210.136 145.666 238.411 104.329ZM263.016 54.3153C264.095 73.9262 258.254 79.8858 250.967 83.2402C243.513 86.8101 235.438 84.9233 228.21 83.734C221.739 82.4626 211.747 83.9402 209.474 84.1865C210.901 83.2428 212.138 82.3196 213.375 81.3964L213.898 80.9451C215.47 79.5911 217.019 78.0422 218.379 76.5139C221.601 72.811 225.056 69.4773 228.7 66.1231C226.75 67.5182 224.544 68.3491 222.104 68.8108C222.284 67.0159 222.463 65.2209 222.264 63.467C222.197 62.8824 222.131 62.2978 222.042 61.5182C226.344 58.882 230.389 55.6816 233.989 51.9376C230.345 55.2919 225.999 57.5384 221.353 58.831C221.053 57.8772 220.564 56.9438 220.074 56.0105C224.476 52.5742 228.433 48.5943 232.156 44.2452C227.966 47.8558 223.352 51.1178 218.694 53.99C218.038 53.2721 217.381 52.5541 216.746 52.0311C219.835 47.1589 225.52 39.8352 229.635 33.8655C226.659 36.3581 219.235 45.2512 215.054 50.6363C214.442 50.3081 213.829 49.9799 213.217 49.6517C214.847 43.754 217.382 34.0099 218.22 29.5789C215.621 35.3844 212.184 45.6209 211.19 48.6877C210.578 48.3596 209.988 48.2262 209.397 48.093C208.406 47.8058 207.226 47.5392 206.067 47.4675C206.537 44.852 208.403 35.9695 207.736 33.4772C207.343 38.4517 205.791 43.3546 203.204 47.5805C202.636 47.6421 202.09 47.8986 201.544 48.155C200.956 44.6678 199.633 41.4575 197.931 38.2882C199.343 42.278 199.073 46.6474 197.388 50.381C196.151 51.3042 195.103 52.2069 194.078 53.3044C193.055 51.048 191.508 49.2429 189.437 47.8891C192.728 56.6072 187.79 62.0744 185.902 70.762C184.446 66.3824 177.979 58.4031 174.019 50.5466C170.058 42.6902 166.858 31.3977 173.637 20.2071C180.417 9.01654 191.494 1.89763 199.927 0.194461C208.36 -1.50871 212.065 5.7836 213.005 15.7429C214.111 10.2964 220.121 0.767517 232.347 7.13618C244.574 13.5048 248.318 27.8948 235.569 37.1678C246.511 32.2336 262.08 37.6481 263.016 54.3153ZM192.793 8.267C176.625 16.135 171.536 32.0744 175.361 42.1155C175.361 42.1155 172.465 25.0689 190.929 13.7955C206.351 4.43009 208.081 16.2765 208.081 16.2765C208.081 16.2765 209.15 0.378479 192.793 8.267ZM236.253 31.3727C236.253 31.3727 245.194 18.9614 230.016 11.9262C219.081 6.79857 215.597 19.9993 215.597 19.9993C215.597 19.9993 218.12 11.8347 228.376 16.0496C240.258 21.0746 236.253 31.3727 236.253 31.3727ZM237.828 41.855C243.742 41.6085 253.076 42.7668 255.185 54.5723C258.115 70.2342 249.009 79.5069 239.585 80.9229C242.703 81.374 262.184 82.4189 258.839 52.9925C257.057 35.6279 237.828 41.855 237.828 41.855ZM160.465 133.689C165.898 137.637 167.073 129.422 167.073 129.422L176.827 134.283C176.827 134.283 168.321 145.463 157.366 136.787C146.411 128.11 153.693 116.273 153.693 116.273L161.45 125.494C161.261 125.514 153.996 129.064 160.465 133.689Z" fill="#FFD43E"/>
<path d="M4.96414 21.9802C-0.9255 29.5909 -13.1261 37.6886 -25.7503 42.0485C-25.7503 42.0485 -14.089 36.0009 -5.98298 15.6029C2.70701 -6.45185 18.7405 3.95291 4.96414 21.9802ZM63.1734 -101.051C75.9471 -93.876 78.3992 -72.2362 56.8564 -56.3517C63.0682 -59.4169 70.0825 -55.4 70.4492 -50.4611C71.0611 -43.3583 66.765 -38.709 62.2338 -34.4325C73.6434 -32.4867 68.0781 -23.7164 62.3834 -22.8981C56.6887 -22.0797 48.4697 -17.9997 46.0894 -11.7664C54.0307 -19.9984 72.1347 -21.9669 73.0241 -10.7121C74.2703 3.69035 52.3069 -6.26878 45.2738 1.46618C75.6531 -2.83278 92.3301 35.3829 55.9842 44.9111C66.1721 29.2654 45.2464 26.7611 29.5286 31.0591C15.8624 34.7357 8.96521 40.2652 -12.4172 50.7553C-35.4478 62.0221 -61.219 64.426 -83.5032 65.2558C-137.263 67.5165 -166.468 58.3448 -166.468 58.3448C-145.52 61.0458 -111.527 66.5105 -63.2252 46.7206C-39.0634 36.9241 -33.9172 17.6445 -33.3289 9.21624C-32.8866 1.20217 -34.4859 -4.39927 -39.8096 -5.41361C-46.5118 -6.67636 -49.0159 0.167851 -46.4415 5.86241C-58.6054 9.17652 -66.4279 -10.4853 -61.0855 -21.2228C-55.7431 -31.9603 -44.2378 -39.385 -27.5535 -30.0467C-16.6286 -23.8661 -15.8449 -5.0321 -19.7095 8.53198C-8.21569 -16.0183 -16.7502 -26.641 -20.4536 -37.1915C-24.6719 -48.8809 -18.4903 -57.3199 -10.4764 -56.3989C6.54876 -54.2671 0.942417 -33.9418 -3.18319 -32.8957C-3.18319 -32.8957 2.5338 -33.5173 3.25585 -40.7652C4.91279 -55.085 11.82 -58.8233 21.3829 -61.2571C36.7642 -65.1202 52.0362 -73.3527 46.7313 -86.1189C44.09 -92.4036 40.0881 -91.9685 36.7024 -91.2021C42.1109 -82.6293 33.9043 -80.1438 31.1372 -82.4318C28.818 -84.1711 27.6668 -89.2239 30.114 -94.867C36.164 -107.872 55.7557 -105.223 63.1734 -101.051ZM18.2688 -12.1269C17.8431 -12.4789 17.2267 -12.8102 16.6105 -13.1415C19.7653 -21.0522 22.539 -28.9215 24.887 -37.1427C22.1356 -29.0768 18.7456 -21.5388 14.571 -14.1146C13.9548 -14.4459 13.1702 -14.5598 12.5762 -14.6943C14.318 -21.4556 15.4657 -28.3515 16.0418 -35.1852C14.7034 -28.2686 12.7711 -21.4866 10.032 -15.0151C8.86628 -15.0875 7.72286 -14.9632 6.77002 -14.8596C6.90812 -20.4508 6.55368 -26.9842 6.38976 -33.5383C5.97192 -28.7133 5.35131 -22.273 4.14673 -14.1761C3.23848 -13.679 2.35252 -12.9852 1.46656 -12.2915C1.03295 -17.8205 -0.331252 -23.0492 -2.45767 -28.195C-1.02665 -22.3761 -0.357831 -16.4744 -0.260781 -10.5104C-0.597334 -10.0755 -1.94356 -8.33597 -2.28011 -7.90108C-3.52056 -13.7407 -5.88208 -19.2593 -9.12961 -24.084C-9.12961 -24.084 -1.46107 -9.18504 -10.297 13.2839C-23.2306 45.5583 -75.2252 56.5889 -75.2252 56.5889C-47.291 54.5472 -23.3442 47.9605 -6.6814 38.3818C6.18013 31.0089 17.0591 21.4617 20.8604 19.2561C24.6617 17.0504 29.4057 12.9499 37.7439 15.0305C32.8136 12.3802 25.9978 13.5196 22.377 13.9133C22.6912 13.2817 23.488 11.801 23.9929 11.1486C29.4079 9.5641 34.308 6.84066 38.5026 2.99902C34.5776 5.81559 29.7567 7.53468 24.9702 7.85598C25.4081 6.61346 25.6332 5.19494 25.69 3.99386C30.063 1.72604 35.8491 -1.6912 38.3733 -4.95289C34.4483 -2.13633 30.0753 0.131507 25.6354 1.80916C25.5463 1.02226 25.4571 0.23535 25.3679 -0.55155L37.7714 -10.2645L24.9544 -2.49808C24.8652 -3.28498 24.6078 -3.85443 24.328 -4.62061C29.0052 -9.31132 35.4097 -15.783 38.9658 -20.1527C35.4666 -16.9841 28.6363 -10.8644 23.5557 -6.32899C23.2983 -6.89845 22.8503 -7.44717 22.4023 -7.99591C26.0597 -13.1732 30.8729 -20.0693 34.1493 -25.2051C28.7867 -18.0501 25.3989 -13.8979 21.5063 -9.09339C21.0806 -9.4454 20.6548 -9.7974 20.2068 -10.3461C24.5496 -17.9877 27.8728 -26.1159 30.1985 -34.5339C28.9616 -28.4249 24.0916 -20.3277 18.2688 -12.1269Z" fill="#A81C25" fill-opacity="0.3"/>
<path d="M4.96414 21.9802C-0.9255 29.5909 -13.1261 37.6886 -25.7503 42.0485C-25.7503 42.0485 -14.089 36.0009 -5.98298 15.6029C2.70701 -6.45185 18.7405 3.95291 4.96414 21.9802ZM63.1734 -101.051C75.9471 -93.876 78.3992 -72.2362 56.8564 -56.3517C63.0682 -59.4169 70.0825 -55.4 70.4492 -50.4611C71.0611 -43.3583 66.765 -38.709 62.2338 -34.4325C73.6434 -32.4867 68.0781 -23.7164 62.3834 -22.8981C56.6887 -22.0797 48.4697 -17.9997 46.0894 -11.7664C54.0307 -19.9984 72.1347 -21.9669 73.0241 -10.7121C74.2703 3.69035 52.3069 -6.26878 45.2738 1.46618C75.6531 -2.83278 92.3301 35.3829 55.9842 44.9111C66.1721 29.2654 45.2464 26.7611 29.5286 31.0591C15.8624 34.7357 8.96521 40.2652 -12.4172 50.7553C-35.4478 62.0221 -61.219 64.426 -83.5032 65.2558C-137.263 67.5165 -166.468 58.3448 -166.468 58.3448C-145.52 61.0458 -111.527 66.5105 -63.2252 46.7206C-39.0634 36.9241 -33.9172 17.6445 -33.3289 9.21624C-32.8866 1.20217 -34.4859 -4.39927 -39.8096 -5.41361C-46.5118 -6.67636 -49.0159 0.167851 -46.4415 5.86241C-58.6054 9.17652 -66.4279 -10.4853 -61.0855 -21.2228C-55.7431 -31.9603 -44.2378 -39.385 -27.5535 -30.0467C-16.6286 -23.8661 -15.8449 -5.0321 -19.7095 8.53198C-8.21569 -16.0183 -16.7502 -26.641 -20.4536 -37.1915C-24.6719 -48.8809 -18.4903 -57.3199 -10.4764 -56.3989C6.54876 -54.2671 0.942417 -33.9418 -3.18319 -32.8957C-3.18319 -32.8957 2.5338 -33.5173 3.25585 -40.7652C4.91279 -55.085 11.82 -58.8233 21.3829 -61.2571C36.7642 -65.1202 52.0362 -73.3527 46.7313 -86.1189C44.09 -92.4036 40.0881 -91.9685 36.7024 -91.2021C42.1109 -82.6293 33.9043 -80.1438 31.1372 -82.4318C28.818 -84.1711 27.6668 -89.2239 30.114 -94.867C36.164 -107.872 55.7557 -105.223 63.1734 -101.051ZM18.2688 -12.1269C17.8431 -12.4789 17.2267 -12.8102 16.6105 -13.1415C19.7653 -21.0522 22.539 -28.9215 24.887 -37.1427C22.1356 -29.0768 18.7456 -21.5388 14.571 -14.1146C13.9548 -14.4459 13.1702 -14.5598 12.5762 -14.6943C14.318 -21.4556 15.4657 -28.3515 16.0418 -35.1852C14.7034 -28.2686 12.7711 -21.4866 10.032 -15.0151C8.86628 -15.0875 7.72286 -14.9632 6.77002 -14.8596C6.90812 -20.4508 6.55368 -26.9842 6.38976 -33.5383C5.97192 -28.7133 5.35131 -22.273 4.14673 -14.1761C3.23848 -13.679 2.35252 -12.9852 1.46656 -12.2915C1.03295 -17.8205 -0.331252 -23.0492 -2.45767 -28.195C-1.02665 -22.3761 -0.357831 -16.4744 -0.260781 -10.5104C-0.597334 -10.0755 -1.94356 -8.33597 -2.28011 -7.90108C-3.52056 -13.7407 -5.88208 -19.2593 -9.12961 -24.084C-9.12961 -24.084 -1.46107 -9.18504 -10.297 13.2839C-23.2306 45.5583 -75.2252 56.5889 -75.2252 56.5889C-47.291 54.5472 -23.3442 47.9605 -6.6814 38.3818C6.18013 31.0089 17.0591 21.4617 20.8604 19.2561C24.6617 17.0504 29.4057 12.9499 37.7439 15.0305C32.8136 12.3802 25.9978 13.5196 22.377 13.9133C22.6912 13.2817 23.488 11.801 23.9929 11.1486C29.4079 9.5641 34.308 6.84066 38.5026 2.99902C34.5776 5.81559 29.7567 7.53468 24.9702 7.85598C25.4081 6.61346 25.6332 5.19494 25.69 3.99386C30.063 1.72604 35.8491 -1.6912 38.3733 -4.95289C34.4483 -2.13633 30.0753 0.131507 25.6354 1.80916C25.5463 1.02226 25.4571 0.23535 25.3679 -0.55155L37.7714 -10.2645L24.9544 -2.49808C24.8652 -3.28498 24.6078 -3.85443 24.328 -4.62061C29.0052 -9.31132 35.4097 -15.783 38.9658 -20.1527C35.4666 -16.9841 28.6363 -10.8644 23.5557 -6.32899C23.2983 -6.89845 22.8503 -7.44717 22.4023 -7.99591C26.0597 -13.1732 30.8729 -20.0693 34.1493 -25.2051C28.7867 -18.0501 25.3989 -13.8979 21.5063 -9.09339C21.0806 -9.4454 20.6548 -9.7974 20.2068 -10.3461C24.5496 -17.9877 27.8728 -26.1159 30.1985 -34.5339C28.9616 -28.4249 24.0916 -20.3277 18.2688 -12.1269Z" fill="#FFD43E"/>
<path d="M143.225 110.635C142.342 111.325 141.671 112.19 140.999 113.055C140.999 113.055 130.651 110.018 123.639 114.344C129.173 113.942 134.795 114.322 140.316 115.506C140.316 115.506 120.955 117.805 113.747 132.254C120.906 124.149 130.701 118.926 141.343 117.772C135.785 121.346 131.333 126.187 127.943 131.903C135.605 123.149 138.826 121.017 146.047 120.233C142.355 124.992 138.898 130.121 135.843 135.404C128.961 147.64 108.611 158.167 98.194 139.29C90.7025 125.84 105.376 112.759 111 109.772C119.89 105.044 132.61 105.249 143.225 110.635Z" fill="#A81C25" fill-opacity="0.3"/>
<path d="M143.225 110.635C142.342 111.325 141.671 112.19 140.999 113.055C140.999 113.055 130.651 110.018 123.639 114.344C129.173 113.942 134.795 114.322 140.316 115.506C140.316 115.506 120.955 117.805 113.747 132.254C120.906 124.149 130.701 118.926 141.343 117.772C135.785 121.346 131.333 126.187 127.943 131.903C135.605 123.149 138.826 121.017 146.047 120.233C142.355 124.992 138.898 130.121 135.843 135.404C128.961 147.64 108.611 158.167 98.194 139.29C90.7025 125.84 105.376 112.759 111 109.772C119.89 105.044 132.61 105.249 143.225 110.635Z" fill="#FFD43E"/>
<path d="M190.042 138.112C204.354 146.76 209.935 146.551 214.966 146.603C209.633 145.583 207.331 144.033 201.943 140.817C208.893 142.461 216.26 142.658 223.234 141.097C217.271 141.347 213.217 141.389 207.728 138.985C228.065 120.552 247.137 130.282 248.682 137.119C249.813 142.001 249.12 154.687 228.502 156.937C207.883 159.186 190.042 138.112 190.042 138.112Z" fill="#A81C25" fill-opacity="0.3"/>
<path d="M190.042 138.112C204.354 146.76 209.935 146.551 214.966 146.603C209.633 145.583 207.331 144.033 201.943 140.817C208.893 142.461 216.26 142.658 223.234 141.097C217.271 141.347 213.217 141.389 207.728 138.985C228.065 120.552 247.137 130.282 248.682 137.119C249.813 142.001 249.12 154.687 228.502 156.937C207.883 159.186 190.042 138.112 190.042 138.112Z" fill="#FFD43E"/>
<path d="M136.932 86.4516C113.259 59.139 97.6131 73.6974 97.6131 73.6974C97.6131 73.6974 104.038 52.4216 119.405 55.7024C134.771 58.9831 136.932 86.4516 136.932 86.4516Z" fill="#A81C25" fill-opacity="0.3"/>
<path d="M136.932 86.4516C113.259 59.139 97.6131 73.6974 97.6131 73.6974C97.6131 73.6974 104.038 52.4216 119.405 55.7024C134.771 58.9831 136.932 86.4516 136.932 86.4516Z" fill="#FFD43E"/>
<path d="M144.277 106.231C133.96 100.202 128.51 98.0134 116.9 99.2739C106.432 100.41 97.8637 108.093 95.0023 118.532C87.4729 111.604 89.3935 84.3871 109.995 79.1715C130.596 73.9559 144.277 106.231 144.277 106.231Z" fill="#A81C25" fill-opacity="0.3"/>
<path d="M144.277 106.231C133.96 100.202 128.51 98.0134 116.9 99.2739C106.432 100.41 97.8637 108.093 95.0023 118.532C87.4729 111.604 89.3935 84.3871 109.995 79.1715C130.596 73.9559 144.277 106.231 144.277 106.231Z" fill="#FFD43E"/>
<path d="M250.928 150.498C253.559 148.228 259.92 139.799 253.693 130.751C247.466 121.703 229.067 125.883 229.067 125.883C242.68 116.865 267.925 115.316 271.756 127.005C275.587 138.694 260.664 148.052 250.928 150.498Z" fill="#A81C25" fill-opacity="0.3"/>
<path d="M250.928 150.498C253.559 148.228 259.92 139.799 253.693 130.751C247.466 121.703 229.067 125.883 229.067 125.883C242.68 116.865 267.925 115.316 271.756 127.005C275.587 138.694 260.664 148.052 250.928 150.498Z" fill="#FFD43E"/>
<path d="M262.626 114.636C252.878 111.922 240.024 117.488 240.024 117.488C247.383 109.341 259.302 95.5358 269.967 99.5411C279.636 103.257 276.704 119.86 274.529 124.465C272.999 119.468 269.173 116.309 262.626 114.636Z" fill="#A81C25" fill-opacity="0.3"/>
<path d="M262.626 114.636C252.878 111.922 240.024 117.488 240.024 117.488C247.383 109.341 259.302 95.5358 269.967 99.5411C279.636 103.257 276.704 119.86 274.529 124.465C272.999 119.468 269.173 116.309 262.626 114.636Z" fill="#FFD43E"/>
<path d="M274.803 214.251C274.348 211.932 272.041 210.207 269.789 210.649C267.537 211.09 265.886 213.441 266.341 215.761C266.797 218.081 268.892 219.631 271.166 219.384C273.44 219.138 275.092 216.787 274.803 214.251Z" fill="#A81C25" fill-opacity="0.3"/>
<path d="M274.803 214.251C274.348 211.932 272.041 210.207 269.789 210.649C267.537 211.09 265.886 213.441 266.341 215.761C266.797 218.081 268.892 219.631 271.166 219.384C273.44 219.138 275.092 216.787 274.803 214.251Z" fill="#FFD43E"/>
<path d="M10.6076 253.653C10.3416 251.313 8.43612 249.743 6.16162 249.989C3.88713 250.236 2.38081 252.176 2.64682 254.516C2.91284 256.856 4.81817 258.426 7.09266 258.18C9.36716 257.933 10.8736 255.993 10.6076 253.653Z" fill="#A81C25" fill-opacity="0.3"/>
<path d="M10.6076 253.653C10.3416 251.313 8.43612 249.743 6.16162 249.989C3.88713 250.236 2.38081 252.176 2.64682 254.516C2.91284 256.856 4.81817 258.426 7.09266 258.18C9.36716 257.933 10.8736 255.993 10.6076 253.653Z" fill="#FFD43E"/>
<path d="M-1.63436 252.809C-3.30905 252.991 -4.82544 251.741 -5.02137 250.017C-5.2173 248.293 -4.01857 246.749 -2.34388 246.567C-0.669196 246.386 0.847309 247.636 1.04324 249.36C1.23917 251.083 0.0403259 252.628 -1.63436 252.809Z" fill="#A81C25" fill-opacity="0.3"/>
<path d="M-1.63436 252.809C-3.30905 252.991 -4.82544 251.741 -5.02137 250.017C-5.2173 248.293 -4.01857 246.749 -2.34388 246.567C-0.669196 246.386 0.847309 247.636 1.04324 249.36C1.23917 251.083 0.0403259 252.628 -1.63436 252.809Z" fill="#FFD43E"/>
<path d="M357.944 174.157C357.7 172.011 355.794 170.441 353.71 170.667C351.625 170.893 350.118 172.833 350.362 174.978C350.606 177.124 352.511 178.694 354.596 178.468C356.681 178.242 358.188 176.302 357.944 174.157Z" fill="#A81C25" fill-opacity="0.3"/>
<path d="M357.944 174.157C357.7 172.011 355.794 170.441 353.71 170.667C351.625 170.893 350.118 172.833 350.362 174.978C350.606 177.124 352.511 178.694 354.596 178.468C356.681 178.242 358.188 176.302 357.944 174.157Z" fill="#FFD43E"/>
<path d="M33.3034 93.3219C33.0596 91.1768 31.1542 89.6065 29.0692 89.8325C26.9843 90.0585 25.4779 91.9985 25.7218 94.1437C25.9656 96.2888 27.871 97.859 29.9559 97.6331C32.0409 97.4071 33.5472 95.4671 33.3034 93.3219Z" fill="#A81C25" fill-opacity="0.3"/>
<path d="M33.3034 93.3219C33.0596 91.1768 31.1542 89.6065 29.0692 89.8325C26.9843 90.0585 25.4779 91.9985 25.7218 94.1437C25.9656 96.2888 27.871 97.859 29.9559 97.6331C32.0409 97.4071 33.5472 95.4671 33.3034 93.3219Z" fill="#FFD43E"/>
<path d="M41.6529 96.0019C39.9782 96.1834 38.4618 94.9333 38.2658 93.2096C38.0699 91.486 39.2686 89.9416 40.9433 89.7601C42.618 89.5785 44.1344 90.8287 44.3303 92.5523C44.5263 94.276 43.3275 95.8204 41.6529 96.0019Z" fill="#A81C25" fill-opacity="0.3"/>
<path d="M41.6529 96.0019C39.9782 96.1834 38.4618 94.9333 38.2658 93.2096C38.0699 91.486 39.2686 89.9416 40.9433 89.7601C42.618 89.5785 44.1344 90.8287 44.3303 92.5523C44.5263 94.276 43.3275 95.8204 41.6529 96.0019Z" fill="#FFD43E"/>
<path d="M365.817 184.678C365.574 182.533 363.646 180.768 361.372 181.014C359.287 181.24 357.591 183.201 357.857 185.541C358.101 187.686 360.028 189.451 362.303 189.205C364.577 188.958 366.061 186.823 365.817 184.678Z" fill="#A81C25" fill-opacity="0.3"/>
<path d="M365.817 184.678C365.574 182.533 363.646 180.768 361.372 181.014C359.287 181.24 357.591 183.201 357.857 185.541C358.101 187.686 360.028 189.451 362.303 189.205C364.577 188.958 366.061 186.823 365.817 184.678Z" fill="#FFD43E"/>
<path d="M363.306 198.417C362.996 195.686 360.667 193.767 358.014 194.054C355.361 194.342 353.52 196.713 353.83 199.444C354.14 202.174 356.469 204.093 359.122 203.806C361.776 203.518 363.616 201.147 363.306 198.417Z" fill="#A81C25" fill-opacity="0.3"/>
<path d="M363.306 198.417C362.996 195.686 360.667 193.767 358.014 194.054C355.361 194.342 353.52 196.713 353.83 199.444C354.14 202.174 356.469 204.093 359.122 203.806C361.776 203.518 363.616 201.147 363.306 198.417Z" fill="#FFD43E"/>
<path d="M21.413 99.065C21.1026 96.3346 18.7741 94.4152 16.1208 94.7028C13.4675 94.9903 11.6267 97.3616 11.9371 100.092C12.2474 102.823 14.576 104.742 17.2293 104.454C19.8604 103.972 21.7012 101.6 21.413 99.065Z" fill="#A81C25" fill-opacity="0.3"/>
<path d="M21.413 99.065C21.1026 96.3346 18.7741 94.4152 16.1208 94.7028C13.4675 94.9903 11.6267 97.3616 11.9371 100.092C12.2474 102.823 14.576 104.742 17.2293 104.454C19.8604 103.972 21.7012 101.6 21.413 99.065Z" fill="#FFD43E"/>
<path d="M350.656 208.137C350.323 205.211 347.761 202.922 344.729 203.251C341.886 203.559 339.688 206.167 340.043 209.287C340.376 212.213 342.938 214.503 345.97 214.174C349.003 213.845 350.988 211.063 350.656 208.137Z" fill="#A81C25" fill-opacity="0.3"/>
<path d="M350.656 208.137C350.323 205.211 347.761 202.922 344.729 203.251C341.886 203.559 339.688 206.167 340.043 209.287C340.376 212.213 342.938 214.503 345.97 214.174C349.003 213.845 350.988 211.063 350.656 208.137Z" fill="#FFD43E"/>
<path d="M56.3613 109.995C55.9623 106.484 52.7866 103.867 49.375 104.237C45.9633 104.607 43.4528 107.84 43.8519 111.351C44.2509 114.861 47.4265 117.479 50.8381 117.109C54.4171 116.523 56.7604 113.505 56.3613 109.995Z" fill="#A81C25" fill-opacity="0.3"/>
<path d="M56.3613 109.995C55.9623 106.484 52.7866 103.867 49.375 104.237C45.9633 104.607 43.4528 107.84 43.8519 111.351C44.2509 114.861 47.4265 117.479 50.8381 117.109C54.4171 116.523 56.7604 113.505 56.3613 109.995Z" fill="#FFD43E"/>
<path d="M332.578 206.453C332.223 203.332 329.471 201.063 326.439 201.392C323.407 201.72 321.231 204.523 321.586 207.644C321.941 210.765 324.693 213.034 327.725 212.705C330.757 212.377 332.933 209.574 332.578 206.453Z" fill="#A81C25" fill-opacity="0.3"/>
<path d="M332.578 206.453C332.223 203.332 329.471 201.063 326.439 201.392C323.407 201.72 321.231 204.523 321.586 207.644C321.941 210.765 324.693 213.034 327.725 212.705C330.757 212.377 332.933 209.574 332.578 206.453Z" fill="#FFD43E"/>
<path d="M253.628 173.33C253.628 173.33 269.564 182.797 272.249 191.345C273.52 194.154 272.367 197.422 269.654 198.699C268.214 199.445 266.476 199.24 265.07 198.607C260.975 196.105 259.64 189.375 266.482 189.221C264.615 184.513 261.307 180.551 253.628 173.33Z" fill="#A81C25" fill-opacity="0.3"/>
<path d="M253.628 173.33C253.628 173.33 269.564 182.797 272.249 191.345C273.52 194.154 272.367 197.422 269.654 198.699C268.214 199.445 266.476 199.24 265.07 198.607C260.975 196.105 259.64 189.375 266.482 189.221C264.615 184.513 261.307 180.551 253.628 173.33Z" fill="#FFD43E"/>
<path d="M236.011 168.429C236.011 168.429 251.845 173.397 256.895 184.253C261.945 195.109 252.694 197.686 248.193 195.028C243.692 192.371 243.741 186.073 243.765 182.925C243.789 179.776 242.907 172.007 236.011 168.429Z" fill="#A81C25" fill-opacity="0.3"/>
<path d="M236.011 168.429C236.011 168.429 251.845 173.397 256.895 184.253C261.945 195.109 252.694 197.686 248.193 195.028C243.692 192.371 243.741 186.073 243.765 182.925C243.789 179.776 242.907 172.007 236.011 168.429Z" fill="#FFD43E"/>
<path d="M201.302 165.625C201.302 165.625 224.881 165.634 233.573 176.33C244.724 190.113 237.367 199.59 229.926 201.58C234.406 197.149 232.581 194.585 225.277 191.037C215.523 186.177 217.804 172.516 201.302 165.625Z" fill="#A81C25" fill-opacity="0.3"/>
<path d="M201.302 165.625C201.302 165.625 224.881 165.634 233.573 176.33C244.724 190.113 237.367 199.59 229.926 201.58C234.406 197.149 232.581 194.585 225.277 191.037C215.523 186.177 217.804 172.516 201.302 165.625Z" fill="#FFD43E"/>
<path d="M375.968 78.3278C375.968 78.3278 362.031 100.815 366.709 115.395C372.805 134.132 385.716 132.725 391.861 126.765C385.234 128.466 383.905 125.084 384.978 116.148C386.659 104.207 372.73 98.2776 375.968 78.3278Z" fill="#A81C25" fill-opacity="0.3"/>
<path d="M375.968 78.3278C375.968 78.3278 362.031 100.815 366.709 115.395C372.805 134.132 385.716 132.725 391.861 126.765C385.234 128.466 383.905 125.084 384.978 116.148C386.659 104.207 372.73 98.2776 375.968 78.3278Z" fill="#FFD43E"/>
<path d="M364.278 97.5979C364.278 97.5979 348.771 114.172 348.806 127.874C349.09 145.465 360.117 147.786 366.671 143.938C362.865 142.004 365.753 139.143 366.317 132.424C367.017 120.208 357.254 114.029 364.278 97.5979Z" fill="#A81C25" fill-opacity="0.3"/>
<path d="M364.278 97.5979C364.278 97.5979 348.771 114.172 348.806 127.874C349.09 145.465 360.117 147.786 366.671 143.938C362.865 142.004 365.753 139.143 366.317 132.424C367.017 120.208 357.254 114.029 364.278 97.5979Z" fill="#FFD43E"/>
<path d="M345.167 119.198C345.167 119.198 331.8 131.629 331.505 145.77C331.209 159.911 341.685 158.77 344.924 153.91C348.162 149.05 345.295 142.112 343.757 138.556C342.219 135.001 339.903 126.239 345.167 119.198Z" fill="#A81C25" fill-opacity="0.3"/>
<path d="M345.167 119.198C345.167 119.198 331.8 131.629 331.505 145.77C331.209 159.911 341.685 158.77 344.924 153.91C348.162 149.05 345.295 142.112 343.757 138.556C342.219 135.001 339.903 126.239 345.167 119.198Z" fill="#FFD43E"/>
<path d="M132.402 11.009C132.402 11.009 148.164 1.62196 148.826 -7.70263C149.397 -14.4581 143.742 -15.4199 141.208 -14.1607C136.162 -11.448 137.902 -4.54936 143.046 -4.71348C141.921 0.527173 139.296 4.35543 132.402 11.009Z" fill="#A81C25" fill-opacity="0.3"/>
<path d="M132.402 11.009C132.402 11.009 148.164 1.62196 148.826 -7.70263C149.397 -14.4581 143.742 -15.4199 141.208 -14.1607C136.162 -11.448 137.902 -4.54936 143.046 -4.71348C141.921 0.527173 139.296 4.35543 132.402 11.009Z" fill="#FFD43E"/>
<path d="M77.4955 37.5687C77.4955 37.5687 98.9603 32.2805 108.18 15.4854C117.4 -1.30965 106.411 -6.83174 99.8976 -3.36154C93.3844 0.108668 91.8615 10.3435 91.089 15.3634C90.3387 20.5784 87.1422 32.9691 77.4955 37.5687Z" fill="#A81C25" fill-opacity="0.3"/>
<path d="M77.4955 37.5687C77.4955 37.5687 98.9603 32.2805 108.18 15.4854C117.4 -1.30965 106.411 -6.83174 99.8976 -3.36154C93.3844 0.108668 91.8615 10.3435 91.089 15.3634C90.3387 20.5784 87.1422 32.9691 77.4955 37.5687Z" fill="#FFD43E"/>
<path d="M109.875 23.8832C109.875 23.8832 125.212 17.4954 130.176 3.96412C135.14 -9.56715 126.198 -12.5348 121.996 -9.12619C117.794 -5.71759 117.522 1.98955 117.586 5.91987C117.628 9.65572 116.611 19.2155 109.875 23.8832Z" fill="#A81C25" fill-opacity="0.3"/>
<path d="M109.875 23.8832C109.875 23.8832 125.212 17.4954 130.176 3.96412C135.14 -9.56715 126.198 -12.5348 121.996 -9.12619C117.794 -5.71759 117.522 1.98955 117.586 5.91987C117.628 9.65572 116.611 19.2155 109.875 23.8832Z" fill="#FFD43E"/>
<path d="M330.571 127.221C330.571 127.221 317.591 145.906 301.113 150.719C284.635 155.532 281.552 143.622 285.432 138.581C289.965 132.464 298.134 134.582 302.809 134.874C307.483 135.166 322.791 133.693 330.571 127.221Z" fill="#A81C25" fill-opacity="0.3"/>
<path d="M330.571 127.221C330.571 127.221 317.591 145.906 301.113 150.719C284.635 155.532 281.552 143.622 285.432 138.581C289.965 132.464 298.134 134.582 302.809 134.874C307.483 135.166 322.791 133.693 330.571 127.221Z" fill="#FFD43E"/>
<path d="M352.564 102.564C352.564 102.564 334.119 126.122 307.569 129.231C284.078 132.006 279.389 114.405 283.264 104.117C285.295 110.135 290.635 111.16 299.757 107.947C313.545 103.216 331.079 114.579 352.564 102.564Z" fill="#A81C25" fill-opacity="0.3"/>
<path d="M352.564 102.564C352.564 102.564 334.119 126.122 307.569 129.231C284.078 132.006 279.389 114.405 283.264 104.117C285.295 110.135 290.635 111.16 299.757 107.947C313.545 103.216 331.079 114.579 352.564 102.564Z" fill="#FFD43E"/>
<path d="M161.779 170.979C161.779 170.979 197.354 164.352 210.878 181.879C223.978 199.056 215.472 210.464 206.726 212.996C210.94 207.79 210.572 206.247 199.463 201.516C184.524 195.222 184.135 174.886 161.779 170.979Z" fill="#A81C25" fill-opacity="0.3"/>
<path d="M161.779 170.979C161.779 170.979 197.354 164.352 210.878 181.879C223.978 199.056 215.472 210.464 206.726 212.996C210.94 207.79 210.572 206.247 199.463 201.516C184.524 195.222 184.135 174.886 161.779 170.979Z" fill="#FFD43E"/>
<path d="M311.446 166.744C311.446 166.744 306.776 184.109 313.279 193.005C318.229 199.914 324.751 197.244 325.47 191.873C326.19 186.503 320.047 182.468 316.201 187.003C312.976 183.63 310.591 177.617 311.446 166.744Z" fill="#A81C25" fill-opacity="0.3"/>
<path d="M311.446 166.744C311.446 166.744 306.776 184.109 313.279 193.005C318.229 199.914 324.751 197.244 325.47 191.873C326.19 186.503 320.047 182.468 316.201 187.003C312.976 183.63 310.591 177.617 311.446 166.744Z" fill="#FFD43E"/>
<path d="M121.676 182.062C121.676 182.062 160.365 170.949 183.005 194.391C200.023 212.314 194.476 231.102 184.795 238.872C187.544 232.644 181.566 227.362 167.732 220.559C145.329 209.347 149.396 185.976 121.676 182.062Z" fill="#A81C25" fill-opacity="0.3"/>
<path d="M121.676 182.062C121.676 182.062 160.365 170.949 183.005 194.391C200.023 212.314 194.476 231.102 184.795 238.872C187.544 232.644 181.566 227.362 167.732 220.559C145.329 209.347 149.396 185.976 121.676 182.062Z" fill="#FFD43E"/>
<path d="M136.54 231.821C136.54 231.821 151.015 216.742 139.269 201.532C127.524 186.321 102.992 189.183 80.0456 199.223C96.998 195.793 112.352 205.447 120.565 213.295C128.777 221.143 136.535 223.28 136.54 231.821Z" fill="#A81C25" fill-opacity="0.3"/>
<path d="M136.54 231.821C136.54 231.821 151.015 216.742 139.269 201.532C127.524 186.321 102.992 189.183 80.0456 199.223C96.998 195.793 112.352 205.447 120.565 213.295C128.777 221.143 136.535 223.28 136.54 231.821Z" fill="#FFD43E"/>
<path d="M-11.2727 221.53C-11.2727 221.53 17.325 222.243 36.1087 216.668C54.8924 211.094 70.0471 204.283 89.4111 207.458C108.775 210.634 113.288 221.611 113.826 226.47C111.202 222.048 99.6208 212.062 84.7296 212.489C93.2493 215.846 100.335 222.027 103.138 228.069C98.541 225.096 82.9923 214.322 69.2734 214.823C80.9715 218.851 88.1025 225.437 90.4323 230.713C84.4836 226.045 67.6483 217.669 56.5104 218.703C66.7549 221.868 73.8635 228.251 76.5766 233.484C67.1683 227.356 56.5181 224.032 45.6291 223.808C32.8012 223.596 11.3368 225.984 -11.2727 221.53Z" fill="#A81C25" fill-opacity="0.3"/>
<path d="M-11.2727 221.53C-11.2727 221.53 17.325 222.243 36.1087 216.668C54.8924 211.094 70.0471 204.283 89.4111 207.458C108.775 210.634 113.288 221.611 113.826 226.47C111.202 222.048 99.6208 212.062 84.7296 212.489C93.2493 215.846 100.335 222.027 103.138 228.069C98.541 225.096 82.9923 214.322 69.2734 214.823C80.9715 218.851 88.1025 225.437 90.4323 230.713C84.4836 226.045 67.6483 217.669 56.5104 218.703C66.7549 221.868 73.8635 228.251 76.5766 233.484C67.1683 227.356 56.5181 224.032 45.6291 223.808C32.8012 223.596 11.3368 225.984 -11.2727 221.53Z" fill="#FFD43E"/>
<path d="M-81.9059 205.574C-81.9059 205.574 -18.9604 224.278 6.80181 189.123C21.1766 169.387 5.36453 155.933 -4.33972 153.795C0.739479 159.432 -0.857938 165.796 -14.867 175.109C-29.8075 184.724 -41.5038 209.361 -81.9059 205.574Z" fill="#A81C25" fill-opacity="0.3"/>
<path d="M-81.9059 205.574C-81.9059 205.574 -18.9604 224.278 6.80181 189.123C21.1766 169.387 5.36453 155.933 -4.33972 153.795C0.739479 159.432 -0.857938 165.796 -14.867 175.109C-29.8075 184.724 -41.5038 209.361 -81.9059 205.574Z" fill="#FFD43E"/>
<path d="M-34.3402 214.144C-18.7768 215.242 25.6706 219.177 40.3819 185.483C47.8947 168.319 31.6945 163.304 27.0745 163.408C34.5051 169.377 23.1659 173.202 16.2193 181.732C7.77998 192.418 -10.1087 215.096 -34.3402 214.144Z" fill="#A81C25" fill-opacity="0.3"/>
<path d="M-34.3402 214.144C-18.7768 215.242 25.6706 219.177 40.3819 185.483C47.8947 168.319 31.6945 163.304 27.0745 163.408C34.5051 169.377 23.1659 173.202 16.2193 181.732C7.77998 192.418 -10.1087 215.096 -34.3402 214.144Z" fill="#FFD43E"/>
<path d="M18.4897 211.667C18.4897 211.667 59.4369 204.651 64.7284 180.109C67.5309 167.524 54.969 165.321 52.1852 166.218C58.7329 169.667 47.9414 177.968 45.2767 184.992C42.0296 193.664 36.4456 203.777 18.4897 211.667Z" fill="#A81C25" fill-opacity="0.3"/>
<path d="M18.4897 211.667C18.4897 211.667 59.4369 204.651 64.7284 180.109C67.5309 167.524 54.969 165.321 52.1852 166.218C58.7329 169.667 47.9414 177.968 45.2767 184.992C42.0296 193.664 36.4456 203.777 18.4897 211.667Z" fill="#FFD43E"/>
<path d="M365 -69.1183C365 -69.1183 412.64 -70.349 428.686 -35.0916C439.63 -11.0888 428.137 5.50765 415.631 9.81594C420.576 4.55656 414.531 -6.59559 406.412 -20.8683C392.613 -44.7584 391.366 -57.4149 365 -69.1183Z" fill="#A81C25" fill-opacity="0.3"/>
<path d="M365 -69.1183C365 -69.1183 412.64 -70.349 428.686 -35.0916C439.63 -11.0888 428.137 5.50765 415.631 9.81594C420.576 4.55656 414.531 -6.59559 406.412 -20.8683C392.613 -44.7584 391.366 -57.4149 365 -69.1183Z" fill="#FFD43E"/>
<path d="M403.181 62.8383C392.02 20.1472 417.688 -1.33844 391.969 -37.5292C373.298 -63.8534 338.667 -64.0355 298.652 -54.3811C329.24 -56.123 361.302 -34.7945 373.732 -12.912C387.604 11.5702 385.431 21.0585 403.181 62.8383Z" fill="#A81C25" fill-opacity="0.3"/>
<path d="M403.181 62.8383C392.02 20.1472 417.688 -1.33844 391.969 -37.5292C373.298 -63.8534 338.667 -64.0355 298.652 -54.3811C329.24 -56.123 361.302 -34.7945 373.732 -12.912C387.604 11.5702 385.431 21.0585 403.181 62.8383Z" fill="#FFD43E"/>
<path d="M177.887 138.455C177.887 138.455 197.448 142.625 192.294 154.393C188.485 162.868 172.608 154.169 182.817 146.572C182.408 144.65 181.788 142.555 177.887 138.455Z" fill="#A81C25" fill-opacity="0.3"/>
<path d="M177.887 138.455C177.887 138.455 197.448 142.625 192.294 154.393C188.485 162.868 172.608 154.169 182.817 146.572C182.408 144.65 181.788 142.555 177.887 138.455Z" fill="#FFD43E"/>
<path d="M332.263 132.628C332.263 132.628 316.317 153.958 317.89 167.892C318.896 176.795 328.396 177.131 330.862 172.16C334.21 164.938 328.276 159.315 322.765 162.463C322.109 156.657 325.845 144.495 332.263 132.628Z" fill="#A81C25" fill-opacity="0.3"/>
<path d="M332.263 132.628C332.263 132.628 316.317 153.958 317.89 167.892C318.896 176.795 328.396 177.131 330.862 172.16C334.21 164.938 328.276 159.315 322.765 162.463C322.109 156.657 325.845 144.495 332.263 132.628Z" fill="#FFD43E"/>
<path d="M55.8467 201.261C55.8467 201.261 74.8783 193.279 80.8887 183.75C88.1927 172.108 78.8285 165.626 72.7238 165.893C75.6854 168.334 73.0096 171.781 70.4447 176.202C65.8386 184.592 66.8797 193.752 55.8467 201.261Z" fill="#A81C25" fill-opacity="0.3"/>
<path d="M55.8467 201.261C55.8467 201.261 74.8783 193.279 80.8887 183.75C88.1927 172.108 78.8285 165.626 72.7238 165.893C75.6854 168.334 73.0096 171.781 70.4447 176.202C65.8386 184.592 66.8797 193.752 55.8467 201.261Z" fill="#FFD43E"/>
<path d="M82.3618 189.264C82.3618 189.264 94.7 182.029 97.0897 171.157C99.4794 160.284 91.1801 159.416 87.9091 162.523C84.638 165.629 86.9946 171.27 87.5135 174.161C88.3409 179.771 86.4867 185.278 82.3618 189.264Z" fill="#A81C25" fill-opacity="0.3"/>
<path d="M82.3618 189.264C82.3618 189.264 94.7 182.029 97.0897 171.157C99.4794 160.284 91.1801 159.416 87.9091 162.523C84.638 165.629 86.9946 171.27 87.5135 174.161C88.3409 179.771 86.4867 185.278 82.3618 189.264Z" fill="#FFD43E"/>
<path d="M94.5927 181.545C94.5927 181.545 109.517 171.459 111.524 162.183C112.773 156.337 106.749 153.839 103.991 156.501C100.209 160.259 102.885 165.286 107.209 164.62C106.328 168.654 101.366 175.493 94.5927 181.545Z" fill="#A81C25" fill-opacity="0.3"/>
<path d="M94.5927 181.545C94.5927 181.545 109.517 171.459 111.524 162.183C112.773 156.337 106.749 153.839 103.991 156.501C100.209 160.259 102.885 165.286 107.209 164.62C106.328 168.654 101.366 175.493 94.5927 181.545Z" fill="#FFD43E"/>
<path d="M321.023 139.847C310.272 151.91 309.659 166.836 297.348 171.936C293.892 173.698 289.466 171.998 287.903 168.403C286.921 166.529 286.866 164.355 287.784 162.274C291.422 155.341 299.168 157.473 299.477 163.582C305.023 161.593 310.196 149.541 321.023 139.847Z" fill="#A81C25" fill-opacity="0.3"/>
<path d="M321.023 139.847C310.272 151.91 309.659 166.836 297.348 171.936C293.892 173.698 289.466 171.998 287.903 168.403C286.921 166.529 286.866 164.355 287.784 162.274C291.422 155.341 299.168 157.473 299.477 163.582C305.023 161.593 310.196 149.541 321.023 139.847Z" fill="#FFD43E"/>
<path d="M204.228 -19.5547C244.257 -38.2469 284.212 -47.4971 317.95 -37.597C352.252 -27.7584 369.145 0.0866763 375.295 17.3049C389.059 51.1893 375.805 85.6475 356.31 105.453C338.731 127.015 318.828 144.899 311.653 169.066C303.527 191.569 319.407 225.616 346.208 216.418C358.134 213.944 368.082 202.448 366.728 188.837C366.837 174.673 350.552 165.631 337.34 170.21C350.508 165.242 367.524 174.009 367.67 188.734C369.467 202.887 359.318 215.978 346.96 219.678C334.601 223.378 318.543 224.727 309.156 209.236C300.72 195.411 303.256 180.788 307.941 168.29C317.311 143.295 335.929 124.174 353.153 102.847C372.249 82.8887 384.138 51.5268 371.282 18.9196C365.409 2.45762 349.424 -24.1101 316.717 -33.3358C284.553 -42.8169 238.634 -32.33 199.281 -12.7283L204.228 -19.5547Z" fill="#A81C25" fill-opacity="0.3"/>
<path d="M204.228 -19.5547C244.257 -38.2469 284.212 -47.4971 317.95 -37.597C352.252 -27.7584 369.145 0.0866763 375.295 17.3049C389.059 51.1893 375.805 85.6475 356.31 105.453C338.731 127.015 318.828 144.899 311.653 169.066C303.527 191.569 319.407 225.616 346.208 216.418C358.134 213.944 368.082 202.448 366.728 188.837C366.837 174.673 350.552 165.631 337.34 170.21C350.508 165.242 367.524 174.009 367.67 188.734C369.467 202.887 359.318 215.978 346.96 219.678C334.601 223.378 318.543 224.727 309.156 209.236C300.72 195.411 303.256 180.788 307.941 168.29C317.311 143.295 335.929 124.174 353.153 102.847C372.249 82.8887 384.138 51.5268 371.282 18.9196C365.409 2.45762 349.424 -24.1101 316.717 -33.3358C284.553 -42.8169 238.634 -32.33 199.281 -12.7283L204.228 -19.5547Z" fill="#FFD43E"/>
<path d="M346.595 75.5868C324.396 107.118 286 102.764 274.861 94.4624C290.295 99.9206 333.426 93.4592 315.939 46.2219C300.127 3.55797 247.709 -29.39 187.262 -5.99329C190.483 -8.12573 193.916 -10.0831 197.584 -11.6696C197.584 -11.6696 278.083 -49.9212 321.195 -26.068C360.809 -4.21281 370.091 41.9332 346.595 75.5868ZM225.748 -19.4794C239.7 -21.9834 308.147 -39.3136 334.46 14.4949C352.479 51.174 338.186 79.4707 317.452 93.4088C317.452 93.4088 364.474 68.6945 337.871 12.3418C312.251 -42.1363 234.268 -22.3847 225.748 -19.4794Z" fill="#A81C25" fill-opacity="0.3"/>
<path d="M346.595 75.5868C324.396 107.118 286 102.764 274.861 94.4624C290.295 99.9206 333.426 93.4592 315.939 46.2219C300.127 3.55797 247.709 -29.39 187.262 -5.99329C190.483 -8.12573 193.916 -10.0831 197.584 -11.6696C197.584 -11.6696 278.083 -49.9212 321.195 -26.068C360.809 -4.21281 370.091 41.9332 346.595 75.5868ZM225.748 -19.4794C239.7 -21.9834 308.147 -39.3136 334.46 14.4949C352.479 51.174 338.186 79.4707 317.452 93.4088C317.452 93.4088 364.474 68.6945 337.871 12.3418C312.251 -42.1363 234.268 -22.3847 225.748 -19.4794Z" fill="#FFD43E"/>
<path d="M224.727 -11.2608C245.607 -12.5411 289.382 -4.10188 308.023 40.5214C319.855 68.9572 312.625 86.0768 297.674 89.0758C282.723 92.0749 271.822 83.6132 268.209 71.9994C264.596 60.3856 278.018 50.6638 287.236 51.0418C278.394 53.9689 276.818 68.704 280.867 75.7437C285.937 85.0347 296.494 92.1559 303.897 83.2838C311.299 74.4117 308.191 55.461 296.465 34.6895C273.923 -5.57445 241.586 -10.9241 224.727 -11.2608Z" fill="#A81C25" fill-opacity="0.3"/>
<path d="M224.727 -11.2608C245.607 -12.5411 289.382 -4.10188 308.023 40.5214C319.855 68.9572 312.625 86.0768 297.674 89.0758C282.723 92.0749 271.822 83.6132 268.209 71.9994C264.596 60.3856 278.018 50.6638 287.236 51.0418C278.394 53.9689 276.818 68.704 280.867 75.7437C285.937 85.0347 296.494 92.1559 303.897 83.2838C311.299 74.4117 308.191 55.461 296.465 34.6895C273.923 -5.57445 241.586 -10.9241 224.727 -11.2608Z" fill="#FFD43E"/>
<path d="M319.157 98.6001C328.087 105.974 338.154 104.682 346.564 102.379C358.502 98.8968 372.589 78.6926 377.161 56.1443C369.712 78.8064 353.272 83.3729 343.092 87.061C328.286 92.4434 328.26 99.0023 319.157 98.6001Z" fill="#A81C25" fill-opacity="0.3"/>
<path d="M319.157 98.6001C328.087 105.974 338.154 104.682 346.564 102.379C358.502 98.8968 372.589 78.6926 377.161 56.1443C369.712 78.8064 353.272 83.3729 343.092 87.061C328.286 92.4434 328.26 99.0023 319.157 98.6001Z" fill="#FFD43E"/>
<path d="M10.2215 61.6104C10.2215 61.6104 64.9023 57.4586 86.6344 99.4639C85.8231 71.8973 86.578 47.9406 10.2215 61.6104Z" fill="#A81C25" fill-opacity="0.3"/>
<path d="M10.2215 61.6104C10.2215 61.6104 64.9023 57.4586 86.6344 99.4639C85.8231 71.8973 86.578 47.9406 10.2215 61.6104Z" fill="#FFD43E"/>
<path d="M68.2546 0.340037C79.8705 -1.31447 82.1943 -19.4356 70.3948 -24.4374C74.5124 -28.4191 74.761 -36.3005 67.7708 -37.5048C79.6793 -46.6528 86.1602 -28.1135 75.7045 -24.6214C96.8236 -28.0937 101.333 11.6702 68.2546 0.340037Z" fill="#A81C25" fill-opacity="0.3"/>
<path d="M68.2546 0.340037C79.8705 -1.31447 82.1943 -19.4356 70.3948 -24.4374C74.5124 -28.4191 74.761 -36.3005 67.7708 -37.5048C79.6793 -46.6528 86.1602 -28.1135 75.7045 -24.6214C96.8236 -28.0937 101.333 11.6702 68.2546 0.340037Z" fill="#FFD43E"/>
</g>
</g>
</svg>
