<svg width="1440" height="391" viewBox="0 0 1440 391" fill="none" xmlns="http://www.w3.org/2000/svg">
<mask id="mask0_356_26344" style="mask-type:alpha" maskUnits="userSpaceOnUse" x="0" y="0" width="1440" height="391">
<path d="M0 0H1440V391L0 390.152L0 0Z" fill="url(#paint0_linear_356_26344)"/>
</mask>
<g mask="url(#mask0_356_26344)">
<g style="mix-blend-mode:screen" opacity="0.1">
<path d="M2.93179 -2.66719C142.129 42.5396 238.488 72.8681 414.275 94.0795C461.71 98.1889 559.309 104.932 674.96 82.9978C791.471 63.0199 919.987 9.17467 1035.39 -52.5934C1150.8 -114.362 1262.84 -174.583 1355.26 -197.16C1405.4 -209.179 1456.6 -217.505 1508.32 -221.198C1559.94 -225.76 1611.75 -225.655 1663.1 -221.101C1752.12 -213.404 1895.43 -183.309 1958.96 -69.026C1988.63 -13.4096 1996.34 50.2146 1980.94 111.424C1966.14 172.273 1914.51 220.215 1859.99 242.099C1746.89 289.835 1643.85 254.387 1602.06 240.272C1518.07 217.068 1446.85 207.395 1382.37 220.713C1350.66 227.754 1321.5 243.303 1299.21 265.71C1288.83 276.535 1278.39 292.643 1287.02 306.631C1295.82 322.068 1323.65 314.872 1326.11 296.427C1325.4 316.143 1291.25 327.265 1280.77 311.137C1270.29 295.008 1284.06 277.065 1294.09 265.985C1317.14 241.736 1347.38 224.308 1380.87 215.897C1446.78 200.954 1519.27 210.487 1603.89 233.62C1647.02 248.173 1745.7 282.054 1856.74 236.012C1909.71 214.594 1959.3 168.637 1973.66 109.595C1988.93 50.1582 1981.38 -12.0185 1952.19 -66.2225C1890.95 -177.243 1750.53 -207.367 1661.87 -214.809C1610.84 -219.398 1559.69 -219.285 1508.36 -215.048C1457.28 -211.425 1406.36 -203.424 1356.57 -191.15C1265.39 -169.005 1154.27 -109.178 1038.55 -47.375C922.823 14.4284 793.768 69.2128 676.303 89.2967C559.349 111.082 461.146 104.7 413.362 100.336C236.303 79.2658 140.323 46.5505 2.93179 -2.66719Z" fill="#A81C25" fill-opacity="0.3"/>
<path d="M2.93179 -2.66719C142.129 42.5396 238.488 72.8681 414.275 94.0795C461.71 98.1889 559.309 104.932 674.96 82.9978C791.471 63.0199 919.987 9.17467 1035.39 -52.5934C1150.8 -114.362 1262.84 -174.583 1355.26 -197.16C1405.4 -209.179 1456.6 -217.505 1508.32 -221.198C1559.94 -225.76 1611.75 -225.655 1663.1 -221.101C1752.12 -213.404 1895.43 -183.309 1958.96 -69.026C1988.63 -13.4096 1996.34 50.2146 1980.94 111.424C1966.14 172.273 1914.51 220.215 1859.99 242.099C1746.89 289.835 1643.85 254.387 1602.06 240.272C1518.07 217.068 1446.85 207.395 1382.37 220.713C1350.66 227.754 1321.5 243.303 1299.21 265.71C1288.83 276.535 1278.39 292.643 1287.02 306.631C1295.82 322.068 1323.65 314.872 1326.11 296.427C1325.4 316.143 1291.25 327.265 1280.77 311.137C1270.29 295.008 1284.06 277.065 1294.09 265.985C1317.14 241.736 1347.38 224.308 1380.87 215.897C1446.78 200.954 1519.27 210.487 1603.89 233.62C1647.02 248.173 1745.7 282.054 1856.74 236.012C1909.71 214.594 1959.3 168.637 1973.66 109.595C1988.93 50.1582 1981.38 -12.0185 1952.19 -66.2225C1890.95 -177.243 1750.53 -207.367 1661.87 -214.809C1610.84 -219.398 1559.69 -219.285 1508.36 -215.048C1457.28 -211.425 1406.36 -203.424 1356.57 -191.15C1265.39 -169.005 1154.27 -109.178 1038.55 -47.375C922.823 14.4284 793.768 69.2128 676.303 89.2967C559.349 111.082 461.146 104.7 413.362 100.336C236.303 79.2658 140.323 46.5505 2.93179 -2.66719Z" fill="#FFD43E"/>
<path d="M767.787 301.592C783.985 291 801.363 282.328 819.601 275.613C847.402 265.197 875.714 256.482 904.952 250.303C927.579 245.445 950.717 242.288 974.048 240.869C997.412 239.739 1020.75 241.25 1043.42 245.472C1080.39 251.036 1115.13 271.211 1126.47 289.295C1142.18 314.809 1123.61 332.992 1100.69 332.314C1121.66 327.053 1120.75 310.155 1111.66 292.113C1106.34 281.86 1077.54 257.215 1041.87 251.799C1019.55 247.831 996.848 246.249 974.12 247.309C951.425 248.658 928.605 251.779 906.295 256.602C877.726 263 849.381 271.425 822.215 281.77C799.656 290.138 786.628 294.517 767.787 301.592Z" fill="#A81C25" fill-opacity="0.3"/>
<path d="M767.787 301.592C783.985 291 801.363 282.328 819.601 275.613C847.402 265.197 875.714 256.482 904.952 250.303C927.579 245.445 950.717 242.288 974.048 240.869C997.412 239.739 1020.75 241.25 1043.42 245.472C1080.39 251.036 1115.13 271.211 1126.47 289.295C1142.18 314.809 1123.61 332.992 1100.69 332.314C1121.66 327.053 1120.75 310.155 1111.66 292.113C1106.34 281.86 1077.54 257.215 1041.87 251.799C1019.55 247.831 996.848 246.249 974.12 247.309C951.425 248.658 928.605 251.779 906.295 256.602C877.726 263 849.381 271.425 822.215 281.77C799.656 290.138 786.628 294.517 767.787 301.592Z" fill="#FFD43E"/>
<path d="M282.799 263.145C252.901 176.487 213.509 123.123 120.601 57.2396C73.9894 25.7809 21.2541 2.9161 -34.6482 -10.804C-118.025 -31.4371 -205.861 -34.2822 -291.67 -18.8874C-378.815 -3.93036 -457.538 34.711 -494.415 82.1859C-514.44 107.565 -528.962 136.143 -536.838 166.621C-536.52 166.586 -548.299 202.479 -543.584 259.402C-541.319 314.546 -513.875 396.495 -435.114 436.399C-358.864 476.875 -256.29 470.462 -188.117 435.338C-116.002 400.947 -93.7363 337.803 -94.8848 310.086C-92.157 256.44 -116.72 214.911 -153.145 194.045C-190.206 173.249 -234.651 169.98 -283.626 178.059C-235.194 167.988 -189.67 169.379 -150.385 189.928C-111.099 210.477 -84.6574 254.434 -87.7958 310.178C-86.4864 339.342 -110.305 405.883 -184.899 441.135C-255.201 477.375 -363.238 486.74 -441.906 444.774C-523.37 403.705 -559.678 325.965 -563.355 261.013C-571.324 195.072 -554.494 132.239 -507.168 77.4477C-458.985 21.6824 -381.43 -10.088 -293.331 -25.1509C-206.568 -40.6517 -117.461 -37.9479 -33.0987 -17.1311C23.7892 -3.22746 77.2245 20.1458 124.536 52.1129C218.812 118.724 257.636 175.667 282.799 263.145Z" fill="#A81C25" fill-opacity="0.3"/>
<path d="M282.799 263.145C252.901 176.487 213.509 123.123 120.601 57.2396C73.9894 25.7809 21.2541 2.9161 -34.6482 -10.804C-118.025 -31.4371 -205.861 -34.2822 -291.67 -18.8874C-378.815 -3.93036 -457.538 34.711 -494.415 82.1859C-514.44 107.565 -528.962 136.143 -536.838 166.621C-536.52 166.586 -548.299 202.479 -543.584 259.402C-541.319 314.546 -513.875 396.495 -435.114 436.399C-358.864 476.875 -256.29 470.462 -188.117 435.338C-116.002 400.947 -93.7363 337.803 -94.8848 310.086C-92.157 256.44 -116.72 214.911 -153.145 194.045C-190.206 173.249 -234.651 169.98 -283.626 178.059C-235.194 167.988 -189.67 169.379 -150.385 189.928C-111.099 210.477 -84.6574 254.434 -87.7958 310.178C-86.4864 339.342 -110.305 405.883 -184.899 441.135C-255.201 477.375 -363.238 486.74 -441.906 444.774C-523.37 403.705 -559.678 325.965 -563.355 261.013C-571.324 195.072 -554.494 132.239 -507.168 77.4477C-458.985 21.6824 -381.43 -10.088 -293.331 -25.1509C-206.568 -40.6517 -117.461 -37.9479 -33.0987 -17.1311C23.7892 -3.22746 77.2245 20.1458 124.536 52.1129C218.812 118.724 257.636 175.667 282.799 263.145Z" fill="#FFD43E"/>
<path d="M135.647 39.1582C171.421 48.3732 196.699 52.8924 243.34 58.5553C266.836 61.5139 328.605 64.3239 395.947 50.6876C474 34.9821 508.873 -13.1496 515.3 -33.5009C521.727 -53.8523 521.653 -86.3777 495.785 -104.9C471.091 -124.432 438.165 -119.602 412.081 -108.204C395.211 -100.761 381.559 -87.5205 374.3 -71.7662C357.371 -35.8865 370.666 -6.00218 405.361 5.0912C369.398 -2.93041 350.254 -33.3372 360.882 -73.7928C367.309 -94.1441 383.467 -110.887 404.723 -119.404C432.364 -131.267 472.834 -129.022 499.245 -108.508C526.513 -88.9693 533.201 -54.8339 525.853 -34.0871C519.555 -12.5777 495.596 44.0136 402.987 61.9224C336.727 76.6109 262.965 67.2197 239.405 63.682C203.86 59.4242 169.136 50.9719 135.647 39.1582Z" fill="#A81C25" fill-opacity="0.3"/>
<path d="M135.647 39.1582C171.421 48.3732 196.699 52.8924 243.34 58.5553C266.836 61.5139 328.605 64.3239 395.947 50.6876C474 34.9821 508.873 -13.1496 515.3 -33.5009C521.727 -53.8523 521.653 -86.3777 495.785 -104.9C471.091 -124.432 438.165 -119.602 412.081 -108.204C395.211 -100.761 381.559 -87.5205 374.3 -71.7662C357.371 -35.8865 370.666 -6.00218 405.361 5.0912C369.398 -2.93041 350.254 -33.3372 360.882 -73.7928C367.309 -94.1441 383.467 -110.887 404.723 -119.404C432.364 -131.267 472.834 -129.022 499.245 -108.508C526.513 -88.9693 533.201 -54.8339 525.853 -34.0871C519.555 -12.5777 495.596 44.0136 402.987 61.9224C336.727 76.6109 262.965 67.2197 239.405 63.682C203.86 59.4242 169.136 50.9719 135.647 39.1582Z" fill="#FFD43E"/>
<path d="M-101.943 240.82C-85.4344 273.571 -79.84 297.863 -64.1161 338.029C-59.1119 348.317 -51.1033 371.168 -30.2241 391.124C-9.98046 411.15 22.394 421.622 60.7203 413.261C120.435 400.472 133.952 357.058 121.286 321.242C99.7174 260.33 -6.14061 283.52 4.35982 340.387C11.7555 380.892 57.6893 380.185 79.7584 361.613C62.7824 385.481 13.445 384.514 -11.9106 344.539C-23.7938 324.463 -22.6172 300.299 -9.35502 280.654C8.34933 254.653 49.6857 238.63 85.6169 246.362C122.598 254.857 142.728 285.447 149.623 306.956C156.645 329.624 153.55 345.209 153.518 344.919C152.073 357.976 147.67 370.482 140.214 381.569C128.384 402.52 97.7697 425.266 60.7715 428.204C23.7733 431.141 -13.8191 417.146 -35.4948 395.813C-57.8063 374.551 -65.8791 351.121 -70.9155 340.543C-86.418 299.473 -89.7877 274.934 -101.943 240.82Z" fill="#A81C25" fill-opacity="0.3"/>
<path d="M-101.943 240.82C-85.4344 273.571 -79.84 297.863 -64.1161 338.029C-59.1119 348.317 -51.1033 371.168 -30.2241 391.124C-9.98046 411.15 22.394 421.622 60.7203 413.261C120.435 400.472 133.952 357.058 121.286 321.242C99.7174 260.33 -6.14061 283.52 4.35982 340.387C11.7555 380.892 57.6893 380.185 79.7584 361.613C62.7824 385.481 13.445 384.514 -11.9106 344.539C-23.7938 324.463 -22.6172 300.299 -9.35502 280.654C8.34933 254.653 49.6857 238.63 85.6169 246.362C122.598 254.857 142.728 285.447 149.623 306.956C156.645 329.624 153.55 345.209 153.518 344.919C152.073 357.976 147.67 370.482 140.214 381.569C128.384 402.52 97.7697 425.266 60.7715 428.204C23.7733 431.141 -13.8191 417.146 -35.4948 395.813C-57.8063 374.551 -65.8791 351.121 -70.9155 340.543C-86.418 299.473 -89.7877 274.934 -101.943 240.82Z" fill="#FFD43E"/>
<path d="M-83.2201 310.844C-57.9607 399.191 -17.4091 439.822 57.4917 444.984C16.9841 462.673 -16.8868 450.316 -34.773 434.131C-54.7915 416.131 -79.0613 380.139 -83.2201 310.844Z" fill="#A81C25" fill-opacity="0.3"/>
<path d="M-83.2201 310.844C-57.9607 399.191 -17.4091 439.822 57.4917 444.984C16.9841 462.673 -16.8868 450.316 -34.773 434.131C-54.7915 416.131 -79.0613 380.139 -83.2201 310.844Z" fill="#FFD43E"/>
<path d="M601.455 171.474C594.41 180.463 578.389 181.07 569.76 170.012C594.277 176.374 604.951 121.845 478.191 107.497C572.669 109.311 629.955 135.481 601.455 171.474Z" fill="#A81C25" fill-opacity="0.3"/>
<path d="M601.455 171.474C594.41 180.463 578.389 181.07 569.76 170.012C594.277 176.374 604.951 121.845 478.191 107.497C572.669 109.311 629.955 135.481 601.455 171.474Z" fill="#FFD43E"/>
<path d="M366.863 153.862C366.863 153.862 362.409 102.186 316.521 88.8186C381.415 99.488 403.002 125.813 366.863 153.862Z" fill="#A81C25" fill-opacity="0.3"/>
<path d="M366.863 153.862C366.863 153.862 362.409 102.186 316.521 88.8186C381.415 99.488 403.002 125.813 366.863 153.862Z" fill="#FFD43E"/>
<path d="M407.894 146.666C407.894 146.666 387.302 103.231 360.113 95.9929C413.301 99.7563 416.035 124.366 407.894 146.666Z" fill="#A81C25" fill-opacity="0.3"/>
<path d="M407.894 146.666C407.894 146.666 387.302 103.231 360.113 95.9929C413.301 99.7563 416.035 124.366 407.894 146.666Z" fill="#FFD43E"/>
<path d="M432.992 138.017C432.992 138.017 414.769 107.215 391.745 99.8074C434.665 103.832 439.266 122.079 432.992 138.017Z" fill="#A81C25" fill-opacity="0.3"/>
<path d="M432.992 138.017C432.992 138.017 414.769 107.215 391.745 99.8074C434.665 103.832 439.266 122.079 432.992 138.017Z" fill="#FFD43E"/>
<path d="M519.708 107.569C519.708 107.569 575.402 107.83 600.529 142.848C616.898 165.65 645.763 141.633 660.546 167.542C649.847 129.162 610.083 107.201 519.708 107.569Z" fill="#A81C25" fill-opacity="0.3"/>
<path d="M519.708 107.569C519.708 107.569 575.402 107.83 600.529 142.848C616.898 165.65 645.763 141.633 660.546 167.542C649.847 129.162 610.083 107.201 519.708 107.569Z" fill="#FFD43E"/>
<path d="M651.709 192.269C645.842 203.179 631.575 207.988 619.743 202.854C607.911 197.721 602.935 184.791 608.802 173.881C614.669 162.971 628.935 158.162 640.768 163.295C652.6 168.429 657.575 181.359 651.709 192.269ZM628.546 200.997C631.217 201.873 634.014 200.976 635.345 198.483C636.36 196.026 635.434 193.49 632.731 192.325C630.377 191.414 627.263 192.347 626.217 194.514C624.917 197.297 625.875 200.121 628.546 200.997C628.228 201.032 628.546 200.997 628.546 200.997ZM627.261 166.261C613.626 168.069 610.242 181.048 610.342 184.847C610.342 184.847 615.412 172.56 628.729 170.788C639.504 169.298 648.893 178.513 648.893 178.513C648.029 173.626 638.989 164.665 627.261 166.261Z" fill="#A81C25" fill-opacity="0.3"/>
<path d="M651.709 192.269C645.842 203.179 631.575 207.988 619.743 202.854C607.911 197.721 602.935 184.791 608.802 173.881C614.669 162.971 628.935 158.162 640.768 163.295C652.6 168.429 657.575 181.359 651.709 192.269ZM628.546 200.997C631.217 201.873 634.014 200.976 635.345 198.483C636.36 196.026 635.434 193.49 632.731 192.325C630.377 191.414 627.263 192.347 626.217 194.514C624.917 197.297 625.875 200.121 628.546 200.997C628.228 201.032 628.546 200.997 628.546 200.997ZM627.261 166.261C613.626 168.069 610.242 181.048 610.342 184.847C610.342 184.847 615.412 172.56 628.729 170.788C639.504 169.298 648.893 178.513 648.893 178.513C648.029 173.626 638.989 164.665 627.261 166.261Z" fill="#FFD43E"/>
<path d="M911.767 213.202C888.234 230.178 822.148 281.191 766.927 302.567C690.233 336.294 611.296 332.46 612.25 332.354C612.632 332.898 535.035 332.432 458.925 301.906C382.087 273.512 311.386 222.161 289.143 204.409C247.52 171.516 223.898 144.245 196.071 110.993C227.455 141.505 252.791 166.828 293.713 199.211C315.607 216.71 385.926 267.517 461.778 295.727C536.903 326.07 612.878 326.422 612.496 325.878C611.86 325.949 674.333 332.198 762.152 297.236C819.469 274.455 893.843 216.952 895.86 203.246C895.86 203.246 901.214 213.789 911.767 213.202Z" fill="#A81C25" fill-opacity="0.3"/>
<path d="M911.767 213.202C888.234 230.178 822.148 281.191 766.927 302.567C690.233 336.294 611.296 332.46 612.25 332.354C612.632 332.898 535.035 332.432 458.925 301.906C382.087 273.512 311.386 222.161 289.143 204.409C247.52 171.516 223.898 144.245 196.071 110.993C227.455 141.505 252.791 166.828 293.713 199.211C315.607 216.71 385.926 267.517 461.778 295.727C536.903 326.07 612.878 326.422 612.496 325.878C611.86 325.949 674.333 332.198 762.152 297.236C819.469 274.455 893.843 216.952 895.86 203.246C895.86 203.246 901.214 213.789 911.767 213.202Z" fill="#FFD43E"/>
<path d="M964.689 -11.3248C1009.73 -37.4316 1057.51 -59.1532 1107.08 -76.3837C1140 -87.0752 1244.25 -124.742 1344.27 -113.579C1448.39 -103.164 1500.22 -21.8719 1498.05 -23.9763C1507.77 -8.9353 1514.75 7.58155 1518.3 25.0659C1525.56 55.621 1519.49 105.242 1479.92 137.189C1440.35 169.136 1373.81 160.994 1344.91 129.62C1315.52 96.8338 1321.89 58.6097 1326.96 43.3921C1352.69 -17.4997 1443.34 -6.75983 1443.69 45.6649C1437.43 -4.93085 1343.96 11.0219 1333.61 45.2915C1328.98 58.7014 1328.39 88.0774 1364.62 107.207C1390.22 120.482 1423.75 115.292 1451.33 99.9186C1476.8 85.9507 1489.81 66.9197 1494.61 43.5248C1501.03 11.4514 1494.03 -10.9265 1487.95 -22.2673C1481.86 -33.6081 1443.57 -97.3521 1343.04 -107.287C1245.94 -118.189 1141.95 -81.1364 1109.35 -70.4803C1060.45 -53.0309 1012.12 -33.3006 964.689 -11.3248Z" fill="#A81C25" fill-opacity="0.3"/>
<path d="M964.689 -11.3248C1009.73 -37.4316 1057.51 -59.1532 1107.08 -76.3837C1140 -87.0752 1244.25 -124.742 1344.27 -113.579C1448.39 -103.164 1500.22 -21.8719 1498.05 -23.9763C1507.77 -8.9353 1514.75 7.58155 1518.3 25.0659C1525.56 55.621 1519.49 105.242 1479.92 137.189C1440.35 169.136 1373.81 160.994 1344.91 129.62C1315.52 96.8338 1321.89 58.6097 1326.96 43.3921C1352.69 -17.4997 1443.34 -6.75983 1443.69 45.6649C1437.43 -4.93085 1343.96 11.0219 1333.61 45.2915C1328.98 58.7014 1328.39 88.0774 1364.62 107.207C1390.22 120.482 1423.75 115.292 1451.33 99.9186C1476.8 85.9507 1489.81 66.9197 1494.61 43.5248C1501.03 11.4514 1494.03 -10.9265 1487.95 -22.2673C1481.86 -33.6081 1443.57 -97.3521 1343.04 -107.287C1245.94 -118.189 1141.95 -81.1364 1109.35 -70.4803C1060.45 -53.0309 1012.12 -33.3006 964.689 -11.3248Z" fill="#FFD43E"/>
<path d="M293.673 216.215C293.673 216.215 429.344 336.846 555.257 334.875C548.626 344.698 539.094 348.687 522.76 352.261C541.073 354.916 653.14 315.208 666.477 377.328C643.522 350.275 560.08 401.458 472.202 366.377C397.492 336.868 345.154 277.029 293.673 216.215Z" fill="#A81C25" fill-opacity="0.3"/>
<path d="M293.673 216.215C293.673 216.215 429.344 336.846 555.257 334.875C548.626 344.698 539.094 348.687 522.76 352.261C541.073 354.916 653.14 315.208 666.477 377.328C643.522 350.275 560.08 401.458 472.202 366.377C397.492 336.868 345.154 277.029 293.673 216.215Z" fill="#FFD43E"/>
<path d="M65.7986 12.9163C89.7086 16.7081 190.198 20.4923 219.52 -42.8498C234.545 -75.5872 260.69 -89.3362 242.557 -99.0456C280.063 -103.212 314.602 -41.3959 248.54 4.04554C317.063 -30.8248 288.71 -126.741 384.628 -117.76C337.02 -108.954 374.971 -39.6028 277.697 8.72003C210.92 41.9309 142.694 36.028 65.7986 12.9163Z" fill="#A81C25" fill-opacity="0.3"/>
<path d="M65.7986 12.9163C89.7086 16.7081 190.198 20.4923 219.52 -42.8498C234.545 -75.5872 260.69 -89.3362 242.557 -99.0456C280.063 -103.212 314.602 -41.3959 248.54 4.04554C317.063 -30.8248 288.71 -126.741 384.628 -117.76C337.02 -108.954 374.971 -39.6028 277.697 8.72003C210.92 41.9309 142.694 36.028 65.7986 12.9163Z" fill="#FFD43E"/>
<path d="M330.992 268.342C330.992 268.342 382.875 344.352 434.358 382.011C505.409 433.616 565.696 397.023 565.266 384.467C529.519 395.766 479.567 386.368 432.098 355.883C402.352 337.206 361.394 301.602 330.992 268.342Z" fill="#A81C25" fill-opacity="0.3"/>
<path d="M330.992 268.342C330.992 268.342 382.875 344.352 434.358 382.011C505.409 433.616 565.696 397.023 565.266 384.467C529.519 395.766 479.567 386.368 432.098 355.883C402.352 337.206 361.394 301.602 330.992 268.342Z" fill="#FFD43E"/>
<path d="M322.632 363.943C350.901 346.148 312.843 267.137 282.636 212.46C282.636 212.46 394.06 387.076 445.734 400.387C419.043 409.214 381.883 410.704 316.54 274.347C333.507 317.012 365.774 367.064 338.912 391.737C309.162 419.369 261.618 379.515 287.551 349.376C288.455 360.413 299.019 368.618 311.13 367.566C315.294 367.397 319.329 366.069 322.632 363.943Z" fill="#A81C25" fill-opacity="0.3"/>
<path d="M322.632 363.943C350.901 346.148 312.843 267.137 282.636 212.46C282.636 212.46 394.06 387.076 445.734 400.387C419.043 409.214 381.883 410.704 316.54 274.347C333.507 317.012 365.774 367.064 338.912 391.737C309.162 419.369 261.618 379.515 287.551 349.376C288.455 360.413 299.019 368.618 311.13 367.566C315.294 367.397 319.329 366.069 322.632 363.943Z" fill="#FFD43E"/>
<path d="M773.793 60.2952C787.424 55.5568 801.695 53.6783 815.23 48.0713C911.212 8.39186 990.857 -53.7997 955.417 -123.723C927.786 -178.393 860.995 -180.059 821.046 -148.656C780.24 -116.278 773.809 -49.6175 834.869 -30.0222C895.929 -10.427 938.434 -56.4756 907.164 -97.5522C922.771 -49.7529 866.044 -12.9689 836.672 -36.9637C806.6 -61.467 811.668 -99.8394 845.437 -117.366C872.502 -131.511 917.386 -132.98 935.723 -112.742C965.042 -80.5344 944.668 -29.324 873.835 13.7166C831.017 39.5762 773.793 60.2952 773.793 60.2952Z" fill="#A81C25" fill-opacity="0.3"/>
<path d="M773.793 60.2952C787.424 55.5568 801.695 53.6783 815.23 48.0713C911.212 8.39186 990.857 -53.7997 955.417 -123.723C927.786 -178.393 860.995 -180.059 821.046 -148.656C780.24 -116.278 773.809 -49.6175 834.869 -30.0222C895.929 -10.427 938.434 -56.4756 907.164 -97.5522C922.771 -49.7529 866.044 -12.9689 836.672 -36.9637C806.6 -61.467 811.668 -99.8394 845.437 -117.366C872.502 -131.511 917.386 -132.98 935.723 -112.742C965.042 -80.5344 944.668 -29.324 873.835 13.7166C831.017 39.5762 773.793 60.2952 773.793 60.2952Z" fill="#FFD43E"/>
<path d="M542.143 103.906C579.012 99.8097 652.048 88.1788 723.025 107.258C790.377 125.568 822.971 207.531 753.455 236.357C709.801 254.689 664.123 231.626 663.534 194.469C662.849 156.442 709.131 129.905 739.585 154.952C710.921 137.326 670.542 156.174 683.836 186.058C694.866 210.039 726.051 209.799 744.981 197.73C765.722 184.582 767.822 136.867 721.765 116.191C672.687 94.3857 610.329 103.658 542.143 103.906Z" fill="#A81C25" fill-opacity="0.3"/>
<path d="M542.143 103.906C579.012 99.8097 652.048 88.1788 723.025 107.258C790.377 125.568 822.971 207.531 753.455 236.357C709.801 254.689 664.123 231.626 663.534 194.469C662.849 156.442 709.131 129.905 739.585 154.952C710.921 137.326 670.542 156.174 683.836 186.058C694.866 210.039 726.051 209.799 744.981 197.73C765.722 184.582 767.822 136.867 721.765 116.191C672.687 94.3857 610.329 103.658 542.143 103.906Z" fill="#FFD43E"/>
<path d="M969.102 106.592C979.636 91.3536 996.429 97.6947 990.537 114.176C984.646 130.658 962.719 136.025 962.719 136.025C971.668 123.893 961.614 117.39 969.102 106.592ZM940.549 101.558C955.511 117.481 963.381 156.468 915.578 186.692C915.578 186.692 838.191 127.291 914.346 45.2635C918.122 64.7745 925.588 85.6342 940.549 101.558ZM917.533 149.252C927.791 166.284 925.409 168.014 919.724 171.87C899.83 152.098 893.785 123.753 904.783 98.2039C906.65 91.8414 905.91 85.1824 902.406 79.7098C874.533 132.926 918.745 177.547 918.745 177.547C944.954 164.377 934.431 139.168 926.37 124.529C920.73 114.311 918.104 99.3619 915.896 88.1764C903.22 118.894 907.275 132.219 917.533 149.252ZM974.744 142.896C997.106 129.86 1013.79 129.471 1028.61 132.515C1043.43 135.558 1057.55 138.093 1072.42 135.855C1059.12 152.28 1050 174.397 1006.28 195.08C960.408 216.59 928.557 193.457 923.468 191.091C925.085 188.274 952.382 155.932 974.744 142.896ZM1042.12 155.634C1037.89 155.225 1036.15 156.884 1031.13 160.959C1026.11 165.033 988.809 202.883 947.906 185.152C951.016 181.289 964.454 174.814 973.197 175.308C981.939 175.802 997.107 179.1 1027.4 153.459C1005.63 154.413 997.419 150.049 981.12 156.842C964.821 163.636 947.89 173.43 939.135 187.299C939.42 186.974 993.692 217.875 1042.12 155.634ZM1084.62 80.5698C1085.93 109.734 1075.99 118.752 1063.7 123.928C1051.11 129.429 1037.63 126.823 1025.55 125.234C1014.74 123.504 997.96 125.955 994.145 126.379C996.56 124.938 998.656 123.533 1000.75 122.128L1001.64 121.443C1004.31 119.388 1006.94 117.043 1009.26 114.734C1014.75 109.141 1020.63 104.092 1026.82 99.0079C1023.52 101.133 1019.8 102.426 1015.7 103.174C1016.05 100.498 1016.39 97.8217 1016.1 95.216C1016.01 94.3474 1015.91 93.4788 1015.78 92.3207C1023.06 88.2885 1029.92 83.4231 1036.04 77.7597C1029.85 82.8441 1022.51 86.2972 1014.7 88.3381C1014.22 86.9258 1013.42 85.5488 1012.62 84.1718C1020.09 78.9462 1026.82 72.9226 1033.17 66.3554C1026.05 71.8352 1018.24 76.8065 1010.36 81.1989C1009.28 80.1467 1008.2 79.0946 1007.15 78.3319C1012.45 71.002 1022.16 59.9577 1029.21 50.9683C1024.16 54.7533 1011.49 68.1774 1004.35 76.2982C1003.33 75.8251 1002.31 75.352 1001.29 74.8789C1004.18 66.059 1008.67 51.4911 1010.19 44.8744C1005.69 53.5813 999.666 68.9048 997.923 73.4948C996.905 73.0217 995.92 72.8381 994.934 72.6545C993.281 72.252 991.309 71.8849 989.37 71.8072C990.223 67.9022 993.576 54.6335 992.522 50.9404C991.737 58.355 989.012 65.6919 984.57 72.0473C983.617 72.1533 982.695 72.5487 981.774 72.9442C980.877 67.7681 978.741 63.0228 975.97 58.348C978.234 64.2515 977.67 70.7622 974.753 76.362C972.657 77.7673 970.878 79.1372 969.132 80.7967C967.475 77.4637 964.928 74.8156 961.493 72.8525C966.786 85.7469 958.373 94.0089 954.988 106.988C952.659 100.506 942.027 88.7906 935.591 77.1956C929.154 65.6006 924.078 48.8719 935.723 32.0442C947.367 15.2164 966.109 4.34156 980.283 1.59451C994.457 -1.15254 1000.48 9.60917 1001.8 24.4101C1003.79 16.2752 1014.11 1.94024 1034.43 11.113C1054.76 20.2858 1060.66 41.6115 1039.07 55.7348C1057.53 48.1152 1083.48 55.7839 1084.62 80.5698ZM968.123 13.7899C940.833 25.9077 931.899 49.7616 938.054 64.6119C938.054 64.6119 933.634 39.3105 964.86 22.066C990.94 7.73796 993.538 25.3282 993.538 25.3282C993.538 25.3282 995.732 1.63675 968.123 13.7899ZM1040.36 47.0914C1040.36 47.0914 1055.66 28.3924 1030.4 18.3017C1012.21 10.9437 1006.04 30.6807 1006.04 30.6807C1006.04 30.6807 1010.47 18.4642 1027.55 24.4805C1047.33 31.6619 1040.36 47.0914 1040.36 47.0914ZM1042.73 62.655C1052.65 62.1395 1068.26 63.6293 1071.49 81.1489C1076 104.388 1060.51 118.42 1044.68 120.764C1049.9 121.357 1082.51 122.423 1077.66 78.7056C1075.11 52.9028 1042.73 62.655 1042.73 62.655ZM910.766 201.295C919.769 207.036 921.947 194.777 921.947 194.777L938.168 201.768C938.168 201.768 923.631 218.624 905.495 205.984C887.359 193.344 899.86 175.542 899.86 175.542L912.625 189.072C912.307 189.107 900.044 194.573 910.766 201.295Z" fill="#A81C25" fill-opacity="0.3"/>
<path d="M969.102 106.592C979.636 91.3536 996.429 97.6947 990.537 114.176C984.646 130.658 962.719 136.025 962.719 136.025C971.668 123.893 961.614 117.39 969.102 106.592ZM940.549 101.558C955.511 117.481 963.381 156.468 915.578 186.692C915.578 186.692 838.191 127.291 914.346 45.2635C918.122 64.7745 925.588 85.6342 940.549 101.558ZM917.533 149.252C927.791 166.284 925.409 168.014 919.724 171.87C899.83 152.098 893.785 123.753 904.783 98.2039C906.65 91.8414 905.91 85.1824 902.406 79.7098C874.533 132.926 918.745 177.547 918.745 177.547C944.954 164.377 934.431 139.168 926.37 124.529C920.73 114.311 918.104 99.3619 915.896 88.1764C903.22 118.894 907.275 132.219 917.533 149.252ZM974.744 142.896C997.106 129.86 1013.79 129.471 1028.61 132.515C1043.43 135.558 1057.55 138.093 1072.42 135.855C1059.12 152.28 1050 174.397 1006.28 195.08C960.408 216.59 928.557 193.457 923.468 191.091C925.085 188.274 952.382 155.932 974.744 142.896ZM1042.12 155.634C1037.89 155.225 1036.15 156.884 1031.13 160.959C1026.11 165.033 988.809 202.883 947.906 185.152C951.016 181.289 964.454 174.814 973.197 175.308C981.939 175.802 997.107 179.1 1027.4 153.459C1005.63 154.413 997.419 150.049 981.12 156.842C964.821 163.636 947.89 173.43 939.135 187.299C939.42 186.974 993.692 217.875 1042.12 155.634ZM1084.62 80.5698C1085.93 109.734 1075.99 118.752 1063.7 123.928C1051.11 129.429 1037.63 126.823 1025.55 125.234C1014.74 123.504 997.96 125.955 994.145 126.379C996.56 124.938 998.656 123.533 1000.75 122.128L1001.64 121.443C1004.31 119.388 1006.94 117.043 1009.26 114.734C1014.75 109.141 1020.63 104.092 1026.82 99.0079C1023.52 101.133 1019.8 102.426 1015.7 103.174C1016.05 100.498 1016.39 97.8217 1016.1 95.216C1016.01 94.3474 1015.91 93.4788 1015.78 92.3207C1023.06 88.2885 1029.92 83.4231 1036.04 77.7597C1029.85 82.8441 1022.51 86.2972 1014.7 88.3381C1014.22 86.9258 1013.42 85.5488 1012.62 84.1718C1020.09 78.9462 1026.82 72.9226 1033.17 66.3554C1026.05 71.8352 1018.24 76.8065 1010.36 81.1989C1009.28 80.1467 1008.2 79.0946 1007.15 78.3319C1012.45 71.002 1022.16 59.9577 1029.21 50.9683C1024.16 54.7533 1011.49 68.1774 1004.35 76.2982C1003.33 75.8251 1002.31 75.352 1001.29 74.8789C1004.18 66.059 1008.67 51.4911 1010.19 44.8744C1005.69 53.5813 999.666 68.9048 997.923 73.4948C996.905 73.0217 995.92 72.8381 994.934 72.6545C993.281 72.252 991.309 71.8849 989.37 71.8072C990.223 67.9022 993.576 54.6335 992.522 50.9404C991.737 58.355 989.012 65.6919 984.57 72.0473C983.617 72.1533 982.695 72.5487 981.774 72.9442C980.877 67.7681 978.741 63.0228 975.97 58.348C978.234 64.2515 977.67 70.7622 974.753 76.362C972.657 77.7673 970.878 79.1372 969.132 80.7967C967.475 77.4637 964.928 74.8156 961.493 72.8525C966.786 85.7469 958.373 94.0089 954.988 106.988C952.659 100.506 942.027 88.7906 935.591 77.1956C929.154 65.6006 924.078 48.8719 935.723 32.0442C947.367 15.2164 966.109 4.34156 980.283 1.59451C994.457 -1.15254 1000.48 9.60917 1001.8 24.4101C1003.79 16.2752 1014.11 1.94024 1034.43 11.113C1054.76 20.2858 1060.66 41.6115 1039.07 55.7348C1057.53 48.1152 1083.48 55.7839 1084.62 80.5698ZM968.123 13.7899C940.833 25.9077 931.899 49.7616 938.054 64.6119C938.054 64.6119 933.634 39.3105 964.86 22.066C990.94 7.73796 993.538 25.3282 993.538 25.3282C993.538 25.3282 995.732 1.63675 968.123 13.7899ZM1040.36 47.0914C1040.36 47.0914 1055.66 28.3924 1030.4 18.3017C1012.21 10.9437 1006.04 30.6807 1006.04 30.6807C1006.04 30.6807 1010.47 18.4642 1027.55 24.4805C1047.33 31.6619 1040.36 47.0914 1040.36 47.0914ZM1042.73 62.655C1052.65 62.1395 1068.26 63.6293 1071.49 81.1489C1076 104.388 1060.51 118.42 1044.68 120.764C1049.9 121.357 1082.51 122.423 1077.66 78.7056C1075.11 52.9028 1042.73 62.655 1042.73 62.655ZM910.766 201.295C919.769 207.036 921.947 194.777 921.947 194.777L938.168 201.768C938.168 201.768 923.631 218.624 905.495 205.984C887.359 193.344 899.86 175.542 899.86 175.542L912.625 189.072C912.307 189.107 900.044 194.573 910.766 201.295Z" fill="#FFD43E"/>
<path d="M242.819 323.276C266.002 306.045 269.319 289.557 269.319 289.557C268.577 306.053 262.847 323.982 255.262 333.91C237.586 357.27 218.175 341.841 242.819 323.276ZM127.771 417.244C130.813 409.872 136.852 409.201 139.97 411.2C144.138 413.961 137.088 420.02 133.146 419.285C137.124 423.24 147.263 421.82 151.327 417.852C161.901 408.763 158.325 396.851 154.717 384.648C151.109 372.446 156.437 362.475 173.975 355.251C178.963 353.817 182.327 349.34 181.78 344.419C181.78 344.419 173.11 350.364 169.288 344.927C166.484 339.963 168.702 333.855 174.198 331.192C175.119 330.797 175.723 330.437 176.676 330.331C183.001 329.335 202.111 333.367 228.401 309.344C212.424 319.032 195.642 321.483 182.914 311.173C167.735 299.084 166.855 282.475 177.839 271.289C188.824 260.104 214.48 262.236 214.945 278.012C206.774 276.868 198.136 283.103 202.786 290.207C207.436 297.311 213.825 296.894 223.96 292.544C234.095 288.194 257.161 278.597 260.898 242.718C263.092 219.026 256.841 203.307 249.569 184.185C249.569 184.185 272.599 220.608 281.601 249.504C290.028 276.119 288.768 285.051 288.283 303.863C287.871 329.115 270.92 347.412 269.828 363.653C268.322 379.062 276.098 394.025 290.223 402.421C279.931 408.254 253.658 420.845 243.796 389.993C236.372 401.369 242.744 412.385 234.42 415.655C227.334 418.494 221.88 404.152 226.765 395.988C219.937 401.143 215.309 411.623 218.085 419.228C220.764 425.965 212.64 436.832 203.786 423.747C199.726 430.647 195.666 437.546 186.227 439.474C179.617 440.794 171.788 434.043 173.398 425.365C166.163 435.548 150.343 443.753 137.622 439.305C127.89 435.696 125.268 423.677 127.771 417.244ZM192.198 386.053C202.139 379.966 211.317 372.791 219.445 364.854C220.113 365.073 220.813 365.582 221.481 365.8C216.721 372.191 209.675 381.181 202.344 390.495C209.868 382.918 217.042 375.086 223.166 366.492C223.834 366.711 224.82 366.895 225.805 367.079C221.874 375.136 216.929 385.65 213.979 390.961C218.136 384.93 224.131 375.178 228.445 367.665C229.43 367.848 230.384 367.742 231.337 367.636L226.307 386.074L234.198 367.319C235.151 367.213 236.423 367.071 237.344 366.676C237.987 372.466 237.359 378.398 235.428 384.182C238.791 379.704 240.116 371.351 240.14 365.779C241.665 365.024 243.19 364.268 244.715 363.512C246.598 368.872 246.891 374.408 245.245 379.867C247.812 374.013 249.012 367.431 248.622 361.027C249.511 360.342 252.432 357.672 253.003 357.023C252.915 362.015 253.912 370.99 258.973 375.997C253.429 366.648 256.504 359.565 258.149 354.106C259.795 348.648 265.369 332.201 270.432 314.053C275.494 295.905 275.017 271.338 269.02 255.005C272.389 279.544 260.945 303.969 238.776 318.742C200.79 344.651 193.433 333.452 193.433 333.452C193.433 333.452 198.083 340.556 214.671 336.368C214.068 336.728 213.814 337.343 213.243 337.992C206.254 341.7 198.469 344.03 190.491 344.623C197.008 345.365 204.858 343.613 210.515 342.399C210.008 343.627 209.501 344.856 208.994 346.085C198.859 350.435 190.599 354.283 184.721 356.402C193.141 354.001 202.198 351.529 209.03 349.305C209.19 350.752 209.351 352.2 210.116 353.288C202.684 358.803 194.871 363.774 186.325 367.947C194.967 364.643 203.545 360.759 211.391 356.077C211.805 356.91 212.537 357.708 212.92 358.252C205.078 365.864 196.536 372.968 187.262 379.274C196.918 373.512 206.192 367.206 215.084 360.356C215.784 360.865 216.166 361.408 216.866 361.917C208.107 372.855 199.758 381.696 192.198 386.053Z" fill="#A81C25" fill-opacity="0.3"/>
<path d="M242.819 323.276C266.002 306.045 269.319 289.557 269.319 289.557C268.577 306.053 262.847 323.982 255.262 333.91C237.586 357.27 218.175 341.841 242.819 323.276ZM127.771 417.244C130.813 409.872 136.852 409.201 139.97 411.2C144.138 413.961 137.088 420.02 133.146 419.285C137.124 423.24 147.263 421.82 151.327 417.852C161.901 408.763 158.325 396.851 154.717 384.648C151.109 372.446 156.437 362.475 173.975 355.251C178.963 353.817 182.327 349.34 181.78 344.419C181.78 344.419 173.11 350.364 169.288 344.927C166.484 339.963 168.702 333.855 174.198 331.192C175.119 330.797 175.723 330.437 176.676 330.331C183.001 329.335 202.111 333.367 228.401 309.344C212.424 319.032 195.642 321.483 182.914 311.173C167.735 299.084 166.855 282.475 177.839 271.289C188.824 260.104 214.48 262.236 214.945 278.012C206.774 276.868 198.136 283.103 202.786 290.207C207.436 297.311 213.825 296.894 223.96 292.544C234.095 288.194 257.161 278.597 260.898 242.718C263.092 219.026 256.841 203.307 249.569 184.185C249.569 184.185 272.599 220.608 281.601 249.504C290.028 276.119 288.768 285.051 288.283 303.863C287.871 329.115 270.92 347.412 269.828 363.653C268.322 379.062 276.098 394.025 290.223 402.421C279.931 408.254 253.658 420.845 243.796 389.993C236.372 401.369 242.744 412.385 234.42 415.655C227.334 418.494 221.88 404.152 226.765 395.988C219.937 401.143 215.309 411.623 218.085 419.228C220.764 425.965 212.64 436.832 203.786 423.747C199.726 430.647 195.666 437.546 186.227 439.474C179.617 440.794 171.788 434.043 173.398 425.365C166.163 435.548 150.343 443.753 137.622 439.305C127.89 435.696 125.268 423.677 127.771 417.244ZM192.198 386.053C202.139 379.966 211.317 372.791 219.445 364.854C220.113 365.073 220.813 365.582 221.481 365.8C216.721 372.191 209.675 381.181 202.344 390.495C209.868 382.918 217.042 375.086 223.166 366.492C223.834 366.711 224.82 366.895 225.805 367.079C221.874 375.136 216.929 385.65 213.979 390.961C218.136 384.93 224.131 375.178 228.445 367.665C229.43 367.848 230.384 367.742 231.337 367.636L226.307 386.074L234.198 367.319C235.151 367.213 236.423 367.071 237.344 366.676C237.987 372.466 237.359 378.398 235.428 384.182C238.791 379.704 240.116 371.351 240.14 365.779C241.665 365.024 243.19 364.268 244.715 363.512C246.598 368.872 246.891 374.408 245.245 379.867C247.812 374.013 249.012 367.431 248.622 361.027C249.511 360.342 252.432 357.672 253.003 357.023C252.915 362.015 253.912 370.99 258.973 375.997C253.429 366.648 256.504 359.565 258.149 354.106C259.795 348.648 265.369 332.201 270.432 314.053C275.494 295.905 275.017 271.338 269.02 255.005C272.389 279.544 260.945 303.969 238.776 318.742C200.79 344.651 193.433 333.452 193.433 333.452C193.433 333.452 198.083 340.556 214.671 336.368C214.068 336.728 213.814 337.343 213.243 337.992C206.254 341.7 198.469 344.03 190.491 344.623C197.008 345.365 204.858 343.613 210.515 342.399C210.008 343.627 209.501 344.856 208.994 346.085C198.859 350.435 190.599 354.283 184.721 356.402C193.141 354.001 202.198 351.529 209.03 349.305C209.19 350.752 209.351 352.2 210.116 353.288C202.684 358.803 194.871 363.774 186.325 367.947C194.967 364.643 203.545 360.759 211.391 356.077C211.805 356.91 212.537 357.708 212.92 358.252C205.078 365.864 196.536 372.968 187.262 379.274C196.918 373.512 206.192 367.206 215.084 360.356C215.784 360.865 216.166 361.408 216.866 361.917C208.107 372.855 199.758 381.696 192.198 386.053Z" fill="#FFD43E"/>
<path d="M655.949 30.5942C645.951 41.9633 625.431 54.2081 604.3 60.9521C604.3 60.9521 623.87 51.7437 637.882 21.4637C652.907 -11.2736 679.343 3.66837 655.949 30.5942ZM755.974 -152.272C777.063 -142.012 780.601 -110.164 744.329 -86.2042C754.75 -90.879 766.329 -85.131 766.815 -77.8577C767.655 -67.3996 760.384 -60.4368 752.732 -54.0178C771.681 -51.4335 762.193 -38.3625 752.69 -37.0137C743.187 -35.6649 729.399 -29.4435 725.278 -20.1929C738.709 -32.5295 768.904 -35.884 770.101 -19.3106C771.814 1.89517 735.493 -12.2417 723.587 -0.660692C774.281 -7.75793 801.087 48.1762 740.327 63.133C757.685 39.8086 722.904 36.6383 696.624 43.3681C673.775 49.1305 662.151 57.4562 626.283 73.4579C587.65 90.646 544.677 94.8338 507.55 96.6136C417.976 101.289 369.577 88.4939 369.577 88.4939C404.39 91.9538 460.856 99.1631 541.782 68.7767C582.261 53.7283 591.316 25.1714 592.508 12.729C593.446 0.900924 590.924 -7.31867 582.085 -8.68147C570.957 -10.3762 566.615 -0.221625 570.758 8.11094C550.42 13.3013 537.89 -15.4955 547.056 -31.4617C556.222 -47.4278 575.567 -58.6629 603.114 -45.3098C621.149 -36.4689 621.98 -8.71708 615.203 11.3801C634.96 -25.107 621.017 -40.5575 615.116 -56.0222C608.386 -73.1534 618.892 -85.7513 632.213 -84.5933C660.508 -81.8748 650.661 -51.7644 643.765 -50.119C643.765 -50.119 653.3 -51.1783 654.685 -61.8836C657.805 -83.0399 669.4 -88.7246 685.385 -92.5521C711.094 -98.6322 736.731 -111.153 728.219 -129.844C723.98 -139.045 717.305 -138.304 711.648 -137.089C720.438 -124.583 706.71 -120.714 702.16 -124.018C698.342 -126.525 696.553 -133.947 700.77 -142.329C711.171 -161.656 743.727 -158.239 755.974 -152.272ZM678.962 -20.0301C678.262 -20.5386 677.244 -21.0116 676.227 -21.4848C681.679 -33.2281 686.496 -44.9009 690.612 -57.082C685.828 -45.1198 679.993 -33.9201 672.855 -22.8688C671.837 -23.3419 670.534 -23.4902 669.548 -23.6738C672.619 -33.6871 674.703 -43.8839 675.835 -53.9748C673.432 -43.7427 670.044 -33.6941 665.32 -24.0833C663.38 -24.161 661.473 -23.9491 659.884 -23.7726C660.255 -32.0204 659.829 -41.6453 659.721 -51.3055C658.904 -44.1804 657.709 -34.6685 655.499 -22.6992C653.974 -21.9436 652.481 -20.8985 650.989 -19.8534C650.406 -27.9953 648.266 -35.6711 644.855 -43.2058C647.091 -34.6613 648.056 -25.9757 648.067 -17.1841C647.496 -16.5344 645.211 -13.9358 644.639 -13.2861C642.721 -21.8658 638.928 -29.9442 633.642 -36.9774C633.642 -36.9774 646.035 -15.1998 630.757 18.152C608.408 66.0646 521.552 83.6273 521.552 83.6273C568.118 79.9196 608.158 69.6095 636.145 55.0696C657.747 43.8769 676.102 29.5277 682.487 26.1805C688.872 22.8333 696.875 16.6685 710.707 19.5283C702.564 15.7434 691.186 17.5936 685.147 18.2645C685.686 17.3253 687.05 15.1221 687.907 14.1476C696.964 11.676 705.192 7.53788 712.273 1.76855C705.667 6.01964 697.596 8.67484 689.618 9.26807C690.378 7.42501 690.789 5.32773 690.914 3.55529C698.252 0.102139 707.973 -5.08111 712.258 -9.9536C705.652 -5.7025 698.313 -2.24935 690.878 0.335227C690.749 -0.82287 690.62 -1.98095 690.492 -3.13905L711.39 -17.7707L689.852 -5.99894C689.724 -7.15704 689.309 -7.99028 688.863 -9.11307C696.769 -16.1464 707.596 -25.849 713.628 -32.381C707.721 -27.6215 696.194 -18.4273 687.62 -11.6128C687.205 -12.4461 686.473 -13.244 685.741 -14.042C691.962 -21.7673 700.15 -32.0561 705.735 -39.7108C696.625 -29.0266 690.88 -22.8195 684.277 -15.6379C683.577 -16.1463 682.877 -16.6547 682.144 -17.4527C689.568 -28.8289 695.306 -40.8971 699.391 -53.3678C697.178 -44.329 688.865 -32.2678 678.962 -20.0301Z" fill="#A81C25" fill-opacity="0.3"/>
<path d="M655.949 30.5942C645.951 41.9633 625.431 54.2081 604.3 60.9521C604.3 60.9521 623.87 51.7437 637.882 21.4637C652.907 -11.2736 679.343 3.66837 655.949 30.5942ZM755.974 -152.272C777.063 -142.012 780.601 -110.164 744.329 -86.2042C754.75 -90.879 766.329 -85.131 766.815 -77.8577C767.655 -67.3996 760.384 -60.4368 752.732 -54.0178C771.681 -51.4335 762.193 -38.3625 752.69 -37.0137C743.187 -35.6649 729.399 -29.4435 725.278 -20.1929C738.709 -32.5295 768.904 -35.884 770.101 -19.3106C771.814 1.89517 735.493 -12.2417 723.587 -0.660692C774.281 -7.75793 801.087 48.1762 740.327 63.133C757.685 39.8086 722.904 36.6383 696.624 43.3681C673.775 49.1305 662.151 57.4562 626.283 73.4579C587.65 90.646 544.677 94.8338 507.55 96.6136C417.976 101.289 369.577 88.4939 369.577 88.4939C404.39 91.9538 460.856 99.1631 541.782 68.7767C582.261 53.7283 591.316 25.1714 592.508 12.729C593.446 0.900924 590.924 -7.31867 582.085 -8.68147C570.957 -10.3762 566.615 -0.221625 570.758 8.11094C550.42 13.3013 537.89 -15.4955 547.056 -31.4617C556.222 -47.4278 575.567 -58.6629 603.114 -45.3098C621.149 -36.4689 621.98 -8.71708 615.203 11.3801C634.96 -25.107 621.017 -40.5575 615.116 -56.0222C608.386 -73.1534 618.892 -85.7513 632.213 -84.5933C660.508 -81.8748 650.661 -51.7644 643.765 -50.119C643.765 -50.119 653.3 -51.1783 654.685 -61.8836C657.805 -83.0399 669.4 -88.7246 685.385 -92.5521C711.094 -98.6322 736.731 -111.153 728.219 -129.844C723.98 -139.045 717.305 -138.304 711.648 -137.089C720.438 -124.583 706.71 -120.714 702.16 -124.018C698.342 -126.525 696.553 -133.947 700.77 -142.329C711.171 -161.656 743.727 -158.239 755.974 -152.272ZM678.962 -20.0301C678.262 -20.5386 677.244 -21.0116 676.227 -21.4848C681.679 -33.2281 686.496 -44.9009 690.612 -57.082C685.828 -45.1198 679.993 -33.9201 672.855 -22.8688C671.837 -23.3419 670.534 -23.4902 669.548 -23.6738C672.619 -33.6871 674.703 -43.8839 675.835 -53.9748C673.432 -43.7427 670.044 -33.6941 665.32 -24.0833C663.38 -24.161 661.473 -23.9491 659.884 -23.7726C660.255 -32.0204 659.829 -41.6453 659.721 -51.3055C658.904 -44.1804 657.709 -34.6685 655.499 -22.6992C653.974 -21.9436 652.481 -20.8985 650.989 -19.8534C650.406 -27.9953 648.266 -35.6711 644.855 -43.2058C647.091 -34.6613 648.056 -25.9757 648.067 -17.1841C647.496 -16.5344 645.211 -13.9358 644.639 -13.2861C642.721 -21.8658 638.928 -29.9442 633.642 -36.9774C633.642 -36.9774 646.035 -15.1998 630.757 18.152C608.408 66.0646 521.552 83.6273 521.552 83.6273C568.118 79.9196 608.158 69.6095 636.145 55.0696C657.747 43.8769 676.102 29.5277 682.487 26.1805C688.872 22.8333 696.875 16.6685 710.707 19.5283C702.564 15.7434 691.186 17.5936 685.147 18.2645C685.686 17.3253 687.05 15.1221 687.907 14.1476C696.964 11.676 705.192 7.53788 712.273 1.76855C705.667 6.01964 697.596 8.67484 689.618 9.26807C690.378 7.42501 690.789 5.32773 690.914 3.55529C698.252 0.102139 707.973 -5.08111 712.258 -9.9536C705.652 -5.7025 698.313 -2.24935 690.878 0.335227C690.749 -0.82287 690.62 -1.98095 690.492 -3.13905L711.39 -17.7707L689.852 -5.99894C689.724 -7.15704 689.309 -7.99028 688.863 -9.11307C696.769 -16.1464 707.596 -25.849 713.628 -32.381C707.721 -27.6215 696.194 -18.4273 687.62 -11.6128C687.205 -12.4461 686.473 -13.244 685.741 -14.042C691.962 -21.7673 700.15 -32.0561 705.735 -39.7108C696.625 -29.0266 690.88 -22.8195 684.277 -15.6379C683.577 -16.1463 682.877 -16.6547 682.144 -17.4527C689.568 -28.8289 695.306 -40.8971 699.391 -53.3678C697.178 -44.329 688.865 -32.2678 678.962 -20.0301Z" fill="#FFD43E"/>
<path d="M885.671 166.567C884.178 167.612 883.036 168.911 881.893 170.211C881.893 170.211 864.69 165.967 852.873 172.555C862.122 171.821 871.501 172.245 880.69 173.862C880.69 173.862 848.302 177.753 835.9 199.354C848.06 187.159 864.548 179.172 882.347 177.195C872.976 182.632 865.42 189.92 859.614 198.478C872.63 185.308 878.062 182.067 890.14 180.725C883.855 187.872 877.952 195.562 872.717 203.471C860.916 221.781 826.668 237.896 809.752 210.173C797.584 190.422 822.417 170.663 831.884 166.094C846.847 158.863 868.082 158.849 885.671 166.567Z" fill="#A81C25" fill-opacity="0.3"/>
<path d="M885.671 166.567C884.178 167.612 883.036 168.911 881.893 170.211C881.893 170.211 864.69 165.967 852.873 172.555C862.122 171.821 871.501 172.245 880.69 173.862C880.69 173.862 848.302 177.753 835.9 199.354C848.06 187.159 864.548 179.172 882.347 177.195C872.976 182.632 865.42 189.92 859.614 198.478C872.63 185.308 878.062 182.067 890.14 180.725C883.855 187.872 877.952 195.562 872.717 203.471C860.916 221.781 826.668 237.896 809.752 210.173C797.584 190.422 822.417 170.663 831.884 166.094C846.847 158.863 868.082 158.849 885.671 166.567Z" fill="#FFD43E"/>
<path d="M962.148 209.071C985.719 221.4 995.001 220.955 1003.36 220.906C994.522 219.543 990.736 217.326 981.861 212.743C993.372 214.981 1005.61 215.087 1017.24 212.623C1007.32 213.138 1000.59 213.301 991.521 209.911C1025.79 182.364 1057.24 196.162 1059.64 206.154C1061.4 213.286 1059.93 231.914 1025.6 235.728C991.274 239.541 962.148 209.071 962.148 209.071Z" fill="#A81C25" fill-opacity="0.3"/>
<path d="M962.148 209.071C985.719 221.4 995.001 220.955 1003.36 220.906C994.522 219.543 990.736 217.326 981.861 212.743C993.372 214.981 1005.61 215.087 1017.24 212.623C1007.32 213.138 1000.59 213.301 991.521 209.911C1025.79 182.364 1057.24 196.162 1059.64 206.154C1061.4 213.286 1059.93 231.914 1025.6 235.728C991.274 239.541 962.148 209.071 962.148 209.071Z" fill="#FFD43E"/>
<path d="M874.468 129.417C835.602 89.4776 809.087 111.474 809.087 111.474C809.087 111.474 820.363 79.7398 845.958 84.2237C871.554 88.7076 874.468 129.417 874.468 129.417Z" fill="#A81C25" fill-opacity="0.3"/>
<path d="M874.468 129.417C835.602 89.4776 809.087 111.474 809.087 111.474C809.087 111.474 820.363 79.7398 845.958 84.2237C871.554 88.7076 874.468 129.417 874.468 129.417Z" fill="#FFD43E"/>
<path d="M886.775 159.118C869.725 150.461 860.693 147.361 841.305 149.515C823.824 151.457 809.343 163.031 804.309 178.538C791.93 168.483 795.819 128.19 830.3 119.963C864.78 111.736 886.775 159.118 886.775 159.118Z" fill="#A81C25" fill-opacity="0.3"/>
<path d="M886.775 159.118C869.725 150.461 860.693 147.361 841.305 149.515C823.824 151.457 809.343 163.031 804.309 178.538C791.93 168.483 795.819 128.19 830.3 119.963C864.78 111.736 886.775 159.118 886.775 159.118Z" fill="#FFD43E"/>
<path d="M1062.52 226.349C1066.97 222.924 1077.79 210.291 1067.64 197.058C1057.48 183.825 1026.68 190.47 1026.68 190.47C1049.62 176.785 1091.77 173.861 1097.86 191.063C1103.95 208.264 1078.83 222.487 1062.52 226.349Z" fill="#A81C25" fill-opacity="0.3"/>
<path d="M1062.52 226.349C1066.97 222.924 1077.79 210.291 1067.64 197.058C1057.48 183.825 1026.68 190.47 1026.68 190.47C1049.62 176.785 1091.77 173.861 1097.86 191.063C1103.95 208.264 1078.83 222.487 1062.52 226.349Z" fill="#FFD43E"/>
<path d="M1082.29 172.569C1066.11 168.799 1044.53 177.35 1044.53 177.35C1057.01 165.12 1077.23 144.408 1094.92 150.064C1110.94 155.318 1105.64 179.941 1101.89 186.805C1099.47 179.454 1093.17 174.878 1082.29 172.569Z" fill="#A81C25" fill-opacity="0.3"/>
<path d="M1082.29 172.569C1066.11 168.799 1044.53 177.35 1044.53 177.35C1057.01 165.12 1077.23 144.408 1094.92 150.064C1110.94 155.318 1105.64 179.941 1101.89 186.805C1099.47 179.454 1093.17 174.878 1082.29 172.569Z" fill="#FFD43E"/>
<path d="M1102.52 322.732C1101.81 319.293 1097.99 316.787 1094.21 317.5C1090.43 318.213 1087.61 321.751 1088.31 325.189C1089.01 328.628 1092.48 330.88 1096.29 330.457C1100.11 330.033 1102.93 326.495 1102.52 322.732Z" fill="#A81C25" fill-opacity="0.3"/>
<path d="M1102.52 322.732C1101.81 319.293 1097.99 316.787 1094.21 317.5C1090.43 318.213 1087.61 321.751 1088.31 325.189C1089.01 328.628 1092.48 330.88 1096.29 330.457C1100.11 330.033 1102.93 326.495 1102.52 322.732Z" fill="#FFD43E"/>
<path d="M665.714 382.101C665.328 378.627 662.178 376.34 658.365 376.763C654.551 377.187 651.98 380.11 652.366 383.584C652.752 387.058 655.902 389.346 659.715 388.922C663.529 388.499 666.1 385.575 665.714 382.101Z" fill="#A81C25" fill-opacity="0.3"/>
<path d="M665.714 382.101C665.328 378.627 662.178 376.34 658.365 376.763C654.551 377.187 651.98 380.11 652.366 383.584C652.752 387.058 655.902 389.346 659.715 388.922C663.529 388.499 666.1 385.575 665.714 382.101Z" fill="#FFD43E"/>
<path d="M645.308 380.851C642.5 381.163 639.993 379.342 639.708 376.783C639.424 374.225 641.471 371.898 644.279 371.586C647.088 371.274 649.595 373.095 649.879 375.653C650.164 378.212 648.117 380.539 645.308 380.851Z" fill="#A81C25" fill-opacity="0.3"/>
<path d="M645.308 380.851C642.5 381.163 639.993 379.342 639.708 376.783C639.424 374.225 641.471 371.898 644.279 371.586C647.088 371.274 649.595 373.095 649.879 375.653C650.164 378.212 648.117 380.539 645.308 380.851Z" fill="#FFD43E"/>
<path d="M635.638 374.891C635.445 373.155 633.695 371.884 631.789 372.096C629.882 372.307 628.454 373.931 628.647 375.668C628.84 377.405 630.59 378.676 632.496 378.464C634.403 378.252 635.831 376.628 635.638 374.891Z" fill="#A81C25" fill-opacity="0.3"/>
<path d="M635.638 374.891C635.445 373.155 633.695 371.884 631.789 372.096C629.882 372.307 628.454 373.931 628.647 375.668C628.84 377.405 630.59 378.676 632.496 378.464C634.403 378.252 635.831 376.628 635.638 374.891Z" fill="#FFD43E"/>
<path d="M1312.02 311.47C1309.21 311.782 1306.7 309.961 1306.42 307.403C1306.13 304.845 1308.18 302.518 1310.99 302.206C1313.8 301.894 1316.3 303.715 1316.59 306.273C1316.87 308.831 1314.83 311.158 1312.02 311.47Z" fill="#A81C25" fill-opacity="0.3"/>
<path d="M1312.02 311.47C1309.21 311.782 1306.7 309.961 1306.42 307.403C1306.13 304.845 1308.18 302.518 1310.99 302.206C1313.8 301.894 1316.3 303.715 1316.59 306.273C1316.87 308.831 1314.83 311.158 1312.02 311.47Z" fill="#FFD43E"/>
<path d="M1239.95 262.324C1239.6 259.14 1236.45 256.852 1232.95 257.24C1229.46 257.629 1226.88 260.552 1227.24 263.737C1227.59 266.921 1230.74 269.209 1234.24 268.821C1237.73 268.432 1240.3 265.509 1239.95 262.324Z" fill="#A81C25" fill-opacity="0.3"/>
<path d="M1239.95 262.324C1239.6 259.14 1236.45 256.852 1232.95 257.24C1229.46 257.629 1226.88 260.552 1227.24 263.737C1227.59 266.921 1230.74 269.209 1234.24 268.821C1237.73 268.432 1240.3 265.509 1239.95 262.324Z" fill="#FFD43E"/>
<path d="M703.232 140.526C702.878 137.342 699.728 135.054 696.232 135.442C692.736 135.831 690.165 138.754 690.519 141.939C690.873 145.123 694.023 147.411 697.519 147.023C701.015 146.634 703.586 143.711 703.232 140.526Z" fill="#A81C25" fill-opacity="0.3"/>
<path d="M703.232 140.526C702.878 137.342 699.728 135.054 696.232 135.442C692.736 135.831 690.165 138.754 690.519 141.939C690.873 145.123 694.023 147.411 697.519 147.023C701.015 146.634 703.586 143.711 703.232 140.526Z" fill="#FFD43E"/>
<path d="M24.2503 351.367C23.8965 348.182 20.7467 345.894 17.2506 346.283C13.7546 346.671 11.1837 349.595 11.5374 352.779C11.8912 355.964 15.0411 358.251 18.5371 357.863C22.0332 357.475 24.6041 354.551 24.2503 351.367Z" fill="#A81C25" fill-opacity="0.3"/>
<path d="M24.2503 351.367C23.8965 348.182 20.7467 345.894 17.2506 346.283C13.7546 346.671 11.1837 349.595 11.5374 352.779C11.8912 355.964 15.0411 358.251 18.5371 357.863C22.0332 357.475 24.6041 354.551 24.2503 351.367Z" fill="#FFD43E"/>
<path d="M716.874 144.581C714.065 144.893 711.558 143.072 711.274 140.513C710.99 137.955 713.036 135.628 715.845 135.316C718.653 135.004 721.161 136.825 721.445 139.384C721.729 141.942 719.683 144.269 716.874 144.581Z" fill="#A81C25" fill-opacity="0.3"/>
<path d="M716.874 144.581C714.065 144.893 711.558 143.072 711.274 140.513C710.99 137.955 713.036 135.628 715.845 135.316C718.653 135.004 721.161 136.825 721.445 139.384C721.729 141.942 719.683 144.269 716.874 144.581Z" fill="#FFD43E"/>
<path d="M36.6988 364.933C36.4094 362.327 33.9594 360.548 31.0988 360.866C28.2382 361.184 26.2383 363.457 26.5278 366.063C26.8173 368.669 29.2675 370.448 32.1281 370.131C34.9886 369.813 36.9883 367.539 36.6988 364.933Z" fill="#A81C25" fill-opacity="0.3"/>
<path d="M36.6988 364.933C36.4094 362.327 33.9594 360.548 31.0988 360.866C28.2382 361.184 26.2383 363.457 26.5278 366.063C26.8173 368.669 29.2675 370.448 32.1281 370.131C34.9886 369.813 36.9883 367.539 36.6988 364.933Z" fill="#FFD43E"/>
<path d="M1252.97 278.174C1252.62 274.989 1249.44 272.412 1245.62 272.835C1242.13 273.224 1239.24 276.183 1239.62 279.657C1239.98 282.841 1243.16 285.418 1246.97 284.995C1250.79 284.571 1253.33 281.358 1252.97 278.174Z" fill="#A81C25" fill-opacity="0.3"/>
<path d="M1252.97 278.174C1252.62 274.989 1249.44 272.412 1245.62 272.835C1242.13 273.224 1239.24 276.183 1239.62 279.657C1239.98 282.841 1243.16 285.418 1246.97 284.995C1250.79 284.571 1253.33 281.358 1252.97 278.174Z" fill="#FFD43E"/>
<path d="M1248.84 298.856C1248.39 294.803 1244.54 292.007 1240.09 292.501C1235.64 292.995 1232.5 296.568 1232.95 300.621C1233.4 304.675 1237.25 307.471 1241.7 306.976C1246.15 306.482 1249.29 302.909 1248.84 298.856Z" fill="#A81C25" fill-opacity="0.3"/>
<path d="M1248.84 298.856C1248.39 294.803 1244.54 292.007 1240.09 292.501C1235.64 292.995 1232.5 296.568 1232.95 300.621C1233.4 304.675 1237.25 307.471 1241.7 306.976C1246.15 306.482 1249.29 302.909 1248.84 298.856Z" fill="#FFD43E"/>
<path d="M683.597 149.158C683.146 145.104 679.296 142.308 674.847 142.803C670.397 143.297 667.255 146.87 667.705 150.923C668.156 154.976 672.006 157.772 676.455 157.278C680.872 156.494 684.015 152.921 683.597 149.158Z" fill="#A81C25" fill-opacity="0.3"/>
<path d="M683.597 149.158C683.146 145.104 679.296 142.308 674.847 142.803C670.397 143.297 667.255 146.87 667.705 150.923C668.156 154.976 672.006 157.772 676.455 157.278C680.872 156.494 684.015 152.921 683.597 149.158Z" fill="#FFD43E"/>
<path d="M23.1426 329.8C22.6924 325.747 18.8425 322.951 14.393 323.445C9.9435 323.939 6.80124 327.512 7.25152 331.565C7.70179 335.618 11.5516 338.415 16.0011 337.92C20.4506 337.426 23.5929 333.853 23.1426 329.8Z" fill="#A81C25" fill-opacity="0.3"/>
<path d="M23.1426 329.8C22.6924 325.747 18.8425 322.951 14.393 323.445C9.9435 323.939 6.80124 327.512 7.25152 331.565C7.70179 335.618 11.5516 338.415 16.0011 337.92C20.4506 337.426 23.5929 333.853 23.1426 329.8Z" fill="#FFD43E"/>
<path d="M127.624 227.63C127.173 223.576 123.324 220.78 118.874 221.275C114.424 221.769 111.282 225.342 111.732 229.395C112.183 233.448 116.033 236.244 120.482 235.75C124.932 235.256 128.074 231.683 127.624 227.63Z" fill="#A81C25" fill-opacity="0.3"/>
<path d="M127.624 227.63C127.173 223.576 123.324 220.78 118.874 221.275C114.424 221.769 111.282 225.342 111.732 229.395C112.183 233.448 116.033 236.244 120.482 235.75C124.932 235.256 128.074 231.683 127.624 227.63Z" fill="#FFD43E"/>
<path d="M1227.94 313.489C1227.46 309.146 1223.22 305.806 1218.14 306.371C1213.37 306.9 1209.62 310.834 1210.14 315.466C1210.62 319.809 1214.85 323.149 1219.94 322.584C1225.02 322.019 1228.42 317.831 1227.94 313.489Z" fill="#A81C25" fill-opacity="0.3"/>
<path d="M1227.94 313.489C1227.46 309.146 1223.22 305.806 1218.14 306.371C1213.37 306.9 1209.62 310.834 1210.14 315.466C1210.62 319.809 1214.85 323.149 1219.94 322.584C1225.02 322.019 1228.42 317.831 1227.94 313.489Z" fill="#FFD43E"/>
<path d="M741.412 165.592C740.833 160.381 735.583 156.567 729.862 157.203C724.141 157.839 719.856 162.711 720.435 167.922C721.014 173.133 726.263 176.946 731.984 176.311C737.991 175.35 741.99 170.803 741.412 165.592Z" fill="#A81C25" fill-opacity="0.3"/>
<path d="M741.412 165.592C740.833 160.381 735.583 156.567 729.862 157.203C724.141 157.839 719.856 162.711 720.435 167.922C721.014 173.133 726.263 176.946 731.984 176.311C737.991 175.35 741.99 170.803 741.412 165.592Z" fill="#FFD43E"/>
<path d="M94.3423 350.909C93.7633 345.697 88.5133 341.884 82.7923 342.52C77.0714 343.156 72.7865 348.028 73.3654 353.239C73.9443 358.45 79.1942 362.263 84.9151 361.628C90.9217 360.667 94.9212 356.12 94.3423 350.909Z" fill="#A81C25" fill-opacity="0.3"/>
<path d="M94.3423 350.909C93.7633 345.697 88.5133 341.884 82.7923 342.52C77.0714 343.156 72.7865 348.028 73.3654 353.239C73.9443 358.45 79.1942 362.263 84.9151 361.628C90.9217 360.667 94.9212 356.12 94.3423 350.909Z" fill="#FFD43E"/>
<path d="M1198.05 310.946C1197.54 306.314 1192.99 303.009 1187.9 303.574C1182.82 304.139 1179.11 308.362 1179.62 312.994C1180.13 317.627 1184.68 320.931 1189.77 320.366C1194.86 319.801 1198.57 315.579 1198.05 310.946Z" fill="#A81C25" fill-opacity="0.3"/>
<path d="M1198.05 310.946C1197.54 306.314 1192.99 303.009 1187.9 303.574C1182.82 304.139 1179.11 308.362 1179.62 312.994C1180.13 317.627 1184.68 320.931 1189.77 320.366C1194.86 319.801 1198.57 315.579 1198.05 310.946Z" fill="#FFD43E"/>
<path d="M1301.11 303.013C1300.75 299.828 1297.6 297.54 1294.11 297.929C1290.61 298.317 1288.04 301.241 1288.39 304.425C1288.75 307.61 1291.9 309.897 1295.39 309.509C1298.89 309.121 1301.46 306.197 1301.11 303.013Z" fill="#A81C25" fill-opacity="0.3"/>
<path d="M1301.11 303.013C1300.75 299.828 1297.6 297.54 1294.11 297.929C1290.61 298.317 1288.04 301.241 1288.39 304.425C1288.75 307.61 1291.9 309.897 1295.39 309.509C1298.89 309.121 1301.46 306.197 1301.11 303.013Z" fill="#FFD43E"/>
<path d="M1306.48 281.9C1306.06 278.136 1302.21 275.34 1298.08 275.799C1293.94 276.258 1290.8 279.831 1291.22 283.594C1291.64 287.358 1295.49 290.154 1299.62 289.695C1303.75 289.236 1306.89 285.663 1306.48 281.9Z" fill="#A81C25" fill-opacity="0.3"/>
<path d="M1306.48 281.9C1306.06 278.136 1302.21 275.34 1298.08 275.799C1293.94 276.258 1290.8 279.831 1291.22 283.594C1291.64 287.358 1295.49 290.154 1299.62 289.695C1303.75 289.236 1306.89 285.663 1306.48 281.9Z" fill="#FFD43E"/>
<path d="M1067.4 261.566C1067.4 261.566 1094.03 275.315 1098.33 288.025C1100.41 292.191 1098.38 297.106 1093.77 299.084C1091.32 300.235 1088.4 299.973 1086.05 299.062C1079.21 295.426 1077.13 285.398 1088.67 284.996C1085.64 278.005 1080.16 272.165 1067.4 261.566Z" fill="#A81C25" fill-opacity="0.3"/>
<path d="M1067.4 261.566C1067.4 261.566 1094.03 275.315 1098.33 288.025C1100.41 292.191 1098.38 297.106 1093.77 299.084C1091.32 300.235 1088.4 299.973 1086.05 299.062C1079.21 295.426 1077.13 285.398 1088.67 284.996C1085.64 278.005 1080.16 272.165 1067.4 261.566Z" fill="#FFD43E"/>
<path d="M1038.28 254.251C1038.28 254.251 1064.8 261.27 1073.02 277.356C1081.24 293.442 1065.61 297.524 1058.1 293.668C1050.59 289.812 1050.83 280.407 1050.96 275.704C1051.08 271.001 1049.79 259.42 1038.28 254.251Z" fill="#A81C25" fill-opacity="0.3"/>
<path d="M1038.28 254.251C1038.28 254.251 1064.8 261.27 1073.02 277.356C1081.24 293.442 1065.61 297.524 1058.1 293.668C1050.59 289.812 1050.83 280.407 1050.96 275.704C1051.08 271.001 1049.79 259.42 1038.28 254.251Z" fill="#FFD43E"/>
<path d="M980.891 250.365C980.891 250.365 1020.4 249.786 1034.7 265.49C1053.03 285.729 1040.46 300.021 1027.94 303.171C1035.56 296.462 1032.57 292.691 1020.42 287.593C1004.2 280.602 1008.37 260.209 980.891 250.365Z" fill="#A81C25" fill-opacity="0.3"/>
<path d="M980.891 250.365C980.891 250.365 1020.4 249.786 1034.7 265.49C1053.03 285.729 1040.46 300.021 1027.94 303.171C1035.56 296.462 1032.57 292.691 1020.42 287.593C1004.2 280.602 1008.37 260.209 980.891 250.365Z" fill="#FFD43E"/>
<path d="M1270.28 118.273C1270.28 118.273 1246.07 152.324 1253.63 174.052C1263.49 201.974 1285.42 199.537 1296 190.449C1284.72 193.168 1282.55 188.133 1284.6 174.716C1287.75 156.78 1264.28 148.25 1270.28 118.273Z" fill="#A81C25" fill-opacity="0.3"/>
<path d="M1270.28 118.273C1270.28 118.273 1246.07 152.324 1253.63 174.052C1263.49 201.974 1285.42 199.537 1296 190.449C1284.72 193.168 1282.55 188.133 1284.6 174.716C1287.75 156.78 1264.28 148.25 1270.28 118.273Z" fill="#FFD43E"/>
<path d="M1251.28 147.056C1251.28 147.056 1224.49 172.308 1224.19 192.857C1224.23 219.232 1242.92 222.43 1254.17 216.492C1247.74 213.688 1252.73 209.324 1253.86 199.233C1255.36 180.894 1238.92 171.877 1251.28 147.056Z" fill="#A81C25" fill-opacity="0.3"/>
<path d="M1251.28 147.056C1251.28 147.056 1224.49 172.308 1224.19 192.857C1224.23 219.232 1242.92 222.43 1254.17 216.492C1247.74 213.688 1252.73 209.324 1253.86 199.233C1255.36 180.894 1238.92 171.877 1251.28 147.056Z" fill="#FFD43E"/>
<path d="M373.839 86.2634C373.839 86.2634 479.267 99.7571 530.861 51.5264C545.752 37.8552 537.18 21.5149 523.891 20.6464C502.496 19.2131 499.633 42.6857 514.137 48.6949C503.014 76.0161 436.275 89.2923 373.839 86.2634Z" fill="#A81C25" fill-opacity="0.3"/>
<path d="M373.839 86.2634C373.839 86.2634 479.267 99.7571 530.861 51.5264C545.752 37.8552 537.18 21.5149 523.891 20.6464C502.496 19.2131 499.633 42.6857 514.137 48.6949C503.014 76.0161 436.275 89.2923 373.839 86.2634Z" fill="#FFD43E"/>
<path d="M1458.82 -52.7387C1458.82 -52.7387 1476.18 -29.7536 1470.42 -6.25282C1464.67 17.248 1448.13 13.223 1444.91 4.49501C1441.69 -4.233 1449.18 -15.0301 1452.76 -20.411C1456.35 -25.7919 1464.37 -40.4588 1458.82 -52.7387Z" fill="#A81C25" fill-opacity="0.3"/>
<path d="M1458.82 -52.7387C1458.82 -52.7387 1476.18 -29.7536 1470.42 -6.25282C1464.67 17.248 1448.13 13.223 1444.91 4.49501C1441.69 -4.233 1449.18 -15.0301 1452.76 -20.411C1456.35 -25.7919 1464.37 -40.4588 1458.82 -52.7387Z" fill="#FFD43E"/>
<path d="M1219.5 179.603C1219.5 179.603 1196.51 198.57 1195.65 219.769C1194.79 240.968 1212.59 238.99 1218.2 231.625C1223.82 224.26 1219.13 213.936 1216.61 208.647C1214.1 203.358 1210.39 190.287 1219.5 179.603Z" fill="#A81C25" fill-opacity="0.3"/>
<path d="M1219.5 179.603C1219.5 179.603 1196.51 198.57 1195.65 219.769C1194.79 240.968 1212.59 238.99 1218.2 231.625C1223.82 224.26 1219.13 213.936 1216.61 208.647C1214.1 203.358 1210.39 190.287 1219.5 179.603Z" fill="#FFD43E"/>
<path d="M866.438 16.5884C866.438 16.5884 893.154 2.18976 894.502 -11.7356C895.634 -21.8265 886.159 -23.1187 881.87 -21.1768C873.324 -17.0033 876.072 -6.75708 884.718 -7.13141C882.693 0.71397 878.187 6.49033 866.438 16.5884Z" fill="#A81C25" fill-opacity="0.3"/>
<path d="M866.438 16.5884C866.438 16.5884 893.154 2.18976 894.502 -11.7356C895.634 -21.8265 886.159 -23.1187 881.87 -21.1768C873.324 -17.0033 876.072 -6.75708 884.718 -7.13141C882.693 0.71397 878.187 6.49033 866.438 16.5884Z" fill="#FFD43E"/>
<path d="M775.315 56.6075C775.315 56.6075 811.385 48.204 827.246 22.9943C843.108 -2.21549 824.851 -10.1525 813.859 -4.82801C802.867 0.496464 800.058 15.7564 798.637 23.2417C797.248 31.0164 791.582 49.5247 775.315 56.6075Z" fill="#A81C25" fill-opacity="0.3"/>
<path d="M775.315 56.6075C775.315 56.6075 811.385 48.204 827.246 22.9943C843.108 -2.21549 824.851 -10.1525 813.859 -4.82801C802.867 0.496464 800.058 15.7564 798.637 23.2417C797.248 31.0164 791.582 49.5247 775.315 56.6075Z" fill="#FFD43E"/>
<path d="M829.013 35.9863C829.013 35.9863 854.94 26.0717 863.624 5.76268C872.307 -14.5463 857.361 -18.7478 850.215 -13.5575C843.07 -8.36727 842.417 3.13597 842.425 8.99703C842.4 14.5686 840.448 28.8541 829.013 35.9863Z" fill="#A81C25" fill-opacity="0.3"/>
<path d="M829.013 35.9863C829.013 35.9863 854.94 26.0717 863.624 5.76268C872.307 -14.5463 857.361 -18.7478 850.215 -13.5575C843.07 -8.36727 842.417 3.13597 842.425 8.99703C842.4 14.5686 840.448 28.8541 829.013 35.9863Z" fill="#FFD43E"/>
<path d="M1412.59 -86.5859C1412.59 -86.5859 1448.96 -60.4374 1448.58 -34.8958C1448.05 -2.01031 1424.56 3.8227 1410.47 -1.35328C1423.16 -3.05521 1423.5 -8.66204 1416.84 -22.2837C1407.79 -40.0363 1429.28 -57.9586 1412.59 -86.5859Z" fill="#A81C25" fill-opacity="0.3"/>
<path d="M1412.59 -86.5859C1412.59 -86.5859 1448.96 -60.4374 1448.58 -34.8958C1448.05 -2.01031 1424.56 3.8227 1410.47 -1.35328C1423.16 -3.05521 1423.5 -8.66204 1416.84 -22.2837C1407.79 -40.0363 1429.28 -57.9586 1412.59 -86.5859Z" fill="#FFD43E"/>
<path d="M147.722 37.8129C147.722 37.8129 267.098 69.6876 331.593 42.0059C381.347 20.6514 364.955 -19.7333 346.63 -31.1799C356.442 -15.2703 341.828 -7.785 310.084 1.89661C261.498 16.3802 241.673 49.3577 147.722 37.8129Z" fill="#A81C25" fill-opacity="0.3"/>
<path d="M147.722 37.8129C147.722 37.8129 267.098 69.6876 331.593 42.0059C381.347 20.6514 364.955 -19.7333 346.63 -31.1799C356.442 -15.2703 341.828 -7.785 310.084 1.89661C261.498 16.3802 241.673 49.3577 147.722 37.8129Z" fill="#FFD43E"/>
<path d="M1345.32 226.002C1345.32 226.002 1316.22 242.13 1300.45 239.193C1294.95 238.925 1290.91 234.391 1291.63 229.328C1291.98 226.652 1293.63 224.124 1296.04 222.683C1303.63 218.616 1315.24 221.723 1309.34 232.343C1318.18 233.706 1327.27 231.524 1345.32 226.002Z" fill="#A81C25" fill-opacity="0.3"/>
<path d="M1345.32 226.002C1345.32 226.002 1316.22 242.13 1300.45 239.193C1294.95 238.925 1290.91 234.391 1291.63 229.328C1291.98 226.652 1293.63 224.124 1296.04 222.683C1303.63 218.616 1315.24 221.723 1309.34 232.343C1318.18 233.706 1327.27 231.524 1345.32 226.002Z" fill="#FFD43E"/>
<path d="M1365.53 219.653C1365.53 219.653 1335.75 226.771 1313.45 214.3C1291.15 201.83 1301.62 188.943 1311.57 188.717C1321.52 188.49 1330.05 198.68 1334.48 203.757C1338.9 208.835 1350.81 220.408 1365.53 219.653Z" fill="#A81C25" fill-opacity="0.3"/>
<path d="M1365.53 219.653C1365.53 219.653 1335.75 226.771 1313.45 214.3C1291.15 201.83 1301.62 188.943 1311.57 188.717C1321.52 188.49 1330.05 198.68 1334.48 203.757C1338.9 208.835 1350.81 220.408 1365.53 219.653Z" fill="#FFD43E"/>
<path d="M1195.1 191.691C1195.1 191.691 1173.08 219.344 1145.59 226.794C1118.1 234.244 1113.28 216.901 1119.85 209.43C1127.53 200.37 1141.04 203.265 1148.8 203.576C1156.56 203.886 1182.02 201.351 1195.1 191.691Z" fill="#A81C25" fill-opacity="0.3"/>
<path d="M1195.1 191.691C1195.1 191.691 1173.08 219.344 1145.59 226.794C1118.1 234.244 1113.28 216.901 1119.85 209.43C1127.53 200.37 1141.04 203.265 1148.8 203.576C1156.56 203.886 1182.02 201.351 1195.1 191.691Z" fill="#FFD43E"/>
<path d="M1452.67 207.626C1452.67 207.626 1416.4 208.432 1398.36 190.799C1380.31 173.167 1397.75 162.144 1408.91 164.128C1420.07 166.112 1424.34 178.533 1426.64 184.726C1428.94 190.919 1435.98 205.084 1452.67 207.626Z" fill="#A81C25" fill-opacity="0.3"/>
<path d="M1452.67 207.626C1452.67 207.626 1416.4 208.432 1398.36 190.799C1380.31 173.167 1397.75 162.144 1408.91 164.128C1420.07 166.112 1424.34 178.533 1426.64 184.726C1428.94 190.919 1435.98 205.084 1452.67 207.626Z" fill="#FFD43E"/>
<path d="M1482.68 208.398C1482.68 208.398 1451.27 203.681 1439.77 187.08C1428.27 170.478 1445.88 163.833 1454.94 167.222C1464 170.612 1464.85 181.07 1465.42 186.281C1466 191.493 1468.69 204.09 1482.68 208.398Z" fill="#A81C25" fill-opacity="0.3"/>
<path d="M1482.68 208.398C1482.68 208.398 1451.27 203.681 1439.77 187.08C1428.27 170.478 1445.88 163.833 1454.94 167.222C1464 170.612 1464.85 181.07 1465.42 186.281C1466 191.493 1468.69 204.09 1482.68 208.398Z" fill="#FFD43E"/>
<path d="M1417.07 208.651C1417.07 208.651 1362.09 214.76 1339.97 195.235C1311.1 170.011 1326.43 148.671 1343.11 142.422C1333.65 152.852 1338.36 157.604 1356.01 162.971C1379.64 170.018 1377.39 198.991 1417.07 208.651Z" fill="#A81C25" fill-opacity="0.3"/>
<path d="M1417.07 208.651C1417.07 208.651 1362.09 214.76 1339.97 195.235C1311.1 170.011 1326.43 148.671 1343.11 142.422C1333.65 152.852 1338.36 157.604 1356.01 162.971C1379.64 170.018 1377.39 198.991 1417.07 208.651Z" fill="#FFD43E"/>
<path d="M1231.49 154.237C1231.49 154.237 1200.28 189.065 1156.13 194.263C1117.07 198.896 1109.73 173.333 1116.42 158.228C1119.64 166.956 1128.48 168.319 1143.7 163.404C1166.7 156.159 1195.52 172.301 1231.49 154.237Z" fill="#A81C25" fill-opacity="0.3"/>
<path d="M1231.49 154.237C1231.49 154.237 1200.28 189.065 1156.13 194.263C1117.07 198.896 1109.73 173.333 1116.42 158.228C1119.64 166.956 1128.48 168.319 1143.7 163.404C1166.7 156.159 1195.52 172.301 1231.49 154.237Z" fill="#FFD43E"/>
<path d="M915.546 258.799C915.546 258.799 975.168 248.072 997.326 273.748C1018.78 298.915 1004.28 316.06 989.598 320.036C996.772 312.205 996.197 309.924 977.751 303.18C952.944 294.212 952.809 264.038 915.546 258.799Z" fill="#A81C25" fill-opacity="0.3"/>
<path d="M915.546 258.799C915.546 258.799 975.168 248.072 997.326 273.748C1018.78 298.915 1004.28 316.06 989.598 320.036C996.772 312.205 996.197 309.924 977.751 303.18C952.944 294.212 952.809 264.038 915.546 258.799Z" fill="#FFD43E"/>
<path d="M1343.96 236.995C1343.96 236.995 1321 256.252 1319.91 269.563C1318.8 274.083 1321.86 278.432 1326.79 279.35C1329.43 279.937 1332.22 279.04 1334.32 277.634C1340.19 272.585 1340.02 262.346 1328.68 264.486C1329.46 257.071 1333.84 250.137 1343.96 236.995Z" fill="#A81C25" fill-opacity="0.3"/>
<path d="M1343.96 236.995C1343.96 236.995 1321 256.252 1319.91 269.563C1318.8 274.083 1321.86 278.432 1326.79 279.35C1329.43 279.937 1332.22 279.04 1334.32 277.634C1340.19 272.585 1340.02 262.346 1328.68 264.486C1329.46 257.071 1333.84 250.137 1343.96 236.995Z" fill="#FFD43E"/>
<path d="M1163.13 251.517C1163.13 251.517 1154.78 277.652 1165.57 290.815C1173.78 301.04 1184.91 296.873 1186.26 288.809C1187.62 280.745 1177.31 274.856 1170.68 281.748C1165.3 276.776 1161.41 267.829 1163.13 251.517Z" fill="#A81C25" fill-opacity="0.3"/>
<path d="M1163.13 251.517C1163.13 251.517 1154.78 277.652 1165.57 290.815C1173.78 301.04 1184.91 296.873 1186.26 288.809C1187.62 280.745 1177.31 274.856 1170.68 281.748C1165.3 276.776 1161.41 267.829 1163.13 251.517Z" fill="#FFD43E"/>
<path d="M1391.34 220.304C1368.84 226.321 1348.76 230.897 1340.65 256.417C1335.17 273.732 1355.02 281.492 1361.5 276.083C1367.98 270.674 1362.01 257.561 1362.77 249.857C1364.21 236.8 1378.82 223.453 1391.34 220.304Z" fill="#A81C25" fill-opacity="0.3"/>
<path d="M1391.34 220.304C1368.84 226.321 1348.76 230.897 1340.65 256.417C1335.17 273.732 1355.02 281.492 1361.5 276.083C1367.98 270.674 1362.01 257.561 1362.77 249.857C1364.21 236.8 1378.82 223.453 1391.34 220.304Z" fill="#FFD43E"/>
<path d="M1446.01 217.161C1446.01 217.161 1400.04 217.578 1383.12 236.164C1361.35 260.273 1375.67 276.267 1390.2 279.635C1381.64 272.086 1385.01 267.609 1399.11 261.353C1418.14 253.084 1413.89 229.23 1446.01 217.161Z" fill="#A81C25" fill-opacity="0.3"/>
<path d="M1446.01 217.161C1446.01 217.161 1400.04 217.578 1383.12 236.164C1361.35 260.273 1375.67 276.267 1390.2 279.635C1381.64 272.086 1385.01 267.609 1399.11 261.353C1418.14 253.084 1413.89 229.23 1446.01 217.161Z" fill="#FFD43E"/>
<path d="M1520.85 224.672C1520.85 224.672 1451.41 213.629 1425.22 244.382C1399.61 274.485 1416.26 294.031 1433.43 297.986C1425.34 288.919 1426.04 286.497 1447.65 278.234C1476.65 267.098 1477.56 231.826 1520.85 224.672Z" fill="#A81C25" fill-opacity="0.3"/>
<path d="M1520.85 224.672C1520.85 224.672 1451.41 213.629 1425.22 244.382C1399.61 274.485 1416.26 294.031 1433.43 297.986C1425.34 288.919 1426.04 286.497 1447.65 278.234C1476.65 267.098 1477.56 231.826 1520.85 224.672Z" fill="#FFD43E"/>
<path d="M849.228 275.838C849.228 275.838 914.213 258.36 951.482 292.615C979.49 318.813 969.735 346.861 953.348 358.647C958.104 349.326 948.239 341.629 925.275 331.87C888.094 315.777 895.487 280.957 849.228 275.838Z" fill="#A81C25" fill-opacity="0.3"/>
<path d="M849.228 275.838C849.228 275.838 914.213 258.36 951.482 292.615C979.49 318.813 969.735 346.861 953.348 358.647C958.104 349.326 948.239 341.629 925.275 331.87C888.094 315.777 895.487 280.957 849.228 275.838Z" fill="#FFD43E"/>
<path d="M873.666 348.155C873.666 348.155 898.178 325.502 878.981 303.307C859.783 281.113 818.814 285.958 780.306 301.373C808.654 295.879 834.008 309.769 847.501 321.166C860.994 332.564 873.873 335.529 873.666 348.155Z" fill="#A81C25" fill-opacity="0.3"/>
<path d="M873.666 348.155C873.666 348.155 898.178 325.502 878.981 303.307C859.783 281.113 818.814 285.958 780.306 301.373C808.654 295.879 834.008 309.769 847.501 321.166C860.994 332.564 873.873 335.529 873.666 348.155Z" fill="#FFD43E"/>
<path d="M298.991 154.075C318.587 165.38 354.974 156.942 349.694 129.684C343.295 98.1544 302.082 86.3196 260.429 79.2231C291.533 89.8363 306.976 110.103 313.581 129.006C317.475 140.884 314.697 156.433 298.991 154.075Z" fill="#A81C25" fill-opacity="0.3"/>
<path d="M298.991 154.075C318.587 165.38 354.974 156.942 349.694 129.684C343.295 98.1544 302.082 86.3196 260.429 79.2231C291.533 89.8363 306.976 110.103 313.581 129.006C317.475 140.884 314.697 156.433 298.991 154.075Z" fill="#FFD43E"/>
<path d="M629.323 335.442C629.323 335.442 676.657 335.752 707.894 327.299C739.131 318.846 764.39 308.713 796.375 312.78C828.359 316.847 835.564 332.46 836.336 339.409C832.1 333.138 813.167 319.121 788.501 320.103C802.525 324.7 814.108 333.378 818.601 341.965C811.062 337.82 785.579 322.772 762.852 323.832C782.123 329.311 793.77 338.569 797.499 346.068C787.763 339.529 760.092 327.949 741.625 329.707C758.51 333.986 770.125 342.954 774.489 350.383C759.061 341.839 741.508 337.34 723.483 337.291C702.248 337.306 666.65 341.26 629.323 335.442Z" fill="#A81C25" fill-opacity="0.3"/>
<path d="M629.323 335.442C629.323 335.442 676.657 335.752 707.894 327.299C739.131 318.846 764.39 308.713 796.375 312.78C828.359 316.847 835.564 332.46 836.336 339.409C832.1 333.138 813.167 319.121 788.501 320.103C802.525 324.7 814.108 333.378 818.601 341.965C811.062 337.82 785.579 322.772 762.852 323.832C782.123 329.311 793.77 338.569 797.499 346.068C787.763 339.529 760.092 327.949 741.625 329.707C758.51 333.986 770.125 342.954 774.489 350.383C759.061 341.839 741.508 337.34 723.483 337.291C702.248 337.306 666.65 341.26 629.323 335.442Z" fill="#FFD43E"/>
<path d="M-15.7731 -17.5861C-15.7731 -17.5861 48.4006 1.07696 99.8605 -28.0875C144.396 -52.9656 134.251 -80.562 106.752 -81.9034C87.3603 -82.68 64.892 -53.2192 55.8109 -45.176C42.4446 -32.2604 11.8905 -11.8665 -15.7731 -17.5861Z" fill="#A81C25" fill-opacity="0.3"/>
<path d="M-15.7731 -17.5861C-15.7731 -17.5861 48.4006 1.07696 99.8605 -28.0875C144.396 -52.9656 134.251 -80.562 106.752 -81.9034C87.3603 -82.68 64.892 -53.2192 55.8109 -45.176C42.4446 -32.2604 11.8905 -11.8665 -15.7731 -17.5861Z" fill="#FFD43E"/>
<path d="M24.7123 -3.62266C59.376 7.18118 138.484 21.2541 187.829 -21.1577C230.696 -58.1605 200.102 -93.1571 175.946 -90.4735C190.903 -77.4805 172.001 -68.0532 147.635 -55.6741C115.645 -39.5171 98.7561 2.51319 24.7123 -3.62266Z" fill="#A81C25" fill-opacity="0.3"/>
<path d="M24.7123 -3.62266C59.376 7.18118 138.484 21.2541 187.829 -21.1577C230.696 -58.1605 200.102 -93.1571 175.946 -90.4735C190.903 -77.4805 172.001 -68.0532 147.635 -55.6741C115.645 -39.5171 98.7561 2.51319 24.7123 -3.62266Z" fill="#FFD43E"/>
<path d="M1347.62 -103.694C1347.62 -103.694 1407.28 -82.1847 1409.43 -45.493C1411.48 -9.66994 1387.36 -0.835779 1371.78 -4.96665C1383.28 -8.58931 1384.27 -11.3362 1372.48 -27.613C1356.88 -49.327 1376.77 -78.7949 1347.62 -103.694Z" fill="#A81C25" fill-opacity="0.3"/>
<path d="M1347.62 -103.694C1347.62 -103.694 1407.28 -82.1847 1409.43 -45.493C1411.48 -9.66994 1387.36 -0.835779 1371.78 -4.96665C1383.28 -8.58931 1384.27 -11.3362 1372.48 -27.613C1356.88 -49.327 1376.77 -78.7949 1347.62 -103.694Z" fill="#FFD43E"/>
<path d="M1279.78 38.6687C1295.17 90.3024 1270.15 111.254 1279.95 141.527C1290.38 174.659 1319.52 164.681 1323.54 148.701C1312.99 155.148 1310.79 149.824 1312.77 132.897C1315.67 109.714 1298.93 72.006 1279.78 38.6687Z" fill="#A81C25" fill-opacity="0.3"/>
<path d="M1279.78 38.6687C1295.17 90.3024 1270.15 111.254 1279.95 141.527C1290.38 174.659 1319.52 164.681 1323.54 148.701C1312.99 155.148 1310.79 149.824 1312.77 132.897C1315.67 109.714 1298.93 72.006 1279.78 38.6687Z" fill="#FFD43E"/>
<path d="M511.645 310.118C511.645 310.118 615.882 336.054 659.618 283.714C684.026 254.331 658.061 234.94 641.972 232.038C650.28 240.201 647.463 249.6 623.925 263.645C598.831 278.157 578.756 314.679 511.645 310.118Z" fill="#A81C25" fill-opacity="0.3"/>
<path d="M511.645 310.118C511.645 310.118 615.882 336.054 659.618 283.714C684.026 254.331 658.061 234.94 641.972 232.038C650.28 240.201 647.463 249.6 623.925 263.645C598.831 278.157 578.756 314.679 511.645 310.118Z" fill="#FFD43E"/>
<path d="M590.269 322.778C616.147 324.006 690.03 328.695 715.364 278.692C728.301 253.221 701.462 246.237 693.77 246.506C705.988 255.114 687.018 261.031 675.24 273.77C660.924 289.722 630.578 323.576 590.269 322.778Z" fill="#A81C25" fill-opacity="0.3"/>
<path d="M590.269 322.778C616.147 324.006 690.03 328.695 715.364 278.692C728.301 253.221 701.462 246.237 693.77 246.506C705.988 255.114 687.018 261.031 675.24 273.77C660.924 289.722 630.578 323.576 590.269 322.778Z" fill="#FFD43E"/>
<path d="M677.683 318.931C677.683 318.931 746.237 307.505 755.694 270.99C760.693 252.263 739.772 249.311 735.101 250.709C745.947 255.659 727.717 268.236 723.089 278.715C717.447 291.652 707.867 306.785 677.683 318.931Z" fill="#A81C25" fill-opacity="0.3"/>
<path d="M677.683 318.931C677.683 318.931 746.237 307.505 755.694 270.99C760.693 252.263 739.772 249.311 735.101 250.709C745.947 255.659 727.717 268.236 723.089 278.715C717.447 291.652 707.867 306.785 677.683 318.931Z" fill="#FFD43E"/>
<path d="M1251.53 -102.69C1251.53 -102.69 1331.63 -105.727 1357.7 -53.5212C1375.49 -17.9807 1355.75 7.07377 1334.62 13.8177C1343.06 5.84516 1333.18 -10.6434 1319.9 -31.7361C1297.32 -67.0365 1295.54 -85.8908 1251.53 -102.69Z" fill="#A81C25" fill-opacity="0.3"/>
<path d="M1251.53 -102.69C1251.53 -102.69 1331.63 -105.727 1357.7 -53.5212C1375.49 -17.9807 1355.75 7.07377 1334.62 13.8177C1343.06 5.84516 1333.18 -10.6434 1319.9 -31.7361C1297.32 -67.0365 1295.54 -85.8908 1251.53 -102.69Z" fill="#FFD43E"/>
<path d="M1314.4 92.5596C1296.74 29.1614 1340.41 -3.53383 1298.12 -56.8692C1267.43 -95.665 1209.26 -95.0643 1141.79 -79.6555C1193.22 -83.0242 1246.54 -52.0175 1266.86 -19.69C1289.54 16.4789 1285.65 30.6868 1314.4 92.5596Z" fill="#A81C25" fill-opacity="0.3"/>
<path d="M1314.4 92.5596C1296.74 29.1614 1340.41 -3.53383 1298.12 -56.8692C1267.43 -95.665 1209.26 -95.0643 1141.79 -79.6555C1193.22 -83.0242 1246.54 -52.0175 1266.86 -19.69C1289.54 16.4789 1285.65 30.6868 1314.4 92.5596Z" fill="#FFD43E"/>
<path d="M161.254 200.15C109.572 180.979 86.4322 207.29 18.4049 232.14C-56.1363 259.179 -124.91 199.115 -168.641 181.991C-123.071 195.393 -64.5727 200.618 -10.5909 179.673C71.796 147.952 129.806 169.059 161.254 200.15Z" fill="#A81C25" fill-opacity="0.3"/>
<path d="M161.254 200.15C109.572 180.979 86.4322 207.29 18.4049 232.14C-56.1363 259.179 -124.91 199.115 -168.641 181.991C-123.071 195.393 -64.5727 200.618 -10.5909 179.673C71.796 147.952 129.806 169.059 161.254 200.15Z" fill="#FFD43E"/>
<path d="M526.606 134.943C526.606 134.943 613.078 189.232 542.529 255.102C510.176 285.368 445.811 291.053 378.179 252.844C435.227 268.195 477.956 247.328 499.325 228.247C526.283 204.443 542.286 166.028 526.606 134.943Z" fill="#A81C25" fill-opacity="0.3"/>
<path d="M526.606 134.943C526.606 134.943 613.078 189.232 542.529 255.102C510.176 285.368 445.811 291.053 378.179 252.844C435.227 268.195 477.956 247.328 499.325 228.247C526.283 204.443 542.286 166.028 526.606 134.943Z" fill="#FFD43E"/>
<path d="M599.011 198.706C599.011 198.706 638.445 235.065 598.981 273.742C566.789 305.455 512.945 310.265 440.528 284.018C493.248 295.16 536.327 274.547 557.185 253.765C586.774 224.685 601.456 220.71 599.011 198.706Z" fill="#A81C25" fill-opacity="0.3"/>
<path d="M599.011 198.706C599.011 198.706 638.445 235.065 598.981 273.742C566.789 305.455 512.945 310.265 440.528 284.018C493.248 295.16 536.327 274.547 557.185 253.765C586.774 224.685 601.456 220.71 599.011 198.706Z" fill="#FFD43E"/>
<path d="M136.749 57.7915C202.9 105.838 223.955 138.963 280.117 181.085C310.282 203.526 342.56 213.129 376.404 204.973C410.248 196.817 428.134 163.761 415.008 141.186C415.606 161.05 395.045 190.299 360.207 192.411C387.598 184.092 403.114 161.558 398.392 148.014C392.629 165.654 366.428 184.685 341.954 187.404C362.128 177.836 379.122 168.62 379.003 150.168C370.569 166.933 338.897 183.054 315.848 181.218C339.967 175.315 354.862 164.574 355.865 153.325C347.355 160.719 330.907 174.856 292.015 163.642C250.802 151.808 197.542 92.3642 136.749 57.7915Z" fill="#A81C25" fill-opacity="0.3"/>
<path d="M136.749 57.7915C202.9 105.838 223.955 138.963 280.117 181.085C310.282 203.526 342.56 213.129 376.404 204.973C410.248 196.817 428.134 163.761 415.008 141.186C415.606 161.05 395.045 190.299 360.207 192.411C387.598 184.092 403.114 161.558 398.392 148.014C392.629 165.654 366.428 184.685 341.954 187.404C362.128 177.836 379.122 168.62 379.003 150.168C370.569 166.933 338.897 183.054 315.848 181.218C339.967 175.315 354.862 164.574 355.865 153.325C347.355 160.719 330.907 174.856 292.015 163.642C250.802 151.808 197.542 92.3642 136.749 57.7915Z" fill="#FFD43E"/>
<path d="M942.179 208.946C942.179 208.946 974.992 214.679 966.019 232.383C959.392 245.136 932.895 232.545 950.269 220.943C949.629 218.083 948.639 214.969 942.179 208.946Z" fill="#A81C25" fill-opacity="0.3"/>
<path d="M942.179 208.946C942.179 208.946 974.992 214.679 966.019 232.383C959.392 245.136 932.895 232.545 950.269 220.943C949.629 218.083 948.639 214.969 942.179 208.946Z" fill="#FFD43E"/>
<path d="M250.798 195.185C250.798 195.185 265.247 232.561 252.616 249.206C243.35 261.373 231.707 255.046 229.124 249.178C223.959 237.441 237.458 228.614 246.337 236.128C252.936 226.016 254.067 215.925 250.798 195.185Z" fill="#A81C25" fill-opacity="0.3"/>
<path d="M250.798 195.185C250.798 195.185 265.247 232.561 252.616 249.206C243.35 261.373 231.707 255.046 229.124 249.178C223.959 237.441 237.458 228.614 246.337 236.128C252.936 226.016 254.067 215.925 250.798 195.185Z" fill="#FFD43E"/>
<path d="M183.426 112.984C183.426 112.984 216.488 138.327 218.63 172.089C220.771 205.85 196.358 206.217 188.111 195.703C179.864 185.188 185.627 167.548 188.54 159.018C191.454 150.488 196.352 127.961 183.426 112.984Z" fill="#A81C25" fill-opacity="0.3"/>
<path d="M183.426 112.984C183.426 112.984 216.488 138.327 218.63 172.089C220.771 205.85 196.358 206.217 188.111 195.703C179.864 185.188 185.627 167.548 188.54 159.018C191.454 150.488 196.352 127.961 183.426 112.984Z" fill="#FFD43E"/>
<path d="M222.839 157.846C222.839 157.846 245.408 181.424 242.613 208.407C239.819 235.389 220.552 232.84 215.359 223.745C210.165 214.649 217.046 201.282 220.82 194.707C224.595 188.133 231.057 171.002 222.839 157.846Z" fill="#A81C25" fill-opacity="0.3"/>
<path d="M222.839 157.846C222.839 157.846 245.408 181.424 242.613 208.407C239.819 235.389 220.552 232.84 215.359 223.745C210.165 214.649 217.046 201.282 220.82 194.707C224.595 188.133 231.057 171.002 222.839 157.846Z" fill="#FFD43E"/>
<path d="M134.987 73.8133C134.987 73.8133 180.798 100.964 183.157 130.891C186.132 169.249 159.473 178.366 142.237 173.833C156.697 170.761 156.561 163.742 147.196 148.955C134.93 128.335 157.788 105.279 134.987 73.8133Z" fill="#A81C25" fill-opacity="0.3"/>
<path d="M134.987 73.8133C134.987 73.8133 180.798 100.964 183.157 130.891C186.132 169.249 159.473 178.366 142.237 173.833C156.697 170.761 156.561 163.742 147.196 148.955C134.93 128.335 157.788 105.279 134.987 73.8133Z" fill="#FFD43E"/>
<path d="M69.7735 34.1641C69.7735 34.1641 139.684 63.9137 139.455 108.197C139.13 151.611 109.578 160.756 90.8784 154.627C104.956 151.011 106.542 147.904 93.6728 127.644C76.4713 100.246 102.907 65.9477 69.7735 34.1641Z" fill="#A81C25" fill-opacity="0.3"/>
<path d="M69.7735 34.1641C69.7735 34.1641 139.684 63.9137 139.455 108.197C139.13 151.611 109.578 160.756 90.8784 154.627C104.956 151.011 106.542 147.904 93.6728 127.644C76.4713 100.246 102.907 65.9477 69.7735 34.1641Z" fill="#FFD43E"/>
<path d="M27.707 153.731C27.707 153.731 74.4694 154.691 78.9963 91.173C81.7394 49.2487 29.7135 9.59863 -48.0669 -9.89761C5.6862 13.4403 19.628 52.0455 19.4087 79.0347C19.6549 121.799 51.3048 137.334 27.707 153.731Z" fill="#A81C25" fill-opacity="0.3"/>
<path d="M27.707 153.731C27.707 153.731 74.4694 154.691 78.9963 91.173C81.7394 49.2487 29.7135 9.59863 -48.0669 -9.89761C5.6862 13.4403 19.628 52.0455 19.4087 79.0347C19.6549 121.799 51.3048 137.334 27.707 153.731Z" fill="#FFD43E"/>
<path d="M-155.692 -28.7156C-155.692 -28.7156 -51.2202 -18.0465 -11.3895 30.5788C18.7622 67.3832 25.127 121.778 -32.3075 152.193C-70.2686 172.53 -110.042 167.863 -129.949 162.454C-113.679 158.301 -62.0183 136.735 -55.3156 84.1126C-49.6553 36.5885 -90.1007 -20.4683 -169.837 -28.6096C-165.355 -28.8144 -160.556 -29.0545 -155.692 -28.7156Z" fill="#A81C25" fill-opacity="0.3"/>
<path d="M-155.692 -28.7156C-155.692 -28.7156 -51.2202 -18.0465 -11.3895 30.5788C18.7622 67.3832 25.127 121.778 -32.3075 152.193C-70.2686 172.53 -110.042 167.863 -129.949 162.454C-113.679 158.301 -62.0183 136.735 -55.3156 84.1126C-49.6553 36.5885 -90.1007 -20.4683 -169.837 -28.6096C-165.355 -28.8144 -160.556 -29.0545 -155.692 -28.7156Z" fill="#FFD43E"/>
<path d="M313.817 209.288C313.817 209.288 381.501 262.439 443.122 249.439C495.94 238.295 506.633 198.419 496.356 166.734C489.237 143.198 465.915 127.324 439.213 127.359C450.534 130.791 474.289 162.151 451.499 188.717C425.281 219.18 364.331 235.33 304.017 202.17C307.231 205.037 310.381 207.325 313.817 209.288Z" fill="#A81C25" fill-opacity="0.3"/>
<path d="M313.817 209.288C313.817 209.288 381.501 262.439 443.122 249.439C495.94 238.295 506.633 198.419 496.356 166.734C489.237 143.198 465.915 127.324 439.213 127.359C450.534 130.791 474.289 162.151 451.499 188.717C425.281 219.18 364.331 235.33 304.017 202.17C307.231 205.037 310.381 207.325 313.817 209.288Z" fill="#FFD43E"/>
<path d="M291.143 274.53C296.902 303.2 285.395 353.132 312.255 351.613C330.818 350.723 327.12 317.428 307.328 327.541C303.475 321.814 299.903 312.831 291.143 274.53Z" fill="#A81C25" fill-opacity="0.3"/>
<path d="M291.143 274.53C296.902 303.2 285.395 353.132 312.255 351.613C330.818 350.723 327.12 317.428 307.328 327.541C303.475 321.814 299.903 312.831 291.143 274.53Z" fill="#FFD43E"/>
<path d="M1198.26 199.838C1198.26 199.838 1170.64 232.216 1172.96 253.061C1174.44 266.379 1190.56 266.641 1194.87 259.127C1200.74 248.217 1190.81 239.941 1181.37 244.799C1180.41 236.114 1187.06 217.789 1198.26 199.838Z" fill="#A81C25" fill-opacity="0.3"/>
<path d="M1198.26 199.838C1198.26 199.838 1170.64 232.216 1172.96 253.061C1174.44 266.379 1190.56 266.641 1194.87 259.127C1200.74 248.217 1190.81 239.941 1181.37 244.799C1180.41 236.114 1187.06 217.789 1198.26 199.838Z" fill="#FFD43E"/>
<path d="M739.655 303.251C739.655 303.251 771.746 290.893 782.059 276.558C794.592 259.045 779.067 249.632 768.832 250.183C773.732 253.742 769.161 258.94 764.751 265.585C756.82 278.189 758.332 291.797 739.655 303.251Z" fill="#A81C25" fill-opacity="0.3"/>
<path d="M739.655 303.251C739.655 303.251 771.746 290.893 782.059 276.558C794.592 259.045 779.067 249.632 768.832 250.183C773.732 253.742 769.161 258.94 764.751 265.585C756.82 278.189 758.332 291.797 739.655 303.251Z" fill="#FFD43E"/>
<path d="M783.659 285.174C783.659 285.174 804.625 274.052 808.927 257.747C813.229 241.442 799.272 240.355 793.684 245.079C788.095 249.803 791.92 258.171 792.721 262.479C793.971 270.839 790.708 279.116 783.659 285.174Z" fill="#A81C25" fill-opacity="0.3"/>
<path d="M783.659 285.174C783.659 285.174 804.625 274.052 808.927 257.747C813.229 241.442 799.272 240.355 793.684 245.079C788.095 249.803 791.92 258.171 792.721 262.479C793.971 270.839 790.708 279.116 783.659 285.174Z" fill="#FFD43E"/>
<path d="M803.92 273.544C803.92 273.544 829.235 258.129 832.841 244.246C835.087 235.496 825.037 231.923 820.337 235.963C813.892 241.661 818.256 249.09 825.535 247.988C823.953 254.026 815.447 264.35 803.92 273.544Z" fill="#A81C25" fill-opacity="0.3"/>
<path d="M803.92 273.544C803.92 273.544 829.235 258.129 832.841 244.246C835.087 235.496 825.037 231.923 820.337 235.963C813.892 241.661 818.256 249.09 825.535 247.988C823.953 254.026 815.447 264.35 803.92 273.544Z" fill="#FFD43E"/>
<path d="M1179.52 210.714C1161.26 228.863 1159.86 251.001 1139.17 258.867C1133.36 261.565 1126.01 259.157 1123.5 253.868C1121.9 251.114 1121.87 247.894 1123.45 244.787C1129.7 234.42 1142.58 237.386 1142.94 246.432C1152.25 243.346 1161.19 225.353 1179.52 210.714Z" fill="#A81C25" fill-opacity="0.3"/>
<path d="M1179.52 210.714C1161.26 228.863 1159.86 251.001 1139.17 258.867C1133.36 261.565 1126.01 259.157 1123.5 253.868C1121.9 251.114 1121.87 247.894 1123.45 244.787C1129.7 234.42 1142.58 237.386 1142.94 246.432C1152.25 243.346 1161.19 225.353 1179.52 210.714Z" fill="#FFD43E"/>
<path d="M1429.36 102.062C1429.36 102.062 1376.78 121.094 1346.94 81.3235C1326.91 54.5322 1346.61 26.2576 1371.24 19.1253C1386.49 14.4999 1437.63 8.52544 1442.99 48.0841C1447.74 82.1418 1395.34 94.1186 1382.63 72.3762C1396.06 89.0554 1427.86 71.1612 1425.16 49.7719C1421.89 26.1017 1390.78 6.69688 1362.24 39.4697C1342.27 62.4975 1359.86 113.595 1429.36 102.062Z" fill="#A81C25" fill-opacity="0.3"/>
<path d="M1429.36 102.062C1429.36 102.062 1376.78 121.094 1346.94 81.3235C1326.91 54.5322 1346.61 26.2576 1371.24 19.1253C1386.49 14.4999 1437.63 8.52544 1442.99 48.0841C1447.74 82.1418 1395.34 94.1186 1382.63 72.3762C1396.06 89.0554 1427.86 71.1612 1425.16 49.7719C1421.89 26.1017 1390.78 6.69688 1362.24 39.4697C1342.27 62.4975 1359.86 113.595 1429.36 102.062Z" fill="#FFD43E"/>
<path d="M985.621 -25.6692C1053.52 -54.6079 1121.05 -69.4376 1177.62 -55.4986C1235.14 -41.6655 1262.88 -0.490002 1272.8 25.0797C1295.12 75.3576 1271.92 127.175 1238.58 157.258C1208.42 189.917 1174.44 217.14 1161.74 253.429C1147.48 287.254 1173.36 337.723 1218.73 323.303C1238.88 319.306 1255.93 301.878 1254 281.576C1254.54 260.412 1227.35 247.313 1204.98 254.488C1227.28 246.734 1255.72 259.402 1255.59 281.399C1258.25 302.499 1240.83 322.314 1219.92 328.154C1199.01 333.994 1171.93 336.416 1156.51 313.509C1142.66 293.066 1147.3 271.154 1155.51 252.363C1171.93 214.781 1203.77 185.744 1233.33 153.444C1266 123.143 1286.82 75.9861 1266 27.5937C1256.53 3.14673 1230.28 -36.1434 1175.43 -49.1009C1121.5 -62.4538 1043.9 -45.6255 977.115 -15.3452L985.621 -25.6692Z" fill="#A81C25" fill-opacity="0.3"/>
<path d="M985.621 -25.6692C1053.52 -54.6079 1121.05 -69.4376 1177.62 -55.4986C1235.14 -41.6655 1262.88 -0.490002 1272.8 25.0797C1295.12 75.3576 1271.92 127.175 1238.58 157.258C1208.42 189.917 1174.44 217.14 1161.74 253.429C1147.48 287.254 1173.36 337.723 1218.73 323.303C1238.88 319.306 1255.93 301.878 1254 281.576C1254.54 260.412 1227.35 247.313 1204.98 254.488C1227.28 246.734 1255.72 259.402 1255.59 281.399C1258.25 302.499 1240.83 322.314 1219.92 328.154C1199.01 333.994 1171.93 336.416 1156.51 313.509C1142.66 293.066 1147.3 271.154 1155.51 252.363C1171.93 214.781 1203.77 185.744 1233.33 153.444C1266 123.143 1286.82 75.9861 1266 27.5937C1256.53 3.14673 1230.28 -36.1434 1175.43 -49.1009C1121.5 -62.4538 1043.9 -45.6255 977.115 -15.3452L985.621 -25.6692Z" fill="#FFD43E"/>
<path d="M1221.23 111.119C1183.37 158.41 1119.37 152.916 1100.98 140.891C1126.61 148.595 1198.79 137.938 1170.79 68.3614C1145.47 5.52112 1058.78 -42.0022 957.262 -5.8111C962.694 -9.05238 968.475 -12.0394 974.639 -14.4828C974.639 -14.4828 1110.01 -73.1934 1181.39 -38.9173C1246.98 -7.51528 1261.31 60.6495 1221.23 111.119ZM1021.86 -26.7632C1045.22 -30.8237 1159.94 -58.2234 1202.51 20.8724C1231.67 74.7869 1207.09 117.086 1172.12 138.263C1172.12 138.263 1251.25 100.455 1208.26 17.5958C1166.87 -62.5098 1036.16 -31.2827 1021.86 -26.7632Z" fill="#A81C25" fill-opacity="0.3"/>
<path d="M1221.23 111.119C1183.37 158.41 1119.37 152.916 1100.98 140.891C1126.61 148.595 1198.79 137.938 1170.79 68.3614C1145.47 5.52112 1058.78 -42.0022 957.262 -5.8111C962.694 -9.05238 968.475 -12.0394 974.639 -14.4828C974.639 -14.4828 1110.01 -73.1934 1181.39 -38.9173C1246.98 -7.51528 1261.31 60.6495 1221.23 111.119ZM1021.86 -26.7632C1045.22 -30.8237 1159.94 -58.2234 1202.51 20.8724C1231.67 74.7869 1207.09 117.086 1172.12 138.263C1172.12 138.263 1251.25 100.455 1208.26 17.5958C1166.87 -62.5098 1036.16 -31.2827 1021.86 -26.7632Z" fill="#FFD43E"/>
<path d="M1019.62 -15.0854C1054.74 -17.522 1128.09 -6.03345 1158.28 60.0763C1177.44 102.205 1164.85 127.93 1139.65 132.782C1114.45 137.633 1096.35 125.283 1090.57 108.046C1084.79 90.8087 1107.6 75.9652 1123.08 76.297C1108.15 80.8871 1105.12 102.912 1111.75 113.314C1120.03 127.048 1137.59 137.407 1150.26 123.983C1162.92 110.559 1158.18 82.3625 1139.01 51.6662C1102.15 -7.841 1047.94 -15.008 1019.62 -15.0854Z" fill="#A81C25" fill-opacity="0.3"/>
<path d="M1019.62 -15.0854C1054.74 -17.522 1128.09 -6.03345 1158.28 60.0763C1177.44 102.205 1164.85 127.93 1139.65 132.782C1114.45 137.633 1096.35 125.283 1090.57 108.046C1084.79 90.8087 1107.6 75.9652 1123.08 76.297C1108.15 80.8871 1105.12 102.912 1111.75 113.314C1120.03 127.048 1137.59 137.407 1150.26 123.983C1162.92 110.559 1158.18 82.3625 1139.01 51.6662C1102.15 -7.841 1047.94 -15.008 1019.62 -15.0854Z" fill="#FFD43E"/>
<path d="M1390.31 63.315C1389.86 59.2619 1386.01 56.4658 1381.56 56.9601C1377.11 57.4544 1373.97 61.0273 1374.42 65.0804C1374.87 69.1334 1378.72 71.9296 1383.17 71.4353C1387.62 70.941 1390.76 67.368 1390.31 63.315C1390.34 63.6045 1390.34 63.6045 1390.31 63.315Z" fill="#A81C25" fill-opacity="0.3"/>
<path d="M1390.31 63.315C1389.86 59.2619 1386.01 56.4658 1381.56 56.9601C1377.11 57.4544 1373.97 61.0273 1374.42 65.0804C1374.87 69.1334 1378.72 71.9296 1383.17 71.4353C1387.62 70.941 1390.76 67.368 1390.31 63.315C1390.34 63.6045 1390.34 63.6045 1390.31 63.315Z" fill="#FFD43E"/>
<path d="M1174.89 148.8C1189.59 159.477 1206.41 157.316 1220.48 153.7C1240.47 148.255 1264.46 118.039 1272.65 84.5955C1259.66 118.279 1232.14 125.44 1215.08 131.146C1190.27 139.471 1190.06 149.167 1174.89 148.8Z" fill="#A81C25" fill-opacity="0.3"/>
<path d="M1174.89 148.8C1189.59 159.477 1206.41 157.316 1220.48 153.7C1240.47 148.255 1264.46 118.039 1272.65 84.5955C1259.66 118.279 1232.14 125.44 1215.08 131.146C1190.27 139.471 1190.06 149.167 1174.89 148.8Z" fill="#FFD43E"/>
<path d="M453.832 122.805C461.376 129.88 470.457 121.837 463.614 115.27C456.77 108.703 443.828 105.158 420.811 103.612C439.35 108.293 440.846 110.179 453.832 122.805Z" fill="#A81C25" fill-opacity="0.3"/>
<path d="M453.832 122.805C461.376 129.88 470.457 121.837 463.614 115.27C456.77 108.703 443.828 105.158 420.811 103.612C439.35 108.293 440.846 110.179 453.832 122.805Z" fill="#FFD43E"/>
<path d="M479.638 120.524C485.299 122.24 488.916 117.149 484.237 112.686C479.558 108.223 469.416 106.712 453.838 105.511C470.245 108.378 472.324 118.406 479.638 120.524Z" fill="#A81C25" fill-opacity="0.3"/>
<path d="M479.638 120.524C485.299 122.24 488.916 117.149 484.237 112.686C479.558 108.223 469.416 106.712 453.838 105.511C470.245 108.378 472.324 118.406 479.638 120.524Z" fill="#FFD43E"/>
<path d="M664.965 94.3651C664.965 94.3651 756.157 86.8721 791.3 148.328C790.643 107.661 792.505 72.2827 664.965 94.3651Z" fill="#A81C25" fill-opacity="0.3"/>
<path d="M664.965 94.3651C664.965 94.3651 756.157 86.8721 791.3 148.328C790.643 107.661 792.505 72.2827 664.965 94.3651Z" fill="#FFD43E"/>
<path d="M153.012 50.7085C153.012 50.7085 196.897 63.4189 211.501 73.2272C224.322 81.4749 230.312 91.9471 225.87 98.3025C221.681 104.044 208.614 102.271 197.692 87.9506C187.916 75.2611 169.616 58.243 153.012 50.7085Z" fill="#A81C25" fill-opacity="0.3"/>
<path d="M153.012 50.7085C153.012 50.7085 196.897 63.4189 211.501 73.2272C224.322 81.4749 230.312 91.9471 225.87 98.3025C221.681 104.044 208.614 102.271 197.692 87.9506C187.916 75.2611 169.616 58.243 153.012 50.7085Z" fill="#FFD43E"/>
<path d="M204.465 64.9236C204.465 64.9236 258.899 74.1173 290.025 102.314C300.782 112.256 301.498 124.487 290.22 130.136C279.228 135.461 264.335 123.047 253.473 106.374C242.165 88.5794 225.14 74.3506 204.465 64.9236Z" fill="#A81C25" fill-opacity="0.3"/>
<path d="M204.465 64.9236C204.465 64.9236 258.899 74.1173 290.025 102.314C300.782 112.256 301.498 124.487 290.22 130.136C279.228 135.461 264.335 123.047 253.473 106.374C242.165 88.5794 225.14 74.3506 204.465 64.9236Z" fill="#FFD43E"/>
<path d="M760.077 0.559426C779.719 -2.20885 784.102 -29.3676 764.32 -36.549C771.369 -42.6078 771.99 -54.4006 760.226 -56.0247C780.553 -70.0067 791.015 -42.4456 773.284 -36.9586C809.007 -42.6858 815.601 16.6663 760.077 0.559426Z" fill="#A81C25" fill-opacity="0.3"/>
<path d="M760.077 0.559426C779.719 -2.20885 784.102 -29.3676 764.32 -36.549C771.369 -42.6078 771.99 -54.4006 760.226 -56.0247C780.553 -70.0067 791.015 -42.4456 773.284 -36.9586C809.007 -42.6858 815.601 16.6663 760.077 0.559426Z" fill="#FFD43E"/>
<path d="M64.1611 215.334C77.2531 211.535 117.146 185.414 158.938 202.46C199.077 219.104 192.951 250.852 178.881 260.329C159.379 273.047 129.491 267.574 121.982 237.634C133.973 267.37 172.299 259.008 176.726 240.931C179.382 230.084 177.331 217.416 153.128 208.088C128.925 198.76 108.458 202.792 64.1611 215.334Z" fill="#A81C25" fill-opacity="0.3"/>
<path d="M64.1611 215.334C77.2531 211.535 117.146 185.414 158.938 202.46C199.077 219.104 192.951 250.852 178.881 260.329C159.379 273.047 129.491 267.574 121.982 237.634C133.973 267.37 172.299 259.008 176.726 240.931C179.382 230.084 177.331 217.416 153.128 208.088C128.925 198.76 108.458 202.792 64.1611 215.334Z" fill="#FFD43E"/>
<path d="M-122.994 207.693C-71.3782 249.441 -70.2878 354.834 -22.4941 391.144C25.2996 427.454 90.4019 402.343 99.2219 389.053C80.9632 404.27 25.4299 405.457 -16.2038 363.773C-57.8374 322.09 -60.5035 251.75 -122.994 207.693Z" fill="#A81C25" fill-opacity="0.3"/>
<path d="M-122.994 207.693C-71.3782 249.441 -70.2878 354.834 -22.4941 391.144C25.2996 427.454 90.4019 402.343 99.2219 389.053C80.9632 404.27 25.4299 405.457 -16.2038 363.773C-57.8374 322.09 -60.5035 251.75 -122.994 207.693Z" fill="#FFD43E"/>
<path d="M338.222 55.3403C338.222 55.3403 485.518 46.0108 511.218 -41.2557C532.707 -114.279 437.943 -115.768 413.992 -102.556C436.909 -104.809 491.069 -86.4988 473.595 -29.4556C460.806 11.8261 392.951 46.9154 338.222 55.3403Z" fill="#A81C25" fill-opacity="0.3"/>
<path d="M338.222 55.3403C338.222 55.3403 485.518 46.0108 511.218 -41.2557C532.707 -114.279 437.943 -115.768 413.992 -102.556C436.909 -104.809 491.069 -86.4988 473.595 -29.4556C460.806 11.8261 392.951 46.9154 338.222 55.3403Z" fill="#FFD43E"/>
</g>
</g>
<defs>
<linearGradient id="paint0_linear_356_26344" x1="1440" y1="42.0153" x2="50.2845" y2="193.025" gradientUnits="userSpaceOnUse">
<stop stop-color="#E2091B"/>
<stop offset="0.233625" stop-color="#E24522"/>
<stop offset="1" stop-color="#F4B436"/>
</linearGradient>
</defs>
</svg>
