<svg width="52" height="46" viewBox="0 0 52 46" fill="none" xmlns="http://www.w3.org/2000/svg">
<path d="M21.8776 5.07552C21.8776 2.79323 18.1981 1 13.7009 1C9.20372 1 5.5242 2.79323 5.5242 5.07552C5.5242 7.3578 9.20372 9.15103 13.7009 9.15103C18.1981 9.15103 21.8776 7.3578 21.8776 5.07552Z" stroke="white" stroke-width="1.56312" stroke-miterlimit="10"/>
<path d="M5.5242 5.07568V9.1512C5.5242 11.4335 9.20372 13.2267 13.7009 13.2267C18.1981 13.2267 21.8776 11.4335 21.8776 9.1512V5.07568" stroke="white" stroke-width="1.56312" stroke-miterlimit="10"/>
<path d="M21.8781 13.2264V9.15088" stroke="white" stroke-width="1.56312" stroke-miterlimit="10" stroke-linecap="round"/>
<path d="M5.5242 9.15088V13.2264C5.5242 15.0196 7.89544 16.5683 11.2479 17.1389" stroke="white" stroke-width="1.56312" stroke-miterlimit="10" stroke-linecap="round"/>
<path d="M5.5242 13.2266V17.3021C5.5242 18.4432 6.42364 19.5029 7.97721 20.2364" stroke="white" stroke-width="1.56312" stroke-miterlimit="10" stroke-linecap="round"/>
<path d="M5.5242 13.2266V22.1927" stroke="white" stroke-width="1.56312" stroke-miterlimit="10" stroke-linecap="round"/>
<path d="M34.1432 18.1172V19.7474" stroke="white" stroke-width="1.56312" stroke-miterlimit="10"/>
<path d="M17.7893 26.2681V27.8983" stroke="white" stroke-width="1.56312" stroke-miterlimit="10"/>
<path d="M51.0684 19.0135L51.4314 19.7056C51.689 19.5705 51.8503 19.3036 51.85 19.0127C51.8497 18.7218 51.6879 18.4552 51.4301 18.3206L51.0684 19.0135ZM38.9183 25.385L38.5577 26.0784C38.7846 26.1964 39.0548 26.1959 39.2813 26.0772L38.9183 25.385ZM33.7338 9.96582L34.0954 9.27296C33.8689 9.1547 33.5988 9.1547 33.3722 9.27296L33.7338 9.96582ZM21.5243 16.3383L21.1626 15.6455C20.9044 15.7803 20.7425 16.0476 20.7427 16.3389C20.7429 16.6302 20.9052 16.8973 21.1636 17.0317L21.5243 16.3383ZM30.0544 30.0333L30.4173 30.7255C30.6747 30.5905 30.8359 30.3239 30.8359 30.0333H30.0544ZM30.0544 29.8544H30.8359C30.8359 29.5719 30.6835 29.3114 30.4372 29.173L30.0544 29.8544ZM13.4755 20.5393L13.8583 19.8579C13.628 19.7285 13.348 19.7242 13.1138 19.8464L13.4755 20.5393ZM0.781708 27.1645L0.420082 26.4716C0.162439 26.6061 0.000687599 26.8724 0.000150263 27.163C-0.000387013 27.4537 0.160379 27.7206 0.417522 27.856L0.781708 27.1645ZM18.1163 36.2936L17.7521 36.9852C17.9797 37.105 18.2516 37.1052 18.4793 36.9858L18.1163 36.2936ZM50.7055 18.3213L38.5554 24.6928L39.2813 26.0772L51.4314 19.7056L50.7055 18.3213ZM33.3722 10.6587L50.7068 19.7063L51.4301 18.3206L34.0954 9.27296L33.3722 10.6587ZM21.8859 17.0312L34.0954 10.6587L33.3722 9.27296L21.1626 15.6455L21.8859 17.0312ZM21.1636 17.0317L38.5577 26.0784L39.279 24.6916L21.8849 15.645L21.1636 17.0317ZM30.8359 30.0333V29.8544H29.2728V30.0333H30.8359ZM30.4372 29.173L13.8583 19.8579L13.0926 21.2206L29.6715 30.5358L30.4372 29.173ZM1.14333 27.8574L13.8371 21.2321L13.1138 19.8464L0.420082 26.4716L1.14333 27.8574ZM18.4805 35.6021L1.14589 26.473L0.417522 27.856L17.7521 36.9852L18.4805 35.6021ZM29.6914 29.3411L17.7533 35.6015L18.4793 36.9858L30.4173 30.7255L29.6914 29.3411Z" fill="white"/>
<path d="M30.0544 29.8547L12.0656 19.7474L20.2423 15.6719L39.0487 25.4531V35.3159L30.0544 40.125V29.8547Z" stroke="white" stroke-width="1.56312" stroke-miterlimit="10" stroke-linejoin="round"/>
<path fill-rule="evenodd" clip-rule="evenodd" d="M30.0544 37.139L18.1155 43.3998L1.14335 34.5414C0.760695 34.3416 0.288582 34.4899 0.0888582 34.8726C-0.110866 35.2553 0.0374301 35.7274 0.420087 35.9271L17.7547 44.9747C17.9818 45.0932 18.2525 45.093 18.4793 44.974L30.0544 38.904V37.139ZM39.0487 34.1874L51.4314 27.6938C51.8137 27.4934 51.9611 27.021 51.7606 26.6387C51.5601 26.2564 51.0877 26.1091 50.7055 26.3095L39.0487 32.4223V34.1874Z" fill="white"/>
<path fill-rule="evenodd" clip-rule="evenodd" d="M30.0544 33.1451L18.1155 39.4059L1.14335 30.5475C0.760695 30.3477 0.288582 30.496 0.0888582 30.8787C-0.110866 31.2614 0.03743 31.7335 0.420086 31.9332L17.7547 40.9808C17.9818 41.0994 18.2525 41.0991 18.4793 40.9801L30.0544 34.9101V33.1451ZM39.0487 30.1935L51.4314 23.7C51.8137 23.4995 51.9611 23.0271 51.7606 22.6448C51.5601 22.2626 51.0877 22.1152 50.7055 22.3156L39.0487 28.4285V30.1935Z" fill="white"/>
<path d="M41.8293 18.4429L42.1779 19.1424L43.5414 18.4627L42.1941 17.7517L41.8293 18.4429ZM34.8791 14.7749L35.2439 14.0837L34.8893 13.8966L34.5304 14.0754L34.8791 14.7749ZM41.8293 20.3176L42.1905 21.0107L43.4484 20.355L42.2222 19.642L41.8293 20.3176ZM35.5091 23.6121L35.1484 24.3055L35.5095 24.4932L35.8703 24.3051L35.5091 23.6121ZM25.012 18.1526L24.6487 17.4606L23.3245 18.1559L24.6514 18.8459L25.012 18.1526ZM31.4449 14.7749L31.8182 14.0883L31.4513 13.8888L31.0815 14.0829L31.4449 14.7749ZM16.8524 22.4369L17.2352 21.7555L16.865 21.5475L16.4891 21.7449L16.8524 22.4369ZM10.0219 26.0233L9.65858 25.3314L8.30622 26.0414L9.67327 26.7228L10.0219 26.0233ZM10.0219 27.8166L9.67327 27.1171L8.30975 27.7967L9.65713 28.5078L10.0219 27.8166ZM16.9721 31.4845L16.6073 32.1757L16.9619 32.3629L17.3208 32.184L16.9721 31.4845ZM20.4063 31.4845L20.0577 32.184L20.4143 32.3617L20.7676 32.1776L20.4063 31.4845ZM26.916 28.0913L27.2773 28.7843L28.5574 28.1171L27.2988 27.4099L26.916 28.0913ZM42.1941 17.7517L35.2439 14.0837L34.5143 15.4661L41.4645 19.1341L42.1941 17.7517ZM42.2222 19.642C42.0261 19.528 41.9091 19.4271 41.8477 19.3554C41.7867 19.2844 41.8087 19.2768 41.8121 19.3313C41.8164 19.4 41.7839 19.4268 41.8112 19.3937C41.8483 19.3487 41.9501 19.2559 42.1779 19.1424L41.4806 17.7434C40.8367 18.0644 40.2006 18.6084 40.252 19.4291C40.2986 20.1716 40.9015 20.6822 41.4364 20.9932L42.2222 19.642ZM35.8703 24.3051L42.1905 21.0107L41.468 19.6245L35.1478 22.919L35.8703 24.3051ZM24.6514 18.8459L35.1484 24.3055L35.8697 22.9187L25.3727 17.4592L24.6514 18.8459ZM31.0815 14.0829L24.6487 17.4606L25.3754 18.8445L31.8082 15.4669L31.0815 14.0829ZM34.5304 14.0754C33.6131 14.5327 32.4926 14.455 31.8182 14.0883L31.0715 15.4615C32.1961 16.073 33.8556 16.1583 35.2277 15.4744L34.5304 14.0754ZM16.4891 21.7449L9.65858 25.3314L10.3852 26.7153L17.2157 23.1289L16.4891 21.7449ZM9.67327 26.7228C9.90096 26.8363 10.004 26.9297 10.042 26.9753C10.0715 27.0107 10.034 26.9803 10.0392 26.9C10.0437 26.8307 10.0742 26.8243 10.023 26.8797C9.97039 26.9366 9.86248 27.0228 9.67327 27.1171L10.3706 28.516C10.9153 28.2445 11.55 27.7588 11.5991 27.001C11.6519 26.1852 11.008 25.6416 10.3706 25.3238L9.67327 26.7228ZM9.65713 28.5078L16.6073 32.1757L17.3369 30.7933L10.3867 27.1253L9.65713 28.5078ZM17.3208 32.184C18.1006 31.7953 19.1501 31.7316 20.0577 32.184L20.755 30.785C19.3731 30.0963 17.806 30.1956 16.6235 30.785L17.3208 32.184ZM20.7676 32.1776L27.2773 28.7843L26.5547 27.3982L20.0451 30.7915L20.7676 32.1776ZM27.2988 27.4099L17.2352 21.7555L16.4696 23.1183L26.5332 28.7727L27.2988 27.4099Z" fill="white"/>
</svg>
