<svg width="52" height="45" viewBox="0 0 52 45" fill="none" xmlns="http://www.w3.org/2000/svg">
<path d="M15.4663 10.7049C15.9988 9.82265 18.4385 7.0724 19.0887 6.23C19.2745 5.9492 19.3674 5.762 19.1816 5.5748C18.9958 5.3876 18.6243 5.3876 18.2528 5.4812C17.5097 5.6684 16.488 5.4812 15.4663 5.1068C13.33 4.4516 10.1721 3.6092 8.9646 5.8556C8.87172 6.0428 8.9646 6.1364 9.15036 6.4172C9.80054 7.166 11.9124 9.76893 12.4696 10.7049H15.4663Z" stroke="white" stroke-width="1.7" stroke-miterlimit="10"/>
<path d="M14.5375 34.497C10.0792 34.497 5.52799 33.6546 1.71983 31.9698C1.44119 31.7826 1.16254 31.5954 1.06966 31.221C0.97678 30.9402 0.97678 30.5658 1.06966 30.1914C1.71983 28.5066 1.99848 26.7282 2.18424 24.4818C2.27712 22.9842 2.37001 21.861 2.55577 21.1122C3.20594 18.3042 4.59917 14.9346 11.1009 11.4714C11.4874 11.2767 11.9477 11.0654 12.4697 10.904C13.0809 10.7149 13.7767 10.5941 14.5375 10.6482C15.3129 10.7034 16.1557 10.9402 17.0453 11.4714C19.217 12.7587 20.8286 13.9686 22.035 15.1162" stroke="white" stroke-width="1.7" stroke-miterlimit="10"/>
<path d="M34.9678 10.264C35.8038 9.32796 38.5939 4.73249 39.5227 3.51569C39.8013 3.14129 39.8942 2.86049 39.6156 2.57969C39.3369 2.29889 38.8725 2.29889 38.2223 2.48609C37.1077 2.76689 35.7145 2.48609 34.2284 2.01809C31.1633 1.08209 26.705 -0.134705 24.9402 3.14129C24.7545 3.42209 24.8474 3.51569 25.2189 3.89009C26.1477 4.91969 28.9311 9.32796 29.6742 10.264C29.6742 10.264 30.9976 9.82282 32.321 9.82282C33.6444 9.82282 34.9678 10.264 34.9678 10.264Z" stroke="white" stroke-width="1.7" stroke-miterlimit="10"/>
<path d="M50.8543 37.7733C49.9255 35.4333 49.5539 32.9061 49.2753 29.7237C49.0895 27.5709 48.9038 25.9797 48.718 24.8565C47.7892 20.8317 45.56 16.4325 36.4576 11.0973C32.8352 9.03809 29.863 10.1613 28.0054 11.0973C18.7172 15.9645 16.7667 20.8317 15.745 24.8565C15.4663 25.8861 15.3734 27.5709 15.1877 29.7237C14.909 32.9061 14.5375 35.4333 13.6087 37.7733C13.4229 38.2413 13.4229 38.8029 13.6087 39.2709C13.7944 39.7389 14.166 40.1132 14.5375 40.3004C19.9246 42.6404 26.5192 43.8572 32.8352 43.8572C39.2441 43.8572 45.3742 42.6404 50.1112 40.3004C50.8543 39.8324 51.2258 38.7093 50.8543 37.7733Z" stroke="white" stroke-width="1.7" stroke-miterlimit="10"/>
<path d="M30.7919 13.999C22.8041 18.211 21.0393 22.3294 20.2034 25.8862" stroke="white" stroke-width="1.7" stroke-miterlimit="10"/>
<path d="M12.7728 15.2156C7.94291 17.7428 6.82833 20.27 6.36392 22.4228" stroke="white" stroke-width="1.7" stroke-miterlimit="10"/>
<path d="M28.6024 35.9988V33.0068H26.6884V31.5768H28.6024V29.6188H26.6884V27.9468H28.6024V20.2908H32.7384C34.6598 20.2908 36.0824 20.6794 37.0064 21.4568C37.9451 22.2341 38.4144 23.3634 38.4144 24.8448C38.4144 26.3408 37.9084 27.5141 36.8964 28.3648C35.8844 29.2008 34.3958 29.6188 32.4304 29.6188H30.5824V31.5768H34.2124V33.0068H30.5824V35.9988H28.6024ZM30.5824 27.9468H32.1444C33.4791 27.9468 34.5131 27.7268 35.2464 27.2868C35.9944 26.8468 36.3684 26.0548 36.3684 24.9108C36.3684 23.9134 36.0604 23.1728 35.4444 22.6888C34.8284 22.2048 33.8678 21.9628 32.5624 21.9628H30.5824V27.9468Z" fill="white"/>
<path d="M28.6024 35.9988H28.3524V36.2488H28.6024V35.9988ZM28.6024 33.0068H28.8524V32.7568H28.6024V33.0068ZM26.6884 33.0068H26.4384V33.2568H26.6884V33.0068ZM26.6884 31.5768V31.3268H26.4384V31.5768H26.6884ZM28.6024 31.5768V31.8268H28.8524V31.5768H28.6024ZM28.6024 29.6188H28.8524V29.3688H28.6024V29.6188ZM26.6884 29.6188H26.4384V29.8688H26.6884V29.6188ZM26.6884 27.9468V27.6968H26.4384V27.9468H26.6884ZM28.6024 27.9468V28.1968H28.8524V27.9468H28.6024ZM28.6024 20.2908V20.0408H28.3524V20.2908H28.6024ZM37.0064 21.4568L36.8455 21.6481L36.847 21.6493L37.0064 21.4568ZM36.8964 28.3648L37.0557 28.5575L37.0573 28.5562L36.8964 28.3648ZM30.5824 29.6188V29.3688H30.3324V29.6188H30.5824ZM30.5824 31.5768H30.3324V31.8268H30.5824V31.5768ZM34.2124 31.5768H34.4624V31.3268H34.2124V31.5768ZM34.2124 33.0068V33.2568H34.4624V33.0068H34.2124ZM30.5824 33.0068V32.7568H30.3324V33.0068H30.5824ZM30.5824 35.9988V36.2488H30.8324V35.9988H30.5824ZM30.5824 27.9468H30.3324V28.1968H30.5824V27.9468ZM35.2464 27.2868L35.1197 27.0713L35.1178 27.0724L35.2464 27.2868ZM30.5824 21.9628V21.7128H30.3324V21.9628H30.5824ZM28.8524 35.9988V33.0068H28.3524V35.9988H28.8524ZM28.6024 32.7568H26.6884V33.2568H28.6024V32.7568ZM26.9384 33.0068V31.5768H26.4384V33.0068H26.9384ZM26.6884 31.8268H28.6024V31.3268H26.6884V31.8268ZM28.8524 31.5768V29.6188H28.3524V31.5768H28.8524ZM28.6024 29.3688H26.6884V29.8688H28.6024V29.3688ZM26.9384 29.6188V27.9468H26.4384V29.6188H26.9384ZM26.6884 28.1968H28.6024V27.6968H26.6884V28.1968ZM28.8524 27.9468V20.2908H28.3524V27.9468H28.8524ZM28.6024 20.5408H32.7384V20.0408H28.6024V20.5408ZM32.7384 20.5408C34.6337 20.5408 35.9865 20.9254 36.8455 21.6481L37.1674 21.2655C36.1784 20.4334 34.6859 20.0408 32.7384 20.0408V20.5408ZM36.847 21.6493C37.716 22.369 38.1644 23.4203 38.1644 24.8448H38.6644C38.6644 23.3066 38.1742 22.0993 37.1659 21.2642L36.847 21.6493ZM38.1644 24.8448C38.1644 26.2779 37.6832 27.3768 36.7356 28.1734L37.0573 28.5562C38.1337 27.6514 38.6644 26.4037 38.6644 24.8448H38.1644ZM36.7372 28.172C35.7876 28.9565 34.3655 29.3688 32.4304 29.3688V29.8688C34.4261 29.8688 35.9813 29.445 37.0557 28.5575L36.7372 28.172ZM32.4304 29.3688H30.5824V29.8688H32.4304V29.3688ZM30.3324 29.6188V31.5768H30.8324V29.6188H30.3324ZM30.5824 31.8268H34.2124V31.3268H30.5824V31.8268ZM33.9624 31.5768V33.0068H34.4624V31.5768H33.9624ZM34.2124 32.7568H30.5824V33.2568H34.2124V32.7568ZM30.3324 33.0068V35.9988H30.8324V33.0068H30.3324ZM30.5824 35.7488H28.6024V36.2488H30.5824V35.7488ZM30.5824 28.1968H32.1444V27.6968H30.5824V28.1968ZM32.1444 28.1968C33.5012 28.1968 34.5869 27.9741 35.3751 27.5012L35.1178 27.0724C34.4393 27.4795 33.457 27.6968 32.1444 27.6968V28.1968ZM35.3732 27.5023C36.2217 27.0031 36.6184 26.1113 36.6184 24.9108H36.1184C36.1184 25.9983 35.7672 26.6904 35.1197 27.0713L35.3732 27.5023ZM36.6184 24.9108C36.6184 23.8596 36.2912 23.0361 35.5989 22.4922L35.29 22.8854C35.8297 23.3094 36.1184 23.9673 36.1184 24.9108H36.6184ZM35.5989 22.4922C34.918 21.9572 33.8896 21.7128 32.5624 21.7128V22.2128C33.8459 22.2128 34.7389 22.4524 35.29 22.8854L35.5989 22.4922ZM32.5624 21.7128H30.5824V22.2128H32.5624V21.7128ZM30.3324 21.9628V27.9468H30.8324V21.9628H30.3324Z" fill="white"/>
</svg>
