<svg width="152" height="96" viewBox="0 0 152 96" fill="none" xmlns="http://www.w3.org/2000/svg">
<mask id="mask0_356_33452" style="mask-type:alpha" maskUnits="userSpaceOnUse" x="0" y="8" width="87" height="82">
<path d="M83.6187 28.5949C75.4825 11.017 61.5892 8.62183 49.1333 8.62183C36.6775 8.62183 26.4067 13.7138 17.0881 21.1472C7.76962 28.5841 2.62701 39.849 2.62701 39.849L2.6306 39.8526C0.999054 43.0414 0 46.9627 0 51.7315C0 76.0461 21.167 89.1172 34.5105 89.1172C52.3928 89.1172 71.5582 75.4033 80.104 61.4667C84.3985 54.4607 91.0577 44.6681 83.6187 28.5949Z" fill="#DD0E1D"/>
</mask>
<g mask="url(#mask0_356_33452)">
<rect y="8.57324" width="87.3046" height="81.0686" fill="#DD0E1D"/>
<mask id="mask1_356_33452" style="mask-type:alpha" maskUnits="userSpaceOnUse" x="3" y="8" width="92" height="81">
<path fill-rule="evenodd" clip-rule="evenodd" d="M94.7556 40.772L85.6527 50.5934C85.9506 45.8995 85.6179 41.349 84.6952 37.0789C84.6487 37.3049 83.7301 37.3465 83.7301 37.3465C83.7948 36.104 83.0833 31.8666 79.4248 32.7823C78.3144 33.0624 77.2578 33.6226 76.266 34.567C76.9739 34.1325 77.7969 33.9422 78.6594 34.0284C80.122 34.172 81.0528 36.1219 79.6189 37.3465C78.512 35.0662 75.8275 35.2314 74.4224 36.9084C74.2211 37.2387 74.0235 37.5942 73.8294 37.9713C74.214 37.5152 74.6847 37.1597 75.2813 36.9335C77.7178 36.0034 81.0708 38.0683 79.8166 41.9752C78.4114 37.9641 72.8304 40.3737 71.7091 44.1298C71.2455 46.148 70.8862 48.3887 70.6813 50.6618C71.1844 46.6148 72.7226 43.2752 76.5606 42.4385C79.7734 41.7382 80.7294 45.5339 80.1148 47.5879C76.6146 44.5464 70.8394 50.292 70.5052 56.1273V56.1278C70.5052 56.1994 70.5052 56.2675 70.5088 56.3356C70.3759 56.0591 70.2645 55.7431 70.1746 55.3947V55.4019C69.3516 53.1755 67.3428 49.6563 66.2539 50.4966C66.2539 48.3133 68.9527 46.8123 69.923 50.3063C70.2177 46.5825 71.2707 42.1368 72.6399 38.6931C73.4557 36.6462 74.5589 35.217 75.6227 34.0535C77.5777 31.0874 76.6361 29.6474 75.7233 29.1518C76.3774 28.0279 77.38 28.229 77.7681 28.7497C78.2892 29.4499 78.282 30.7893 77.4591 32.136C78.2497 31.2813 78.8534 30.4697 79.0295 29.4643C79.4212 27.2558 77.5525 26.2288 77.0135 26.8213C76.1114 25.902 76.9811 24.9289 78.1778 25.0079C79.3673 25.0869 80.5137 26.3222 80.6934 27.3815C81.0133 29.2703 80.3161 30.6098 79.0619 32.0857C82.3169 31.2385 83.3853 33.9577 84.1065 35.7931C84.3154 36.3249 84.4952 36.7825 84.6906 37.0576C81.5222 22.4299 71.4269 11.0967 56.0297 8.56812C67.8027 8.99544 84.0787 14.8882 94.7556 40.772ZM5.96557 33.3603C15.3092 20.5298 36.1492 20.9714 48.544 31.4284C71.5079 50.8017 65.4309 78.7001 49.5933 86.4386C46.571 87.9145 45.8199 88.1371 42.3592 88.4567C70.3579 80.0862 61.9342 46.3094 43.8649 33.2993C28.1712 22.0021 10.7668 25.4135 3.61887 37.5079C4.31246 35.9674 5.0348 34.6387 5.96557 33.3603ZM59.4149 20.0158C59.5084 19.5489 58.9406 19.1575 58.3799 18.9995C57.8229 18.8415 57.079 18.8882 56.9389 19.3622C56.7987 19.8362 57.2515 20.2923 57.9595 20.5005C58.671 20.7124 59.3215 20.4826 59.4149 20.0158ZM71.7163 37.3819C72.2014 40.2583 70.2033 40.2475 69.3193 39.4611C69.7757 42.0071 69.366 43.4507 67.3966 45.3323C64.7373 43.8098 64.0796 41.5905 64.0365 40.7574C62.7284 42.1795 60.6548 41.3787 60.2523 39.1163C61.334 39.5149 62.3259 38.1396 62.6673 36.3944L62.6894 36.2808C63.0149 34.6091 64.0063 29.5164 67.7165 27.8048C67.0444 27.9412 66.3041 28.0202 65.492 28.0274H65.4991C63.4579 28.4906 59.1347 32.6131 60.6728 36.1933C59.3575 36.4842 57.6289 35.7121 57.212 33.9417C56.6981 31.7548 59.3826 28.1459 63.9071 27.9592C63.3968 27.9089 62.8613 27.8335 62.3007 27.7329C62.3043 27.7347 62.307 27.7356 62.3097 27.7365C62.3124 27.7374 62.3151 27.7383 62.3187 27.7401C59.6845 27.1368 55.1888 31.1192 55.7314 32.3438C54.1286 32.0888 53.4781 30.3903 53.5931 29.4566C53.8231 27.6001 56.637 26.6916 59.4437 27.0183C59.2209 26.9501 58.9945 26.8783 58.7645 26.7993C58.3548 26.6592 57.9631 26.5192 57.5786 26.3755C53.9633 25.5891 51.631 28.4547 51.7172 28.8785C50.5493 28.5086 49.0902 26.8244 50.4019 25.704C51.1674 25.0505 53.3164 24.9463 54.8474 25.2408C54.6353 25.1438 54.4305 25.0433 54.2256 24.9427L54.2292 24.9463C52.5689 24.3107 49.2124 23.8259 48.5691 24.9966C47.2143 24.774 46.7974 23.2586 48.1199 23.0072C49.3094 22.781 50.6715 23.1257 51.5375 23.4202C47.6491 20.8813 46.4955 18.6621 47.3868 16.7374C48.6985 13.9005 54.7144 13.0027 59.9325 16.2669C65.1505 19.5275 64.3456 22.5619 61.8767 23.6931C58.114 25.4203 53.8303 22.4075 55.7458 19.919C56.1698 22.1166 61.4023 22.5296 60.5003 19.5599C59.1958 15.2615 51.5196 15.186 50.826 18.2563C49.7838 22.8636 61.3448 28.9862 67.9968 26.9357C69.6607 26.4222 70.9939 25.5388 71.8349 24.4005C70.5591 25.6789 68.3849 26.2175 66.9905 25.9087C64.9781 25.467 64.457 24.0917 64.9205 22.763C65.9483 24.1815 72.55 24.7919 72.8303 21.4846C72.8411 20.8347 72.7261 20.1488 72.4745 19.4414C72.8159 21.0393 71.8097 22.2064 69.7829 22.3285C66.5162 22.5296 65.0355 20.3822 65.1829 19.4055C65.8118 20.0267 68.083 20.7305 69.826 20.1703C70.9688 19.804 71.763 18.0732 71.0299 16.9205C70.6094 16.389 70.1818 15.9042 69.7505 15.4554C70.5483 16.5255 70.5339 17.4771 69.5061 18.1953C67.6122 19.5168 63.0051 17.5274 62.2181 15.3046C66.3005 15.6708 68.3022 14.1806 66.1137 12.5682C65.3698 12.1265 64.6043 11.7387 63.8137 11.3832C64.8559 12.0763 65.5279 12.7765 65.5279 13.1895C65.5279 14.1411 62.6529 14.0046 61.1184 13.053C62.9045 12.403 60.1661 10.0581 58.4806 9.37584L58.3839 9.34149C57.9296 9.1801 57.4659 9.01537 56.9928 8.84438C58.0961 9.10652 59.1203 9.39021 60.087 9.69185C60.4751 9.79958 60.856 9.92526 61.2262 10.0653C71.993 13.7892 73.8941 19.9297 73.4305 22.8636C73.4341 22.8564 73.4377 22.8492 73.4413 22.8456C73.4067 23.309 73.3365 23.8028 73.2635 24.3152C73.0177 26.0425 72.7419 27.9808 73.7036 29.6757C71.5006 30.9648 70.8358 27.7365 71.6731 25.8872V25.8836C71.4935 26.0488 71.2994 26.2068 71.0946 26.3612H71.0982C69.8763 27.4349 71.2239 31.7046 73.5922 32.3078C73.4053 34.2111 71.4288 34.5127 70.48 33.8412C68.9779 32.7783 68.6149 28.5732 70.2033 26.9286C69.9493 27.0644 69.6775 27.1931 69.3915 27.3076C68.1283 28.0938 67.29 31.2292 68.7155 33.8663C70.1422 36.5057 70.8502 36.9474 71.7163 37.3819ZM66.9151 31.3203C66.2359 32.0385 64.6402 34.9867 64.6834 37.9636C64.7013 39.3713 65.5315 40.621 66.5952 40.2906C67.4865 40.0141 68.1836 39.163 67.6626 37.5219C67.1415 35.8809 66.3077 32.2396 66.9151 31.3203ZM37.9557 15.8079C38.2169 15.7129 38.4681 15.6216 38.6936 15.4952C37.0009 15.8902 35.6605 15.7968 35.028 15.4485C34.3919 15.093 33.8636 14.8919 31.7433 14.7375C35.9408 12.6475 40.2461 14.0552 40.7097 14.5975L40.8549 14.5743C41.6512 14.4467 42.1379 14.3688 42.7078 14.6908C43.0384 14.6657 46.3015 14.1486 48.8638 13.6817C45.3995 13.9834 41.1481 13.5417 39.4303 12.7984C37.4825 11.9581 37.9856 10.8377 39.4303 10.5899C39.0817 11.7713 45.3779 12.3244 46.6716 10.791C47.4659 9.85017 45.669 8.56101 42.9845 8.72261C44.8999 8.38864 52.6552 8.61847 53.8052 10.7228L53.816 10.7336C54.6964 11.9329 52.9607 13.276 51.074 13.7643C50.1539 14.0037 47.9637 14.3807 46.101 14.7012C44.6388 14.9528 43.3784 15.1698 43.0923 15.2582C43.06 15.567 42.5029 15.8758 41.6045 16.0159C41.3738 18.4868 38.0705 19.3838 35.9771 19.9522C35.5272 20.0744 35.1332 20.1814 34.8375 20.2856C35.0785 20.1444 35.1706 19.7677 35.2979 19.2467C35.4232 18.7342 35.5827 18.082 35.9516 17.3769C36.4925 16.3402 37.2596 16.0612 37.9557 15.8079ZM28.5629 17.6748C28.1712 17.8005 27.1541 18.3032 27.474 18.8455C27.7938 19.3877 28.6707 19.2979 29.6338 18.9748C28.8791 19.5888 29.0983 20.2029 30.2376 20.4758C31.2294 20.7128 33.0299 20.3716 33.7414 19.6247C34.5717 18.7572 34.682 18.3682 34.9114 17.5592L34.9417 17.4522C34.0074 18.0914 32.6777 17.6389 32.5196 17.1649C32.3255 16.5868 33.2132 16.023 34.4638 15.8721C34.2266 15.7752 33.5653 15.5633 32.5016 15.4556C30.8018 15.2832 28.3868 15.7285 27.438 17.1254C27.2296 17.4414 27.9232 17.6892 28.5629 17.6748ZM42.3401 18.8193C42.5416 18.682 42.7308 18.5532 42.8875 18.4325C43.7392 17.7718 43.8075 17.2259 43.4517 16.5257C45.6367 17.6497 45.9206 19.9587 44.9287 20.9462C43.7787 22.0953 41.6836 22.3934 40.9828 21.5962C39.9642 20.4372 41.3121 19.5193 42.3401 18.8193ZM20.822 22.0343C22.9028 21.4597 27.1685 18.2638 25.307 16.6586C24.502 15.9655 22.0726 16.0984 18.0836 19.122C19.8517 17.9729 22.7087 16.5473 22.8093 17.8436C22.874 18.6839 21.0412 21.4059 17.6775 21.6608C17.7638 22.1528 18.5005 22.6771 20.822 22.0343ZM74.3936 55.8501C72.6291 55.7604 72.9058 53.4119 74.3936 52.173C76.0395 53.3831 79.0619 52.5859 80.2514 51.6774C80.2305 52.2647 80.2254 52.3918 80.2213 52.519C80.2183 52.6111 80.2158 52.7032 80.2083 52.9702C80.205 53.0218 80.2047 53.0799 80.2043 53.1436C80.2039 53.2217 80.2034 53.3081 80.1975 53.4011C78.5695 54.9488 75.7556 58.3566 73.93 62.3498C72.1008 66.3394 70.1818 71.4206 71.3282 72.4082C72.4746 73.3957 75.9137 69.2625 76.9344 66.8888C77.955 64.5152 77.6783 63.8365 77.15 63.7431C76.6217 63.6497 74.3936 65.1975 74.4547 68.0451C73.5599 67.7076 73.4377 66.2568 74.4906 64.2566C75.7628 61.8435 77.8795 59.9798 78.9468 60.9601C80.2082 62.1236 78.0484 67.6932 74.9506 71.2914C71.8564 74.8895 69.4019 76.3834 68.7479 75.3133C67.853 73.8481 70.1494 68.5443 72.1188 64.3356C70.4189 66.9427 68.7874 68.8639 67.7524 69.1547C66.1568 69.6036 66.7641 67.5855 67.5224 66.4399C68.6005 66.5118 71.9427 62.9926 73.7935 60.8955C73.9875 60.54 74.1852 60.1916 74.3936 59.8541C72.2949 61.8578 69.9554 63.3302 68.6293 62.9208C67.8063 62.6694 66.8648 61.3156 67.7991 59.5632C68.9707 60.188 74.5913 57.7318 77.7897 55.4049C78.3072 54.8411 78.8031 54.3347 79.2631 53.8823C77.707 55.2684 76.2372 55.9435 74.3936 55.8501Z" fill="#EABD63"/>
</mask>
<g mask="url(#mask1_356_33452)">
<rect x="3.11806" y="7.79492" width="91.9817" height="81.0686" fill="#EABD63"/>
<path opacity="0.7" d="M54.488 55.7105C51.3435 46.1513 48.1882 40.693 41.6908 38.2547C53.604 29.7908 68.2556 27.0473 70.6562 34.8612C73.0604 42.6788 62.5344 47.1352 54.488 55.7105Z" fill="#EAEAEA"/>
</g>
<path opacity="0.21" d="M52.7917 85.9646C73.4915 72.7282 61.909 51.6851 82.5549 25.9988C95.5498 45.6343 85.6958 85.2248 52.7917 85.9646Z" fill="#7C3813"/>
<path d="M23.5281 32.8108C37.2741 32.8108 53.5895 46.7977 53.5895 65.2014C53.5895 77.4359 45.1515 84.8621 33.7702 84.8621C22.3889 84.8621 4.33761 73.7121 4.33761 52.9742C4.33761 38.0752 15.7225 32.8108 23.5281 32.8108Z" fill="#EAEAEA"/>
<path d="M38.5211 63.4997L28.951 61.9053V72.5202L23.4059 71.4322V60.9824L14.6013 59.5173V53.6963L23.4059 55.0142V44.5645L28.951 45.2288V55.8437L38.5211 57.2765V63.4997Z" fill="#DD0E1D"/>
</g>
<mask id="mask2_356_33452" style="mask-type:alpha" maskUnits="userSpaceOnUse" x="69" y="0" width="83" height="96">
<path d="M141.826 85.4869C143.893 83.2246 152 65.7078 152 45.6665C152 26.3506 146.369 12.5325 144.665 8.56808C142.063 2.5101 128.008 0 110.676 0C93.3433 0 79.2883 2.5101 76.6828 8.57167C74.9794 12.5361 69.348 26.3542 69.348 45.6701C69.348 65.7114 77.4555 83.2246 79.5219 85.4905C81.5882 87.7528 88.2869 95.8792 110.672 95.8792C133.058 95.8792 139.76 87.7528 141.826 85.4869Z" fill="#DD0E1D"/>
</mask>
<g mask="url(#mask2_356_33452)">
<rect x="69.3773" width="82.6276" height="95.8792" fill="#DD0E1D"/>
<mask id="mask3_356_33452" style="mask-type:alpha" maskUnits="userSpaceOnUse" x="70" y="9" width="82" height="85">
<path fill-rule="evenodd" clip-rule="evenodd" d="M110.676 24.1497C137.104 24.1497 148.453 18.8853 147.756 14.3607C147.152 12.5293 146.092 9.91504 146.092 9.91504C147.695 14.1883 137.032 19.3198 110.672 19.3198C84.3123 19.3198 73.6497 14.1883 75.2525 9.91504C75.2525 9.91504 74.1923 12.5293 73.5886 14.3607C72.8986 18.8889 84.2476 24.1497 110.676 24.1497ZM151.741 33.468C151.22 31.7336 150.318 31.0944 149.822 32.2219C149.664 32.5775 149.56 33.2167 149.488 34.0426C149.41 32.9145 149.313 31.8066 149.223 30.7814C148.988 28.1092 148.803 25.9993 149.143 25.5607C148.431 24.1243 146.505 25.0723 146.405 28.6202C146.324 31.4298 146.63 32.2942 147.139 33.7303C147.223 33.9681 147.313 34.2216 147.407 34.5022C145.844 31.0872 144.439 26.4225 145.445 25.3093C144.245 24.2392 142.142 26.8714 142.98 29.7154C143.407 31.159 144.051 33.2454 145.265 34.732C140.834 34.75 137 37.454 135.131 43.9106C133.262 50.3636 136.597 55.7501 139.634 55.8721C142.671 55.9942 146.131 52.7408 146.969 45.5014C147.342 42.2623 146.394 40.5243 145.29 40.2083C144.176 39.8887 142.304 40.9983 142.577 43.9178C143.267 42.7794 145.74 42.9159 145.459 46.7259C145.255 49.5017 143.695 51.6743 141.805 51.8287C140.461 51.9364 138.581 50.6401 138.179 46.9055C137.643 41.9356 139.925 37.4001 144.529 36.6891C148.4 36.0916 149.191 42.3257 149.519 44.9082L149.545 45.1136C149.571 45.8318 149.592 46.4494 149.599 46.9091C149.648 49.4391 149.562 50.6006 149.493 51.5401V51.5401L149.493 51.5409L149.492 51.5479L149.492 51.55C149.479 51.7284 149.466 51.8988 149.456 52.0693L149.455 52.0823C149.43 52.4734 149.263 55.1352 148.442 58.7018C148.956 55.3874 148.492 53.1358 147.713 52.4392C146.268 51.1608 145.075 53.4195 145.265 54.4896C146.911 52.985 147.831 60.8349 145.395 67.4351C145.323 67.5823 145.247 67.7296 145.172 67.8732C145.88 65.8052 146.015 64.0625 146.091 63.0758L146.103 62.932C146.354 59.6463 145.937 57.7251 144.435 57.0644C143.282 56.558 141.912 57.2008 141.607 58.2817C144.097 59.0933 143.508 70.9579 136.152 77.9567C136.101 77.989 136.051 78.0177 135.997 78.0465C136.827 77.1918 137.582 76.0786 138.193 74.6171C140.601 68.8392 136.878 68.8751 135.76 69.0259C135.76 73.3495 132.022 78.3194 128.519 80.2621C131.128 78.5564 132.953 73.2525 129.672 73.2345C129.974 77.2708 124.99 79.5116 120.562 79.8635C123.883 79.411 126.711 77.2169 125.022 75.0444C122.56 78.1183 113.436 77.0087 108.71 71.6617C106.547 68.2539 105.325 64.7167 104.696 62.5262C104.779 62.6703 104.863 62.8175 104.949 62.9675C107.202 66.9074 110.54 72.7426 119.434 72.7426C126.312 72.7426 130.333 68.6606 133.137 65.815L133.137 65.815C134.503 64.4279 135.58 63.3346 136.558 63.1511C137.568 62.9607 137.74 64.232 137.273 64.785C139.576 64.4295 140.755 62.6232 140.461 60.5656C140.277 59.2836 138.24 57.8831 135.832 59.6463C135.232 60.088 134.035 61.4346 133.525 62.4472C135.228 57.4917 134.786 50.9741 129.431 44.5318C129.852 43.6951 130.075 42.9769 129.072 41.2138C129.798 39.7271 132.978 31.7443 126.007 27.8338C125.672 29.9812 125.241 32.3405 124.907 33.9923C124.586 35.5798 123.903 39.2002 125.93 41.386C124.875 40.4537 122.663 39.6768 120.099 41.0486C117.096 42.6518 115.269 43.0494 114.257 43.2698L114.257 43.2698C114.104 43.3031 113.97 43.3324 113.853 43.3612C115.412 45.5624 120.426 49.7495 125.949 44.8478C126.621 45.7276 127.405 46.3345 128.184 45.6738C131.049 49.2217 132.382 52.5038 132.781 55.5454C131.62 51.6563 128.271 49.078 123.671 49.8465C119.617 50.5216 118.197 53.6888 119.901 56.7735C122.089 54.0048 127.167 54.03 128.084 58.7808C128.971 63.3701 126.937 68.516 121.655 69.8518C122.589 69.1875 124.238 67.4207 124.709 66.1567C126.945 60.1634 121.062 56.5688 117.993 60.6051C120.221 60.3286 121.381 64.4869 119.067 67.3202C116.753 70.1535 114.212 69.7728 112.049 68.8176C109.249 67.2448 107.183 64.1135 105.163 60.3573C106.622 62.2066 108.455 63.7184 110.956 64.7598C115.764 66.76 119.046 61.6931 113.019 57.8041C109.907 61.2012 102.938 55.3299 100.937 52.1806C100.588 51.5342 100.225 50.8879 99.8551 50.2451C101.382 52.0011 103.646 53.2292 104.811 53.3549C107.42 53.6314 109.698 52.2812 108.581 49.0313C103.913 49.2486 101.911 47.6317 99.0942 45.3566C98.0939 44.5486 96.9907 43.6576 95.6289 42.7363C102.41 45.9072 109.86 43.9142 110.223 36.3372C110.464 31.3278 106.805 27.8948 102.924 28.6094C99.1399 29.3061 97.3718 32.9761 98.4212 35.9781C101.088 32.1358 105.903 34.2939 105.716 37.8993C105.451 43.0954 100.545 42.9662 97.379 41.9068C95.0036 41.1132 91.2912 38.8653 87.2447 36.1182C89.6597 37.1021 91.859 37.0231 93.4547 36.488C98.4248 34.8254 97.7276 28.4837 93.1779 27.9523C93.0594 33.2633 86.0264 34.3658 82.5405 32.8216C82.3328 32.6731 82.126 32.5237 81.9192 32.3743L81.9189 32.3741L81.9186 32.3739L81.9183 32.3737L81.9181 32.3735L81.9178 32.3733L81.9175 32.3731L81.9172 32.3729L81.917 32.3727C81.7094 32.2228 81.5019 32.0729 81.2935 31.9239C84.9483 33.1197 89.8286 32.2974 89.71 28.631C89.6417 26.559 87.331 26.8319 86.3283 27.3633C86.1522 31.0226 80.6143 30.5521 78.3934 29.8016L77.9139 29.4463L77.9118 29.4447C77.6148 29.2246 77.3197 29.006 77.0278 28.789C78.7851 29.6257 81.4265 29.8986 82.3716 28.4837C83.5755 26.6775 82.7274 25.7115 80.3052 25.83C80.776 27.7189 75.8311 27.4208 74.1636 26.6523C73.6985 26.3041 73.2462 25.9649 72.8086 25.6368L72.8084 25.6366L72.8074 25.6359L72.807 25.6356L72.8066 25.6353C71.9499 24.9929 71.1501 24.393 70.4225 23.8514C70.3578 24.1602 70.3111 24.3972 70.3111 24.3972C70.3111 24.3972 70.3686 24.4403 70.4656 24.5157C70.5627 24.6486 70.7244 24.7491 70.9292 24.864C71.1907 25.0607 71.5343 25.3207 71.9493 25.6347L72.4637 26.0239C73.2795 26.9396 74.1492 28.5879 74.7134 31.8485C75.2381 34.8829 74.9003 37.3858 74.0989 37.1595C73.8329 38.0609 74.8428 39.5116 75.5651 39.5404C77.7824 39.763 77.9549 36.9118 77.0925 33.073C76.5714 30.7712 75.5076 28.7171 73.5778 26.8642C74.2032 27.3395 74.9086 27.8794 75.6798 28.4697L75.6807 28.4704L75.867 28.613C77.4123 30.2182 78.627 31.8377 79.3888 38.0214C79.8956 42.1331 77.9406 42.4275 77.477 42.0361C77.2254 43.4833 78.2388 45.11 79.5326 45.2572C80.8263 45.4044 83.4929 44.7617 82.8496 39.3177C82.4148 35.6334 81.3798 33.3747 79.6763 31.5504C80.1828 31.945 80.7052 32.351 81.24 32.7665L81.2451 32.7705L81.6529 33.0874C87.8664 40.1724 85.146 47.5195 82.9897 47.5339C83.3563 51.8287 89.9508 52.2955 89.5411 45.6343C89.2788 41.3969 88.1467 38.6678 85.5305 36.1253C86.3571 36.7789 87.2016 37.4468 88.0569 38.1255C90.9247 40.334 92.894 53.9833 87.5214 53.161C87.6508 54.7913 89.3111 56.9925 91.7764 56.7591C96.5093 56.3138 96.6603 51.3296 95.5893 48.1515C94.8993 46.1083 94.044 43.846 92.1969 41.6555C93.5948 42.9949 94.8347 44.3702 95.9307 45.7707C97.8138 48.6076 99.5101 52.8234 97.1634 58.4397C97.0826 58.4397 97.0002 58.4317 96.9161 58.4236C96.349 58.3687 95.7034 58.3063 94.9461 60.6266C94.8123 60.5705 94.6227 60.4698 94.3885 60.3453C92.4329 59.306 87.3589 56.6094 85.5521 64.3828C87.3813 63.3845 88.6822 63.2875 90.3209 64.3828C91.9597 65.478 95.5642 65.5139 96.4806 62.4688C96.4637 62.8923 96.431 63.2813 96.4 63.6509C96.2594 65.3249 96.1521 66.603 97.6917 68.9002C99.4988 71.5967 99.2362 73.2077 99.0855 74.1322L99.0681 74.24C100.754 72.6241 102.518 69.6902 101.167 65.9808C99.8191 62.2713 99.0393 62.7668 99.0393 62.7668C99.3771 61.1006 99.2334 60.3896 98.511 59.341L98.5241 59.2867C98.9103 57.6857 99.8507 53.7872 98.529 49.5413C101.72 54.8774 103.039 60.2891 103.147 64.8783C103.323 72.3548 100.516 77.0123 96.5956 79.1166C91.7656 79.8025 86.9321 76.6927 86.6625 74.3334C85.2502 74.5955 85.3221 76.6603 86.181 78.147C86.3571 78.4522 86.5727 78.7467 86.8242 79.0304C83.8522 76.5778 81.7679 71.9597 81.7679 70.4803C80.643 70.1607 79.9063 71.1841 79.8021 72.4517C79.7159 73.511 80.1471 74.9151 80.927 76.1756L80.9225 76.1713L80.9178 76.1671L80.9108 76.1612C80.9054 76.1567 80.9 76.1522 80.8946 76.1468C78.1023 72.2758 77.6567 67.0616 78.2748 66.6092C78.3035 66.0526 76.3989 65.2769 76.0934 67.076C75.9856 67.7044 76.0467 68.595 76.3665 69.6507C76.3622 69.6379 76.3567 69.6263 76.3513 69.6152C76.3477 69.6078 76.3443 69.6005 76.3414 69.5933C69.8727 54.4824 74.9901 49.7316 78.857 54.7266C82.253 59.1148 80.5927 64.6377 78.6773 62.8315C79.166 67.8193 85.3005 66.2285 84.4308 59.3159C83.5396 52.2058 78.9792 48.3024 76.0647 48.3024C73.1501 48.3024 70.5303 52.8916 72.9237 62.0702C75.3207 71.2487 81.1426 81.5369 89.8789 81.5369C95.2623 81.5369 104.61 80.0682 104.433 65.1117C106.442 72.0711 112.196 84.4061 129.201 81.2819C147.9 77.8454 149.995 54.1952 150.131 51.8538C150.164 51.2997 150.207 50.3449 150.259 49.2013L150.26 49.1958L150.26 49.1948L150.26 49.1941L150.26 49.1939C150.428 45.5052 150.686 39.8595 150.943 39.35C151.281 38.6821 151.989 39.2782 152 39.7522C151.946 37.6156 151.741 33.468 151.741 33.468ZM120.382 37.5511C119.915 37.1022 119.782 36.2404 120.07 35.7053C121.094 33.8057 124.702 35.7412 123.333 39.3286C123.216 39.0424 122.7 38.813 122.102 38.5468C121.507 38.282 120.83 37.9808 120.382 37.5511ZM111.517 52.4286C112.243 54.4108 114.291 53.9512 116.02 52.1701C117.522 50.6224 118.909 49.9796 120.533 49.3907C115.042 46.2306 110.59 49.8934 111.517 52.4286ZM136.802 34.0646C134.297 34.9587 133.528 33.4864 133.086 32.2762C132.572 30.865 132.91 28.9977 134.998 28.6278C138.649 27.9742 141.37 31.321 143.167 33.7414C140.518 32.9406 139.102 33.2422 136.802 34.0646ZM123.822 27.3959C123.063 25.8949 118.639 26.096 118.277 30.4698C116.559 28.7066 112.545 30.398 113.96 34.0679C111.959 35.2494 110.676 37.3968 112.218 39.8315C113.613 42.03 115.58 41.2677 117.964 40.3435C118.816 40.0133 119.722 39.6624 120.674 39.4185C118.862 38.7111 117.604 36.5242 119.225 34.5384C120.842 32.5525 123.225 33.7376 123.944 34.9477C123.832 33.144 124.045 32.0006 124.218 31.0702C124.451 29.8222 124.612 28.9573 123.822 27.3959ZM95.1832 65.6364C95.7331 67.2128 95.3342 68.721 94.8454 69.353C94.1087 70.3082 92.9983 70.3046 92.3334 69.5038C91.6219 68.6492 91.7728 67.7299 92.5275 67.0117C92.8651 66.6882 93.4486 66.4481 94.0093 66.2174C94.4631 66.0306 94.9019 65.85 95.1832 65.6364ZM85.4407 67.1159C83.7516 70.4519 86.8566 72.0714 88.1324 71.6225C87.4639 72.8866 89.0308 76.1292 91.8914 73.8741C92.47 75.8132 93.6918 76.8474 95.6828 75.9461C97.6737 75.0448 98.6835 71.6082 96.1643 68.8144C95.9092 70.7715 94.0081 72.9189 91.7009 70.872C89.3938 68.8252 91.5572 66.6347 91.895 66.333C91.544 66.302 91.087 66.139 90.5718 65.9553L90.5717 65.9553C88.9401 65.3734 86.7244 64.5832 85.4407 67.1159ZM105.026 81.1424C104.613 81.7996 104.06 82.3885 103.323 82.8912C101.842 83.8967 99.5891 84.3851 98.7554 82.2377C102.874 82.0007 105.224 78.4815 105.256 71.0446C108.322 81.7816 111.855 82.033 115.793 82.2521C115.488 84.3887 113.091 84.4964 111.391 83.8069C110.079 83.2755 109.059 82.4675 108.246 81.4261C108.243 82.4783 107.912 83.4981 107.057 84.6688C105.914 83.5376 105.314 82.367 105.026 81.1424ZM143.163 48.6868C143.954 48.6473 144.202 47.6347 144.241 46.9632C144.281 46.2881 144.108 45.121 143.407 45.1246C142.707 45.1282 142.308 46.2917 142.254 46.9739C142.203 47.6526 142.372 48.7263 143.163 48.6868ZM103.273 38.1513C103.273 39.1727 102.533 40.0007 101.62 40.0007C100.707 40.0007 99.9665 39.1727 99.9665 38.1513C99.9665 37.1299 100.707 36.3019 101.62 36.3019C102.533 36.3019 103.273 37.1299 103.273 38.1513ZM77.5596 56.4147C76.8265 56.0413 76.1293 56.5476 75.9999 57.5387C75.8706 58.5334 76.3629 59.643 77.096 60.0129C77.8291 60.3863 78.5263 59.88 78.6557 58.8889C78.7851 57.8978 78.2927 56.7882 77.5596 56.4147ZM73.9336 75.3213C79.0079 81.9826 92.2652 89.0568 110.906 89.0568C129.546 89.0568 142.804 81.9826 147.871 75.3213C147.486 76.1004 147.062 77.1516 146.653 78.1652C146.161 79.3849 145.691 80.55 145.337 81.1208C141.938 85.4515 127.832 93.0321 110.902 93.0321C93.9722 93.0321 79.8668 85.4515 76.4672 81.1208C76.1189 80.555 75.6547 79.405 75.1671 78.1968C74.754 77.1735 74.3242 76.1085 73.9336 75.3213Z" fill="#EABD63"/>
</mask>
<g mask="url(#mask3_356_33452)">
<rect x="70.1555" y="9.35449" width="81.8481" height="84.1866" fill="#EABD63"/>
<path opacity="0.7" d="M89.7315 14.7809C88.0641 40.442 96.2649 57.2227 109.335 57.2227C122.406 57.2227 133.334 49.1502 132.874 13.3948C120.461 17.9589 100.567 18.1205 89.7315 14.7809Z" fill="#EAEAEA"/>
</g>
<path opacity="0.3" d="M73.8114 14.7627C68.7551 46.0473 78.6773 76.8472 94.7916 94.5399C90.2599 94.6297 84.6501 95.8794 78.5623 89.4192C70.2537 71.985 62.1283 40.8943 73.8114 14.7627Z" fill="#7C3813"/>
<path d="M139.584 8.08717C139.584 11.434 126.344 13.3946 110.309 13.3946C94.2741 13.3946 81.768 10.6799 81.768 7.33306C81.768 3.98627 94.2741 1.27148 110.309 1.27148C126.344 1.27148 139.584 4.74037 139.584 8.08717Z" fill="#EAEAEA"/>
<path d="M105.497 8.94918L104.099 9.73201L111.362 10.0983L109.299 11.2618L102.022 10.8919L99.7581 12.1595L94.2525 11.8794L96.5309 10.6118L93.2606 10.4466L95.3594 9.28314L98.6225 9.44832L100.028 8.66549L96.7717 8.5003L99.9557 6.73713L103.201 6.90232L111.693 2.18018L121.748 2.6901C124.911 2.85169 126.901 3.2467 127.721 3.88589C128.54 4.52509 128.019 5.37615 126.147 6.43908C124.282 7.49842 121.96 8.2633 119.182 8.73013C116.397 9.19695 113.403 9.34777 110.201 9.18618L105.497 8.94918ZM121.328 5.0386C120.954 4.75132 120.016 4.56818 118.507 4.49277L113.878 4.25935L108.653 7.18241L113.306 7.41942C114.823 7.49483 116.214 7.4266 117.479 7.21473C118.74 7.00286 119.797 6.65454 120.645 6.17694C121.471 5.70652 121.698 5.32947 121.328 5.0386Z" fill="#DD0E1D"/>
</g>
</svg>
