<svg width="12" height="12" viewBox="0 0 12 12" fill="none" xmlns="http://www.w3.org/2000/svg">
<path fill-rule="evenodd" clip-rule="evenodd" d="M11.0504 5.60766C11.0504 6.70137 11.0504 7.43899 11.0251 7.84595C10.9745 8.83792 10.6965 9.60097 10.1403 10.1351C9.58413 10.6692 8.851 10.9745 7.86507 11.0253C7.46059 11.0508 6.70218 11.0508 5.64041 11.0508C4.55336 11.0508 3.82023 11.0508 3.41575 11.0253C2.42982 10.9745 1.67141 10.6947 1.14053 10.1351C0.609642 9.60097 0.306279 8.83792 0.255718 7.84595C0.230438 7.43899 0.230438 6.67594 0.230438 5.60766C0.230438 4.53939 0.230438 3.77633 0.255718 3.36937C0.306279 2.3774 0.584362 1.61435 1.14053 1.08021C1.67141 0.546077 2.42982 0.240856 3.41575 0.189986C3.82023 0.164551 4.57864 0.164551 5.64041 0.164551C6.72746 0.164551 7.46059 0.164551 7.86507 0.189986C8.851 0.240856 9.60941 0.520642 10.1403 1.08021C10.6712 1.63979 10.9745 2.3774 11.0251 3.36937C11.0251 3.52356 11.0287 3.72522 11.0332 3.97572V3.9758C11.0406 4.38646 11.0504 4.92838 11.0504 5.60766ZM6.17126 1.13088H5.64038H5.10949H4.37637C4.19941 1.13088 3.97189 1.13088 3.69381 1.15632C3.41572 1.15632 3.16292 1.18175 2.96068 1.23262C2.75844 1.25806 2.58148 1.30893 2.45508 1.3598C2.22756 1.46154 2.02532 1.58872 1.82308 1.76677C1.64611 1.94482 1.51971 2.1483 1.41859 2.40266C1.36803 2.52984 1.31747 2.70788 1.29219 2.91137C1.26691 3.11485 1.24163 3.34377 1.21635 3.649C1.21635 3.80463 1.20853 3.94453 1.20159 4.06868L1.20159 4.06869L1.20159 4.06869C1.19605 4.16773 1.19107 4.25675 1.19107 4.33576V5.07339V5.60753V6.14168V6.87931C1.19107 7.05736 1.19107 7.28628 1.21635 7.56607C1.21635 7.84586 1.24163 8.10021 1.29219 8.3037C1.3101 8.37578 1.32484 8.44467 1.33866 8.50924C1.36384 8.62694 1.38594 8.73028 1.41859 8.81241C1.51971 9.04133 1.64611 9.24481 1.82308 9.4483C2.00004 9.62634 2.20228 9.75352 2.45508 9.85526C2.58148 9.90613 2.75844 9.95701 2.96068 9.98244C3.16292 10.0079 3.39044 10.0333 3.69381 10.0587C3.99717 10.0842 4.19941 10.0842 4.37637 10.0842H5.10949H5.64038H6.17126H6.90438C7.08134 10.0842 7.30887 10.0842 7.58695 10.0587C7.86503 10.0587 8.11783 10.0333 8.32007 9.98244C8.52231 9.95701 8.69927 9.90613 8.82567 9.85526C9.05319 9.75352 9.25544 9.62634 9.45768 9.4483C9.63464 9.27025 9.76104 9.06676 9.86216 8.81241C9.91272 8.68523 9.96328 8.50718 9.98856 8.3037C10.0138 8.10021 10.0391 7.87129 10.0644 7.56607C10.0644 7.41047 10.0722 7.2706 10.0792 7.14647V7.14645V7.14643L10.0792 7.14638V7.14636V7.14634V7.14632C10.0847 7.04731 10.0897 6.9583 10.0897 6.87931V6.14168V5.60753V5.07339V4.33576C10.0897 4.15771 10.0897 3.92879 10.0644 3.649C10.0644 3.36921 10.0391 3.11485 9.98856 2.91137C9.96328 2.70788 9.91272 2.52984 9.86216 2.40266C9.76104 2.17374 9.63464 1.97025 9.45768 1.76677C9.28072 1.58872 9.07847 1.46154 8.82567 1.3598C8.69927 1.30893 8.52231 1.25806 8.32007 1.23262C8.11783 1.20719 7.89031 1.18175 7.58695 1.15632C7.43226 1.15632 7.29322 1.14845 7.16983 1.14146C7.07139 1.13589 6.98291 1.13088 6.90438 1.13088H6.17126ZM8.39618 5.60791C8.39618 4.81941 8.1181 4.15808 7.58722 3.62393C7.05634 3.06435 6.39906 2.80999 5.61537 2.80999C4.83169 2.80999 4.17441 3.08978 3.64353 3.62393C3.11264 4.18352 2.83456 4.81941 2.83456 5.60791C2.83456 6.39642 3.11264 7.05774 3.64353 7.59189C4.19969 8.12604 4.83169 8.40583 5.61537 8.40583C6.39906 8.40583 7.05634 8.12604 7.58722 7.59189C8.1181 7.03231 8.39618 6.39642 8.39618 5.60791ZM6.90438 6.87944C7.2583 6.52335 7.43526 6.09095 7.43526 5.60769C7.43526 5.12442 7.2583 4.66659 6.90438 4.31049C6.55047 3.9544 6.12071 3.77636 5.61512 3.77636C5.10952 3.77636 4.67976 3.9544 4.32585 4.31049C3.97193 4.66659 3.79497 5.09898 3.79497 5.60769C3.79497 6.11639 3.97193 6.54879 4.32585 6.87944C4.67976 7.23554 5.10952 7.41358 5.61512 7.41358C6.12071 7.41358 6.55047 7.23554 6.90438 6.87944ZM9.17965 2.68271C9.17965 2.50465 9.10381 2.35203 8.97741 2.22485C8.851 2.09766 8.69931 2.02135 8.52235 2.02135C8.34538 2.02135 8.1937 2.09766 8.06729 2.22485C7.94089 2.35203 7.86504 2.50465 7.86504 2.68271C7.86504 2.86077 7.94089 3.01339 8.06729 3.14057C8.1937 3.26776 8.34538 3.34407 8.52235 3.34407C8.69931 3.34407 8.851 3.26776 8.97741 3.14057C9.10381 3.01339 9.17965 2.86077 9.17965 2.68271Z" fill="#2C2F31"/>
</svg>
