<svg width="8" height="14" viewBox="0 0 8 14" fill="none" xmlns="http://www.w3.org/2000/svg">
<path fill-rule="evenodd" clip-rule="evenodd" d="M3.90931 0.803955C2.04415 0.803955 0.532185 2.30378 0.532185 4.15386C0.532185 6.00398 2.04415 7.50391 3.90931 7.50391C5.77446 7.50391 7.28643 6.00398 7.28643 4.15386C7.28643 2.30378 5.77446 0.803955 3.90931 0.803955ZM3.90961 5.53855C3.13862 5.53855 2.51358 4.91852 2.51358 4.15376C2.51358 3.38901 3.13862 2.76903 3.90961 2.76903C4.6806 2.76903 5.30563 3.38901 5.30563 4.15376C5.30563 4.91852 4.6806 5.53855 3.90961 5.53855ZM7.3067 9.22721C7.26383 9.2613 6.45365 9.8964 5.10166 10.1696L7.14243 12.1759C7.50132 12.5313 7.50175 13.108 7.14345 13.464C6.78514 13.82 6.20384 13.8206 5.84485 13.465L3.86357 11.5512L2.06406 13.4527C1.88389 13.6381 1.64355 13.7313 1.40297 13.7313C1.1735 13.7313 0.943846 13.6466 0.765658 13.4762C0.400584 13.127 0.39 12.5504 0.742026 12.1883L2.67909 10.1802C1.2892 9.91341 0.445578 9.26178 0.40213 9.22721C0.00651181 8.91249 -0.0570403 8.33924 0.260237 7.94676C0.577467 7.55433 1.15533 7.49129 1.55105 7.80596C1.55941 7.81267 2.44179 8.47021 3.86353 8.47117C5.28531 8.47021 6.14942 7.81267 6.15778 7.80596C6.5535 7.49129 7.13136 7.55433 7.44859 7.94676C7.76587 8.33924 7.70232 8.91249 7.3067 9.22721Z" fill="#2C2F31"/>
</svg>
