<svg width="12" height="11" viewBox="0 0 12 11" fill="none" xmlns="http://www.w3.org/2000/svg">
<path fill-rule="evenodd" clip-rule="evenodd" d="M11.6901 1.37258C11.2709 1.57758 10.8196 1.71592 10.3464 1.77835C10.829 1.45947 11.2004 0.955001 11.3751 0.352673C10.923 0.647932 10.4224 0.862205 9.88879 0.977778C9.46256 0.477525 8.85376 0.164551 8.18071 0.164551C6.88869 0.164551 5.84033 1.31775 5.84033 2.74089C5.84033 2.94336 5.86149 3.13992 5.90145 3.32804C3.95675 3.22006 2.23221 2.19509 1.07808 0.636121C0.876719 1.01658 0.760757 1.45947 0.760757 1.93104C0.760757 2.82525 1.17446 3.61402 1.80206 4.07546C1.41813 4.06281 1.05771 3.94639 0.741953 3.75405C0.741953 3.76418 0.741953 3.77514 0.741953 3.78611C0.741953 5.03379 1.5482 6.07563 2.61927 6.31268C2.42261 6.37089 2.21576 6.40295 2.00264 6.40295C1.85142 6.40295 1.7049 6.38692 1.5623 6.35655C1.86004 7.37983 2.72426 8.12473 3.74833 8.14582C2.94757 8.83672 1.93839 9.2484 0.842244 9.2484C0.653415 9.2484 0.466936 9.23575 0.283592 9.21212C1.31941 9.94352 2.54954 10.3704 3.87134 10.3704C8.17523 10.3704 10.5289 6.44428 10.5289 3.03953C10.5289 2.92817 10.5274 2.81682 10.5227 2.70631C10.9795 2.34356 11.3767 1.88971 11.6901 1.37258Z" fill="#2C2F31"/>
</svg>
