<svg width="13" height="8" viewBox="0 0 13 8" fill="none" xmlns="http://www.w3.org/2000/svg">
<path fill-rule="evenodd" clip-rule="evenodd" d="M10.247 3.54182C10.247 3.54182 11.7954 1.38204 11.9494 0.672245C12.0006 0.418766 11.8878 0.276739 11.6211 0.276739H10.2778C9.97011 0.276739 9.85727 0.408603 9.76502 0.601274C9.76502 0.601274 9.03867 2.13146 8.15498 3.09571C7.87125 3.40748 7.72701 3.5013 7.57041 3.5013C7.44413 3.5013 7.38583 3.39715 7.38583 3.11596V0.651962C7.38583 0.307228 7.34485 0.205811 7.0577 0.205811H4.90416C4.74005 0.205811 4.63753 0.300139 4.63753 0.428886C4.63753 0.75355 5.14 0.826827 5.14 1.70653V3.52154C5.14 3.8866 5.11949 4.02854 4.94515 4.02854C4.4837 4.02854 3.38642 2.45689 2.77114 0.672245C2.64806 0.307228 2.51474 0.205811 2.1661 0.205811H0.822693C0.627879 0.205811 0.484283 0.337589 0.484283 0.530261C0.484283 0.885157 0.904704 2.52782 2.55581 4.72821C3.66333 6.20865 5.11949 7.0097 6.43214 7.0097C7.232 7.0097 7.42686 6.87792 7.42686 6.54326V5.40756C7.42686 5.12364 7.53971 5.00198 7.70373 5.00198C7.88831 5.00198 8.21411 5.06061 8.97536 5.80302C9.87778 6.6548 9.93936 7.0097 10.4316 7.0097H11.9391C12.0929 7.0097 12.2365 6.93873 12.2365 6.68521C12.2365 6.35055 11.7954 5.75238 11.1187 5.04254C10.8417 4.67753 10.3905 4.28206 10.247 4.09955C10.0419 3.8866 10.1034 3.7649 10.247 3.54182Z" fill="#2C2F31"/>
</svg>
