<svg width="13" height="9" viewBox="0 0 13 9" fill="none" xmlns="http://www.w3.org/2000/svg">
<path fill-rule="evenodd" clip-rule="evenodd" d="M11.6651 0.775133C12.1865 0.90961 12.5976 1.30344 12.738 1.80292C12.9986 2.71544 12.9886 4.61733 12.9886 4.61733C12.9886 4.61733 12.9886 6.50961 12.738 7.42213C12.5976 7.92162 12.1865 8.31544 11.6651 8.44992C10.7126 8.69006 6.90256 8.69006 6.90256 8.69006C6.90256 8.69006 3.10253 8.69006 2.13999 8.44031C1.61861 8.30584 1.20753 7.91201 1.06716 7.41253C0.816498 6.50961 0.816498 4.60772 0.816498 4.60772C0.816498 4.60772 0.816498 2.71544 1.06716 1.80292C1.20753 1.30344 1.62864 0.900005 2.13999 0.765528C3.0925 0.525391 6.90256 0.525391 6.90256 0.525391C6.90256 0.525391 10.7126 0.525391 11.6651 0.775133ZM8.81825 4.60828L5.66553 6.35646V2.8601L8.81825 4.60828Z" fill="#2C2F31"/>
</svg>
