<svg width="88" height="54" viewBox="0 0 88 54" fill="none" xmlns="http://www.w3.org/2000/svg">
<path d="M52.2863 12.0438L36.6091 11.8273L32.5779 1.43309C32.5779 1.21655 32.5778 1 33.0258 1C35.0414 1 37.057 1.21655 39.0727 3.16545C40.1925 1.86618 41.3123 1 44.6717 1C48.031 1 49.1508 1.86618 50.2706 3.382C52.2863 1.43309 54.3019 1.21655 56.5415 1.21655C56.7654 1.21655 56.9894 1.43309 56.9894 1.64964L52.2863 12.0438Z" fill="#050219"/>
<path d="M52.2863 12.0438L36.6091 11.8273L32.5779 1.43309C32.5779 1.21655 32.5778 1 33.0258 1C35.0414 1 37.057 1.21655 39.0727 3.16545C40.1925 1.86618 41.3123 1 44.6717 1C48.031 1 49.1508 1.86618 50.2706 3.382C52.2863 1.43309 54.3019 1.21655 56.5415 1.21655C56.7654 1.21655 56.9894 1.43309 56.9894 1.64964L52.2863 12.0438Z" stroke="black" stroke-width="2" stroke-miterlimit="10"/>
<path d="M52.2863 12.0438L36.6091 11.8273L32.5779 1.43309C32.5779 1.21655 32.5778 1 33.0258 1C35.0414 1 37.057 1.21655 39.0727 3.16545C40.1925 1.86618 41.3123 1 44.6717 1C48.031 1 49.1508 1.86618 50.2706 3.382C52.2863 1.43309 54.3019 1.21655 56.5415 1.21655C56.7654 1.21655 56.9894 1.43309 56.9894 1.64964L52.2863 12.0438Z" stroke="#FFCA42" stroke-width="2" stroke-miterlimit="10"/>
<path d="M52.2868 12.0438H44.4482H36.6097C32.1305 16.3747 25.1878 23.9537 25.1878 31.3162C24.9638 41.7102 33.4742 50.372 44.0003 51.0216C54.5264 50.5885 63.2607 42.1433 63.2607 31.7493C63.2607 24.1702 56.542 16.3747 52.2868 12.0438Z" fill="#050219"/>
<path d="M52.2868 12.0438H44.4482H36.6097C32.1305 16.3747 25.1878 23.9537 25.1878 31.3162C24.9638 41.7102 33.4742 50.372 44.0003 51.0216C54.5264 50.5885 63.2607 42.1433 63.2607 31.7493C63.2607 24.1702 56.542 16.3747 52.2868 12.0438Z" stroke="black" stroke-width="2" stroke-miterlimit="10"/>
<path d="M52.2868 12.0438H44.4482H36.6097C32.1305 16.3747 25.1878 23.9537 25.1878 31.3162C24.9638 41.7102 33.4742 50.372 44.0003 51.0216C54.5264 50.5885 63.2607 42.1433 63.2607 31.7493C63.2607 24.1702 56.542 16.3747 52.2868 12.0438Z" stroke="#FFCA42" stroke-width="2" stroke-miterlimit="10"/>
<path d="M60.3488 22.4378C61.6925 20.922 62.8123 19.8393 63.9321 18.7566H70.6509H77.3697C81.177 22.6544 86.9999 29.1507 86.9999 35.8636C86.776 44.9584 79.3853 52.1043 70.203 52.5374C64.7402 52.1311 60.0658 49.4378 57.1046 45.5302" stroke="black" stroke-width="2" stroke-miterlimit="10"/>
<path d="M60.3488 22.4378C61.6925 20.922 62.8123 19.8393 63.9321 18.7566H70.6509H77.3697C81.177 22.6544 86.9999 29.1507 86.9999 35.8636C86.776 44.9584 79.3853 52.1043 70.203 52.5374C64.7402 52.1311 60.0658 49.4378 57.1046 45.5302" stroke="#FFCA42" stroke-width="2" stroke-miterlimit="10"/>
<path d="M63.9317 18.7564L77.5932 18.973L81.4005 10.0947C81.4005 9.87816 81.4005 9.66161 81.1765 9.66161C79.3848 9.66161 77.5932 9.87816 75.8015 11.394C74.9057 10.3112 73.7859 9.44507 70.8744 9.44507C67.9629 9.44507 66.8431 10.0947 65.9473 11.394C64.1556 9.66161 62.364 9.44507 60.5723 9.44507C60.3483 9.44507 60.1244 9.66161 60.3483 9.87816L63.9317 18.7564Z" fill="#050219"/>
<path d="M63.9317 18.7564L77.5932 18.973L81.4005 10.0947C81.4005 9.87816 81.4005 9.66161 81.1765 9.66161C79.3848 9.66161 77.5932 9.87816 75.8015 11.394C74.9057 10.3112 73.7859 9.44507 70.8744 9.44507C67.9629 9.44507 66.8431 10.0947 65.9473 11.394C64.1556 9.66161 62.364 9.44507 60.5723 9.44507C60.3483 9.44507 60.1244 9.66161 60.3483 9.87816L63.9317 18.7564Z" stroke="black" stroke-width="2" stroke-miterlimit="10"/>
<path d="M63.9317 18.7564L77.5932 18.973L81.4005 10.0947C81.4005 9.87816 81.4005 9.66161 81.1765 9.66161C79.3848 9.66161 77.5932 9.87816 75.8015 11.394C74.9057 10.3112 73.7859 9.44507 70.8744 9.44507C67.9629 9.44507 66.8431 10.0947 65.9473 11.394C64.1556 9.66161 62.364 9.44507 60.5723 9.44507C60.3483 9.44507 60.1244 9.66161 60.3483 9.87816L63.9317 18.7564Z" stroke="#FFCA42" stroke-width="2" stroke-miterlimit="10"/>
<path d="M23.8437 18.7568H10.4062L6.37494 9.87851C6.37494 9.66197 6.37494 9.44543 6.5989 9.44543C8.39056 9.44543 10.1822 9.66197 11.9739 11.1778C13.0937 10.3116 13.9895 9.44543 16.901 9.22888C19.8124 9.22888 20.9322 9.87851 21.828 11.1778C23.6197 9.44542 25.4114 9.22888 27.203 9.22888C27.427 9.22888 27.651 9.44543 27.427 9.66197L23.8437 18.7568Z" fill="#050219"/>
<path d="M23.8437 18.7568H10.4062L6.37494 9.87851C6.37494 9.66197 6.37494 9.44543 6.5989 9.44543C8.39056 9.44543 10.1822 9.66197 11.9739 11.1778C13.0937 10.3116 13.9895 9.44543 16.901 9.22888C19.8124 9.22888 20.9322 9.87851 21.828 11.1778C23.6197 9.44542 25.4114 9.22888 27.203 9.22888C27.427 9.22888 27.651 9.44543 27.427 9.66197L23.8437 18.7568Z" stroke="black" stroke-width="2" stroke-miterlimit="10"/>
<path d="M23.8437 18.7568H10.4062L6.37494 9.87851C6.37494 9.66197 6.37494 9.44543 6.5989 9.44543C8.39056 9.44543 10.1822 9.66197 11.9739 11.1778C13.0937 10.3116 13.9895 9.44543 16.901 9.22888C19.8124 9.22888 20.9322 9.87851 21.828 11.1778C23.6197 9.44542 25.4114 9.22888 27.203 9.22888C27.427 9.22888 27.651 9.44543 27.427 9.66197L23.8437 18.7568Z" stroke="#FFCA42" stroke-width="2" stroke-miterlimit="10"/>
<path d="M27.6511 22.4378C26.3074 20.922 25.1876 19.8393 24.0678 18.7566H17.349H10.6302C6.82294 22.6544 1 29.1507 1 35.8636C1.22396 44.9584 8.61461 52.1043 17.7969 52.5374C23.6199 52.1043 28.547 49.0727 31.4584 44.7418" fill="#050219"/>
<path d="M27.6511 22.4378C26.3074 20.922 25.1876 19.8393 24.0678 18.7566H17.349H10.6302C6.82294 22.6544 1 29.1507 1 35.8636C1.22396 44.9584 8.61461 52.1043 17.7969 52.5374C23.6199 52.1043 28.547 49.0727 31.4584 44.7418" stroke="black" stroke-width="2" stroke-miterlimit="10"/>
<path d="M27.6511 22.4378C26.3074 20.922 25.1876 19.8393 24.0678 18.7566H17.349H10.6302C6.82294 22.6544 1 29.1507 1 35.8636C1.22396 44.9584 8.61461 52.1043 17.7969 52.5374C23.6199 52.1043 28.547 49.0727 31.4584 44.7418" stroke="#FFCA42" stroke-width="2" stroke-miterlimit="10"/>
<path d="M66.1719 38.0292H68.1876H68.6355H73.3386H66.1719ZM66.1719 34.9976H68.8594H72.4428C75.1303 34.9976 76.9219 33.4818 76.9219 31.0998C76.9219 28.7178 75.3542 27.202 72.6667 27.202H68.4115L68.1876 27.4186V41.2774" fill="#050219"/>
<path d="M66.1719 34.9976H68.8594H72.4428C75.1303 34.9976 76.9219 33.4818 76.9219 31.0998C76.9219 28.7178 75.3542 27.202 72.6667 27.202H68.4115L68.1876 27.4186V41.2774M66.1719 38.0292H68.1876H68.6355H73.3386H66.1719Z" stroke="black" stroke-width="2" stroke-miterlimit="10" stroke-linecap="round" stroke-linejoin="round"/>
<path d="M66.1719 34.9976H68.8594H72.4428C75.1303 34.9976 76.9219 33.4818 76.9219 31.0998C76.9219 28.7178 75.3542 27.202 72.6667 27.202H68.4115L68.1876 27.4186V41.2774M66.1719 38.0292H68.1876H68.6355H73.3386H66.1719Z" stroke="#FFCA42" stroke-width="2" stroke-miterlimit="10" stroke-linecap="round" stroke-linejoin="round"/>
<path d="M39.8766 34.009H41.8922H42.3401H47.0432H39.8766ZM39.8766 30.9774H42.5641H46.1474C48.8349 30.9774 50.6266 29.4616 50.6266 27.0797C50.6266 24.6977 49.0589 23.1819 46.3713 23.1819H42.1161L41.8922 23.3984V37.2572" fill="#050219"/>
<path d="M39.8766 30.9774H42.5641H46.1474C48.8349 30.9774 50.6266 29.4616 50.6266 27.0797C50.6266 24.6977 49.0589 23.1819 46.3713 23.1819H42.1161L41.8922 23.3984V37.2572M39.8766 34.009H41.8922H42.3401H47.0432H39.8766Z" stroke="black" stroke-width="2" stroke-miterlimit="10" stroke-linecap="round" stroke-linejoin="round"/>
<path d="M39.8766 30.9774H42.5641H46.1474C48.8349 30.9774 50.6266 29.4616 50.6266 27.0797C50.6266 24.6977 49.0589 23.1819 46.3713 23.1819H42.1161L41.8922 23.3984V37.2572M39.8766 34.009H41.8922H42.3401H47.0432H39.8766Z" stroke="#FFCA42" stroke-width="2" stroke-miterlimit="10" stroke-linecap="round" stroke-linejoin="round"/>
<path d="M11.7496 38.0292H13.7653H14.2132H18.9163H11.7496ZM11.7496 34.9976H14.4371H18.0205C20.708 34.9976 22.4996 33.4818 22.4996 31.0998C22.4996 28.7178 20.9319 27.202 18.2444 27.202H13.9892L13.7653 27.4186V41.2774" fill="#050219"/>
<path d="M11.7496 34.9976H14.4371H18.0205C20.708 34.9976 22.4996 33.4818 22.4996 31.0998C22.4996 28.7178 20.9319 27.202 18.2444 27.202H13.9892L13.7653 27.4186V41.2774M11.7496 38.0292H13.7653H14.2132H18.9163H11.7496Z" stroke="black" stroke-width="2" stroke-miterlimit="10" stroke-linecap="round" stroke-linejoin="round"/>
<path d="M11.7496 34.9976H14.4371H18.0205C20.708 34.9976 22.4996 33.4818 22.4996 31.0998C22.4996 28.7178 20.9319 27.202 18.2444 27.202H13.9892L13.7653 27.4186V41.2774M11.7496 38.0292H13.7653H14.2132H18.9163H11.7496Z" stroke="#FFCA42" stroke-width="2" stroke-miterlimit="10" stroke-linecap="round" stroke-linejoin="round"/>
</svg>
