<svg width="83" height="56" viewBox="0 0 83 56" fill="none" xmlns="http://www.w3.org/2000/svg">
<path d="M27.1346 37.5218H32.2318M63.6323 27.0508V11.5912C63.6323 10.1303 62.1902 8.85205 60.542 8.85205H25.5184C23.8702 8.85205 22.4281 10.1303 22.4281 11.5912V28.3485M55.5336 37.5218H50.4363" stroke="black" stroke-width="2" stroke-miterlimit="10" stroke-linecap="round" stroke-linejoin="round"/>
<path d="M27.1346 37.5218H32.2318M63.6323 27.0508V11.5912C63.6323 10.1303 62.1902 8.85205 60.542 8.85205H25.5184C23.8702 8.85205 22.4281 10.1303 22.4281 11.5912V28.3485M55.5336 37.5218H50.4363" stroke="#FFCA42" stroke-width="2" stroke-miterlimit="10" stroke-linecap="round" stroke-linejoin="round"/>
<path d="M35.1445 32.774H29.8451C28.609 32.774 27.7849 32.0436 27.7849 30.9479V15.6087C27.7849 14.513 28.609 13.7826 29.8451 13.7826H49.0051C50.2412 13.7826 51.0653 14.513 51.0653 15.6087V30.9479C51.0653 31.861 50.2412 32.774 49.0051 32.774H47.5236" stroke="black" stroke-width="2" stroke-miterlimit="10" stroke-linecap="round" stroke-linejoin="round"/>
<path d="M35.1445 32.774H29.8451C28.609 32.774 27.7849 32.0436 27.7849 30.9479V15.6087C27.7849 14.513 28.609 13.7826 29.8451 13.7826H49.0051C50.2412 13.7826 51.0653 14.513 51.0653 15.6087V30.9479C51.0653 31.861 50.2412 32.774 49.0051 32.774H47.5236" stroke="#FFCA42" stroke-width="2" stroke-miterlimit="10" stroke-linecap="round" stroke-linejoin="round"/>
<path d="M49.2105 8.85237H34.789C34.789 7.02623 38.0853 5.74792 41.9997 5.74792C45.9142 5.74792 49.2105 7.20884 49.2105 8.85237Z" fill="#050219"/>
<path d="M49.2105 8.85237H34.789C34.789 7.02623 38.0853 5.74792 41.9997 5.74792C45.9142 5.74792 49.2105 7.20884 49.2105 8.85237Z" stroke="black" stroke-width="2" stroke-miterlimit="10" stroke-linecap="round" stroke-linejoin="round"/>
<path d="M49.2105 8.85237H34.789C34.789 7.02623 38.0853 5.74792 41.9997 5.74792C45.9142 5.74792 49.2105 7.20884 49.2105 8.85237Z" stroke="#FFCA42" stroke-width="2" stroke-miterlimit="10" stroke-linecap="round" stroke-linejoin="round"/>
<path d="M56.4213 1L45.7081 5.74783" stroke="black" stroke-width="2" stroke-miterlimit="10" stroke-linecap="round" stroke-linejoin="round"/>
<path d="M56.4213 1L45.7081 5.74783" stroke="#FFCA42" stroke-width="2" stroke-miterlimit="10" stroke-linecap="round" stroke-linejoin="round"/>
<path d="M27.7849 1L38.498 5.74783" stroke="black" stroke-width="2" stroke-miterlimit="10" stroke-linecap="round" stroke-linejoin="round"/>
<path d="M27.7849 1L38.498 5.74783" stroke="#FFCA42" stroke-width="2" stroke-miterlimit="10" stroke-linecap="round" stroke-linejoin="round"/>
<path d="M57.4514 18.1653C58.9306 18.1653 60.1297 17.1024 60.1297 15.7913C60.1297 14.4802 58.9306 13.4174 57.4514 13.4174C55.9723 13.4174 54.7732 14.4802 54.7732 15.7913C54.7732 17.1024 55.9723 18.1653 57.4514 18.1653Z" fill="#050219"/>
<path d="M57.4514 18.1653C58.9306 18.1653 60.1297 17.1024 60.1297 15.7913C60.1297 14.4802 58.9306 13.4174 57.4514 13.4174C55.9723 13.4174 54.7732 14.4802 54.7732 15.7913C54.7732 17.1024 55.9723 18.1653 57.4514 18.1653Z" stroke="black" stroke-width="2" stroke-miterlimit="10" stroke-linecap="round" stroke-linejoin="round"/>
<path d="M57.4514 18.1653C58.9306 18.1653 60.1297 17.1024 60.1297 15.7913C60.1297 14.4802 58.9306 13.4174 57.4514 13.4174C55.9723 13.4174 54.7732 14.4802 54.7732 15.7913C54.7732 17.1024 55.9723 18.1653 57.4514 18.1653Z" stroke="#FFCA42" stroke-width="2" stroke-miterlimit="10" stroke-linecap="round" stroke-linejoin="round"/>
<path d="M57.4514 25.47C58.9306 25.47 60.1297 24.4071 60.1297 23.096C60.1297 21.7849 58.9306 20.722 57.4514 20.722C55.9723 20.722 54.7732 21.7849 54.7732 23.096C54.7732 24.4071 55.9723 25.47 57.4514 25.47Z" fill="#050219"/>
<path d="M57.4514 25.47C58.9306 25.47 60.1297 24.4071 60.1297 23.096C60.1297 21.7849 58.9306 20.722 57.4514 20.722C55.9723 20.722 54.7732 21.7849 54.7732 23.096C54.7732 24.4071 55.9723 25.47 57.4514 25.47Z" stroke="black" stroke-width="2" stroke-miterlimit="10" stroke-linecap="round" stroke-linejoin="round"/>
<path d="M57.4514 25.47C58.9306 25.47 60.1297 24.4071 60.1297 23.096C60.1297 21.7849 58.9306 20.722 57.4514 20.722C55.9723 20.722 54.7732 21.7849 54.7732 23.096C54.7732 24.4071 55.9723 25.47 57.4514 25.47Z" stroke="#FFCA42" stroke-width="2" stroke-miterlimit="10" stroke-linecap="round" stroke-linejoin="round"/>
<path d="M41.3819 46.4699C46.2746 46.4699 50.2408 42.9543 50.2408 38.6176C50.2408 34.2809 46.2746 30.7654 41.3819 30.7654C36.4893 30.7654 32.523 34.2809 32.523 38.6176C32.523 42.9543 36.4893 46.4699 41.3819 46.4699Z" fill="#050219"/>
<path d="M41.3819 46.4699C46.2746 46.4699 50.2408 42.9543 50.2408 38.6176C50.2408 34.2809 46.2746 30.7654 41.3819 30.7654C36.4893 30.7654 32.523 34.2809 32.523 38.6176C32.523 42.9543 36.4893 46.4699 41.3819 46.4699Z" stroke="black" stroke-width="2" stroke-miterlimit="10"/>
<path d="M41.3819 46.4699C46.2746 46.4699 50.2408 42.9543 50.2408 38.6176C50.2408 34.2809 46.2746 30.7654 41.3819 30.7654C36.4893 30.7654 32.523 34.2809 32.523 38.6176C32.523 42.9543 36.4893 46.4699 41.3819 46.4699Z" stroke="#FFCA42" stroke-width="2" stroke-miterlimit="10"/>
<path d="M16.6597 45.1912C22.2351 45.1912 26.7548 41.1851 26.7548 36.2433C26.7548 31.3015 22.2351 27.2954 16.6597 27.2954C11.0844 27.2954 6.56469 31.3015 6.56469 36.2433C6.56469 41.1851 11.0844 45.1912 16.6597 45.1912Z" fill="#050219"/>
<path d="M16.6597 45.1912C22.2351 45.1912 26.7548 41.1851 26.7548 36.2433C26.7548 31.3015 22.2351 27.2954 16.6597 27.2954C11.0844 27.2954 6.56469 31.3015 6.56469 36.2433C6.56469 41.1851 11.0844 45.1912 16.6597 45.1912Z" stroke="black" stroke-width="2" stroke-miterlimit="10"/>
<path d="M16.6597 45.1912C22.2351 45.1912 26.7548 41.1851 26.7548 36.2433C26.7548 31.3015 22.2351 27.2954 16.6597 27.2954C11.0844 27.2954 6.56469 31.3015 6.56469 36.2433C6.56469 41.1851 11.0844 45.1912 16.6597 45.1912Z" stroke="#FFCA42" stroke-width="2" stroke-miterlimit="10"/>
<path d="M66.1048 45.1912C71.6801 45.1912 76.1998 41.1851 76.1998 36.2433C76.1998 31.3015 71.6801 27.2954 66.1048 27.2954C60.5294 27.2954 56.0097 31.3015 56.0097 36.2433C56.0097 41.1851 60.5294 45.1912 66.1048 45.1912Z" fill="#050219"/>
<path d="M66.1048 45.1912C71.6801 45.1912 76.1998 41.1851 76.1998 36.2433C76.1998 31.3015 71.6801 27.2954 66.1048 27.2954C60.5294 27.2954 56.0097 31.3015 56.0097 36.2433C56.0097 41.1851 60.5294 45.1912 66.1048 45.1912Z" stroke="black" stroke-width="2" stroke-miterlimit="10"/>
<path d="M66.1048 45.1912C71.6801 45.1912 76.1998 41.1851 76.1998 36.2433C76.1998 31.3015 71.6801 27.2954 66.1048 27.2954C60.5294 27.2954 56.0097 31.3015 56.0097 36.2433C56.0097 41.1851 60.5294 45.1912 66.1048 45.1912Z" stroke="#FFCA42" stroke-width="2" stroke-miterlimit="10"/>
<path d="M31.0811 48.6616C32.3172 47.0181 33.7594 45.7398 35.6136 44.8268Z" fill="#050219"/>
<path d="M31.0811 48.6616C32.3172 47.0181 33.7594 45.7398 35.6136 44.8268" stroke="black" stroke-width="2" stroke-miterlimit="10"/>
<path d="M31.0811 48.6616C32.3172 47.0181 33.7594 45.7398 35.6136 44.8268" stroke="#FFCA42" stroke-width="2" stroke-miterlimit="10"/>
<path d="M53.949 54.5049C48.5925 54.5049 37.6733 54.5049 32.3168 54.5049C31.6987 54.5049 31.0807 54.5049 30.4626 54.5049" fill="#050219"/>
<path d="M53.949 54.5049C48.5925 54.5049 37.6733 54.5049 32.3168 54.5049C31.6987 54.5049 31.0807 54.5049 30.4626 54.5049" stroke="black" stroke-width="2" stroke-miterlimit="10"/>
<path d="M53.949 54.5049C48.5925 54.5049 37.6733 54.5049 32.3168 54.5049C31.6987 54.5049 31.0807 54.5049 30.4626 54.5049" stroke="#FFCA42" stroke-width="2" stroke-miterlimit="10"/>
<path d="M47.9747 44.2782C50.447 45.1912 52.3012 46.8347 53.5373 48.6608Z" fill="#050219"/>
<path d="M47.9747 44.2782C50.447 45.1912 52.3012 46.8347 53.5373 48.6608" stroke="black" stroke-width="2" stroke-miterlimit="10"/>
<path d="M47.9747 44.2782C50.447 45.1912 52.3012 46.8347 53.5373 48.6608" stroke="#FFCA42" stroke-width="2" stroke-miterlimit="10"/>
<path d="M24.0761 42.8176C28.6085 44.6437 31.6989 48.4785 32.5229 52.8612C32.729 53.7742 31.9049 54.5047 30.8748 54.5047C25.3122 54.5047 9.44855 54.5047 3.67995 54.5047C2.64985 54.5047 1.82576 53.5916 2.03178 52.8612C3.06189 48.4785 6.88414 44.6437 10.3865 42.8176" fill="#050219"/>
<path d="M24.0761 42.8176C28.6085 44.6437 31.6989 48.4785 32.5229 52.8612C32.729 53.7742 31.9049 54.5047 30.8748 54.5047C25.3122 54.5047 9.44855 54.5047 3.67995 54.5047C2.64985 54.5047 1.82576 53.5916 2.03178 52.8612C3.06189 48.4785 6.88414 44.6437 10.3865 42.8176" stroke="black" stroke-width="2" stroke-miterlimit="10"/>
<path d="M24.0761 42.8176C28.6085 44.6437 31.6989 48.4785 32.5229 52.8612C32.729 53.7742 31.9049 54.5047 30.8748 54.5047C25.3122 54.5047 9.44855 54.5047 3.67995 54.5047C2.64985 54.5047 1.82576 53.5916 2.03178 52.8612C3.06189 48.4785 6.88414 44.6437 10.3865 42.8176" stroke="#FFCA42" stroke-width="2" stroke-miterlimit="10"/>
<path d="M73.5213 42.8176C78.0538 44.6437 81.1441 48.4785 81.9682 52.8612C82.1742 53.7742 81.3501 54.5047 80.32 54.5047C74.7575 54.5047 58.8938 54.5047 53.1252 54.5047C52.0951 54.5047 51.271 53.5916 51.4771 52.8612C52.5072 48.4785 54.8056 45.2188 59.1747 42.8176" fill="#050219"/>
<path d="M73.5213 42.8176C78.0538 44.6437 81.1441 48.4785 81.9682 52.8612C82.1742 53.7742 81.3501 54.5047 80.32 54.5047C74.7575 54.5047 58.8938 54.5047 53.1252 54.5047C52.0951 54.5047 51.271 53.5916 51.4771 52.8612C52.5072 48.4785 54.8056 45.2188 59.1747 42.8176" stroke="black" stroke-width="2" stroke-miterlimit="10"/>
<path d="M73.5213 42.8176C78.0538 44.6437 81.1441 48.4785 81.9682 52.8612C82.1742 53.7742 81.3501 54.5047 80.32 54.5047C74.7575 54.5047 58.8938 54.5047 53.1252 54.5047C52.0951 54.5047 51.271 53.5916 51.4771 52.8612C52.5072 48.4785 54.8056 45.2188 59.1747 42.8176" stroke="#FFCA42" stroke-width="2" stroke-miterlimit="10"/>
</svg>
